M48
METRIC,LZ,000.000
;FILE_FORMAT=3:3
;TYPE=PLATED
;Layer: PTH_Through
;EasyEDA v6.5.23, 2023-06-02 23:09:48
;d308aba9936446f186570843c5913f8e,38d8b063065d407b859bfb9f5f9b4720,10
;Gerber Generator version 0.2
;Holesize 1 = 0.600 mm
T01C0.600
;Holesize 2 = 0.751 mm
T02C0.751
;Holesize 3 = 0.762 mm
T03C0.762
;Holesize 4 = 0.800 mm
T04C0.800
;Holesize 5 = 1.000 mm
T05C1.000
;Holesize 6 = 1.016 mm
T06C1.016
;Holesize 7 = 1.101 mm
T07C1.101
;Holesize 8 = 1.200 mm
T08C1.200
%
G05
G90
T01
X117983Y091186
X120523Y091186
X073787Y078105
X076327Y078105
X080899Y078105
X083439Y078105
T02
X128651Y087329
X128651Y097329
T03
X086485Y057130
X091819Y057130
X120648Y057130
X125982Y057130
T04
X103859Y057150
X108739Y057150
T05
X074966Y091813G85X074966Y089813
X078466Y094313G85X080466Y094313
X078466Y088313G85X080466Y088313
X156591Y062865G85X156591Y062865
X159131Y062865G85X159131Y062865
X161671Y062865G85X161671Y062865
X164211Y062865G85X164211Y062865
X166751Y062865G85X166751Y062865
X045720Y062865G85X045720Y062865
X048260Y062865G85X048260Y062865
X050800Y062865G85X050800Y062865
X053340Y062865G85X053340Y062865
X055880Y062865G85X055880Y062865
X094911Y072355
X097451Y072355
X099991Y072355
X102531Y072355
X105071Y072355
X107611Y072355
X110151Y072355
X110151Y064735
X092371Y072355
X089831Y072355
X107611Y064735
X105071Y064735
X102531Y064735
X099991Y064735
X097451Y064735
X094911Y064735
X092371Y064735
X089831Y064735
X112691Y064735
X115231Y064735
X117771Y064735
X120311Y064735
X122851Y064735
X122851Y072355
X120311Y072355
X117771Y072355
X115231Y072355
X112691Y072355
T06
X133274Y094590
X139776Y094590
X133274Y090068
X139776Y090068
X102719Y091697G85X102719Y091691
X102719Y094237G85X102719Y094231
X105259Y091697G85X105259Y091691
X105259Y094237G85X105259Y094231
X107799Y091697G85X107799Y091691
X107799Y094237G85X107799Y094231
X110339Y091697G85X110339Y091691
X110339Y094237G85X110339Y094231
T07
X140462Y068395
X137922Y068395
X135382Y068395
X132842Y068395
X130302Y068395
T08
X089535Y096520
X092075Y096520
M30
