G04 Layer: BottomSolderMaskLayer*
G04 EasyEDA v6.5.23, 2023-06-02 23:09:48*
G04 d308aba9936446f186570843c5913f8e,38d8b063065d407b859bfb9f5f9b4720,10*
G04 Gerber Generator version 0.2*
G04 Scale: 100 percent, Rotated: No, Reflected: No *
G04 Dimensions in millimeters *
G04 leading zeros omitted , absolute positions ,4 integer and 5 decimal *
%FSLAX45Y45*%
%MOMM*%

%AMMACRO1*1,1,$1,$2,$3*1,1,$1,$4,$5*1,1,$1,0-$2,0-$3*1,1,$1,0-$4,0-$5*20,1,$1,$2,$3,$4,$5,0*20,1,$1,$4,$5,0-$2,0-$3,0*20,1,$1,0-$2,0-$3,0-$4,0-$5,0*20,1,$1,0-$4,0-$5,$2,$3,0*4,1,4,$2,$3,$4,$5,0-$2,0-$3,0-$4,0-$5,$2,$3,0*%
%ADD10MACRO1,0.1016X0.85X-0.85X-0.85X-0.85*%
%ADD11C,1.8016*%
%ADD12C,2.2032*%
%ADD13O,2.0200112X4.5200062*%
%ADD14O,4.5200062X2.0200112*%
%ADD15C,1.7032*%
%ADD16MACRO1,0.2032X-0.754X-0.754X-0.754X0.754*%
%ADD17C,1.7112*%
%ADD18MACRO1,0.1016X-1X1X1X1*%
%ADD19C,2.1016*%
%ADD20C,2.0828*%
%ADD21O,1.7015968000000001X1.7015968000000001*%
%ADD22MACRO1,0.1016X-0.8X-0.8X-0.8X0.8*%
%ADD23C,1.6016*%
%ADD24MACRO1,0.2032X0.762X0.762X0.762X-0.762*%
%ADD25C,1.7272*%

%LPD*%
D10*
G01*
X14046200Y6839452D03*
D11*
G01*
X13792200Y6839458D03*
G01*
X13538200Y6839458D03*
G01*
X13284200Y6839458D03*
G01*
X13030200Y6839458D03*
D12*
G01*
X11798300Y9118600D03*
G01*
X12052300Y9118600D03*
D13*
G01*
X7496606Y9081312D03*
D14*
G01*
X7946593Y9431299D03*
G01*
X7946593Y8831300D03*
D15*
G01*
X12865100Y8732901D03*
G01*
X12865100Y9732899D03*
D16*
G01*
X15659100Y6286500D03*
D17*
G01*
X15913100Y6286500D03*
G01*
X16167100Y6286500D03*
G01*
X16421100Y6286500D03*
G01*
X16675100Y6286500D03*
D16*
G01*
X4572000Y6286500D03*
D17*
G01*
X4826000Y6286500D03*
G01*
X5080000Y6286500D03*
G01*
X5334000Y6286500D03*
G01*
X5588000Y6286500D03*
D18*
G01*
X8953500Y9652000D03*
D19*
G01*
X9207500Y9652000D03*
D20*
G01*
X13327379Y9458960D03*
G01*
X13977620Y9458960D03*
G01*
X13327379Y9006839D03*
G01*
X13977620Y9006839D03*
D21*
G01*
X9491141Y7235444D03*
G01*
X9745141Y7235444D03*
G01*
X9999141Y7235444D03*
G01*
X10253141Y7235444D03*
G01*
X10507141Y7235444D03*
G01*
X10761141Y7235444D03*
G01*
X11015141Y7235444D03*
G01*
X11015141Y6473444D03*
G01*
X9237141Y7235444D03*
G01*
X8983141Y7235444D03*
G01*
X10761141Y6473444D03*
G01*
X10507141Y6473444D03*
G01*
X10253141Y6473444D03*
G01*
X9999141Y6473444D03*
G01*
X9745141Y6473444D03*
G01*
X9491141Y6473444D03*
G01*
X9237141Y6473444D03*
D22*
G01*
X8983146Y6473454D03*
D21*
G01*
X11269141Y6473444D03*
G01*
X11523141Y6473444D03*
G01*
X11777141Y6473444D03*
G01*
X12031141Y6473444D03*
G01*
X12285141Y6473444D03*
G01*
X12285141Y7235444D03*
G01*
X12031141Y7235444D03*
G01*
X11777141Y7235444D03*
G01*
X11523141Y7235444D03*
G01*
X11269141Y7235444D03*
D23*
G01*
X10385907Y5715000D03*
G01*
X10873892Y5715000D03*
D24*
G01*
X10271899Y9169400D03*
D25*
G01*
X10271912Y9423400D03*
G01*
X10525912Y9169400D03*
G01*
X10525912Y9423400D03*
G01*
X10779912Y9169400D03*
G01*
X10779912Y9423400D03*
G01*
X11033912Y9169400D03*
G01*
X11033912Y9423400D03*
D12*
G01*
X7378700Y7810500D03*
G01*
X7632700Y7810500D03*
G01*
X8089900Y7810500D03*
G01*
X8343900Y7810500D03*
G01*
X8648522Y5712968D03*
G01*
X9181922Y5712968D03*
G01*
X12064822Y5712968D03*
G01*
X12598222Y5712968D03*
M02*
