G04 Layer: TopSilkscreenLayer*
G04 EasyEDA v6.5.23, 2023-06-02 23:09:48*
G04 d308aba9936446f186570843c5913f8e,38d8b063065d407b859bfb9f5f9b4720,10*
G04 Gerber Generator version 0.2*
G04 Scale: 100 percent, Rotated: No, Reflected: No *
G04 Dimensions in millimeters *
G04 leading zeros omitted , absolute positions ,4 integer and 5 decimal *
%FSLAX45Y45*%
%MOMM*%

%ADD10C,0.1524*%
%ADD11C,0.2000*%
%ADD12C,0.2032*%
%ADD13C,0.2540*%
%ADD14C,0.1000*%
%ADD15C,0.1270*%
%ADD16C,0.6000*%
%ADD17C,0.2500*%
%ADD18C,0.0157*%

%LPD*%
D10*
X8839200Y9424415D02*
G01*
X8880856Y9315450D01*
X8922258Y9424415D02*
G01*
X8880856Y9315450D01*
X8956547Y9424415D02*
G01*
X8961881Y9419336D01*
X8966961Y9424415D01*
X8961881Y9429750D01*
X8956547Y9424415D01*
X8961881Y9388094D02*
G01*
X8961881Y9315450D01*
X9001252Y9388094D02*
G01*
X9001252Y9315450D01*
X9001252Y9367265D02*
G01*
X9017000Y9382760D01*
X9027159Y9388094D01*
X9042908Y9388094D01*
X9053322Y9382760D01*
X9058402Y9367265D01*
X9058402Y9315450D01*
X9260077Y9398508D02*
G01*
X9254743Y9408921D01*
X9244329Y9419336D01*
X9234170Y9424415D01*
X9213341Y9424415D01*
X9202927Y9419336D01*
X9192513Y9408921D01*
X9187179Y9398508D01*
X9182100Y9382760D01*
X9182100Y9356852D01*
X9187179Y9341358D01*
X9192513Y9330944D01*
X9202927Y9320529D01*
X9213341Y9315450D01*
X9234170Y9315450D01*
X9244329Y9320529D01*
X9254743Y9330944D01*
X9260077Y9341358D01*
X9260077Y9356852D01*
X9234170Y9356852D02*
G01*
X9260077Y9356852D01*
X9260077Y9944608D02*
G01*
X9254743Y9955021D01*
X9244329Y9965436D01*
X9234170Y9970515D01*
X9213341Y9970515D01*
X9202927Y9965436D01*
X9192513Y9955021D01*
X9187179Y9944608D01*
X9182100Y9928860D01*
X9182100Y9902952D01*
X9187179Y9887458D01*
X9192513Y9877044D01*
X9202927Y9866629D01*
X9213341Y9861550D01*
X9234170Y9861550D01*
X9244329Y9866629D01*
X9254743Y9877044D01*
X9260077Y9887458D01*
X9260077Y9902952D01*
X9234170Y9902952D02*
G01*
X9260077Y9902952D01*
X8839200Y9970515D02*
G01*
X8880856Y9861550D01*
X8922258Y9970515D02*
G01*
X8880856Y9861550D01*
X8956547Y9970515D02*
G01*
X8961881Y9965436D01*
X8966961Y9970515D01*
X8961881Y9975850D01*
X8956547Y9970515D01*
X8961881Y9934194D02*
G01*
X8961881Y9861550D01*
X9001252Y9934194D02*
G01*
X9001252Y9861550D01*
X9001252Y9913365D02*
G01*
X9017000Y9928860D01*
X9027159Y9934194D01*
X9042908Y9934194D01*
X9053322Y9928860D01*
X9058402Y9913365D01*
X9058402Y9861550D01*
D11*
X2877312Y4570221D02*
G01*
X2877312Y4331715D01*
X2877312Y4570221D02*
G01*
X2979673Y4570221D01*
X3013710Y4558792D01*
X3025139Y4547615D01*
X3036315Y4524755D01*
X3036315Y4502150D01*
X3025139Y4479289D01*
X3013710Y4468113D01*
X2979673Y4456684D01*
X2877312Y4456684D01*
X2956813Y4456684D02*
G01*
X3036315Y4331715D01*
X3281934Y4513579D02*
G01*
X3270504Y4536186D01*
X3247644Y4558792D01*
X3225037Y4570221D01*
X3179571Y4570221D01*
X3156965Y4558792D01*
X3134105Y4536186D01*
X3122676Y4513579D01*
X3111500Y4479289D01*
X3111500Y4422647D01*
X3122676Y4388357D01*
X3134105Y4365752D01*
X3156965Y4342892D01*
X3179571Y4331715D01*
X3225037Y4331715D01*
X3247644Y4342892D01*
X3270504Y4365752D01*
X3281934Y4388357D01*
X3668268Y4456684D02*
G01*
X3645407Y4479289D01*
X3622802Y4490720D01*
X3588765Y4490720D01*
X3565905Y4479289D01*
X3543300Y4456684D01*
X3531870Y4422647D01*
X3531870Y4399787D01*
X3543300Y4365752D01*
X3565905Y4342892D01*
X3588765Y4331715D01*
X3622802Y4331715D01*
X3645407Y4342892D01*
X3668268Y4365752D01*
X3879595Y4490720D02*
G01*
X3879595Y4331715D01*
X3879595Y4456684D02*
G01*
X3856736Y4479289D01*
X3834129Y4490720D01*
X3800093Y4490720D01*
X3777234Y4479289D01*
X3754628Y4456684D01*
X3743197Y4422647D01*
X3743197Y4399787D01*
X3754628Y4365752D01*
X3777234Y4342892D01*
X3800093Y4331715D01*
X3834129Y4331715D01*
X3856736Y4342892D01*
X3879595Y4365752D01*
X3954525Y4490720D02*
G01*
X3954525Y4331715D01*
X3954525Y4422647D02*
G01*
X3965956Y4456684D01*
X3988561Y4479289D01*
X4011422Y4490720D01*
X4045458Y4490720D01*
X4431791Y4456684D02*
G01*
X4409186Y4479289D01*
X4386325Y4490720D01*
X4352290Y4490720D01*
X4329684Y4479289D01*
X4306824Y4456684D01*
X4295393Y4422647D01*
X4295393Y4399787D01*
X4306824Y4365752D01*
X4329684Y4342892D01*
X4352290Y4331715D01*
X4386325Y4331715D01*
X4409186Y4342892D01*
X4431791Y4365752D01*
X4563618Y4490720D02*
G01*
X4541011Y4479289D01*
X4518152Y4456684D01*
X4506975Y4422647D01*
X4506975Y4399787D01*
X4518152Y4365752D01*
X4541011Y4342892D01*
X4563618Y4331715D01*
X4597654Y4331715D01*
X4620513Y4342892D01*
X4643120Y4365752D01*
X4654550Y4399787D01*
X4654550Y4422647D01*
X4643120Y4456684D01*
X4620513Y4479289D01*
X4597654Y4490720D01*
X4563618Y4490720D01*
X4729479Y4490720D02*
G01*
X4729479Y4331715D01*
X4729479Y4445254D02*
G01*
X4763770Y4479289D01*
X4786375Y4490720D01*
X4820411Y4490720D01*
X4843272Y4479289D01*
X4854702Y4445254D01*
X4854702Y4331715D01*
X4963668Y4570221D02*
G01*
X4963668Y4377181D01*
X4975097Y4342892D01*
X4997704Y4331715D01*
X5020563Y4331715D01*
X4929631Y4490720D02*
G01*
X5009134Y4490720D01*
X5095493Y4490720D02*
G01*
X5095493Y4331715D01*
X5095493Y4422647D02*
G01*
X5106924Y4456684D01*
X5129529Y4479289D01*
X5152390Y4490720D01*
X5186425Y4490720D01*
X5318252Y4490720D02*
G01*
X5295391Y4479289D01*
X5272786Y4456684D01*
X5261356Y4422647D01*
X5261356Y4399787D01*
X5272786Y4365752D01*
X5295391Y4342892D01*
X5318252Y4331715D01*
X5352288Y4331715D01*
X5375147Y4342892D01*
X5397754Y4365752D01*
X5409184Y4399787D01*
X5409184Y4422647D01*
X5397754Y4456684D01*
X5375147Y4479289D01*
X5352288Y4490720D01*
X5318252Y4490720D01*
X5484113Y4570221D02*
G01*
X5484113Y4331715D01*
X5559043Y4570221D02*
G01*
X5559043Y4331715D01*
X5634227Y4422647D02*
G01*
X5770372Y4422647D01*
X5770372Y4445254D01*
X5759195Y4468113D01*
X5747765Y4479289D01*
X5725159Y4490720D01*
X5690870Y4490720D01*
X5668263Y4479289D01*
X5645404Y4456684D01*
X5634227Y4422647D01*
X5634227Y4399787D01*
X5645404Y4365752D01*
X5668263Y4342892D01*
X5690870Y4331715D01*
X5725159Y4331715D01*
X5747765Y4342892D01*
X5770372Y4365752D01*
X5845556Y4490720D02*
G01*
X5845556Y4331715D01*
X5845556Y4422647D02*
G01*
X5856731Y4456684D01*
X5879591Y4479289D01*
X5902197Y4490720D01*
X5936488Y4490720D01*
X6186424Y4570221D02*
G01*
X6277356Y4331715D01*
X6368288Y4570221D02*
G01*
X6277356Y4331715D01*
X6443218Y4524755D02*
G01*
X6465824Y4536186D01*
X6500113Y4570221D01*
X6500113Y4331715D01*
X6586474Y4388357D02*
G01*
X6575043Y4377181D01*
X6586474Y4365752D01*
X6597650Y4377181D01*
X6586474Y4388357D01*
X6740906Y4570221D02*
G01*
X6706870Y4558792D01*
X6684009Y4524755D01*
X6672834Y4468113D01*
X6672834Y4433823D01*
X6684009Y4377181D01*
X6706870Y4342892D01*
X6740906Y4331715D01*
X6763765Y4331715D01*
X6797802Y4342892D01*
X6820408Y4377181D01*
X6831838Y4433823D01*
X6831838Y4468113D01*
X6820408Y4524755D01*
X6797802Y4558792D01*
X6763765Y4570221D01*
X6740906Y4570221D01*
X3048000Y4126484D02*
G01*
X3048000Y3983228D01*
X3048000Y4126484D02*
G01*
X3095752Y4126484D01*
X3116071Y4119626D01*
X3129787Y4105910D01*
X3136645Y4092447D01*
X3143504Y4071873D01*
X3143504Y4037837D01*
X3136645Y4017263D01*
X3129787Y4003802D01*
X3116071Y3990086D01*
X3095752Y3983228D01*
X3048000Y3983228D01*
X3188462Y4037837D02*
G01*
X3270250Y4037837D01*
X3270250Y4051554D01*
X3263392Y4065015D01*
X3256534Y4071873D01*
X3243071Y4078731D01*
X3222497Y4078731D01*
X3208781Y4071873D01*
X3195320Y4058157D01*
X3188462Y4037837D01*
X3188462Y4024121D01*
X3195320Y4003802D01*
X3208781Y3990086D01*
X3222497Y3983228D01*
X3243071Y3983228D01*
X3256534Y3990086D01*
X3270250Y4003802D01*
X3390392Y4058157D02*
G01*
X3383534Y4071873D01*
X3362960Y4078731D01*
X3342639Y4078731D01*
X3322065Y4071873D01*
X3315207Y4058157D01*
X3322065Y4044695D01*
X3335781Y4037837D01*
X3369818Y4030979D01*
X3383534Y4024121D01*
X3390392Y4010660D01*
X3390392Y4003802D01*
X3383534Y3990086D01*
X3362960Y3983228D01*
X3342639Y3983228D01*
X3322065Y3990086D01*
X3315207Y4003802D01*
X3435350Y4126484D02*
G01*
X3442207Y4119626D01*
X3448812Y4126484D01*
X3442207Y4133342D01*
X3435350Y4126484D01*
X3442207Y4078731D02*
G01*
X3442207Y3983228D01*
X3575812Y4078731D02*
G01*
X3575812Y3969765D01*
X3568954Y3949192D01*
X3562095Y3942334D01*
X3548379Y3935476D01*
X3528060Y3935476D01*
X3514344Y3942334D01*
X3575812Y4058157D02*
G01*
X3562095Y4071873D01*
X3548379Y4078731D01*
X3528060Y4078731D01*
X3514344Y4071873D01*
X3500628Y4058157D01*
X3494023Y4037837D01*
X3494023Y4024121D01*
X3500628Y4003802D01*
X3514344Y3990086D01*
X3528060Y3983228D01*
X3548379Y3983228D01*
X3562095Y3990086D01*
X3575812Y4003802D01*
X3620770Y4078731D02*
G01*
X3620770Y3983228D01*
X3620770Y4051554D02*
G01*
X3641089Y4071873D01*
X3654805Y4078731D01*
X3675379Y4078731D01*
X3688842Y4071873D01*
X3695700Y4051554D01*
X3695700Y3983228D01*
X3740657Y4037837D02*
G01*
X3822445Y4037837D01*
X3822445Y4051554D01*
X3815841Y4065015D01*
X3808984Y4071873D01*
X3795268Y4078731D01*
X3774693Y4078731D01*
X3761231Y4071873D01*
X3747515Y4058157D01*
X3740657Y4037837D01*
X3740657Y4024121D01*
X3747515Y4003802D01*
X3761231Y3990086D01*
X3774693Y3983228D01*
X3795268Y3983228D01*
X3808984Y3990086D01*
X3822445Y4003802D01*
X3949445Y4126484D02*
G01*
X3949445Y3983228D01*
X3949445Y4058157D02*
G01*
X3935729Y4071873D01*
X3922013Y4078731D01*
X3901693Y4078731D01*
X3887977Y4071873D01*
X3874261Y4058157D01*
X3867658Y4037837D01*
X3867658Y4024121D01*
X3874261Y4003802D01*
X3887977Y3990086D01*
X3901693Y3983228D01*
X3922013Y3983228D01*
X3935729Y3990086D01*
X3949445Y4003802D01*
X4099306Y4126484D02*
G01*
X4099306Y3983228D01*
X4099306Y4058157D02*
G01*
X4113022Y4071873D01*
X4126738Y4078731D01*
X4147058Y4078731D01*
X4160774Y4071873D01*
X4174236Y4058157D01*
X4181093Y4037837D01*
X4181093Y4024121D01*
X4174236Y4003802D01*
X4160774Y3990086D01*
X4147058Y3983228D01*
X4126738Y3983228D01*
X4113022Y3990086D01*
X4099306Y4003802D01*
X4232909Y4078731D02*
G01*
X4273804Y3983228D01*
X4314697Y4078731D02*
G01*
X4273804Y3983228D01*
X4260341Y3956050D01*
X4246625Y3942334D01*
X4232909Y3935476D01*
X4226306Y3935476D01*
X4464811Y4126484D02*
G01*
X4464811Y3983228D01*
X4560315Y4126484D02*
G01*
X4560315Y3983228D01*
X4464811Y4058157D02*
G01*
X4560315Y4058157D01*
X4605274Y4078731D02*
G01*
X4605274Y4010660D01*
X4612131Y3990086D01*
X4625847Y3983228D01*
X4646168Y3983228D01*
X4659884Y3990086D01*
X4680204Y4010660D01*
X4680204Y4078731D02*
G01*
X4680204Y3983228D01*
X4800345Y4058157D02*
G01*
X4793488Y4071873D01*
X4772913Y4078731D01*
X4752593Y4078731D01*
X4732020Y4071873D01*
X4725161Y4058157D01*
X4732020Y4044695D01*
X4745736Y4037837D01*
X4779772Y4030979D01*
X4793488Y4024121D01*
X4800345Y4010660D01*
X4800345Y4003802D01*
X4793488Y3990086D01*
X4772913Y3983228D01*
X4752593Y3983228D01*
X4732020Y3990086D01*
X4725161Y4003802D01*
X4845304Y4126484D02*
G01*
X4845304Y3983228D01*
X4845304Y4051554D02*
G01*
X4865624Y4071873D01*
X4879340Y4078731D01*
X4899913Y4078731D01*
X4913375Y4071873D01*
X4920234Y4051554D01*
X4920234Y3983228D01*
X4965191Y4126484D02*
G01*
X4965191Y3983228D01*
X5033518Y4078731D02*
G01*
X4965191Y4010660D01*
X4992624Y4037837D02*
G01*
X5040375Y3983228D01*
X5085334Y4126484D02*
G01*
X5092191Y4119626D01*
X5098795Y4126484D01*
X5092191Y4133342D01*
X5085334Y4126484D01*
X5092191Y4078731D02*
G01*
X5092191Y3983228D01*
X5385308Y4065015D02*
G01*
X5385308Y4071873D01*
X5378450Y4078731D01*
X5371591Y4078731D01*
X5364734Y4071873D01*
X5357875Y4058157D01*
X5344413Y4024121D01*
X5330697Y4003802D01*
X5316981Y3990086D01*
X5303520Y3983228D01*
X5276088Y3983228D01*
X5262625Y3990086D01*
X5255768Y3996944D01*
X5248909Y4010660D01*
X5248909Y4024121D01*
X5255768Y4037837D01*
X5262625Y4044695D01*
X5310377Y4071873D01*
X5316981Y4078731D01*
X5323840Y4092447D01*
X5323840Y4105910D01*
X5316981Y4119626D01*
X5303520Y4126484D01*
X5289804Y4119626D01*
X5282945Y4105910D01*
X5282945Y4092447D01*
X5289804Y4071873D01*
X5303520Y4051554D01*
X5337556Y4003802D01*
X5351272Y3990086D01*
X5364734Y3983228D01*
X5378450Y3983228D01*
X5385308Y3990086D01*
X5385308Y3996944D01*
X5535168Y4126484D02*
G01*
X5535168Y3983228D01*
X5535168Y4126484D02*
G01*
X5623813Y4126484D01*
X5535168Y4058157D02*
G01*
X5589777Y4058157D01*
X5535168Y3983228D02*
G01*
X5623813Y3983228D01*
X5669025Y4078731D02*
G01*
X5669025Y3983228D01*
X5669025Y4051554D02*
G01*
X5689345Y4071873D01*
X5703061Y4078731D01*
X5723381Y4078731D01*
X5737097Y4071873D01*
X5743956Y4051554D01*
X5743956Y3983228D01*
X5743956Y4051554D02*
G01*
X5764275Y4071873D01*
X5777991Y4078731D01*
X5798565Y4078731D01*
X5812027Y4071873D01*
X5818886Y4051554D01*
X5818886Y3983228D01*
X5945631Y4078731D02*
G01*
X5945631Y3983228D01*
X5945631Y4058157D02*
G01*
X5932170Y4071873D01*
X5918454Y4078731D01*
X5897879Y4078731D01*
X5884418Y4071873D01*
X5870702Y4058157D01*
X5863843Y4037837D01*
X5863843Y4024121D01*
X5870702Y4003802D01*
X5884418Y3990086D01*
X5897879Y3983228D01*
X5918454Y3983228D01*
X5932170Y3990086D01*
X5945631Y4003802D01*
X6072631Y4126484D02*
G01*
X6072631Y3983228D01*
X6072631Y4058157D02*
G01*
X6058915Y4071873D01*
X6045200Y4078731D01*
X6024879Y4078731D01*
X6011163Y4071873D01*
X5997447Y4058157D01*
X5990843Y4037837D01*
X5990843Y4024121D01*
X5997447Y4003802D01*
X6011163Y3990086D01*
X6024879Y3983228D01*
X6045200Y3983228D01*
X6058915Y3990086D01*
X6072631Y4003802D01*
D10*
X12973050Y7187437D02*
G01*
X12973050Y7091934D01*
X12941300Y7187437D02*
G01*
X13005054Y7187437D01*
X13035025Y7155687D02*
G01*
X13084809Y7091934D01*
X13084809Y7155687D02*
G01*
X13035025Y7091934D01*
X13208000Y7187437D02*
G01*
X13208000Y7091934D01*
X13208000Y7187437D02*
G01*
X13248893Y7187437D01*
X13262609Y7182865D01*
X13267181Y7178294D01*
X13271754Y7169404D01*
X13271754Y7160260D01*
X13267181Y7151115D01*
X13262609Y7146544D01*
X13248893Y7141971D01*
X13208000Y7141971D01*
X13239750Y7141971D02*
G01*
X13271754Y7091934D01*
X13301725Y7155687D02*
G01*
X13351509Y7091934D01*
X13351509Y7155687D02*
G01*
X13301725Y7091934D01*
X13436600Y7187437D02*
G01*
X13436600Y7091934D01*
X13436600Y7187437D02*
G01*
X13477493Y7187437D01*
X13491209Y7182865D01*
X13495781Y7178294D01*
X13500354Y7169404D01*
X13500354Y7160260D01*
X13495781Y7151115D01*
X13491209Y7146544D01*
X13477493Y7141971D01*
X13436600Y7141971D01*
X13468350Y7141971D02*
G01*
X13500354Y7091934D01*
X13580109Y7141971D02*
G01*
X13575791Y7151115D01*
X13562075Y7155687D01*
X13548359Y7155687D01*
X13534897Y7151115D01*
X13530325Y7141971D01*
X13534897Y7133081D01*
X13543788Y7128510D01*
X13566647Y7123937D01*
X13575791Y7119365D01*
X13580109Y7110221D01*
X13580109Y7105650D01*
X13575791Y7096505D01*
X13562075Y7091934D01*
X13548359Y7091934D01*
X13534897Y7096505D01*
X13530325Y7105650D01*
X13623797Y7187437D02*
G01*
X13623797Y7110221D01*
X13628370Y7096505D01*
X13637513Y7091934D01*
X13646658Y7091934D01*
X13610336Y7155687D02*
G01*
X13642086Y7155687D01*
X13783309Y7187437D02*
G01*
X13737843Y7187437D01*
X13733272Y7146544D01*
X13737843Y7151115D01*
X13751306Y7155687D01*
X13765022Y7155687D01*
X13778738Y7151115D01*
X13787881Y7141971D01*
X13792454Y7128510D01*
X13792454Y7119365D01*
X13787881Y7105650D01*
X13778738Y7096505D01*
X13765022Y7091934D01*
X13751306Y7091934D01*
X13737843Y7096505D01*
X13733272Y7101078D01*
X13728700Y7110221D01*
X13822425Y7187437D02*
G01*
X13858747Y7091934D01*
X13895070Y7187437D02*
G01*
X13858747Y7091934D01*
X14088872Y7164831D02*
G01*
X14084554Y7173976D01*
X14075409Y7182865D01*
X14066266Y7187437D01*
X14047977Y7187437D01*
X14039088Y7182865D01*
X14029943Y7173976D01*
X14025372Y7164831D01*
X14020800Y7151115D01*
X14020800Y7128510D01*
X14025372Y7114794D01*
X14029943Y7105650D01*
X14039088Y7096505D01*
X14047977Y7091934D01*
X14066266Y7091934D01*
X14075409Y7096505D01*
X14084554Y7105650D01*
X14088872Y7114794D01*
X14088872Y7128510D01*
X14066266Y7128510D02*
G01*
X14088872Y7128510D01*
X11782043Y9513315D02*
G01*
X11782043Y9404350D01*
X11782043Y9513315D02*
G01*
X11828779Y9513315D01*
X11844274Y9508236D01*
X11849608Y9502902D01*
X11854688Y9492487D01*
X11854688Y9482074D01*
X11849608Y9471660D01*
X11844274Y9466579D01*
X11828779Y9461500D01*
X11782043Y9461500D02*
G01*
X11828779Y9461500D01*
X11844274Y9456165D01*
X11849608Y9451086D01*
X11854688Y9440671D01*
X11854688Y9424924D01*
X11849608Y9414510D01*
X11844274Y9409429D01*
X11828779Y9404350D01*
X11782043Y9404350D01*
X11888977Y9513315D02*
G01*
X11888977Y9404350D01*
X11888977Y9513315D02*
G01*
X11935713Y9513315D01*
X11951208Y9508236D01*
X11956541Y9502902D01*
X11961622Y9492487D01*
X11961622Y9476994D01*
X11956541Y9466579D01*
X11951208Y9461500D01*
X11935713Y9456165D01*
X11888977Y9456165D01*
X12006325Y9513315D02*
G01*
X12063475Y9513315D01*
X12032488Y9471660D01*
X12047981Y9471660D01*
X12058395Y9466579D01*
X12063475Y9461500D01*
X12068809Y9445752D01*
X12068809Y9435337D01*
X12063475Y9419844D01*
X12053061Y9409429D01*
X12037568Y9404350D01*
X12022074Y9404350D01*
X12006325Y9409429D01*
X12001245Y9414510D01*
X11995911Y9424924D01*
X12113513Y9528810D02*
G01*
X12113513Y9497821D01*
D12*
X11809222Y9309102D02*
G01*
X11809222Y9211058D01*
X11760200Y9260080D02*
G01*
X11858497Y9260080D01*
X11976100Y9260078D02*
G01*
X12074397Y9260078D01*
D10*
X9296400Y8762174D02*
G01*
X9296400Y8653208D01*
X9296400Y8762174D02*
G01*
X9343136Y8762174D01*
X9358629Y8757094D01*
X9363963Y8751760D01*
X9369043Y8741346D01*
X9369043Y8730932D01*
X9363963Y8720518D01*
X9358629Y8715438D01*
X9343136Y8710358D01*
X9296400Y8710358D02*
G01*
X9343136Y8710358D01*
X9358629Y8705024D01*
X9363963Y8699944D01*
X9369043Y8689530D01*
X9369043Y8673782D01*
X9363963Y8663368D01*
X9358629Y8658288D01*
X9343136Y8653208D01*
X9296400Y8653208D01*
X9403334Y8762174D02*
G01*
X9403334Y8653208D01*
X9403334Y8762174D02*
G01*
X9450070Y8762174D01*
X9465818Y8757094D01*
X9470897Y8751760D01*
X9476231Y8741346D01*
X9476231Y8725852D01*
X9470897Y8715438D01*
X9465818Y8710358D01*
X9450070Y8705024D01*
X9403334Y8705024D01*
X9515602Y8736266D02*
G01*
X9515602Y8741346D01*
X9520936Y8751760D01*
X9526015Y8757094D01*
X9536429Y8762174D01*
X9557258Y8762174D01*
X9567672Y8757094D01*
X9572752Y8751760D01*
X9578086Y8741346D01*
X9578086Y8730932D01*
X9572752Y8720518D01*
X9562338Y8705024D01*
X9510522Y8653208D01*
X9583165Y8653208D01*
X7747000Y8510015D02*
G01*
X7747000Y8401050D01*
X7747000Y8510015D02*
G01*
X7783322Y8510015D01*
X7799070Y8504936D01*
X7809229Y8494521D01*
X7814563Y8484108D01*
X7819643Y8468360D01*
X7819643Y8442452D01*
X7814563Y8426958D01*
X7809229Y8416544D01*
X7799070Y8406129D01*
X7783322Y8401050D01*
X7747000Y8401050D01*
X7931911Y8484108D02*
G01*
X7926831Y8494521D01*
X7916418Y8504936D01*
X7906004Y8510015D01*
X7885175Y8510015D01*
X7874761Y8504936D01*
X7864347Y8494521D01*
X7859268Y8484108D01*
X7853934Y8468360D01*
X7853934Y8442452D01*
X7859268Y8426958D01*
X7864347Y8416544D01*
X7874761Y8406129D01*
X7885175Y8401050D01*
X7906004Y8401050D01*
X7916418Y8406129D01*
X7926831Y8416544D01*
X7931911Y8426958D01*
X7966202Y8489187D02*
G01*
X7976615Y8494521D01*
X7992109Y8510015D01*
X7992109Y8401050D01*
X13055600Y9297418D02*
G01*
X13055600Y9188452D01*
X13055600Y9297418D02*
G01*
X13102336Y9297418D01*
X13117829Y9292338D01*
X13123163Y9287004D01*
X13128243Y9276590D01*
X13128243Y9266176D01*
X13123163Y9255762D01*
X13117829Y9250682D01*
X13102336Y9245602D01*
X13055600Y9245602D01*
X13091922Y9245602D02*
G01*
X13128243Y9188452D01*
X13162534Y9276590D02*
G01*
X13172947Y9281924D01*
X13188695Y9297418D01*
X13188695Y9188452D01*
X14670277Y7474838D02*
G01*
X14659863Y7464425D01*
X14654784Y7448930D01*
X14654784Y7428103D01*
X14659863Y7412609D01*
X14670277Y7402195D01*
X14680691Y7402195D01*
X14691106Y7407275D01*
X14696440Y7412609D01*
X14701520Y7423022D01*
X14711934Y7454264D01*
X14717013Y7464425D01*
X14722347Y7469759D01*
X14732761Y7474838D01*
X14748256Y7474838D01*
X14758670Y7464425D01*
X14763750Y7448930D01*
X14763750Y7428103D01*
X14758670Y7412609D01*
X14748256Y7402195D01*
X14654784Y7545704D02*
G01*
X14763750Y7545704D01*
X14654784Y7509129D02*
G01*
X14654784Y7582027D01*
X14654784Y7616317D02*
G01*
X14763750Y7616317D01*
X14654784Y7616317D02*
G01*
X14654784Y7683880D01*
X14706600Y7616317D02*
G01*
X14706600Y7657719D01*
X14763750Y7616317D02*
G01*
X14763750Y7683880D01*
X14654784Y7718170D02*
G01*
X14763750Y7718170D01*
X14654784Y7718170D02*
G01*
X14654784Y7785735D01*
X14706600Y7718170D02*
G01*
X14706600Y7759572D01*
X14763750Y7718170D02*
G01*
X14763750Y7785735D01*
X14654784Y7820025D02*
G01*
X14763750Y7820025D01*
X14654784Y7820025D02*
G01*
X14654784Y7866761D01*
X14659863Y7882254D01*
X14665197Y7887335D01*
X14675611Y7892669D01*
X14686025Y7892669D01*
X14696440Y7887335D01*
X14701520Y7882254D01*
X14706600Y7866761D01*
X14706600Y7820025D01*
X14706600Y7856346D02*
G01*
X14763750Y7892669D01*
X3567684Y7438517D02*
G01*
X3676650Y7438517D01*
X3567684Y7402195D02*
G01*
X3567684Y7474838D01*
X3567684Y7509129D02*
G01*
X3676650Y7509129D01*
X3567684Y7582027D02*
G01*
X3676650Y7582027D01*
X3619500Y7509129D02*
G01*
X3619500Y7582027D01*
X3567684Y7616317D02*
G01*
X3676650Y7616317D01*
X3567684Y7616317D02*
G01*
X3567684Y7663053D01*
X3572763Y7678546D01*
X3578097Y7683880D01*
X3588512Y7688961D01*
X3598926Y7688961D01*
X3609339Y7683880D01*
X3614420Y7678546D01*
X3619500Y7663053D01*
X3619500Y7616317D01*
X3619500Y7652638D02*
G01*
X3676650Y7688961D01*
X3567684Y7754493D02*
G01*
X3572763Y7744079D01*
X3583178Y7733664D01*
X3593592Y7728585D01*
X3609339Y7723251D01*
X3635247Y7723251D01*
X3650742Y7728585D01*
X3661155Y7733664D01*
X3671570Y7744079D01*
X3676650Y7754493D01*
X3676650Y7775320D01*
X3671570Y7785735D01*
X3661155Y7795895D01*
X3650742Y7801229D01*
X3635247Y7806309D01*
X3609339Y7806309D01*
X3593592Y7801229D01*
X3583178Y7795895D01*
X3572763Y7785735D01*
X3567684Y7775320D01*
X3567684Y7754493D01*
X3567684Y7877175D02*
G01*
X3676650Y7877175D01*
X3567684Y7840598D02*
G01*
X3567684Y7913496D01*
X3567684Y7984109D02*
G01*
X3676650Y7984109D01*
X3567684Y7947787D02*
G01*
X3567684Y8020430D01*
X3567684Y8054720D02*
G01*
X3676650Y8054720D01*
X3676650Y8054720D02*
G01*
X3676650Y8117204D01*
X3567684Y8151495D02*
G01*
X3676650Y8151495D01*
X3567684Y8151495D02*
G01*
X3567684Y8218804D01*
X3619500Y8151495D02*
G01*
X3619500Y8192896D01*
X3676650Y8151495D02*
G01*
X3676650Y8218804D01*
X10915650Y8762171D02*
G01*
X10915650Y8653205D01*
X10915650Y8762171D02*
G01*
X10962386Y8762171D01*
X10977879Y8757091D01*
X10983213Y8751757D01*
X10988293Y8741343D01*
X10988293Y8730929D01*
X10983213Y8720515D01*
X10977879Y8715435D01*
X10962386Y8710355D01*
X10915650Y8710355D02*
G01*
X10962386Y8710355D01*
X10977879Y8705021D01*
X10983213Y8699941D01*
X10988293Y8689527D01*
X10988293Y8673779D01*
X10983213Y8663365D01*
X10977879Y8658285D01*
X10962386Y8653205D01*
X10915650Y8653205D01*
X11022584Y8762171D02*
G01*
X11022584Y8653205D01*
X11022584Y8762171D02*
G01*
X11069320Y8762171D01*
X11085068Y8757091D01*
X11090147Y8751757D01*
X11095481Y8741343D01*
X11095481Y8725849D01*
X11090147Y8715435D01*
X11085068Y8710355D01*
X11069320Y8705021D01*
X11022584Y8705021D01*
X11129772Y8741343D02*
G01*
X11140186Y8746677D01*
X11155679Y8762171D01*
X11155679Y8653205D01*
X10905109Y7840967D02*
G01*
X10905109Y7898117D01*
X10946765Y7866875D01*
X10946765Y7882623D01*
X10951845Y7893037D01*
X10956925Y7898117D01*
X10972672Y7903451D01*
X10983086Y7903451D01*
X10998581Y7898117D01*
X11008995Y7887703D01*
X11014075Y7872209D01*
X11014075Y7856715D01*
X11008995Y7840967D01*
X11003915Y7835887D01*
X10993500Y7830553D01*
X10988166Y7942821D02*
G01*
X10993500Y7937741D01*
X10998581Y7942821D01*
X10993500Y7948155D01*
X10988166Y7942821D01*
X10905109Y7992605D02*
G01*
X10905109Y8049755D01*
X10946765Y8018767D01*
X10946765Y8034261D01*
X10951845Y8044675D01*
X10956925Y8049755D01*
X10972672Y8055089D01*
X10983086Y8055089D01*
X10998581Y8049755D01*
X11008995Y8039595D01*
X11014075Y8023847D01*
X11014075Y8008353D01*
X11008995Y7992605D01*
X11003915Y7987525D01*
X10993500Y7982445D01*
X10905109Y8089379D02*
G01*
X11014075Y8131035D01*
X10905109Y8172437D02*
G01*
X11014075Y8131035D01*
X9362059Y7968853D02*
G01*
X9362059Y7916783D01*
X9408795Y7911703D01*
X9403715Y7916783D01*
X9398381Y7932531D01*
X9398381Y7948025D01*
X9403715Y7963519D01*
X9413875Y7973933D01*
X9429622Y7979267D01*
X9440036Y7979267D01*
X9455531Y7973933D01*
X9465945Y7963519D01*
X9471025Y7948025D01*
X9471025Y7932531D01*
X9465945Y7916783D01*
X9460865Y7911703D01*
X9450450Y7906369D01*
X9362059Y8013557D02*
G01*
X9471025Y8054959D01*
X9362059Y8096615D02*
G01*
X9471025Y8054959D01*
X12104877Y8400900D02*
G01*
X12099543Y8411314D01*
X12089129Y8421728D01*
X12078970Y8426808D01*
X12058141Y8426808D01*
X12047727Y8421728D01*
X12037313Y8411314D01*
X12031979Y8400900D01*
X12026900Y8385152D01*
X12026900Y8359244D01*
X12031979Y8343750D01*
X12037313Y8333336D01*
X12047727Y8322922D01*
X12058141Y8317842D01*
X12078970Y8317842D01*
X12089129Y8322922D01*
X12099543Y8333336D01*
X12104877Y8343750D01*
X12149581Y8426808D02*
G01*
X12206731Y8426808D01*
X12175490Y8385152D01*
X12190984Y8385152D01*
X12201397Y8380072D01*
X12206731Y8374992D01*
X12211811Y8359244D01*
X12211811Y8348830D01*
X12206731Y8333336D01*
X12196318Y8322922D01*
X12180570Y8317842D01*
X12165075Y8317842D01*
X12149581Y8322922D01*
X12144247Y8328002D01*
X12139168Y8338416D01*
X9671136Y5981578D02*
G01*
X9665802Y5991992D01*
X9655388Y6002406D01*
X9645228Y6007486D01*
X9624400Y6007486D01*
X9613986Y6002406D01*
X9603572Y5991992D01*
X9598238Y5981578D01*
X9593158Y5965830D01*
X9593158Y5939922D01*
X9598238Y5924428D01*
X9603572Y5914014D01*
X9613986Y5903600D01*
X9624400Y5898520D01*
X9645228Y5898520D01*
X9655388Y5903600D01*
X9665802Y5914014D01*
X9671136Y5924428D01*
X9757242Y6007486D02*
G01*
X9705426Y5934842D01*
X9783404Y5934842D01*
X9757242Y6007486D02*
G01*
X9757242Y5898520D01*
X11543952Y5981578D02*
G01*
X11538618Y5991992D01*
X11528204Y6002406D01*
X11518044Y6007486D01*
X11497216Y6007486D01*
X11486802Y6002406D01*
X11476388Y5991992D01*
X11471054Y5981578D01*
X11465974Y5965830D01*
X11465974Y5939922D01*
X11471054Y5924428D01*
X11476388Y5914014D01*
X11486802Y5903600D01*
X11497216Y5898520D01*
X11518044Y5898520D01*
X11528204Y5903600D01*
X11538618Y5914014D01*
X11543952Y5924428D01*
X11640472Y6007486D02*
G01*
X11588656Y6007486D01*
X11583322Y5960750D01*
X11588656Y5965830D01*
X11604150Y5971164D01*
X11619644Y5971164D01*
X11635392Y5965830D01*
X11645806Y5955670D01*
X11650886Y5939922D01*
X11650886Y5929508D01*
X11645806Y5914014D01*
X11635392Y5903600D01*
X11619644Y5898520D01*
X11604150Y5898520D01*
X11588656Y5903600D01*
X11583322Y5908680D01*
X11578242Y5919094D01*
X13635227Y9688321D02*
G01*
X13624813Y9698736D01*
X13609320Y9703815D01*
X13588491Y9703815D01*
X13572997Y9698736D01*
X13562584Y9688321D01*
X13562584Y9677908D01*
X13567663Y9667494D01*
X13572997Y9662160D01*
X13583411Y9657079D01*
X13614654Y9646665D01*
X13624813Y9641586D01*
X13630147Y9636252D01*
X13635227Y9625837D01*
X13635227Y9610344D01*
X13624813Y9599929D01*
X13609320Y9594850D01*
X13588491Y9594850D01*
X13572997Y9599929D01*
X13562584Y9610344D01*
X13669518Y9682987D02*
G01*
X13679931Y9688321D01*
X13695679Y9703815D01*
X13695679Y9594850D01*
X9082277Y8400902D02*
G01*
X9076943Y8411316D01*
X9066529Y8421730D01*
X9056370Y8426810D01*
X9035541Y8426810D01*
X9025127Y8421730D01*
X9014713Y8411316D01*
X9009379Y8400902D01*
X9004300Y8385154D01*
X9004300Y8359246D01*
X9009379Y8343752D01*
X9014713Y8333338D01*
X9025127Y8322924D01*
X9035541Y8317844D01*
X9056370Y8317844D01*
X9066529Y8322924D01*
X9076943Y8333338D01*
X9082277Y8343752D01*
X9116568Y8405982D02*
G01*
X9126981Y8411316D01*
X9142475Y8426810D01*
X9142475Y8317844D01*
X10599927Y8400902D02*
G01*
X10594593Y8411316D01*
X10584179Y8421730D01*
X10574020Y8426810D01*
X10553191Y8426810D01*
X10542777Y8421730D01*
X10532363Y8411316D01*
X10527029Y8400902D01*
X10521950Y8385154D01*
X10521950Y8359246D01*
X10527029Y8343752D01*
X10532363Y8333338D01*
X10542777Y8322924D01*
X10553191Y8317844D01*
X10574020Y8317844D01*
X10584179Y8322924D01*
X10594593Y8333338D01*
X10599927Y8343752D01*
X10639297Y8400902D02*
G01*
X10639297Y8405982D01*
X10644631Y8416396D01*
X10649711Y8421730D01*
X10660125Y8426810D01*
X10680954Y8426810D01*
X10691368Y8421730D01*
X10696447Y8416396D01*
X10701781Y8405982D01*
X10701781Y8395568D01*
X10696447Y8385154D01*
X10686034Y8369660D01*
X10634218Y8317844D01*
X10706861Y8317844D01*
X7442200Y8217915D02*
G01*
X7442200Y8139937D01*
X7447279Y8124444D01*
X7457693Y8114029D01*
X7473441Y8108950D01*
X7483856Y8108950D01*
X7499350Y8114029D01*
X7509763Y8124444D01*
X7514843Y8139937D01*
X7514843Y8217915D01*
X7549134Y8197087D02*
G01*
X7559547Y8202421D01*
X7575295Y8217915D01*
X7575295Y8108950D01*
D12*
X7389622Y8001002D02*
G01*
X7389622Y7902958D01*
X7340600Y7951980D02*
G01*
X7438897Y7951980D01*
X7556500Y7951978D02*
G01*
X7654797Y7951978D01*
D10*
X8126984Y8205215D02*
G01*
X8126984Y8127237D01*
X8132318Y8111744D01*
X8142477Y8101329D01*
X8158225Y8096250D01*
X8168640Y8096250D01*
X8184134Y8101329D01*
X8194547Y8111744D01*
X8199627Y8127237D01*
X8199627Y8205215D01*
X8239252Y8179308D02*
G01*
X8239252Y8184387D01*
X8244331Y8194802D01*
X8249665Y8200136D01*
X8260079Y8205215D01*
X8280908Y8205215D01*
X8291068Y8200136D01*
X8296402Y8194802D01*
X8301481Y8184387D01*
X8301481Y8173973D01*
X8296402Y8163560D01*
X8285988Y8148065D01*
X8233918Y8096250D01*
X8306815Y8096250D01*
D12*
X8100822Y8001002D02*
G01*
X8100822Y7902958D01*
X8051800Y7951980D02*
G01*
X8150097Y7951980D01*
X8267700Y7951978D02*
G01*
X8365997Y7951978D01*
D10*
X8929690Y5973831D02*
G01*
X8924356Y5984245D01*
X8913942Y5994659D01*
X8903782Y5999739D01*
X8882954Y5999739D01*
X8872540Y5994659D01*
X8862126Y5984245D01*
X8856792Y5973831D01*
X8851712Y5958083D01*
X8851712Y5932175D01*
X8856792Y5916681D01*
X8862126Y5906267D01*
X8872540Y5895853D01*
X8882954Y5890773D01*
X8903782Y5890773D01*
X8913942Y5895853D01*
X8924356Y5906267D01*
X8929690Y5916681D01*
X9015796Y5999739D02*
G01*
X8963980Y5927095D01*
X9041958Y5927095D01*
X9015796Y5999739D02*
G01*
X9015796Y5890773D01*
X9086662Y6015233D02*
G01*
X9086662Y5984245D01*
X12333290Y5973831D02*
G01*
X12327956Y5984245D01*
X12317542Y5994659D01*
X12307382Y5999739D01*
X12286554Y5999739D01*
X12276140Y5994659D01*
X12265726Y5984245D01*
X12260392Y5973831D01*
X12255312Y5958083D01*
X12255312Y5932175D01*
X12260392Y5916681D01*
X12265726Y5906267D01*
X12276140Y5895853D01*
X12286554Y5890773D01*
X12307382Y5890773D01*
X12317542Y5895853D01*
X12327956Y5906267D01*
X12333290Y5916681D01*
X12429810Y5999739D02*
G01*
X12377994Y5999739D01*
X12372660Y5953003D01*
X12377994Y5958083D01*
X12393488Y5963417D01*
X12408982Y5963417D01*
X12424730Y5958083D01*
X12435144Y5947923D01*
X12440224Y5932175D01*
X12440224Y5921761D01*
X12435144Y5906267D01*
X12424730Y5895853D01*
X12408982Y5890773D01*
X12393488Y5890773D01*
X12377994Y5895853D01*
X12372660Y5900933D01*
X12367580Y5911347D01*
X12484928Y6015233D02*
G01*
X12484928Y5984245D01*
D13*
X12903200Y6712452D02*
G01*
X12903200Y6966452D01*
X14173200Y6966452D01*
X14173200Y6712452D01*
X12903200Y6712452D01*
X13916847Y6712452D02*
G01*
X13916847Y6966452D01*
X12153900Y9220200D02*
G01*
X12153900Y9029700D01*
D10*
X10147119Y8815110D02*
G01*
X9998621Y8815110D01*
X9998621Y8596589D02*
G01*
X10147119Y8596589D01*
X10162359Y8611829D02*
G01*
X10162359Y8799870D01*
X9664880Y8815110D02*
G01*
X9813378Y8815110D01*
X9813378Y8596589D02*
G01*
X9664880Y8596589D01*
X9649640Y8611829D02*
G01*
X9649640Y8799870D01*
D14*
X8396599Y10181300D02*
G01*
X8396599Y8561288D01*
X7296602Y8561288D01*
X7296602Y10181300D01*
X8396599Y10181300D01*
D13*
X12990101Y8857902D02*
G01*
X12740098Y8857902D01*
X12740106Y8857896D02*
G01*
X12740106Y9607908D01*
X12740098Y9607903D02*
G01*
X12990101Y9607903D01*
X12990093Y9607908D02*
G01*
X12990093Y8857896D01*
D15*
X14859000Y8216900D02*
G01*
X14859000Y9525000D01*
X17475200Y9525000D01*
X17475200Y6096000D01*
X14859000Y6096000D01*
X14859000Y7404100D01*
X16738600Y6159500D02*
G01*
X16611600Y6159500D01*
X16548100Y6223000D01*
X16484600Y6159500D01*
X16357600Y6159500D01*
X16294100Y6223000D01*
X16230600Y6159500D01*
X16103600Y6159500D01*
X16040100Y6223000D01*
X15976600Y6159500D01*
X15849600Y6159500D01*
X15786100Y6223000D01*
X15722600Y6159500D01*
X15595600Y6159500D01*
X15532100Y6223000D01*
X15532100Y6350000D01*
X15595600Y6413500D01*
X15722600Y6413500D01*
X15786100Y6350000D01*
X15849600Y6413500D01*
X15976600Y6413500D01*
X16040100Y6350000D01*
X16103600Y6413500D01*
X16230600Y6413500D01*
X16294100Y6350000D01*
X16357600Y6413500D01*
X16484600Y6413500D01*
X16548100Y6350000D01*
X16611600Y6413500D01*
X16738600Y6413500D01*
X16802100Y6350000D01*
X16802100Y6223000D01*
X16738600Y6159500D01*
X16103600Y7937500D02*
G01*
X16103600Y8318500D01*
X16040100Y8191500D01*
X16103600Y8318500D02*
G01*
X16167100Y8191500D01*
X16103600Y7683500D02*
G01*
X16103600Y7302500D01*
X16040100Y7429500D01*
X16103600Y7302500D02*
G01*
X16167100Y7429500D01*
X15976600Y7810500D02*
G01*
X15595600Y7810500D01*
X15722600Y7747000D01*
X15595600Y7810500D02*
G01*
X15722600Y7874000D01*
X16230600Y7810500D02*
G01*
X16611600Y7810500D01*
X16484600Y7874000D01*
X16611600Y7810500D02*
G01*
X16484600Y7747000D01*
X3771900Y8216900D02*
G01*
X3771900Y9525000D01*
X6388100Y9525000D01*
X6388100Y6096000D01*
X3771900Y6096000D01*
X3771900Y7404100D01*
X5651500Y6159500D02*
G01*
X5524500Y6159500D01*
X5461000Y6223000D01*
X5397500Y6159500D01*
X5270500Y6159500D01*
X5207000Y6223000D01*
X5143500Y6159500D01*
X5016500Y6159500D01*
X4953000Y6223000D01*
X4889500Y6159500D01*
X4762500Y6159500D01*
X4699000Y6223000D01*
X4635500Y6159500D01*
X4508500Y6159500D01*
X4445000Y6223000D01*
X4445000Y6350000D01*
X4508500Y6413500D01*
X4635500Y6413500D01*
X4699000Y6350000D01*
X4762500Y6413500D01*
X4889500Y6413500D01*
X4953000Y6350000D01*
X5016500Y6413500D01*
X5143500Y6413500D01*
X5207000Y6350000D01*
X5270500Y6413500D01*
X5397500Y6413500D01*
X5461000Y6350000D01*
X5524500Y6413500D01*
X5651500Y6413500D01*
X5715000Y6350000D01*
X5715000Y6223000D01*
X5651500Y6159500D01*
X5016500Y7937500D02*
G01*
X5016500Y8318500D01*
X4953000Y8191500D01*
X5016500Y8318500D02*
G01*
X5080000Y8191500D01*
X5016500Y7683500D02*
G01*
X5016500Y7302500D01*
X4953000Y7429500D01*
X5016500Y7302500D02*
G01*
X5080000Y7429500D01*
X4889500Y7810500D02*
G01*
X4508500Y7810500D01*
X4635500Y7747000D01*
X4508500Y7810500D02*
G01*
X4635500Y7874000D01*
X5143500Y7810500D02*
G01*
X5524500Y7810500D01*
X5397500Y7874000D01*
X5524500Y7810500D02*
G01*
X5397500Y7747000D01*
D10*
X10851969Y8815108D02*
G01*
X10703471Y8815108D01*
X10703471Y8596586D02*
G01*
X10851969Y8596586D01*
X10867209Y8611826D02*
G01*
X10867209Y8799868D01*
X10369730Y8815108D02*
G01*
X10518228Y8815108D01*
X10518228Y8596586D02*
G01*
X10369730Y8596586D01*
X10354490Y8611826D02*
G01*
X10354490Y8799868D01*
D13*
X11056025Y7801493D02*
G01*
X11696024Y7801493D01*
X11056025Y7801493D02*
G01*
X11056025Y8181492D01*
X11696024Y8181492D02*
G01*
X11056025Y8181492D01*
X11696024Y8181492D02*
G01*
X11696024Y7801493D01*
X9525675Y7801493D02*
G01*
X10165674Y7801493D01*
X9525675Y7801493D02*
G01*
X9525675Y8181492D01*
X10165674Y8181492D02*
G01*
X9525675Y8181492D01*
X10165674Y8181492D02*
G01*
X10165674Y7801493D01*
X12014200Y7924797D02*
G01*
X12014200Y7739987D01*
X12268200Y7739987D01*
X12268200Y7924797D01*
X12268200Y8077197D02*
G01*
X12268200Y8262998D01*
X12014200Y8262998D01*
X12014200Y8077197D01*
D10*
X9929403Y5822233D02*
G01*
X9780904Y5822233D01*
X9780904Y5603712D02*
G01*
X9929403Y5603712D01*
X9944643Y5618952D02*
G01*
X9944643Y5806993D01*
X9447164Y5822233D02*
G01*
X9595662Y5822233D01*
X9595662Y5603712D02*
G01*
X9447164Y5603712D01*
X9431924Y5618952D02*
G01*
X9431924Y5806993D01*
X11799552Y5822233D02*
G01*
X11651053Y5822233D01*
X11651053Y5603712D02*
G01*
X11799552Y5603712D01*
X11814792Y5618952D02*
G01*
X11814792Y5806993D01*
X11317312Y5822233D02*
G01*
X11465811Y5822233D01*
X11465811Y5603712D02*
G01*
X11317312Y5603712D01*
X11302072Y5618952D02*
G01*
X11302072Y5806993D01*
D13*
X8792489Y9792004D02*
G01*
X9368485Y9792004D01*
X9368485Y9513011D01*
X8792489Y9513011D01*
X8792489Y9792004D01*
X13868400Y9537700D02*
G01*
X13436600Y9537700D01*
X13436600Y8928100D02*
G01*
X13868400Y8928100D01*
X13957300Y9331960D02*
G01*
X13957300Y9131300D01*
X13347700Y9334500D02*
G01*
X13347700Y9131300D01*
X8849146Y6529453D02*
G01*
X8880033Y6529453D01*
X9086260Y6529453D02*
G01*
X9150614Y6529453D01*
X9323679Y6529453D02*
G01*
X9404614Y6529453D01*
X9577679Y6529453D02*
G01*
X9658614Y6529453D01*
X9831679Y6529453D02*
G01*
X9912614Y6529453D01*
X10085679Y6529453D02*
G01*
X10166614Y6529453D01*
X10339679Y6529453D02*
G01*
X10420614Y6529453D01*
X10593679Y6529453D02*
G01*
X10674614Y6529453D01*
X10847679Y6529453D02*
G01*
X10928614Y6529453D01*
X11101646Y6529453D02*
G01*
X11149147Y6529453D01*
X12419147Y7179454D02*
G01*
X12419147Y6529453D01*
X11149147Y7179454D02*
G01*
X11101679Y7179454D01*
X10928614Y7179454D02*
G01*
X10847679Y7179454D01*
X10674614Y7179454D02*
G01*
X10593679Y7179454D01*
X10420614Y7179454D02*
G01*
X10339679Y7179454D01*
X10166614Y7179454D02*
G01*
X10085679Y7179454D01*
X9912614Y7179454D02*
G01*
X9831679Y7179454D01*
X9658614Y7179454D02*
G01*
X9577679Y7179454D01*
X9404614Y7179454D02*
G01*
X9323679Y7179454D01*
X9150614Y7179454D02*
G01*
X9069679Y7179454D01*
X8896614Y7179454D02*
G01*
X8849146Y7179454D01*
X8849146Y7179454D02*
G01*
X8849146Y6917954D01*
X8849146Y6529453D02*
G01*
X8849146Y6790954D01*
X11149147Y7179454D02*
G01*
X11182614Y7179454D01*
X11355679Y7179454D02*
G01*
X11436614Y7179454D01*
X11609679Y7179454D02*
G01*
X11690614Y7179454D01*
X11863679Y7179454D02*
G01*
X11944614Y7179454D01*
X12117679Y7179454D02*
G01*
X12198614Y7179454D01*
X12371679Y7179454D02*
G01*
X12419147Y7179454D01*
X11149147Y6529453D02*
G01*
X11182614Y6529453D01*
X11355679Y6529453D02*
G01*
X11436614Y6529453D01*
X11609679Y6529453D02*
G01*
X11690614Y6529453D01*
X11863679Y6529453D02*
G01*
X11944614Y6529453D01*
X12117679Y6529453D02*
G01*
X12198614Y6529453D01*
X12371679Y6529453D02*
G01*
X12419147Y6529453D01*
X10309100Y5487057D02*
G01*
X10884077Y5487057D01*
X10907699Y5487057D01*
X10929546Y5487057D01*
X10309100Y5938850D02*
G01*
X10924143Y5938850D01*
X10945911Y5938850D01*
X10393898Y12993400D02*
G01*
X10393898Y12995399D01*
X9911900Y12995399D01*
X9865901Y12995399D01*
X9865901Y9169400D01*
X9865901Y8915400D01*
X9911900Y8915400D01*
X11033899Y8915400D01*
X11393898Y8915400D01*
X11393898Y12995399D01*
X10893899Y12995399D01*
X10393898Y12835399D02*
G01*
X10393898Y13389399D01*
X10893899Y13389399D01*
X10893899Y12835399D01*
X10393898Y12835399D01*
X10393898Y12335400D01*
X10893899Y12335400D01*
X10893899Y12835399D01*
X8953500Y7924800D02*
G01*
X8953500Y7739989D01*
X9207500Y7739989D01*
X9207500Y7924800D01*
X9207500Y8077200D02*
G01*
X9207500Y8263001D01*
X8953500Y8263001D01*
X8953500Y8077200D01*
X10483850Y7924797D02*
G01*
X10483850Y7739987D01*
X10737850Y7739987D01*
X10737850Y7924797D01*
X10737850Y8077197D02*
G01*
X10737850Y8262998D01*
X10483850Y8262998D01*
X10483850Y8077197D01*
X7734300Y7912100D02*
G01*
X7734300Y7721600D01*
X8445500Y7912100D02*
G01*
X8445500Y7721600D01*
X8978712Y5636775D02*
G01*
X8978712Y5712975D01*
X9105712Y5712975D01*
X8978712Y5712975D02*
G01*
X8978712Y5789175D01*
X8699312Y5712975D02*
G01*
X8877112Y5712975D01*
X8877112Y5636775D01*
X8877112Y5712975D02*
G01*
X8877112Y5789175D01*
X12395012Y5636775D02*
G01*
X12395012Y5712975D01*
X12522012Y5712975D01*
X12395012Y5712975D02*
G01*
X12395012Y5789175D01*
X12115612Y5712975D02*
G01*
X12293412Y5712975D01*
X12293412Y5636775D01*
X12293412Y5712975D02*
G01*
X12293412Y5789175D01*
D10*
G75*
G01*
X10147120Y8596589D02*
G03*
X10162360Y8611829I0J15240D01*
G75*
G01*
X10162360Y8799871D02*
G03*
X10147120Y8815111I-15240J0D01*
G75*
G01*
X9664880Y8596589D02*
G02*
X9649640Y8611829I0J15240D01*
G75*
G01*
X9649640Y8799871D02*
G02*
X9664880Y8815111I15240J0D01*
D15*
G75*
G01*
X16103600Y9118600D02*
G03*
X16104057Y9118600I229J-1308100D01*
G75*
G01*
X16103600Y8826500D02*
G03*
X16104667Y8826500I533J-1016000D01*
G75*
G01*
X16103600Y7937500D02*
G03*
X16104260Y7937500I330J-127000D01*
G75*
G01*
X5016500Y9118600D02*
G03*
X5016957Y9118600I229J-1308100D01*
G75*
G01*
X5016500Y8826500D02*
G03*
X5017567Y8826500I533J-1016000D01*
G75*
G01*
X5016500Y7937500D02*
G03*
X5017160Y7937500I330J-127000D01*
D10*
G75*
G01*
X10851970Y8596587D02*
G03*
X10867210Y8611827I0J15240D01*
G75*
G01*
X10867210Y8799868D02*
G03*
X10851970Y8815108I-15240J0D01*
G75*
G01*
X10369730Y8596587D02*
G02*
X10354490Y8611827I0J15240D01*
G75*
G01*
X10354490Y8799868D02*
G02*
X10369730Y8815108I15240J0D01*
G75*
G01*
X9929404Y5603712D02*
G03*
X9944644Y5618952I0J15240D01*
G75*
G01*
X9944644Y5806994D02*
G03*
X9929404Y5822234I-15240J0D01*
G75*
G01*
X9447164Y5603712D02*
G02*
X9431924Y5618952I0J15240D01*
G75*
G01*
X9431924Y5806994D02*
G02*
X9447164Y5822234I15240J0D01*
G75*
G01*
X11799552Y5603712D02*
G03*
X11814792Y5618952I0J15240D01*
G75*
G01*
X11814792Y5806994D02*
G03*
X11799552Y5822234I-15240J0D01*
G75*
G01*
X11317313Y5603712D02*
G02*
X11302073Y5618952I0J15240D01*
G75*
G01*
X11302073Y5806994D02*
G02*
X11317313Y5822234I15240J0D01*
D16*
G75*
G01*
X8912027Y6689354D02*
G03*
X8912027Y6689862I29999J254D01*
D17*
G75*
G01*
X8840653Y6473454D02*
G03*
X8840653Y6473708I12499J127D01*
D13*
G75*
G01*
X8849147Y6917954D02*
G02*
X8849035Y6790954I-56J-63500D01*
G75*
G01*
X10309101Y5938853D02*
G03*
X10309098Y5487162I756J-225846D01*
G75*
G01*
X10928647Y5487159D02*
G03*
X10944974Y5938916I7454J225905D01*
G75*
G01
X12175312Y9118600D02*
G03X12175312Y9118600I-249987J0D01*
G75*
G01
X8358505Y8606511D02*
G03X8358505Y8606511I-12700J0D01*
G75*
G01
X13830300Y9232900D02*
G03X13830300Y9232900I-177800J0D01*
G75*
G01
X7755712Y7810500D02*
G03X7755712Y7810500I-249987J0D01*
G75*
G01
X8466912Y7810500D02*
G03X8466912Y7810500I-249987J0D01*
M02*
