G04 Layer: TopLayer*
G04 EasyEDA v6.5.23, 2023-06-02 23:09:48*
G04 d308aba9936446f186570843c5913f8e,38d8b063065d407b859bfb9f5f9b4720,10*
G04 Gerber Generator version 0.2*
G04 Scale: 100 percent, Rotated: No, Reflected: No *
G04 Dimensions in millimeters *
G04 leading zeros omitted , absolute positions ,4 integer and 5 decimal *
%FSLAX45Y45*%
%MOMM*%

%AMMACRO1*21,1,$1,$2,0,0,$3*%
%ADD10C,0.2540*%
%ADD11MACRO1,1.728X1.485X90.0000*%
%ADD12R,3.8000X2.3000*%
%ADD13R,1.2000X2.0000*%
%ADD14R,2.0000X1.6002*%
%ADD15R,1.7000X1.7000*%
%ADD16C,1.7000*%
%ADD17C,2.0000*%
%ADD18O,1.9999959999999999X4.499991*%
%ADD19O,4.499991X1.9999959999999999*%
%ADD20C,1.5000*%
%ADD21R,1.5080X1.5080*%
%ADD22C,1.5080*%
%ADD23R,2.0000X2.0000*%
%ADD24C,1.8796*%
%ADD25O,1.5999968X1.5999968*%
%ADD26R,1.6000X1.6000*%
%ADD27R,1.5240X1.5240*%
%ADD28C,1.5240*%
%ADD29C,0.6100*%
%ADD30C,0.0109*%

%LPD*%
D10*
X9491136Y6473456D02*
G01*
X9857125Y6839445D01*
X13030194Y6839445D01*
X9237136Y6473456D02*
G01*
X9682373Y6918693D01*
X11249375Y6918693D01*
X11288770Y6958088D01*
X13165551Y6958088D01*
X13284194Y6839445D01*
X9999136Y7235456D02*
G01*
X9837186Y7397407D01*
X6190889Y7397407D01*
X5079994Y6286512D01*
X9491136Y7235456D02*
G01*
X9685294Y7041299D01*
X11198550Y7041299D01*
X11239418Y7082167D01*
X15371439Y7082167D01*
X16167094Y6286512D01*
X9237136Y7235456D02*
G01*
X9472162Y7000430D01*
X11215491Y7000430D01*
X11254887Y7039825D01*
X15308803Y7039825D01*
X16040094Y6308534D01*
X16040094Y6253568D01*
X16121298Y6172365D01*
X16306947Y6172365D01*
X16421094Y6286512D01*
X9745136Y7235456D02*
G01*
X9624054Y7356538D01*
X6404020Y7356538D01*
X5333994Y6286512D01*
X10271907Y9423412D02*
G01*
X10398907Y9296412D01*
X11620494Y9296412D01*
X11798294Y9118612D01*
X10502793Y8705862D02*
G01*
X10553974Y8705862D01*
X10502793Y8705862D02*
G01*
X10451586Y8705862D01*
X10451586Y8705862D02*
G01*
X10065252Y8705862D01*
X11015187Y8335505D02*
G01*
X10924331Y8335505D01*
X10553974Y8705862D01*
X11015187Y8335505D02*
G01*
X11798294Y9118612D01*
X12141194Y8161007D02*
G01*
X11507083Y8161007D01*
X11350035Y8003959D01*
X11350035Y8003959D02*
G01*
X11324026Y8003959D01*
X11015187Y8312797D01*
X11015187Y8335505D01*
X11350035Y8003959D02*
G01*
X11350035Y7830604D01*
X11376019Y7804619D01*
X11376019Y7676502D02*
G01*
X11376019Y7804619D01*
X9845669Y7612443D02*
G01*
X9845669Y7548384D01*
X9845669Y7612443D02*
G01*
X9845669Y7676502D01*
X15913094Y6286512D02*
G01*
X15809564Y6390043D01*
X14241597Y6390043D01*
X13792194Y6839445D01*
X13792194Y6839445D02*
G01*
X13617163Y6664413D01*
X10698093Y6664413D01*
X10507136Y6473456D01*
X9845669Y7548384D02*
G01*
X10469417Y7548384D01*
X10469417Y7548384D02*
G01*
X10702208Y7548384D01*
X11015136Y7235456D01*
X10469417Y7548384D02*
G01*
X10469417Y7938477D01*
X10583819Y8052879D01*
X10610844Y8052879D01*
X10610844Y8161007D02*
G01*
X10610844Y8052879D01*
X9845669Y7548384D02*
G01*
X8409858Y7548384D01*
X8147730Y7810512D01*
X8089894Y7810512D01*
X10075666Y7676502D02*
G01*
X10075666Y7804619D01*
X9080494Y8161007D02*
G01*
X9719279Y8161007D01*
X10075666Y7804619D01*
X8438052Y8339874D02*
G01*
X7946588Y8831313D01*
X9080494Y8161007D02*
G01*
X8821389Y8161007D01*
X8642522Y8339874D01*
X8438052Y8339874D01*
X8438052Y8339874D02*
G01*
X7961066Y7862887D01*
X7961066Y7741780D01*
X8078871Y7623975D01*
X8247552Y7623975D01*
X8384153Y7487373D01*
X9805055Y7487373D01*
X9852400Y7440028D01*
X10201523Y7440028D01*
X10380187Y7261364D01*
X10380187Y7194334D01*
X10447192Y7127328D01*
X10518769Y7127328D01*
X10522986Y7123112D01*
X10534136Y7123112D01*
X10575081Y7082167D01*
X11161135Y7082167D01*
X11202029Y7123061D01*
X11317295Y7123061D01*
X11396187Y7201954D01*
X11396187Y7330605D01*
X11606016Y7540434D01*
X11606016Y7676502D01*
X8983136Y6473456D02*
G01*
X9091264Y6473456D01*
X9091264Y6473456D02*
G01*
X9091264Y6500507D01*
X9550318Y6959561D01*
X11232433Y6959561D01*
X11271829Y6998957D01*
X13378682Y6998957D01*
X13538194Y6839445D01*
X9181917Y5712980D02*
G01*
X9296445Y5598452D01*
X9630633Y5598452D01*
X9745162Y5712980D01*
X9847524Y5712980D02*
G01*
X9745162Y5712980D01*
X10385902Y5715012D02*
G01*
X9951918Y5715012D01*
X9949886Y5712980D01*
X9847524Y5712980D02*
G01*
X9949886Y5712980D01*
X11717675Y5712980D02*
G01*
X11820037Y5712980D01*
X11820037Y5598452D02*
G01*
X11820037Y5712980D01*
X10873887Y5715012D02*
G01*
X10990447Y5598452D01*
X11820037Y5598452D01*
X11820037Y5598452D02*
G01*
X11839823Y5578665D01*
X12463901Y5578665D01*
X12598217Y5712980D01*
X11399184Y5712980D02*
G01*
X11501546Y5712980D01*
X9529033Y5712980D02*
G01*
X9426671Y5712980D01*
X8343894Y7810512D02*
G01*
X8921871Y7810512D01*
X8952377Y7841018D01*
X10610844Y7732890D02*
G01*
X10986180Y7732890D01*
X11057910Y7804619D01*
X11146022Y7804619D01*
X9016436Y7841018D02*
G01*
X8952377Y7841018D01*
X9016436Y7841018D02*
G01*
X9080494Y7841018D01*
X9615672Y7676502D02*
G01*
X9615672Y7804619D01*
X10271907Y9169412D02*
G01*
X10376225Y9169412D01*
X10770102Y8705862D02*
G01*
X10667740Y8705862D01*
X11501546Y5838558D02*
G01*
X11501546Y5712980D01*
X11501546Y5838558D02*
G01*
X11939239Y5838558D01*
X12064817Y5712980D01*
X8648517Y5712980D02*
G01*
X8778031Y5842495D01*
X9297156Y5842495D01*
X9297156Y5842495D02*
G01*
X9426671Y5712980D01*
X10761136Y6473456D02*
G01*
X11396035Y5838558D01*
X11501546Y5838558D01*
X9297156Y5842495D02*
G01*
X10130175Y5842495D01*
X10761136Y6473456D01*
X10610844Y7841018D02*
G01*
X10610844Y7732890D01*
X9080494Y7841018D02*
G01*
X9579274Y7841018D01*
X9615672Y7804619D01*
X9746736Y8705862D02*
G01*
X9849124Y8705862D01*
X10376225Y8997378D02*
G01*
X10140640Y8997378D01*
X9849124Y8705862D01*
X10376225Y9169412D02*
G01*
X10376225Y8997378D01*
X10376225Y8997378D02*
G01*
X10667740Y8705862D01*
X4675525Y6286512D02*
G01*
X5249057Y5712980D01*
X8648517Y5712980D01*
X4571994Y6286512D02*
G01*
X4675525Y6286512D01*
X11146022Y7676502D02*
G01*
X11146022Y7730350D01*
X11146022Y7730350D02*
G01*
X11146022Y7804619D01*
X11300607Y7548384D02*
G01*
X11142187Y7389964D01*
X11142187Y7205027D01*
X11060221Y7123061D01*
X10619531Y7123061D01*
X10507136Y7235456D01*
X11146022Y7730350D02*
G01*
X11146022Y7702969D01*
X11300607Y7548384D01*
X11300607Y7548384D02*
G01*
X11447647Y7548384D01*
X11464157Y7564894D01*
X11464157Y7747165D01*
X11558010Y7841018D01*
X12141194Y7841018D01*
X13977614Y9458972D02*
G01*
X13751554Y9232912D01*
X12166594Y9232912D01*
X12052294Y9118612D01*
X9207494Y9652012D02*
G01*
X9690094Y9169412D01*
X10271907Y9169412D01*
X12141194Y7841018D02*
G01*
X12141194Y7949145D01*
X12509500Y7962900D02*
G01*
X12495745Y7949145D01*
X12141200Y7949145D01*
D11*
G01*
X10065250Y8705850D03*
G01*
X9746749Y8705850D03*
G01*
X10770100Y8705847D03*
G01*
X10451599Y8705847D03*
D12*
G01*
X11376025Y8311489D03*
D13*
G01*
X11376025Y7676489D03*
G01*
X11606022Y7676489D03*
G01*
X11146027Y7676489D03*
D12*
G01*
X9845675Y8311489D03*
D13*
G01*
X9845675Y7676489D03*
G01*
X10075672Y7676489D03*
G01*
X9615677Y7676489D03*
D14*
G01*
X12141200Y7841005D03*
G01*
X12141200Y8160994D03*
D11*
G01*
X9847534Y5712973D03*
G01*
X9529033Y5712973D03*
G01*
X11717682Y5712973D03*
G01*
X11399182Y5712973D03*
D14*
G01*
X9080500Y7841005D03*
G01*
X9080500Y8160994D03*
G01*
X10610850Y7841005D03*
G01*
X10610850Y8160994D03*
D15*
G01*
X14046200Y6839458D03*
D16*
G01*
X13792200Y6839458D03*
G01*
X13538200Y6839458D03*
G01*
X13284200Y6839458D03*
G01*
X13030200Y6839458D03*
D17*
G01*
X11798300Y9118600D03*
G01*
X12052300Y9118600D03*
D18*
G01*
X7496606Y9081312D03*
D19*
G01*
X7946593Y9431299D03*
G01*
X7946593Y8831300D03*
D20*
G01*
X12865100Y8732901D03*
G01*
X12865100Y9732899D03*
D21*
G01*
X15659100Y6286500D03*
D22*
G01*
X15913100Y6286500D03*
G01*
X16167100Y6286500D03*
G01*
X16421100Y6286500D03*
G01*
X16675100Y6286500D03*
D21*
G01*
X4572000Y6286500D03*
D22*
G01*
X4826000Y6286500D03*
G01*
X5080000Y6286500D03*
G01*
X5334000Y6286500D03*
G01*
X5588000Y6286500D03*
D23*
G01*
X8953500Y9652000D03*
D17*
G01*
X9207500Y9652000D03*
D24*
G01*
X13327379Y9458960D03*
G01*
X13977620Y9458960D03*
G01*
X13327379Y9006839D03*
G01*
X13977620Y9006839D03*
D25*
G01*
X9491141Y7235444D03*
G01*
X9745141Y7235444D03*
G01*
X9999141Y7235444D03*
G01*
X10253141Y7235444D03*
G01*
X10507141Y7235444D03*
G01*
X10761141Y7235444D03*
G01*
X11015141Y7235444D03*
G01*
X11015141Y6473444D03*
G01*
X9237141Y7235444D03*
G01*
X8983141Y7235444D03*
G01*
X10761141Y6473444D03*
G01*
X10507141Y6473444D03*
G01*
X10253141Y6473444D03*
G01*
X9999141Y6473444D03*
G01*
X9745141Y6473444D03*
G01*
X9491141Y6473444D03*
G01*
X9237141Y6473444D03*
D26*
G01*
X8983141Y6473444D03*
D25*
G01*
X11269141Y6473444D03*
G01*
X11523141Y6473444D03*
G01*
X11777141Y6473444D03*
G01*
X12031141Y6473444D03*
G01*
X12285141Y6473444D03*
G01*
X12285141Y7235444D03*
G01*
X12031141Y7235444D03*
G01*
X11777141Y7235444D03*
G01*
X11523141Y7235444D03*
G01*
X11269141Y7235444D03*
D20*
G01*
X10385907Y5715000D03*
G01*
X10873892Y5715000D03*
D27*
G01*
X10271912Y9169400D03*
D28*
G01*
X10271912Y9423400D03*
G01*
X10525912Y9169400D03*
G01*
X10525912Y9423400D03*
G01*
X10779912Y9169400D03*
G01*
X10779912Y9423400D03*
G01*
X11033912Y9169400D03*
G01*
X11033912Y9423400D03*
D17*
G01*
X7378700Y7810500D03*
G01*
X7632700Y7810500D03*
G01*
X8089900Y7810500D03*
G01*
X8343900Y7810500D03*
G01*
X8648522Y5712968D03*
G01*
X9181922Y5712968D03*
G01*
X12064822Y5712968D03*
G01*
X12598222Y5712968D03*
D29*
G01*
X12509500Y7962900D03*
M02*
