M48
METRIC,LZ,000.000
;FILE_FORMAT=3:3
;TYPE=PLATED
;Layer: PTH_Through
;EasyEDA v6.5.23, 2023-06-02 23:10:04
;4089ee163aa04224b388df8e3d9972f5,38d8b063065d407b859bfb9f5f9b4720,10
;Gerber Generator version 0.2
;Holesize 1 = 0.600 mm
T01C0.600
;Holesize 2 = 0.751 mm
T02C0.751
;Holesize 3 = 0.762 mm
T03C0.762
;Holesize 4 = 0.800 mm
T04C0.800
;Holesize 5 = 1.000 mm
T05C1.000
;Holesize 6 = 1.016 mm
T06C1.016
;Holesize 7 = 1.101 mm
T07C1.101
;Holesize 8 = 1.103 mm
T08C1.103
;Holesize 9 = 1.200 mm
T09C1.200
;Holesize 10 = 1.400 mm
T10C1.400
;Holesize 11 = 1.601 mm
T11C1.601
;Holesize 12 = 2.414 mm
T12C2.414
%
G05
G90
T01
X-005842Y-091186
X-003302Y-091186
X-011938Y-091186
X-009398Y-091186
X021615Y-126111
X024155Y-126111
T02
X-028702Y-068279
X-028702Y-078279
T03
X-020320Y-088583
X-014986Y-088583
X000381Y-088646
X005715Y-088646
T04
X-009677Y-083693
X-004797Y-083693
T05
X-027551Y-101945G85X-025551Y-101945
X-030051Y-098445G85X-030051Y-096445
X-024051Y-098445G85X-024051Y-096445
X-018892Y-048214
X-010191Y-048214
X-004858Y-048214
X003842Y-048214
X-004858Y-053098
X003842Y-053098
X-018892Y-053098
X-010191Y-053098
X-018892Y-057981
X-010191Y-057981
X-004985Y-057981
X003715Y-057981
X-018892Y-062865
X-010191Y-062865
X-004858Y-062865
X003842Y-062865
X-019050Y-069319
X-016510Y-069319
X-013970Y-069319
X-011430Y-069319
X-008890Y-069319
X-006350Y-069319
X-003810Y-069319
X-003810Y-076939
X-021590Y-069319
X-024130Y-069319
X-006350Y-076939
X-008890Y-076939
X-011430Y-076939
X-013970Y-076939
X-016510Y-076939
X-019050Y-076939
X-021590Y-076939
X-024130Y-076939
X-001270Y-076939
X001270Y-076939
X003810Y-076939
X006350Y-076939
X008890Y-076939
X008890Y-069319
X006350Y-069319
X003810Y-069319
X001270Y-069319
X-001270Y-069319
T06
X013840Y-125857G85X013846Y-125857
X011300Y-125857G85X011306Y-125857
X013840Y-123317G85X013846Y-123317
X011300Y-123317G85X011306Y-123317
X013840Y-120777G85X013846Y-120777
X011300Y-120777G85X011306Y-120777
X013840Y-118237G85X013846Y-118237
X011300Y-118237G85X011306Y-118237
X-026187Y-081585
X-026187Y-088087
X-030709Y-081585
X-030709Y-088087
T07
X-028194Y-052578
X-028194Y-055118
X-028194Y-057658
X-028194Y-060198
X-028194Y-062738
T08
X-015453Y-034900
X-012913Y-034900
X-010373Y-034900
X-007833Y-034900
X-005293Y-034900
X-002753Y-034900
X-000213Y-034900
X-016723Y-039980
X-014183Y-039980
X-011643Y-039980
X-009103Y-039980
X-006563Y-039980
X-004023Y-039980
X-001483Y-039980
X001057Y-039980
T09
X-030099Y-110997
X-030099Y-108457
T10
X053253Y-126111
X058253Y-126111
X057491Y-026543
X052491Y-026543
T11
X091495Y-095373G85X091495Y-095373
X091495Y-076073G85X091495Y-076073
X091495Y-056773G85X091495Y-056773
X018995Y-056773G85X018995Y-056773
X018995Y-076073G85X018995Y-076073
X018995Y-095373G85X018995Y-095373
T12
X-019212Y-029083
X003648Y-029083
M30
