G04 Layer: TopSilkscreenLayer*
G04 EasyEDA v6.5.23, 2023-06-02 23:10:04*
G04 4089ee163aa04224b388df8e3d9972f5,38d8b063065d407b859bfb9f5f9b4720,10*
G04 Gerber Generator version 0.2*
G04 Scale: 100 percent, Rotated: No, Reflected: No *
G04 Dimensions in millimeters *
G04 leading zeros omitted , absolute positions ,4 integer and 5 decimal *
%FSLAX45Y45*%
%MOMM*%

%ADD10C,0.1524*%
%ADD11C,0.2032*%
%ADD12C,0.1500*%
%ADD13C,0.1270*%
%ADD14C,0.2540*%
%ADD15C,0.1000*%
%ADD16C,0.6000*%
%ADD17C,0.2500*%
%ADD18C,0.0193*%

%LPD*%
D10*
X-3130562Y-6223769D02*
G01*
X-3130562Y-6319273D01*
X-3162312Y-6223769D02*
G01*
X-3098558Y-6223769D01*
X-3068586Y-6255519D02*
G01*
X-3018802Y-6319273D01*
X-3018802Y-6255519D02*
G01*
X-3068586Y-6319273D01*
X-3162312Y-5957069D02*
G01*
X-3162312Y-6052573D01*
X-3162312Y-5957069D02*
G01*
X-3121418Y-5957069D01*
X-3107702Y-5961641D01*
X-3103130Y-5966213D01*
X-3098558Y-5975103D01*
X-3098558Y-5984247D01*
X-3103130Y-5993391D01*
X-3107702Y-5997963D01*
X-3121418Y-6002535D01*
X-3162312Y-6002535D01*
X-3130562Y-6002535D02*
G01*
X-3098558Y-6052573D01*
X-3068586Y-5988819D02*
G01*
X-3018802Y-6052573D01*
X-3018802Y-5988819D02*
G01*
X-3068586Y-6052573D01*
X-3200412Y-5715769D02*
G01*
X-3200412Y-5811273D01*
X-3200412Y-5715769D02*
G01*
X-3159518Y-5715769D01*
X-3145802Y-5720341D01*
X-3141230Y-5724913D01*
X-3136658Y-5733803D01*
X-3136658Y-5742947D01*
X-3141230Y-5752091D01*
X-3145802Y-5756663D01*
X-3159518Y-5761235D01*
X-3200412Y-5761235D01*
X-3168662Y-5761235D02*
G01*
X-3136658Y-5811273D01*
X-3056902Y-5761235D02*
G01*
X-3061220Y-5752091D01*
X-3074936Y-5747519D01*
X-3088652Y-5747519D01*
X-3102114Y-5752091D01*
X-3106686Y-5761235D01*
X-3102114Y-5770125D01*
X-3093224Y-5774697D01*
X-3070364Y-5779269D01*
X-3061220Y-5783841D01*
X-3056902Y-5792985D01*
X-3056902Y-5797557D01*
X-3061220Y-5806701D01*
X-3074936Y-5811273D01*
X-3088652Y-5811273D01*
X-3102114Y-5806701D01*
X-3106686Y-5797557D01*
X-3013214Y-5715769D02*
G01*
X-3013214Y-5792985D01*
X-3008642Y-5806701D01*
X-2999498Y-5811273D01*
X-2990354Y-5811273D01*
X-3026676Y-5747519D02*
G01*
X-2994926Y-5747519D01*
X-3120402Y-5474469D02*
G01*
X-3165868Y-5474469D01*
X-3170440Y-5515363D01*
X-3165868Y-5510791D01*
X-3152406Y-5506219D01*
X-3138690Y-5506219D01*
X-3124974Y-5510791D01*
X-3115830Y-5519935D01*
X-3111258Y-5533397D01*
X-3111258Y-5542541D01*
X-3115830Y-5556257D01*
X-3124974Y-5565401D01*
X-3138690Y-5569973D01*
X-3152406Y-5569973D01*
X-3165868Y-5565401D01*
X-3170440Y-5560829D01*
X-3175012Y-5551685D01*
X-3081286Y-5474469D02*
G01*
X-3044964Y-5569973D01*
X-3008642Y-5474469D02*
G01*
X-3044964Y-5569973D01*
X-3056140Y-5255775D02*
G01*
X-3060458Y-5246631D01*
X-3069602Y-5237741D01*
X-3078746Y-5233169D01*
X-3097034Y-5233169D01*
X-3105924Y-5237741D01*
X-3115068Y-5246631D01*
X-3119640Y-5255775D01*
X-3124212Y-5269491D01*
X-3124212Y-5292097D01*
X-3119640Y-5305813D01*
X-3115068Y-5314957D01*
X-3105924Y-5324101D01*
X-3097034Y-5328673D01*
X-3078746Y-5328673D01*
X-3069602Y-5324101D01*
X-3060458Y-5314957D01*
X-3056140Y-5305813D01*
X-3056140Y-5292097D01*
X-3078746Y-5292097D02*
G01*
X-3056140Y-5292097D01*
X-2630286Y-10773031D02*
G01*
X-2637144Y-10759315D01*
X-2650860Y-10745599D01*
X-2664576Y-10738995D01*
X-2691754Y-10738995D01*
X-2705470Y-10745599D01*
X-2718932Y-10759315D01*
X-2725790Y-10773031D01*
X-2732648Y-10793351D01*
X-2732648Y-10827641D01*
X-2725790Y-10847961D01*
X-2718932Y-10861677D01*
X-2705470Y-10875139D01*
X-2691754Y-10881997D01*
X-2664576Y-10881997D01*
X-2650860Y-10875139D01*
X-2637144Y-10861677D01*
X-2630286Y-10847961D01*
X-2630286Y-10827641D01*
X-2664576Y-10827641D02*
G01*
X-2630286Y-10827641D01*
X-2832089Y-11070973D02*
G01*
X-2818373Y-11064115D01*
X-2798053Y-11043795D01*
X-2798053Y-11186797D01*
X-2746237Y-11077831D02*
G01*
X-2746237Y-11070973D01*
X-2739379Y-11057257D01*
X-2732521Y-11050399D01*
X-2718805Y-11043795D01*
X-2691627Y-11043795D01*
X-2677911Y-11050399D01*
X-2671307Y-11057257D01*
X-2664449Y-11070973D01*
X-2664449Y-11084689D01*
X-2671307Y-11098151D01*
X-2684769Y-11118725D01*
X-2753095Y-11186797D01*
X-2657591Y-11186797D01*
X-2612633Y-11091293D02*
G01*
X-2571739Y-11186797D01*
X-2530845Y-11091293D02*
G01*
X-2571739Y-11186797D01*
X-2019289Y-9832723D02*
G01*
X-2005573Y-9825865D01*
X-1985253Y-9805545D01*
X-1985253Y-9948547D01*
X-1933437Y-9839581D02*
G01*
X-1933437Y-9832723D01*
X-1926579Y-9819007D01*
X-1919721Y-9812149D01*
X-1906005Y-9805545D01*
X-1878827Y-9805545D01*
X-1865111Y-9812149D01*
X-1858507Y-9819007D01*
X-1851649Y-9832723D01*
X-1851649Y-9846439D01*
X-1858507Y-9859901D01*
X-1871969Y-9880475D01*
X-1940295Y-9948547D01*
X-1844791Y-9948547D01*
X-1799833Y-9853043D02*
G01*
X-1758939Y-9948547D01*
X-1718045Y-9853043D02*
G01*
X-1758939Y-9948547D01*
D11*
X7658100Y-12396851D02*
G01*
X7658100Y-12635611D01*
X7658100Y-12396851D02*
G01*
X7760462Y-12396851D01*
X7794497Y-12408280D01*
X7805928Y-12419711D01*
X7817104Y-12442317D01*
X7817104Y-12465177D01*
X7805928Y-12487783D01*
X7794497Y-12499213D01*
X7760462Y-12510643D01*
X7658100Y-12510643D01*
X7737602Y-12510643D02*
G01*
X7817104Y-12635611D01*
X8062722Y-12453747D02*
G01*
X8051292Y-12431140D01*
X8028431Y-12408280D01*
X8005826Y-12396851D01*
X7960360Y-12396851D01*
X7937754Y-12408280D01*
X7914894Y-12431140D01*
X7903463Y-12453747D01*
X7892288Y-12487783D01*
X7892288Y-12544679D01*
X7903463Y-12578714D01*
X7914894Y-12601575D01*
X7937754Y-12624180D01*
X7960360Y-12635611D01*
X8005826Y-12635611D01*
X8028431Y-12624180D01*
X8051292Y-12601575D01*
X8062722Y-12578714D01*
X8483092Y-12453747D02*
G01*
X8471662Y-12431140D01*
X8449056Y-12408280D01*
X8426195Y-12396851D01*
X8380729Y-12396851D01*
X8358124Y-12408280D01*
X8335263Y-12431140D01*
X8324088Y-12453747D01*
X8312658Y-12487783D01*
X8312658Y-12544679D01*
X8324088Y-12578714D01*
X8335263Y-12601575D01*
X8358124Y-12624180D01*
X8380729Y-12635611D01*
X8426195Y-12635611D01*
X8449056Y-12624180D01*
X8471662Y-12601575D01*
X8483092Y-12578714D01*
X8694420Y-12476353D02*
G01*
X8694420Y-12635611D01*
X8694420Y-12510643D02*
G01*
X8671813Y-12487783D01*
X8648954Y-12476353D01*
X8614918Y-12476353D01*
X8592058Y-12487783D01*
X8569452Y-12510643D01*
X8558022Y-12544679D01*
X8558022Y-12567285D01*
X8569452Y-12601575D01*
X8592058Y-12624180D01*
X8614918Y-12635611D01*
X8648954Y-12635611D01*
X8671813Y-12624180D01*
X8694420Y-12601575D01*
X8769350Y-12476353D02*
G01*
X8769350Y-12635611D01*
X8769350Y-12544679D02*
G01*
X8780779Y-12510643D01*
X8803640Y-12487783D01*
X8826245Y-12476353D01*
X8860281Y-12476353D01*
X9110472Y-12396851D02*
G01*
X9201150Y-12635611D01*
X9292081Y-12396851D02*
G01*
X9201150Y-12635611D01*
X9367265Y-12442317D02*
G01*
X9389872Y-12431140D01*
X9423908Y-12396851D01*
X9423908Y-12635611D01*
X9510268Y-12578714D02*
G01*
X9499092Y-12590145D01*
X9510268Y-12601575D01*
X9521697Y-12590145D01*
X9510268Y-12578714D01*
X9664954Y-12396851D02*
G01*
X9630918Y-12408280D01*
X9608058Y-12442317D01*
X9596628Y-12499213D01*
X9596628Y-12533249D01*
X9608058Y-12590145D01*
X9630918Y-12624180D01*
X9664954Y-12635611D01*
X9687560Y-12635611D01*
X9721850Y-12624180D01*
X9744456Y-12590145D01*
X9755886Y-12533249D01*
X9755886Y-12499213D01*
X9744456Y-12442317D01*
X9721850Y-12408280D01*
X9687560Y-12396851D01*
X9664954Y-12396851D01*
X6477000Y-11888851D02*
G01*
X6477000Y-12127611D01*
X6477000Y-11888851D02*
G01*
X6556502Y-11888851D01*
X6590538Y-11900280D01*
X6613397Y-11923140D01*
X6624828Y-11945747D01*
X6636004Y-11979783D01*
X6636004Y-12036679D01*
X6624828Y-12070714D01*
X6613397Y-12093575D01*
X6590538Y-12116180D01*
X6556502Y-12127611D01*
X6477000Y-12127611D01*
X6711188Y-12036679D02*
G01*
X6847331Y-12036679D01*
X6847331Y-12013819D01*
X6836156Y-11991213D01*
X6824726Y-11979783D01*
X6801865Y-11968353D01*
X6767829Y-11968353D01*
X6745224Y-11979783D01*
X6722363Y-12002643D01*
X6711188Y-12036679D01*
X6711188Y-12059285D01*
X6722363Y-12093575D01*
X6745224Y-12116180D01*
X6767829Y-12127611D01*
X6801865Y-12127611D01*
X6824726Y-12116180D01*
X6847331Y-12093575D01*
X7047484Y-12002643D02*
G01*
X7036054Y-11979783D01*
X7002018Y-11968353D01*
X6967981Y-11968353D01*
X6933692Y-11979783D01*
X6922515Y-12002643D01*
X6933692Y-12025249D01*
X6956552Y-12036679D01*
X7013447Y-12048109D01*
X7036054Y-12059285D01*
X7047484Y-12082145D01*
X7047484Y-12093575D01*
X7036054Y-12116180D01*
X7002018Y-12127611D01*
X6967981Y-12127611D01*
X6933692Y-12116180D01*
X6922515Y-12093575D01*
X7122413Y-11888851D02*
G01*
X7133844Y-11900280D01*
X7145274Y-11888851D01*
X7133844Y-11877675D01*
X7122413Y-11888851D01*
X7133844Y-11968353D02*
G01*
X7133844Y-12127611D01*
X7356602Y-11968353D02*
G01*
X7356602Y-12150217D01*
X7345172Y-12184253D01*
X7333742Y-12195683D01*
X7311136Y-12207113D01*
X7277100Y-12207113D01*
X7254240Y-12195683D01*
X7356602Y-12002643D02*
G01*
X7333742Y-11979783D01*
X7311136Y-11968353D01*
X7277100Y-11968353D01*
X7254240Y-11979783D01*
X7231634Y-12002643D01*
X7220204Y-12036679D01*
X7220204Y-12059285D01*
X7231634Y-12093575D01*
X7254240Y-12116180D01*
X7277100Y-12127611D01*
X7311136Y-12127611D01*
X7333742Y-12116180D01*
X7356602Y-12093575D01*
X7431531Y-11968353D02*
G01*
X7431531Y-12127611D01*
X7431531Y-12013819D02*
G01*
X7465568Y-11979783D01*
X7488428Y-11968353D01*
X7522463Y-11968353D01*
X7545070Y-11979783D01*
X7556500Y-12013819D01*
X7556500Y-12127611D01*
X7631429Y-12036679D02*
G01*
X7767828Y-12036679D01*
X7767828Y-12013819D01*
X7756652Y-11991213D01*
X7745222Y-11979783D01*
X7722362Y-11968353D01*
X7688326Y-11968353D01*
X7665720Y-11979783D01*
X7642860Y-12002643D01*
X7631429Y-12036679D01*
X7631429Y-12059285D01*
X7642860Y-12093575D01*
X7665720Y-12116180D01*
X7688326Y-12127611D01*
X7722362Y-12127611D01*
X7745222Y-12116180D01*
X7767828Y-12093575D01*
X7979156Y-11888851D02*
G01*
X7979156Y-12127611D01*
X7979156Y-12002643D02*
G01*
X7956550Y-11979783D01*
X7933690Y-11968353D01*
X7899654Y-11968353D01*
X7877047Y-11979783D01*
X7854188Y-12002643D01*
X7843012Y-12036679D01*
X7843012Y-12059285D01*
X7854188Y-12093575D01*
X7877047Y-12116180D01*
X7899654Y-12127611D01*
X7933690Y-12127611D01*
X7956550Y-12116180D01*
X7979156Y-12093575D01*
X8229345Y-11888851D02*
G01*
X8229345Y-12127611D01*
X8229345Y-12002643D02*
G01*
X8251952Y-11979783D01*
X8274812Y-11968353D01*
X8308847Y-11968353D01*
X8331454Y-11979783D01*
X8354313Y-12002643D01*
X8365744Y-12036679D01*
X8365744Y-12059285D01*
X8354313Y-12093575D01*
X8331454Y-12116180D01*
X8308847Y-12127611D01*
X8274812Y-12127611D01*
X8251952Y-12116180D01*
X8229345Y-12093575D01*
X8452104Y-11968353D02*
G01*
X8520176Y-12127611D01*
X8588247Y-11968353D02*
G01*
X8520176Y-12127611D01*
X8497570Y-12173077D01*
X8474710Y-12195683D01*
X8452104Y-12207113D01*
X8440674Y-12207113D01*
X8838438Y-11888851D02*
G01*
X8838438Y-12127611D01*
X8838438Y-11888851D02*
G01*
X8986012Y-11888851D01*
X8838438Y-12002643D02*
G01*
X8929370Y-12002643D01*
X8838438Y-12127611D02*
G01*
X8986012Y-12127611D01*
X9061195Y-11968353D02*
G01*
X9061195Y-12127611D01*
X9061195Y-12013819D02*
G01*
X9095231Y-11979783D01*
X9117838Y-11968353D01*
X9151874Y-11968353D01*
X9174734Y-11979783D01*
X9186163Y-12013819D01*
X9186163Y-12127611D01*
X9186163Y-12013819D02*
G01*
X9220200Y-11979783D01*
X9242806Y-11968353D01*
X9277095Y-11968353D01*
X9299702Y-11979783D01*
X9311131Y-12013819D01*
X9311131Y-12127611D01*
X9522460Y-11968353D02*
G01*
X9522460Y-12127611D01*
X9522460Y-12002643D02*
G01*
X9499600Y-11979783D01*
X9476994Y-11968353D01*
X9442958Y-11968353D01*
X9420097Y-11979783D01*
X9397492Y-12002643D01*
X9386062Y-12036679D01*
X9386062Y-12059285D01*
X9397492Y-12093575D01*
X9420097Y-12116180D01*
X9442958Y-12127611D01*
X9476994Y-12127611D01*
X9499600Y-12116180D01*
X9522460Y-12093575D01*
X9733788Y-11888851D02*
G01*
X9733788Y-12127611D01*
X9733788Y-12002643D02*
G01*
X9711181Y-11979783D01*
X9688322Y-11968353D01*
X9654286Y-11968353D01*
X9631426Y-11979783D01*
X9608820Y-12002643D01*
X9597390Y-12036679D01*
X9597390Y-12059285D01*
X9608820Y-12093575D01*
X9631426Y-12116180D01*
X9654286Y-12127611D01*
X9688322Y-12127611D01*
X9711181Y-12116180D01*
X9733788Y-12093575D01*
X10120122Y-11968353D02*
G01*
X10120122Y-12127611D01*
X10120122Y-12002643D02*
G01*
X10097515Y-11979783D01*
X10074656Y-11968353D01*
X10040620Y-11968353D01*
X10018013Y-11979783D01*
X9995154Y-12002643D01*
X9983724Y-12036679D01*
X9983724Y-12059285D01*
X9995154Y-12093575D01*
X10018013Y-12116180D01*
X10040620Y-12127611D01*
X10074656Y-12127611D01*
X10097515Y-12116180D01*
X10120122Y-12093575D01*
X10195052Y-11968353D02*
G01*
X10195052Y-12127611D01*
X10195052Y-12013819D02*
G01*
X10229342Y-11979783D01*
X10251947Y-11968353D01*
X10285984Y-11968353D01*
X10308844Y-11979783D01*
X10320274Y-12013819D01*
X10320274Y-12127611D01*
X10531602Y-11888851D02*
G01*
X10531602Y-12127611D01*
X10531602Y-12002643D02*
G01*
X10508742Y-11979783D01*
X10486136Y-11968353D01*
X10452100Y-11968353D01*
X10429240Y-11979783D01*
X10406634Y-12002643D01*
X10395204Y-12036679D01*
X10395204Y-12059285D01*
X10406634Y-12093575D01*
X10429240Y-12116180D01*
X10452100Y-12127611D01*
X10486136Y-12127611D01*
X10508742Y-12116180D01*
X10531602Y-12093575D01*
X10781538Y-11888851D02*
G01*
X10781538Y-12127611D01*
X10940542Y-11888851D02*
G01*
X10940542Y-12127611D01*
X10781538Y-12002643D02*
G01*
X10940542Y-12002643D01*
X11015726Y-11968353D02*
G01*
X11015726Y-12082145D01*
X11026902Y-12116180D01*
X11049762Y-12127611D01*
X11083797Y-12127611D01*
X11106658Y-12116180D01*
X11140694Y-12082145D01*
X11140694Y-11968353D02*
G01*
X11140694Y-12127611D01*
X11340592Y-12002643D02*
G01*
X11329162Y-11979783D01*
X11295126Y-11968353D01*
X11261090Y-11968353D01*
X11227054Y-11979783D01*
X11215624Y-12002643D01*
X11227054Y-12025249D01*
X11249660Y-12036679D01*
X11306556Y-12048109D01*
X11329162Y-12059285D01*
X11340592Y-12082145D01*
X11340592Y-12093575D01*
X11329162Y-12116180D01*
X11295126Y-12127611D01*
X11261090Y-12127611D01*
X11227054Y-12116180D01*
X11215624Y-12093575D01*
X11415522Y-11888851D02*
G01*
X11415522Y-12127611D01*
X11415522Y-12013819D02*
G01*
X11449812Y-11979783D01*
X11472418Y-11968353D01*
X11506454Y-11968353D01*
X11529313Y-11979783D01*
X11540744Y-12013819D01*
X11540744Y-12127611D01*
X11615674Y-11888851D02*
G01*
X11615674Y-12127611D01*
X11729212Y-11968353D02*
G01*
X11615674Y-12082145D01*
X11661140Y-12036679D02*
G01*
X11740642Y-12127611D01*
X11815572Y-11888851D02*
G01*
X11827002Y-11900280D01*
X11838431Y-11888851D01*
X11827002Y-11877675D01*
X11815572Y-11888851D01*
X11827002Y-11968353D02*
G01*
X11827002Y-12127611D01*
D10*
X-3505189Y-11070973D02*
G01*
X-3491473Y-11064115D01*
X-3471153Y-11043795D01*
X-3471153Y-11186797D01*
X-3419337Y-11077831D02*
G01*
X-3419337Y-11070973D01*
X-3412479Y-11057257D01*
X-3405621Y-11050399D01*
X-3391905Y-11043795D01*
X-3364727Y-11043795D01*
X-3351011Y-11050399D01*
X-3344407Y-11057257D01*
X-3337549Y-11070973D01*
X-3337549Y-11084689D01*
X-3344407Y-11098151D01*
X-3357869Y-11118725D01*
X-3426195Y-11186797D01*
X-3330691Y-11186797D01*
X-3285733Y-11091293D02*
G01*
X-3244839Y-11186797D01*
X-3203945Y-11091293D02*
G01*
X-3244839Y-11186797D01*
X-3303386Y-10773031D02*
G01*
X-3310244Y-10759315D01*
X-3323960Y-10745599D01*
X-3337676Y-10738995D01*
X-3364854Y-10738995D01*
X-3378570Y-10745599D01*
X-3392032Y-10759315D01*
X-3398890Y-10773031D01*
X-3405748Y-10793351D01*
X-3405748Y-10827641D01*
X-3398890Y-10847961D01*
X-3392032Y-10861677D01*
X-3378570Y-10875139D01*
X-3364854Y-10881997D01*
X-3337676Y-10881997D01*
X-3323960Y-10875139D01*
X-3310244Y-10861677D01*
X-3303386Y-10847961D01*
X-3303386Y-10827641D01*
X-3337676Y-10827641D02*
G01*
X-3303386Y-10827641D01*
D12*
X8842756Y-9619081D02*
G01*
X8842756Y-9455505D01*
X8924544Y-9537293D02*
G01*
X8760968Y-9537293D01*
X8842756Y-7689088D02*
G01*
X8842756Y-7525512D01*
X8924544Y-7607300D02*
G01*
X8760968Y-7607300D01*
X8842756Y-5759094D02*
G01*
X8842756Y-5595518D01*
X8924544Y-5677306D02*
G01*
X8760968Y-5677306D01*
X2124557Y-9537344D02*
G01*
X2288133Y-9537344D01*
X2124557Y-7607350D02*
G01*
X2288133Y-7607350D01*
X2124557Y-5677357D02*
G01*
X2288133Y-5677357D01*
D10*
X-469137Y-8750046D02*
G01*
X-474217Y-8739631D01*
X-484631Y-8729218D01*
X-495045Y-8723884D01*
X-515873Y-8723884D01*
X-526287Y-8729218D01*
X-536701Y-8739631D01*
X-541781Y-8750046D01*
X-547115Y-8765539D01*
X-547115Y-8791447D01*
X-541781Y-8807196D01*
X-536701Y-8817610D01*
X-526287Y-8828024D01*
X-515873Y-8833104D01*
X-495045Y-8833104D01*
X-484631Y-8828024D01*
X-474217Y-8817610D01*
X-469137Y-8807196D01*
X-372363Y-8739631D02*
G01*
X-377697Y-8729218D01*
X-393191Y-8723884D01*
X-403605Y-8723884D01*
X-419353Y-8729218D01*
X-429513Y-8744712D01*
X-434847Y-8770874D01*
X-434847Y-8796781D01*
X-429513Y-8817610D01*
X-419353Y-8828024D01*
X-403605Y-8833104D01*
X-398525Y-8833104D01*
X-382777Y-8828024D01*
X-372363Y-8817610D01*
X-367283Y-8801862D01*
X-367283Y-8796781D01*
X-372363Y-8781034D01*
X-382777Y-8770874D01*
X-398525Y-8765539D01*
X-403605Y-8765539D01*
X-419353Y-8770874D01*
X-429513Y-8781034D01*
X-434847Y-8796781D01*
D11*
X-573277Y-8928097D02*
G01*
X-573277Y-9026141D01*
X-622300Y-8977119D02*
G01*
X-524001Y-8977119D01*
X-406400Y-8977122D02*
G01*
X-308101Y-8977122D01*
D10*
X-1078737Y-8750046D02*
G01*
X-1084071Y-8739631D01*
X-1094485Y-8729218D01*
X-1104900Y-8723884D01*
X-1125473Y-8723884D01*
X-1135887Y-8729218D01*
X-1146301Y-8739631D01*
X-1151635Y-8750046D01*
X-1156715Y-8765539D01*
X-1156715Y-8791447D01*
X-1151635Y-8807196D01*
X-1146301Y-8817610D01*
X-1135887Y-8828024D01*
X-1125473Y-8833104D01*
X-1104900Y-8833104D01*
X-1094485Y-8828024D01*
X-1084071Y-8817610D01*
X-1078737Y-8807196D01*
X-971803Y-8723884D02*
G01*
X-1023619Y-8833104D01*
X-1044447Y-8723884D02*
G01*
X-971803Y-8723884D01*
D11*
X-1182877Y-8928097D02*
G01*
X-1182877Y-9026141D01*
X-1231900Y-8977119D02*
G01*
X-1133601Y-8977119D01*
X-1016000Y-8977122D02*
G01*
X-917701Y-8977122D01*
D10*
X-3289289Y-11378059D02*
G01*
X-3289289Y-11487279D01*
X-3289289Y-11378059D02*
G01*
X-3242553Y-11378059D01*
X-3227059Y-11383393D01*
X-3221725Y-11388473D01*
X-3216645Y-11398887D01*
X-3216645Y-11414635D01*
X-3221725Y-11424795D01*
X-3227059Y-11430129D01*
X-3242553Y-11435209D01*
X-3289289Y-11435209D01*
X-3182355Y-11378059D02*
G01*
X-3156193Y-11487279D01*
X-3130285Y-11378059D02*
G01*
X-3156193Y-11487279D01*
X-3130285Y-11378059D02*
G01*
X-3104377Y-11487279D01*
X-3078469Y-11378059D02*
G01*
X-3104377Y-11487279D01*
X-3044179Y-11378059D02*
G01*
X-3044179Y-11487279D01*
X-3044179Y-11378059D02*
G01*
X-2997189Y-11378059D01*
X-2981695Y-11383393D01*
X-2976615Y-11388473D01*
X-2971281Y-11398887D01*
X-2971281Y-11409301D01*
X-2976615Y-11419715D01*
X-2981695Y-11424795D01*
X-2997189Y-11430129D01*
X-3044179Y-11430129D01*
X-3007603Y-11430129D02*
G01*
X-2971281Y-11487279D01*
X-2936991Y-11523601D02*
G01*
X-2843519Y-11523601D01*
X-2809229Y-11378059D02*
G01*
X-2809229Y-11487279D01*
X-2774939Y-11378059D02*
G01*
X-2774939Y-11487279D01*
X-2774939Y-11378059D02*
G01*
X-2702295Y-11487279D01*
X-2702295Y-11378059D02*
G01*
X-2702295Y-11487279D01*
X2449921Y-11809981D02*
G01*
X2449921Y-11918947D01*
X2449921Y-11809981D02*
G01*
X2496657Y-11809981D01*
X2512151Y-11815061D01*
X2517485Y-11820395D01*
X2522565Y-11830809D01*
X2522565Y-11841223D01*
X2517485Y-11851637D01*
X2512151Y-11856717D01*
X2496657Y-11861797D01*
X2449921Y-11861797D02*
G01*
X2496657Y-11861797D01*
X2512151Y-11867131D01*
X2517485Y-11872211D01*
X2522565Y-11882625D01*
X2522565Y-11898373D01*
X2517485Y-11908787D01*
X2512151Y-11913867D01*
X2496657Y-11918947D01*
X2449921Y-11918947D01*
X2556855Y-11809981D02*
G01*
X2556855Y-11918947D01*
X2556855Y-11809981D02*
G01*
X2603591Y-11809981D01*
X2619339Y-11815061D01*
X2624419Y-11820395D01*
X2629753Y-11830809D01*
X2629753Y-11846303D01*
X2624419Y-11856717D01*
X2619339Y-11861797D01*
X2603591Y-11867131D01*
X2556855Y-11867131D01*
X2669123Y-11835889D02*
G01*
X2669123Y-11830809D01*
X2674457Y-11820395D01*
X2679537Y-11815061D01*
X2689951Y-11809981D01*
X2710779Y-11809981D01*
X2721193Y-11815061D01*
X2726273Y-11820395D01*
X2731607Y-11830809D01*
X2731607Y-11841223D01*
X2726273Y-11851637D01*
X2715859Y-11867131D01*
X2664043Y-11918947D01*
X2736687Y-11918947D01*
X2122792Y-12927581D02*
G01*
X2122792Y-13036547D01*
X2122792Y-12927581D02*
G01*
X2169528Y-12927581D01*
X2185022Y-12932661D01*
X2190356Y-12937995D01*
X2195436Y-12948409D01*
X2195436Y-12958823D01*
X2190356Y-12969237D01*
X2185022Y-12974317D01*
X2169528Y-12979397D01*
X2122792Y-12979397D02*
G01*
X2169528Y-12979397D01*
X2185022Y-12984731D01*
X2190356Y-12989811D01*
X2195436Y-13000225D01*
X2195436Y-13015973D01*
X2190356Y-13026387D01*
X2185022Y-13031467D01*
X2169528Y-13036547D01*
X2122792Y-13036547D01*
X2229726Y-12927581D02*
G01*
X2229726Y-13036547D01*
X2229726Y-12927581D02*
G01*
X2276462Y-12927581D01*
X2292210Y-12932661D01*
X2297290Y-12937995D01*
X2302624Y-12948409D01*
X2302624Y-12963903D01*
X2297290Y-12974317D01*
X2292210Y-12979397D01*
X2276462Y-12984731D01*
X2229726Y-12984731D01*
X2347328Y-12927581D02*
G01*
X2404478Y-12927581D01*
X2373236Y-12969237D01*
X2388730Y-12969237D01*
X2399144Y-12974317D01*
X2404478Y-12979397D01*
X2409558Y-12995145D01*
X2409558Y-13005559D01*
X2404478Y-13021053D01*
X2394064Y-13031467D01*
X2378316Y-13036547D01*
X2362822Y-13036547D01*
X2347328Y-13031467D01*
X2341994Y-13026387D01*
X2336914Y-13015973D01*
X2454262Y-12912087D02*
G01*
X2454262Y-12943075D01*
D11*
X2172423Y-12420594D02*
G01*
X2172423Y-12518638D01*
X2123401Y-12469616D02*
G01*
X2221699Y-12469616D01*
X2339301Y-12469619D02*
G01*
X2437599Y-12469619D01*
D10*
X-1563115Y-10186029D02*
G01*
X-1563115Y-10128879D01*
X-1521459Y-10160121D01*
X-1521459Y-10144373D01*
X-1516379Y-10134213D01*
X-1511300Y-10128879D01*
X-1495551Y-10123799D01*
X-1485137Y-10123799D01*
X-1469643Y-10128879D01*
X-1459229Y-10139293D01*
X-1454150Y-10154787D01*
X-1454150Y-10170535D01*
X-1459229Y-10186029D01*
X-1464309Y-10191363D01*
X-1474723Y-10196443D01*
X-1480057Y-10084175D02*
G01*
X-1474723Y-10089509D01*
X-1469643Y-10084175D01*
X-1474723Y-10079095D01*
X-1480057Y-10084175D01*
X-1563115Y-10034391D02*
G01*
X-1563115Y-9977241D01*
X-1521459Y-10008483D01*
X-1521459Y-9992735D01*
X-1516379Y-9982321D01*
X-1511300Y-9977241D01*
X-1495551Y-9971907D01*
X-1485137Y-9971907D01*
X-1469643Y-9977241D01*
X-1459229Y-9987655D01*
X-1454150Y-10003149D01*
X-1454150Y-10018643D01*
X-1459229Y-10034391D01*
X-1464309Y-10039471D01*
X-1474723Y-10044805D01*
X-1563115Y-9937617D02*
G01*
X-1454150Y-9896215D01*
X-1563115Y-9854559D02*
G01*
X-1454150Y-9896215D01*
X-547115Y-10058397D02*
G01*
X-547115Y-10110213D01*
X-500379Y-10115547D01*
X-505459Y-10110213D01*
X-510793Y-10094719D01*
X-510793Y-10078971D01*
X-505459Y-10063477D01*
X-495300Y-10053063D01*
X-479551Y-10047983D01*
X-469137Y-10047983D01*
X-453643Y-10053063D01*
X-443229Y-10063477D01*
X-438150Y-10078971D01*
X-438150Y-10094719D01*
X-443229Y-10110213D01*
X-448309Y-10115547D01*
X-458723Y-10120627D01*
X-547115Y-10013693D02*
G01*
X-438150Y-9972037D01*
X-547115Y-9930381D02*
G01*
X-438150Y-9972037D01*
X1861187Y-11809984D02*
G01*
X1861187Y-11918950D01*
X1861187Y-11809984D02*
G01*
X1907923Y-11809984D01*
X1923417Y-11815063D01*
X1928751Y-11820397D01*
X1933831Y-11830812D01*
X1933831Y-11841226D01*
X1928751Y-11851639D01*
X1923417Y-11856720D01*
X1907923Y-11861800D01*
X1861187Y-11861800D02*
G01*
X1907923Y-11861800D01*
X1923417Y-11867134D01*
X1928751Y-11872213D01*
X1933831Y-11882628D01*
X1933831Y-11898376D01*
X1928751Y-11908789D01*
X1923417Y-11913870D01*
X1907923Y-11918950D01*
X1861187Y-11918950D01*
X1968121Y-11809984D02*
G01*
X1968121Y-11918950D01*
X1968121Y-11809984D02*
G01*
X2014857Y-11809984D01*
X2030605Y-11815063D01*
X2035685Y-11820397D01*
X2041019Y-11830812D01*
X2041019Y-11846305D01*
X2035685Y-11856720D01*
X2030605Y-11861800D01*
X2014857Y-11867134D01*
X1968121Y-11867134D01*
X2075309Y-11830812D02*
G01*
X2085723Y-11825478D01*
X2101217Y-11809984D01*
X2101217Y-11918950D01*
X313690Y-8129513D02*
G01*
X308356Y-8119099D01*
X297942Y-8108685D01*
X287782Y-8103605D01*
X266954Y-8103605D01*
X256540Y-8108685D01*
X246126Y-8119099D01*
X240792Y-8129513D01*
X235712Y-8145261D01*
X235712Y-8171169D01*
X240792Y-8186663D01*
X246126Y-8197077D01*
X256540Y-8207491D01*
X266954Y-8212571D01*
X287782Y-8212571D01*
X297942Y-8207491D01*
X308356Y-8197077D01*
X313690Y-8186663D01*
X347980Y-8124433D02*
G01*
X358394Y-8119099D01*
X373888Y-8103605D01*
X373888Y-8212571D01*
X-1779780Y-8129513D02*
G01*
X-1785114Y-8119099D01*
X-1795528Y-8108685D01*
X-1805688Y-8103605D01*
X-1826516Y-8103605D01*
X-1836930Y-8108685D01*
X-1847344Y-8119099D01*
X-1852678Y-8129513D01*
X-1857758Y-8145261D01*
X-1857758Y-8171169D01*
X-1852678Y-8186663D01*
X-1847344Y-8197077D01*
X-1836930Y-8207491D01*
X-1826516Y-8212571D01*
X-1805688Y-8212571D01*
X-1795528Y-8207491D01*
X-1785114Y-8197077D01*
X-1779780Y-8186663D01*
X-1740410Y-8129513D02*
G01*
X-1740410Y-8124433D01*
X-1735076Y-8114019D01*
X-1729996Y-8108685D01*
X-1719582Y-8103605D01*
X-1698754Y-8103605D01*
X-1688340Y-8108685D01*
X-1683260Y-8114019D01*
X-1677926Y-8124433D01*
X-1677926Y-8134847D01*
X-1683260Y-8145261D01*
X-1693674Y-8160755D01*
X-1745490Y-8212571D01*
X-1672846Y-8212571D01*
X181825Y-10588099D02*
G01*
X176491Y-10577685D01*
X166077Y-10567271D01*
X155917Y-10562191D01*
X135089Y-10562191D01*
X124675Y-10567271D01*
X114261Y-10577685D01*
X108927Y-10588099D01*
X103847Y-10603847D01*
X103847Y-10629755D01*
X108927Y-10645249D01*
X114261Y-10655663D01*
X124675Y-10666077D01*
X135089Y-10671157D01*
X155917Y-10671157D01*
X166077Y-10666077D01*
X176491Y-10655663D01*
X181825Y-10645249D01*
X226529Y-10562191D02*
G01*
X283679Y-10562191D01*
X252437Y-10603847D01*
X267931Y-10603847D01*
X278345Y-10608927D01*
X283679Y-10614007D01*
X288759Y-10629755D01*
X288759Y-10640169D01*
X283679Y-10655663D01*
X273265Y-10666077D01*
X257517Y-10671157D01*
X242023Y-10671157D01*
X226529Y-10666077D01*
X221195Y-10660997D01*
X216115Y-10650583D01*
X-624093Y-10588099D02*
G01*
X-629427Y-10577685D01*
X-639841Y-10567271D01*
X-650001Y-10562191D01*
X-670829Y-10562191D01*
X-681243Y-10567271D01*
X-691657Y-10577685D01*
X-696991Y-10588099D01*
X-702071Y-10603847D01*
X-702071Y-10629755D01*
X-696991Y-10645249D01*
X-691657Y-10655663D01*
X-681243Y-10666077D01*
X-670829Y-10671157D01*
X-650001Y-10671157D01*
X-639841Y-10666077D01*
X-629427Y-10655663D01*
X-624093Y-10645249D01*
X-537987Y-10562191D02*
G01*
X-589803Y-10634835D01*
X-511825Y-10634835D01*
X-537987Y-10562191D02*
G01*
X-537987Y-10671157D01*
X-1427030Y-10588099D02*
G01*
X-1432364Y-10577685D01*
X-1442778Y-10567271D01*
X-1452938Y-10562191D01*
X-1473766Y-10562191D01*
X-1484180Y-10567271D01*
X-1494594Y-10577685D01*
X-1499928Y-10588099D01*
X-1505008Y-10603847D01*
X-1505008Y-10629755D01*
X-1499928Y-10645249D01*
X-1494594Y-10655663D01*
X-1484180Y-10666077D01*
X-1473766Y-10671157D01*
X-1452938Y-10671157D01*
X-1442778Y-10666077D01*
X-1432364Y-10655663D01*
X-1427030Y-10645249D01*
X-1330510Y-10562191D02*
G01*
X-1382326Y-10562191D01*
X-1387660Y-10608927D01*
X-1382326Y-10603847D01*
X-1366832Y-10598513D01*
X-1351338Y-10598513D01*
X-1335590Y-10603847D01*
X-1325176Y-10614007D01*
X-1320096Y-10629755D01*
X-1320096Y-10640169D01*
X-1325176Y-10655663D01*
X-1335590Y-10666077D01*
X-1351338Y-10671157D01*
X-1366832Y-10671157D01*
X-1382326Y-10666077D01*
X-1387660Y-10660997D01*
X-1392740Y-10650583D01*
X-1520695Y-4495960D02*
G01*
X-1520695Y-4604926D01*
X-1520695Y-4495960D02*
G01*
X-1484373Y-4495960D01*
X-1468625Y-4501040D01*
X-1458465Y-4511454D01*
X-1453131Y-4521868D01*
X-1448051Y-4537616D01*
X-1448051Y-4563524D01*
X-1453131Y-4579018D01*
X-1458465Y-4589432D01*
X-1468625Y-4599846D01*
X-1484373Y-4604926D01*
X-1520695Y-4604926D01*
X-1413761Y-4516788D02*
G01*
X-1403347Y-4511454D01*
X-1387599Y-4495960D01*
X-1387599Y-4604926D01*
X-140710Y-4508652D02*
G01*
X-140710Y-4617618D01*
X-140710Y-4508652D02*
G01*
X-104388Y-4508652D01*
X-88640Y-4513732D01*
X-78480Y-4524146D01*
X-73146Y-4534560D01*
X-68066Y-4550308D01*
X-68066Y-4576216D01*
X-73146Y-4591710D01*
X-78480Y-4602124D01*
X-88640Y-4612538D01*
X-104388Y-4617618D01*
X-140710Y-4617618D01*
X-28442Y-4534560D02*
G01*
X-28442Y-4529480D01*
X-23362Y-4519066D01*
X-18028Y-4513732D01*
X-7614Y-4508652D01*
X12959Y-4508652D01*
X23373Y-4513732D01*
X28707Y-4519066D01*
X33787Y-4529480D01*
X33787Y-4539894D01*
X28707Y-4550308D01*
X18293Y-4565802D01*
X-33776Y-4617618D01*
X39121Y-4617618D01*
X-140710Y-5015481D02*
G01*
X-140710Y-5124447D01*
X-140710Y-5015481D02*
G01*
X-104388Y-5015481D01*
X-88640Y-5020561D01*
X-78480Y-5030975D01*
X-73146Y-5041389D01*
X-68066Y-5057137D01*
X-68066Y-5083045D01*
X-73146Y-5098539D01*
X-78480Y-5108953D01*
X-88640Y-5119367D01*
X-104388Y-5124447D01*
X-140710Y-5124447D01*
X-23362Y-5015481D02*
G01*
X33787Y-5015481D01*
X2799Y-5057137D01*
X18293Y-5057137D01*
X28707Y-5062217D01*
X33787Y-5067297D01*
X39121Y-5083045D01*
X39121Y-5093459D01*
X33787Y-5108953D01*
X23373Y-5119367D01*
X7879Y-5124447D01*
X-7614Y-5124447D01*
X-23362Y-5119367D01*
X-28442Y-5114287D01*
X-33776Y-5103873D01*
X-1546603Y-5015478D02*
G01*
X-1546603Y-5124444D01*
X-1546603Y-5015478D02*
G01*
X-1510281Y-5015478D01*
X-1494533Y-5020558D01*
X-1484373Y-5030972D01*
X-1479039Y-5041386D01*
X-1473959Y-5057134D01*
X-1473959Y-5083042D01*
X-1479039Y-5098536D01*
X-1484373Y-5108950D01*
X-1494533Y-5119364D01*
X-1510281Y-5124444D01*
X-1546603Y-5124444D01*
X-1387599Y-5015478D02*
G01*
X-1439669Y-5088122D01*
X-1361691Y-5088122D01*
X-1387599Y-5015478D02*
G01*
X-1387599Y-5124444D01*
X-1544063Y-5498066D02*
G01*
X-1544063Y-5607032D01*
X-1544063Y-5498066D02*
G01*
X-1507741Y-5498066D01*
X-1491993Y-5503146D01*
X-1481833Y-5513560D01*
X-1476499Y-5523974D01*
X-1471419Y-5539722D01*
X-1471419Y-5565630D01*
X-1476499Y-5581124D01*
X-1481833Y-5591538D01*
X-1491993Y-5601952D01*
X-1507741Y-5607032D01*
X-1544063Y-5607032D01*
X-1374645Y-5498066D02*
G01*
X-1426715Y-5498066D01*
X-1431795Y-5544802D01*
X-1426715Y-5539722D01*
X-1410967Y-5534388D01*
X-1395473Y-5534388D01*
X-1379979Y-5539722D01*
X-1369565Y-5549882D01*
X-1364231Y-5565630D01*
X-1364231Y-5576044D01*
X-1369565Y-5591538D01*
X-1379979Y-5601952D01*
X-1395473Y-5607032D01*
X-1410967Y-5607032D01*
X-1426715Y-5601952D01*
X-1431795Y-5596872D01*
X-1437129Y-5586458D01*
X-138046Y-5498066D02*
G01*
X-138046Y-5607032D01*
X-138046Y-5498066D02*
G01*
X-101724Y-5498066D01*
X-85976Y-5503146D01*
X-75816Y-5513560D01*
X-70482Y-5523974D01*
X-65402Y-5539722D01*
X-65402Y-5565630D01*
X-70482Y-5581124D01*
X-75816Y-5591538D01*
X-85976Y-5601952D01*
X-101724Y-5607032D01*
X-138046Y-5607032D01*
X31371Y-5513560D02*
G01*
X26037Y-5503146D01*
X10543Y-5498066D01*
X129Y-5498066D01*
X-15364Y-5503146D01*
X-25778Y-5518894D01*
X-31112Y-5544802D01*
X-31112Y-5570710D01*
X-25778Y-5591538D01*
X-15364Y-5601952D01*
X129Y-5607032D01*
X5463Y-5607032D01*
X20957Y-5601952D01*
X31371Y-5591538D01*
X36451Y-5576044D01*
X36451Y-5570710D01*
X31371Y-5555216D01*
X20957Y-5544802D01*
X5463Y-5539722D01*
X129Y-5539722D01*
X-15364Y-5544802D01*
X-25778Y-5555216D01*
X-31112Y-5570710D01*
X-1544063Y-5993381D02*
G01*
X-1544063Y-6102347D01*
X-1544063Y-5993381D02*
G01*
X-1507741Y-5993381D01*
X-1491993Y-5998461D01*
X-1481833Y-6008875D01*
X-1476499Y-6019289D01*
X-1471419Y-6035037D01*
X-1471419Y-6060945D01*
X-1476499Y-6076439D01*
X-1481833Y-6086853D01*
X-1491993Y-6097267D01*
X-1507741Y-6102347D01*
X-1544063Y-6102347D01*
X-1364231Y-5993381D02*
G01*
X-1416301Y-6102347D01*
X-1437129Y-5993381D02*
G01*
X-1364231Y-5993381D01*
X-140710Y-5993384D02*
G01*
X-140710Y-6102350D01*
X-140710Y-5993384D02*
G01*
X-104388Y-5993384D01*
X-88640Y-5998463D01*
X-78480Y-6008878D01*
X-73146Y-6019292D01*
X-68066Y-6035039D01*
X-68066Y-6060947D01*
X-73146Y-6076442D01*
X-78480Y-6086855D01*
X-88640Y-6097270D01*
X-104388Y-6102350D01*
X-140710Y-6102350D01*
X-7614Y-5993384D02*
G01*
X-23362Y-5998463D01*
X-28442Y-6008878D01*
X-28442Y-6019292D01*
X-23362Y-6029705D01*
X-12948Y-6035039D01*
X7879Y-6040120D01*
X23373Y-6045200D01*
X33787Y-6055613D01*
X39121Y-6066028D01*
X39121Y-6081776D01*
X33787Y-6092189D01*
X28707Y-6097270D01*
X12959Y-6102350D01*
X-7614Y-6102350D01*
X-23362Y-6097270D01*
X-28442Y-6092189D01*
X-33776Y-6081776D01*
X-33776Y-6066028D01*
X-28442Y-6055613D01*
X-18028Y-6045200D01*
X-2534Y-6040120D01*
X18293Y-6035039D01*
X28707Y-6029705D01*
X33787Y-6019292D01*
X33787Y-6008878D01*
X28707Y-5998463D01*
X12959Y-5993384D01*
X-7614Y-5993384D01*
X5235120Y-12000481D02*
G01*
X5235120Y-12109447D01*
X5235120Y-12000481D02*
G01*
X5276776Y-12109447D01*
X5318178Y-12000481D02*
G01*
X5276776Y-12109447D01*
X5318178Y-12000481D02*
G01*
X5318178Y-12109447D01*
X5383710Y-12000481D02*
G01*
X5373296Y-12005561D01*
X5362882Y-12015975D01*
X5357802Y-12026389D01*
X5352468Y-12042137D01*
X5352468Y-12068045D01*
X5357802Y-12083539D01*
X5362882Y-12093953D01*
X5373296Y-12104367D01*
X5383710Y-12109447D01*
X5404538Y-12109447D01*
X5414952Y-12104367D01*
X5425366Y-12093953D01*
X5430446Y-12083539D01*
X5435780Y-12068045D01*
X5435780Y-12042137D01*
X5430446Y-12026389D01*
X5425366Y-12015975D01*
X5414952Y-12005561D01*
X5404538Y-12000481D01*
X5383710Y-12000481D01*
X5506392Y-12000481D02*
G01*
X5506392Y-12109447D01*
X5470070Y-12000481D02*
G01*
X5542714Y-12000481D01*
X5608246Y-12000481D02*
G01*
X5597832Y-12005561D01*
X5587418Y-12015975D01*
X5582084Y-12026389D01*
X5577004Y-12042137D01*
X5577004Y-12068045D01*
X5582084Y-12083539D01*
X5587418Y-12093953D01*
X5597832Y-12104367D01*
X5608246Y-12109447D01*
X5628820Y-12109447D01*
X5639234Y-12104367D01*
X5649648Y-12093953D01*
X5654982Y-12083539D01*
X5660062Y-12068045D01*
X5660062Y-12042137D01*
X5654982Y-12026389D01*
X5649648Y-12015975D01*
X5639234Y-12005561D01*
X5628820Y-12000481D01*
X5608246Y-12000481D01*
X5694352Y-12000481D02*
G01*
X5694352Y-12109447D01*
X5694352Y-12000481D02*
G01*
X5741088Y-12000481D01*
X5756836Y-12005561D01*
X5761916Y-12010895D01*
X5767250Y-12021309D01*
X5767250Y-12031723D01*
X5761916Y-12042137D01*
X5756836Y-12047217D01*
X5741088Y-12052297D01*
X5694352Y-12052297D01*
X5730674Y-12052297D02*
G01*
X5767250Y-12109447D01*
X5801540Y-12146023D02*
G01*
X5895012Y-12146023D01*
X5929302Y-12021309D02*
G01*
X5939716Y-12015975D01*
X5955210Y-12000481D01*
X5955210Y-12109447D01*
X5115384Y-3161286D02*
G01*
X5115384Y-3270252D01*
X5115384Y-3161286D02*
G01*
X5157040Y-3270252D01*
X5198442Y-3161286D02*
G01*
X5157040Y-3270252D01*
X5198442Y-3161286D02*
G01*
X5198442Y-3270252D01*
X5263974Y-3161286D02*
G01*
X5253560Y-3166366D01*
X5243146Y-3176780D01*
X5238066Y-3187194D01*
X5232732Y-3202942D01*
X5232732Y-3228850D01*
X5238066Y-3244344D01*
X5243146Y-3254758D01*
X5253560Y-3265172D01*
X5263974Y-3270252D01*
X5284802Y-3270252D01*
X5295216Y-3265172D01*
X5305630Y-3254758D01*
X5310710Y-3244344D01*
X5316044Y-3228850D01*
X5316044Y-3202942D01*
X5310710Y-3187194D01*
X5305630Y-3176780D01*
X5295216Y-3166366D01*
X5284802Y-3161286D01*
X5263974Y-3161286D01*
X5386656Y-3161286D02*
G01*
X5386656Y-3270252D01*
X5350334Y-3161286D02*
G01*
X5422978Y-3161286D01*
X5488510Y-3161286D02*
G01*
X5478096Y-3166366D01*
X5467682Y-3176780D01*
X5462348Y-3187194D01*
X5457268Y-3202942D01*
X5457268Y-3228850D01*
X5462348Y-3244344D01*
X5467682Y-3254758D01*
X5478096Y-3265172D01*
X5488510Y-3270252D01*
X5509084Y-3270252D01*
X5519498Y-3265172D01*
X5529912Y-3254758D01*
X5535246Y-3244344D01*
X5540326Y-3228850D01*
X5540326Y-3202942D01*
X5535246Y-3187194D01*
X5529912Y-3176780D01*
X5519498Y-3166366D01*
X5509084Y-3161286D01*
X5488510Y-3161286D01*
X5574616Y-3161286D02*
G01*
X5574616Y-3270252D01*
X5574616Y-3161286D02*
G01*
X5621352Y-3161286D01*
X5637100Y-3166366D01*
X5642180Y-3171700D01*
X5647514Y-3182114D01*
X5647514Y-3192528D01*
X5642180Y-3202942D01*
X5637100Y-3208022D01*
X5621352Y-3213102D01*
X5574616Y-3213102D01*
X5610938Y-3213102D02*
G01*
X5647514Y-3270252D01*
X5681804Y-3306828D02*
G01*
X5775276Y-3306828D01*
X5814646Y-3187194D02*
G01*
X5814646Y-3182114D01*
X5819980Y-3171700D01*
X5825060Y-3166366D01*
X5835474Y-3161286D01*
X5856302Y-3161286D01*
X5866716Y-3166366D01*
X5871796Y-3171700D01*
X5877130Y-3182114D01*
X5877130Y-3192528D01*
X5871796Y-3202942D01*
X5861382Y-3218436D01*
X5809566Y-3270252D01*
X5882210Y-3270252D01*
X-3188718Y-7416810D02*
G01*
X-3079752Y-7416810D01*
X-3188718Y-7416810D02*
G01*
X-3188718Y-7370074D01*
X-3183638Y-7354580D01*
X-3178304Y-7349246D01*
X-3167890Y-7344166D01*
X-3157476Y-7344166D01*
X-3147062Y-7349246D01*
X-3141982Y-7354580D01*
X-3136902Y-7370074D01*
X-3136902Y-7416810D01*
X-3136902Y-7380488D02*
G01*
X-3079752Y-7344166D01*
X-3167890Y-7309876D02*
G01*
X-3173224Y-7299462D01*
X-3188718Y-7283714D01*
X-3079752Y-7283714D01*
X-753308Y-7998284D02*
G01*
X-753308Y-8076262D01*
X-748228Y-8091756D01*
X-737814Y-8102170D01*
X-722066Y-8107250D01*
X-711652Y-8107250D01*
X-696158Y-8102170D01*
X-685744Y-8091756D01*
X-680664Y-8076262D01*
X-680664Y-7998284D01*
X-641040Y-8024192D02*
G01*
X-641040Y-8019112D01*
X-635960Y-8008698D01*
X-630626Y-8003364D01*
X-620212Y-7998284D01*
X-599638Y-7998284D01*
X-589224Y-8003364D01*
X-583890Y-8008698D01*
X-578810Y-8019112D01*
X-578810Y-8029526D01*
X-583890Y-8039940D01*
X-594304Y-8055434D01*
X-646374Y-8107250D01*
X-573476Y-8107250D01*
X-1763516Y-9054589D02*
G01*
X-1768850Y-9044175D01*
X-1779264Y-9033761D01*
X-1789424Y-9028681D01*
X-1810252Y-9028681D01*
X-1820666Y-9033761D01*
X-1831080Y-9044175D01*
X-1836414Y-9054589D01*
X-1841494Y-9070337D01*
X-1841494Y-9096245D01*
X-1836414Y-9111739D01*
X-1831080Y-9122153D01*
X-1820666Y-9132567D01*
X-1810252Y-9137647D01*
X-1789424Y-9137647D01*
X-1779264Y-9132567D01*
X-1768850Y-9122153D01*
X-1763516Y-9111739D01*
X-1677410Y-9028681D02*
G01*
X-1729226Y-9101325D01*
X-1651248Y-9101325D01*
X-1677410Y-9028681D02*
G01*
X-1677410Y-9137647D01*
X-1606544Y-9013187D02*
G01*
X-1606544Y-9044175D01*
X293888Y-9054589D02*
G01*
X288554Y-9044175D01*
X278140Y-9033761D01*
X267980Y-9028681D01*
X247152Y-9028681D01*
X236738Y-9033761D01*
X226324Y-9044175D01*
X220990Y-9054589D01*
X215910Y-9070337D01*
X215910Y-9096245D01*
X220990Y-9111739D01*
X226324Y-9122153D01*
X236738Y-9132567D01*
X247152Y-9137647D01*
X267980Y-9137647D01*
X278140Y-9132567D01*
X288554Y-9122153D01*
X293888Y-9111739D01*
X390408Y-9028681D02*
G01*
X338592Y-9028681D01*
X333258Y-9075417D01*
X338592Y-9070337D01*
X354086Y-9065003D01*
X369580Y-9065003D01*
X385328Y-9070337D01*
X395742Y-9080497D01*
X400822Y-9096245D01*
X400822Y-9106659D01*
X395742Y-9122153D01*
X385328Y-9132567D01*
X369580Y-9137647D01*
X354086Y-9137647D01*
X338592Y-9132567D01*
X333258Y-9127487D01*
X328178Y-9117073D01*
X445526Y-9013187D02*
G01*
X445526Y-9044175D01*
D13*
X1639519Y-10591800D02*
G01*
X1639519Y-8602294D01*
X1639519Y-6612305D01*
X1639519Y-4622800D01*
X9409480Y-4622800D02*
G01*
X9409480Y-6612305D01*
X9409480Y-8602294D01*
X9409480Y-10591800D01*
X1639519Y-4622800D02*
G01*
X9409480Y-4622800D01*
X9409480Y-10591800D02*
G01*
X1639519Y-10591800D01*
X9409480Y-8602294D02*
G01*
X1639519Y-8602294D01*
X9409480Y-6612305D02*
G01*
X1639519Y-6612305D01*
D14*
X-228600Y-9017000D02*
G01*
X-228600Y-9207500D01*
X-838200Y-9017000D02*
G01*
X-838200Y-9207500D01*
X-3149894Y-11260686D02*
G01*
X-3149894Y-10684690D01*
X-2870901Y-10684690D01*
X-2870901Y-11260686D01*
X-3149894Y-11260686D01*
D10*
X2834421Y-11968436D02*
G01*
X2685922Y-11968436D01*
X2685922Y-12186958D02*
G01*
X2834421Y-12186958D01*
X2849661Y-12171718D02*
G01*
X2849661Y-11983676D01*
X2352182Y-11968436D02*
G01*
X2500680Y-11968436D01*
X2500680Y-12186958D02*
G01*
X2352182Y-12186958D01*
X2336942Y-12171718D02*
G01*
X2336942Y-11983676D01*
D14*
X2517101Y-12509497D02*
G01*
X2517101Y-12699997D01*
D15*
X-3755100Y-9294500D02*
G01*
X-2135088Y-9294500D01*
X-2135088Y-10394497D01*
X-3755100Y-10394497D01*
X-3755100Y-9294500D01*
D14*
X-2171247Y-3088299D02*
G01*
X-2171247Y-4176999D01*
X-1794245Y-3505200D02*
G01*
X-1791246Y-3088299D01*
X228754Y-3088299D02*
G01*
X228754Y-3508298D01*
X628754Y-3088299D02*
G01*
X618754Y-4178300D01*
X-2168245Y-3088299D02*
G01*
X625754Y-3088299D01*
X118755Y-1678299D02*
G01*
X118755Y-2773298D01*
X-2274044Y-2778300D02*
G01*
X748753Y-2778300D01*
X-1671246Y-1688299D02*
G01*
X-1671246Y-2778300D01*
X-1071244Y-1698299D02*
G01*
X-1071244Y-2778300D01*
X-471246Y-1688299D02*
G01*
X-471246Y-2778300D01*
X-2276845Y-4178300D02*
G01*
X-2281247Y-1678299D01*
X745754Y-4178300D02*
G01*
X748753Y-1678299D01*
X227594Y-3505200D02*
G01*
X95514Y-3505200D01*
X-2175245Y-4178300D02*
G01*
X-2276845Y-4178300D01*
X618754Y-4178300D02*
G01*
X745754Y-4178300D01*
X225054Y-3505200D02*
G01*
X-1794245Y-3505200D01*
X-1794245Y-3505200D02*
G01*
X-1662165Y-3505200D01*
X-1428485Y-3505200D02*
G01*
X-1408165Y-3505200D01*
X-1174485Y-3505200D02*
G01*
X-1154165Y-3505200D01*
X-923025Y-3505200D02*
G01*
X-902705Y-3505200D01*
X-669025Y-3505200D02*
G01*
X-648705Y-3505200D01*
X-412485Y-3505200D02*
G01*
X-392165Y-3505200D01*
X-158485Y-3505200D02*
G01*
X-138165Y-3505200D01*
X-1412199Y-10225501D02*
G01*
X-772200Y-10225501D01*
X-1412199Y-10225501D02*
G01*
X-1412199Y-9845502D01*
X-772200Y-9845502D02*
G01*
X-1412199Y-9845502D01*
X-772200Y-9845502D02*
G01*
X-772200Y-10225501D01*
X-396199Y-10225501D02*
G01*
X243799Y-10225501D01*
X-396199Y-10225501D02*
G01*
X-396199Y-9845502D01*
X243799Y-9845502D02*
G01*
X-396199Y-9845502D01*
X243799Y-9845502D02*
G01*
X243799Y-10225501D01*
D10*
X2222319Y-11968439D02*
G01*
X2073821Y-11968439D01*
X2073821Y-12186960D02*
G01*
X2222319Y-12186960D01*
X2237559Y-12171720D02*
G01*
X2237559Y-11983679D01*
X1740080Y-11968439D02*
G01*
X1888578Y-11968439D01*
X1888578Y-12186960D02*
G01*
X1740080Y-12186960D01*
X1724840Y-12171720D02*
G01*
X1724840Y-11983679D01*
X545919Y-8262061D02*
G01*
X397421Y-8262061D01*
X397421Y-8480582D02*
G01*
X545919Y-8480582D01*
X561159Y-8465342D02*
G01*
X561159Y-8277301D01*
X63680Y-8262061D02*
G01*
X212178Y-8262061D01*
X212178Y-8480582D02*
G01*
X63680Y-8480582D01*
X48440Y-8465342D02*
G01*
X48440Y-8277301D01*
X-1524180Y-8262061D02*
G01*
X-1672678Y-8262061D01*
X-1672678Y-8480582D02*
G01*
X-1524180Y-8480582D01*
X-1508940Y-8465342D02*
G01*
X-1508940Y-8277301D01*
X-2006419Y-8262061D02*
G01*
X-1857921Y-8262061D01*
X-1857921Y-8480582D02*
G01*
X-2006419Y-8480582D01*
X-2021659Y-8465342D02*
G01*
X-2021659Y-8277301D01*
D14*
X272999Y-10985500D02*
G01*
X457809Y-10985500D01*
X457809Y-10731500D01*
X272999Y-10731500D01*
X120599Y-10731500D02*
G01*
X-65201Y-10731500D01*
X-65201Y-10985500D01*
X120599Y-10985500D01*
X-530252Y-10985500D02*
G01*
X-345442Y-10985500D01*
X-345442Y-10731500D01*
X-530252Y-10731500D01*
X-682652Y-10731500D02*
G01*
X-868453Y-10731500D01*
X-868453Y-10985500D01*
X-682652Y-10985500D01*
X-1333500Y-10985500D02*
G01*
X-1148689Y-10985500D01*
X-1148689Y-10731500D01*
X-1333500Y-10731500D01*
X-1485900Y-10731500D02*
G01*
X-1671700Y-10731500D01*
X-1671700Y-10985500D01*
X-1485900Y-10985500D01*
X-1714149Y-4681415D02*
G01*
X-1194150Y-4681415D01*
X-1194150Y-4681415D02*
G01*
X-1194150Y-4961415D01*
X-1714149Y-4961415D02*
G01*
X-1194150Y-4961415D01*
X-1714149Y-4681415D02*
G01*
X-1714149Y-4961415D01*
X-1618223Y-4681415D02*
G01*
X-1618223Y-4961415D01*
X-310799Y-4681415D02*
G01*
X209199Y-4681415D01*
X209199Y-4681415D02*
G01*
X209199Y-4961415D01*
X-310799Y-4961415D02*
G01*
X209199Y-4961415D01*
X-310799Y-4681415D02*
G01*
X-310799Y-4961415D01*
X-214873Y-4681415D02*
G01*
X-214873Y-4961415D01*
X-310799Y-5169776D02*
G01*
X209199Y-5169776D01*
X209199Y-5169776D02*
G01*
X209199Y-5449775D01*
X-310799Y-5449775D02*
G01*
X209199Y-5449775D01*
X-310799Y-5169776D02*
G01*
X-310799Y-5449775D01*
X-214873Y-5169776D02*
G01*
X-214873Y-5449775D01*
X-1714149Y-5169778D02*
G01*
X-1194150Y-5169778D01*
X-1194150Y-5169778D02*
G01*
X-1194150Y-5449778D01*
X-1714149Y-5449778D02*
G01*
X-1194150Y-5449778D01*
X-1714149Y-5169778D02*
G01*
X-1714149Y-5449778D01*
X-1618223Y-5169778D02*
G01*
X-1618223Y-5449778D01*
X-1714149Y-5658139D02*
G01*
X-1194150Y-5658139D01*
X-1194150Y-5658139D02*
G01*
X-1194150Y-5938138D01*
X-1714149Y-5938138D02*
G01*
X-1194150Y-5938138D01*
X-1714149Y-5658139D02*
G01*
X-1714149Y-5938138D01*
X-1618223Y-5658139D02*
G01*
X-1618223Y-5938138D01*
X-323499Y-5658142D02*
G01*
X196499Y-5658142D01*
X196499Y-5658142D02*
G01*
X196499Y-5938141D01*
X-323499Y-5938141D02*
G01*
X196499Y-5938141D01*
X-323499Y-5658142D02*
G01*
X-323499Y-5938141D01*
X-227573Y-5658142D02*
G01*
X-227573Y-5938141D01*
X-1714149Y-6146500D02*
G01*
X-1194150Y-6146500D01*
X-1194150Y-6146500D02*
G01*
X-1194150Y-6426499D01*
X-1714149Y-6426499D02*
G01*
X-1194150Y-6426499D01*
X-1714149Y-6146500D02*
G01*
X-1714149Y-6426499D01*
X-1618223Y-6146500D02*
G01*
X-1618223Y-6426499D01*
X-310799Y-6146500D02*
G01*
X209199Y-6146500D01*
X209199Y-6146500D02*
G01*
X209199Y-6426499D01*
X-310799Y-6426499D02*
G01*
X209199Y-6426499D01*
X-310799Y-6146500D02*
G01*
X-310799Y-6426499D01*
X-214873Y-6146500D02*
G01*
X-214873Y-6426499D01*
X5075298Y-12211100D02*
G01*
X6075299Y-12211100D01*
X6075299Y-12211100D02*
G01*
X6075299Y-12981099D01*
X5075298Y-12211100D02*
G01*
X5075298Y-12981099D01*
X5075298Y-12981099D02*
G01*
X6075299Y-12981099D01*
X5075298Y-12391044D02*
G01*
X6075299Y-12391044D01*
X5075298Y-12795559D02*
G01*
X6075299Y-12795559D01*
X6083300Y-12344400D02*
G01*
X6146098Y-12344400D01*
X6146098Y-12448461D01*
X6083300Y-12448461D01*
X5999101Y-3054299D02*
G01*
X4999101Y-3054299D01*
X4999101Y-3054299D02*
G01*
X4999101Y-2284300D01*
X5999101Y-3054299D02*
G01*
X5999101Y-2284300D01*
X5999101Y-2284300D02*
G01*
X4999101Y-2284300D01*
X5999101Y-2874355D02*
G01*
X4999101Y-2874355D01*
X5999101Y-2469840D02*
G01*
X4999101Y-2469840D01*
X4991100Y-2921000D02*
G01*
X4928301Y-2921000D01*
X4928301Y-2816938D01*
X4991100Y-2816938D01*
X-2995201Y-6952899D02*
G01*
X-2745198Y-6952899D01*
X-2745206Y-6952894D02*
G01*
X-2745206Y-7702905D01*
X-2745198Y-7702900D02*
G01*
X-2995201Y-7702900D01*
X-2995193Y-7702905D02*
G01*
X-2995193Y-6952894D01*
X-2547000Y-7637912D02*
G01*
X-2516113Y-7637912D01*
X-2309886Y-7637912D02*
G01*
X-2245532Y-7637912D01*
X-2072467Y-7637912D02*
G01*
X-1991532Y-7637912D01*
X-1818467Y-7637912D02*
G01*
X-1737532Y-7637912D01*
X-1564467Y-7637912D02*
G01*
X-1483532Y-7637912D01*
X-1310467Y-7637912D02*
G01*
X-1229532Y-7637912D01*
X-1056467Y-7637912D02*
G01*
X-975532Y-7637912D01*
X-802467Y-7637912D02*
G01*
X-721532Y-7637912D01*
X-548467Y-7637912D02*
G01*
X-467532Y-7637912D01*
X-294500Y-7637912D02*
G01*
X-246999Y-7637912D01*
X1023000Y-6987910D02*
G01*
X1023000Y-7637912D01*
X-246999Y-6987910D02*
G01*
X-294467Y-6987910D01*
X-467532Y-6987910D02*
G01*
X-548467Y-6987910D01*
X-721532Y-6987910D02*
G01*
X-802467Y-6987910D01*
X-975532Y-6987910D02*
G01*
X-1056467Y-6987910D01*
X-1229532Y-6987910D02*
G01*
X-1310467Y-6987910D01*
X-1483532Y-6987910D02*
G01*
X-1564467Y-6987910D01*
X-1737532Y-6987910D02*
G01*
X-1818467Y-6987910D01*
X-1991532Y-6987910D02*
G01*
X-2072467Y-6987910D01*
X-2245532Y-6987910D02*
G01*
X-2326467Y-6987910D01*
X-2499532Y-6987910D02*
G01*
X-2547000Y-6987910D01*
X-2547000Y-6987910D02*
G01*
X-2547000Y-7249411D01*
X-2547000Y-7637912D02*
G01*
X-2547000Y-7376411D01*
X-246999Y-6987910D02*
G01*
X-213532Y-6987910D01*
X-40467Y-6987910D02*
G01*
X40467Y-6987910D01*
X213532Y-6987910D02*
G01*
X294467Y-6987910D01*
X467532Y-6987910D02*
G01*
X548467Y-6987910D01*
X721532Y-6987910D02*
G01*
X802467Y-6987910D01*
X975532Y-6987910D02*
G01*
X1023000Y-6987910D01*
X-246999Y-7637912D02*
G01*
X-213532Y-7637912D01*
X-40467Y-7637912D02*
G01*
X40467Y-7637912D01*
X213532Y-7637912D02*
G01*
X294467Y-7637912D01*
X467532Y-7637912D02*
G01*
X548467Y-7637912D01*
X721532Y-7637912D02*
G01*
X802467Y-7637912D01*
X975532Y-7637912D02*
G01*
X1023000Y-7637912D01*
X-1044514Y-8597242D02*
G01*
X-469536Y-8597242D01*
X-445914Y-8597242D01*
X-424068Y-8597242D01*
X-1044514Y-8145449D02*
G01*
X-429470Y-8145449D01*
X-407703Y-8145449D01*
X-2439700Y-12463701D02*
G01*
X-2441699Y-12463701D01*
X-2441699Y-12945699D01*
X-2441699Y-12991698D01*
X1384300Y-12991698D01*
X1638300Y-12991698D01*
X1638300Y-12945699D01*
X1638300Y-11823700D01*
X1638300Y-11463700D01*
X-2441699Y-11463700D01*
X-2441699Y-11963699D01*
X-2281699Y-12463701D02*
G01*
X-2835699Y-12463701D01*
X-2835699Y-11963699D01*
X-2281699Y-11963699D01*
X-2281699Y-12463701D01*
X-1781700Y-12463701D01*
X-1781700Y-11963699D01*
X-2281699Y-11963699D01*
X-1701800Y-8934450D02*
G01*
X-1701800Y-8858250D01*
X-1574800Y-8858250D01*
X-1701800Y-8858250D02*
G01*
X-1701800Y-8782050D01*
X-1981200Y-8858250D02*
G01*
X-1803400Y-8858250D01*
X-1803400Y-8934450D01*
X-1803400Y-8858250D02*
G01*
X-1803400Y-8782050D01*
X368300Y-8940800D02*
G01*
X368300Y-8864600D01*
X495300Y-8864600D01*
X368300Y-8864600D02*
G01*
X368300Y-8788400D01*
X88900Y-8864600D02*
G01*
X266700Y-8864600D01*
X266700Y-8940800D01*
X266700Y-8864600D02*
G01*
X266700Y-8788400D01*
X-2540000Y-8699500D02*
G01*
X-2540000Y-8267700D01*
X-3149600Y-8267700D02*
G01*
X-3149600Y-8699500D01*
X-2745739Y-8788400D02*
G01*
X-2946400Y-8788400D01*
X-2743200Y-8178800D02*
G01*
X-2946400Y-8178800D01*
X-2692400Y-6400800D02*
G01*
X-2946400Y-6400800D01*
X-2946400Y-5130800D01*
X-2692400Y-5130800D01*
X-2692400Y-6400800D01*
X-2692400Y-5387152D02*
G01*
X-2946400Y-5387152D01*
D10*
G75*
G01*
X2834422Y-12186958D02*
G03*
X2849662Y-12171718I0J15240D01*
G75*
G01*
X2849662Y-11983677D02*
G03*
X2834422Y-11968437I-15240J0D01*
G75*
G01*
X2352182Y-12186958D02*
G02*
X2336942Y-12171718I0J15240D01*
G75*
G01*
X2336942Y-11983677D02*
G02*
X2352182Y-11968437I15240J0D01*
G75*
G01*
X2222320Y-12186961D02*
G03*
X2237560Y-12171721I0J15240D01*
G75*
G01*
X2237560Y-11983679D02*
G03*
X2222320Y-11968439I-15240J0D01*
G75*
G01*
X1740080Y-12186961D02*
G02*
X1724840Y-12171721I0J15240D01*
G75*
G01*
X1724840Y-11983679D02*
G02*
X1740080Y-11968439I15240J0D01*
G75*
G01*
X545920Y-8480582D02*
G03*
X561160Y-8465342I0J15240D01*
G75*
G01*
X561160Y-8277301D02*
G03*
X545920Y-8262061I-15240J0D01*
G75*
G01*
X63680Y-8480582D02*
G02*
X48440Y-8465342I0J15240D01*
G75*
G01*
X48440Y-8277301D02*
G02*
X63680Y-8262061I15240J0D01*
G75*
G01*
X-1524180Y-8480582D02*
G03*
X-1508940Y-8465342I0J15240D01*
G75*
G01*
X-1508940Y-8277301D02*
G03*
X-1524180Y-8262061I-15240J0D01*
G75*
G01*
X-2006420Y-8480582D02*
G02*
X-2021660Y-8465342I0J15240D01*
G75*
G01*
X-2021660Y-8277301D02*
G02*
X-2006420Y-8262061I15240J0D01*
D16*
G75*
G01*
X-2484120Y-7478011D02*
G03*
X-2484120Y-7477503I29999J254D01*
D17*
G75*
G01*
X-2555494Y-7693911D02*
G03*
X-2555494Y-7693657I12499J127D01*
D14*
G75*
G01*
X-2547000Y-7249411D02*
G02*
X-2547112Y-7376411I-56J-63500D01*
G75*
G01*
X-1044514Y-8145447D02*
G03*
X-1044517Y-8597138I756J-225846D01*
G75*
G01*
X-424967Y-8597141D02*
G03*
X-408640Y-8145384I7453J225905D01*
G75*
G01
X-207178Y-9118603D02*
G03X-207178Y-9118603I-249987J0D01*
G75*
G01
X-816778Y-9118603D02*
G03X-816778Y-9118603I-249987J0D01*
G75*
G01
X2538537Y-12611103D02*
G03X2538537Y-12611103I-249987J0D01*
G75*
G01
X-2167600Y-9345298D02*
G03X-2167600Y-9345298I-12700J0D01*
G75*
G01
X-2666990Y-8483603D02*
G03X-2666990Y-8483603I-177800J0D01*
M02*
