G04 Layer: BoardOutlineLayer*
G04 EasyEDA v6.5.23, 2023-06-02 23:10:04*
G04 4089ee163aa04224b388df8e3d9972f5,38d8b063065d407b859bfb9f5f9b4720,10*
G04 Gerber Generator version 0.2*
G04 Scale: 100 percent, Rotated: No, Reflected: No *
G04 Dimensions in millimeters *
G04 leading zeros omitted , absolute positions ,4 integer and 5 decimal *
%FSLAX45Y45*%
%MOMM*%

%ADD10C,0.2540*%
D10*
X8214197Y-1993900D02*
G01*
X12214209Y-1994631D01*
X8181502Y-13208000D02*
G01*
X12181492Y-13207987D01*
X1409997Y-1993996D02*
G01*
X6807497Y-1993996D01*
X-1125997Y0D02*
G01*
X1409700Y0D01*
X-1166997Y-15201968D02*
G01*
X1369301Y-15201968D01*
X1383997Y-13201972D02*
G01*
X1369489Y-15201917D01*
X1409700Y0D02*
G01*
X1409700Y-1993900D01*
X1384300Y-13208000D02*
G01*
X6784502Y-13208000D01*
X6784502Y-13208000D02*
G01*
X6784502Y-13108000D01*
X6784502Y-13106400D02*
G01*
X8181101Y-13106400D01*
X8181502Y-13208000D02*
G01*
X8181502Y-13108000D01*
X6817197Y-2095500D02*
G01*
X8213796Y-2095500D01*
X8214197Y-2095500D02*
G01*
X8214197Y-1995500D01*
X6817197Y-2095500D02*
G01*
X6817197Y-1995500D01*
G75*
G01*
X-1126752Y-1156D02*
G03*
X-1166896Y-15201870I7863268J-7621176D01*
G75*
G01*
X12192000Y-13208000D02*
G03*
X12219892Y-1995368I-9846543J5630844D01*
X6817197Y-4000500D02*
G01*
X8214197Y-4000500D01*
X8214197Y-4000500D02*
G01*
X8214197Y-4406900D01*
X8214197Y-4406900D02*
G01*
X6817197Y-4406900D01*
X6817197Y-4406900D02*
G01*
X6817197Y-4000500D01*
X8245002Y-11201400D02*
G01*
X6848002Y-11201400D01*
X6848002Y-11201400D02*
G01*
X6848002Y-10795000D01*
X6848002Y-10795000D02*
G01*
X8245002Y-10795000D01*
X8245002Y-10795000D02*
G01*
X8245002Y-11201400D01*

%LPD*%
M02*
