G04 Layer: TopPasteMaskLayer*
G04 EasyEDA v6.5.23, 2023-06-02 23:10:04*
G04 4089ee163aa04224b388df8e3d9972f5,38d8b063065d407b859bfb9f5f9b4720,10*
G04 Gerber Generator version 0.2*
G04 Scale: 100 percent, Rotated: No, Reflected: No *
G04 Dimensions in millimeters *
G04 leading zeros omitted , absolute positions ,4 integer and 5 decimal *
%FSLAX45Y45*%
%MOMM*%

%ADD10R,3.8000X2.3000*%
%ADD11R,1.2000X2.0000*%
%ADD12R,1.6002X2.0000*%

%LPD*%
G36*
X2688285Y-11991289D02*
G01*
X2678328Y-12001296D01*
X2678328Y-12038330D01*
X2688285Y-12048337D01*
X2718816Y-12048337D01*
X2728772Y-12058345D01*
X2728772Y-12097054D01*
X2718816Y-12107062D01*
X2688285Y-12107062D01*
X2678328Y-12117070D01*
X2678328Y-12154103D01*
X2688285Y-12164110D01*
X2816809Y-12164110D01*
X2826816Y-12154103D01*
X2826816Y-12001296D01*
X2816809Y-11991289D01*
G37*
G36*
X2369820Y-11991289D02*
G01*
X2359812Y-12001296D01*
X2359812Y-12154103D01*
X2369820Y-12164110D01*
X2498293Y-12164110D01*
X2508300Y-12154103D01*
X2508300Y-12117070D01*
X2498293Y-12107062D01*
X2467813Y-12107062D01*
X2457805Y-12097054D01*
X2457805Y-12058345D01*
X2467813Y-12048337D01*
X2498293Y-12048337D01*
X2508300Y-12038330D01*
X2508300Y-12001296D01*
X2498293Y-11991289D01*
G37*
G36*
X2076196Y-11991289D02*
G01*
X2066188Y-12001296D01*
X2066188Y-12038330D01*
X2076196Y-12048337D01*
X2106676Y-12048337D01*
X2116683Y-12058345D01*
X2116683Y-12097054D01*
X2106676Y-12107062D01*
X2076196Y-12107062D01*
X2066188Y-12117070D01*
X2066188Y-12154103D01*
X2076196Y-12164110D01*
X2204720Y-12164110D01*
X2214676Y-12154103D01*
X2214676Y-12001296D01*
X2204720Y-11991289D01*
G37*
G36*
X1757680Y-11991289D02*
G01*
X1747723Y-12001296D01*
X1747723Y-12154103D01*
X1757680Y-12164110D01*
X1886204Y-12164110D01*
X1896211Y-12154103D01*
X1896211Y-12117070D01*
X1886204Y-12107062D01*
X1855724Y-12107062D01*
X1845716Y-12097054D01*
X1845716Y-12058345D01*
X1855724Y-12048337D01*
X1886204Y-12048337D01*
X1896211Y-12038330D01*
X1896211Y-12001296D01*
X1886204Y-11991289D01*
G37*
G36*
X399796Y-8284921D02*
G01*
X389788Y-8294928D01*
X389788Y-8331962D01*
X399796Y-8341969D01*
X430276Y-8341969D01*
X440283Y-8351926D01*
X440283Y-8390686D01*
X430276Y-8400694D01*
X399796Y-8400694D01*
X389788Y-8410702D01*
X389788Y-8447735D01*
X399796Y-8457742D01*
X528320Y-8457742D01*
X538276Y-8447735D01*
X538276Y-8294928D01*
X528320Y-8284921D01*
G37*
G36*
X81280Y-8284921D02*
G01*
X71323Y-8294928D01*
X71323Y-8447735D01*
X81280Y-8457742D01*
X209804Y-8457742D01*
X219811Y-8447735D01*
X219811Y-8410702D01*
X209804Y-8400694D01*
X179324Y-8400694D01*
X169316Y-8390686D01*
X169316Y-8351926D01*
X179324Y-8341969D01*
X209804Y-8341969D01*
X219811Y-8331962D01*
X219811Y-8294928D01*
X209804Y-8284921D01*
G37*
G36*
X-1670304Y-8284921D02*
G01*
X-1680311Y-8294928D01*
X-1680311Y-8331962D01*
X-1670304Y-8341969D01*
X-1639824Y-8341969D01*
X-1629816Y-8351926D01*
X-1629816Y-8390686D01*
X-1639824Y-8400694D01*
X-1670304Y-8400694D01*
X-1680311Y-8410702D01*
X-1680311Y-8447735D01*
X-1670304Y-8457742D01*
X-1541780Y-8457742D01*
X-1531823Y-8447735D01*
X-1531823Y-8294928D01*
X-1541780Y-8284921D01*
G37*
G36*
X-1988820Y-8284921D02*
G01*
X-1998776Y-8294928D01*
X-1998776Y-8447735D01*
X-1988820Y-8457742D01*
X-1860296Y-8457742D01*
X-1850288Y-8447735D01*
X-1850288Y-8410702D01*
X-1860296Y-8400694D01*
X-1890775Y-8400694D01*
X-1900783Y-8390686D01*
X-1900783Y-8351926D01*
X-1890775Y-8341969D01*
X-1860296Y-8341969D01*
X-1850288Y-8331962D01*
X-1850288Y-8294928D01*
X-1860296Y-8284921D01*
G37*
D10*
G01*
X-1092189Y-9715502D03*
D11*
G01*
X-1092189Y-10350502D03*
G01*
X-862192Y-10350502D03*
G01*
X-1322186Y-10350502D03*
D10*
G01*
X-76189Y-9715502D03*
D11*
G01*
X-76189Y-10350502D03*
G01*
X153807Y-10350502D03*
G01*
X-306186Y-10350502D03*
D12*
G01*
X356803Y-10858502D03*
G01*
X36789Y-10858502D03*
G01*
X-446445Y-10858502D03*
G01*
X-766460Y-10858502D03*
G01*
X-1249695Y-10858502D03*
G01*
X-1569709Y-10858502D03*
M02*
