G04 Layer: BottomLayer*
G04 EasyEDA v6.5.23, 2023-06-02 23:10:04*
G04 4089ee163aa04224b388df8e3d9972f5,38d8b063065d407b859bfb9f5f9b4720,10*
G04 Gerber Generator version 0.2*
G04 Scale: 100 percent, Rotated: No, Reflected: No *
G04 Dimensions in millimeters *
G04 leading zeros omitted , absolute positions ,4 integer and 5 decimal *
%FSLAX45Y45*%
%MOMM*%

%ADD10C,0.2540*%
%ADD11C,3.0000*%
%ADD12C,2.0000*%
%ADD13R,2.0000X2.0000*%
%ADD14O,4.499991X1.9999959999999999*%
%ADD15O,1.9999959999999999X4.499991*%
%ADD16C,1.8999*%
%ADD17C,3.8100*%
%ADD18C,1.8000*%
%ADD19C,2.2000*%
%ADD20C,1.5000*%
%ADD21O,1.5999968X1.5999968*%
%ADD22R,1.6000X1.6000*%
%ADD23R,1.5240X1.5240*%
%ADD24C,1.5240*%
%ADD25C,1.8796*%
%ADD26R,1.7000X1.7000*%
%ADD27C,1.7000*%
%ADD28C,0.6100*%
%ADD29C,0.0118*%

%LPD*%
D10*
X1130317Y-12585700D02*
G01*
X1090007Y-12585700D01*
X-637141Y-10858550D01*
X-1143007Y-7693913D02*
G01*
X-1033203Y-7584109D01*
X-1033203Y-6719951D01*
X-1141661Y-6611493D01*
X-1141661Y-4267301D01*
X-1033457Y-4159097D01*
X-275318Y-3489960D02*
G01*
X-504324Y-3718966D01*
X-504324Y-3778605D01*
X-755505Y-4195165D02*
G01*
X-800641Y-4240301D01*
X-800641Y-5091277D01*
X-1019131Y-5309768D01*
X1384317Y-11823700D02*
G01*
X1423332Y-11784685D01*
X1423332Y-7788960D01*
X1009566Y-7375194D01*
X-2618722Y-8808720D02*
G01*
X-2618722Y-9358147D01*
X-3005081Y-9744506D01*
X-336049Y-9118600D02*
G01*
X-336049Y-10201376D01*
X-635007Y-7693913D02*
G01*
X-635007Y-8819642D01*
X-336049Y-9118600D01*
X-336049Y-9118600D02*
G01*
X-330182Y-9118600D01*
X105681Y-3997960D02*
G01*
X105681Y-4772913D01*
X512386Y-5179618D01*
X512386Y-5657291D01*
X371518Y-5798159D01*
X-1019131Y-6286500D02*
G01*
X-1019131Y-5798159D01*
X-889007Y-6931913D02*
G01*
X-889007Y-6416624D01*
X-1019131Y-6286500D01*
X384218Y-6286500D02*
G01*
X371518Y-6273800D01*
X371518Y-5798159D01*
X1353278Y-11699544D02*
G01*
X888992Y-11235258D01*
X888992Y-7693913D01*
X-584182Y-9118600D02*
G01*
X-584182Y-10037673D01*
X-359036Y-10262819D01*
X-213570Y-10262819D01*
X-173134Y-10222382D01*
X-857841Y-8847353D02*
G01*
X-855428Y-8847353D01*
X-584182Y-9118600D01*
X-381007Y-6931913D02*
G01*
X-759747Y-6553174D01*
X-759747Y-4703343D01*
X-656318Y-4599914D01*
X-656318Y-3997960D01*
X-381007Y-6931913D02*
G01*
X-381007Y-7217079D01*
X-857841Y-7693913D01*
X-1193782Y-9118600D02*
G01*
X-922535Y-8847353D01*
X-857841Y-8847353D01*
X-857841Y-7693913D02*
G01*
X-857841Y-8847353D01*
X-857841Y-7693913D02*
G01*
X-889007Y-7693913D01*
X-2819407Y-5511800D02*
G01*
X-2691925Y-5639282D01*
X-2691925Y-5803620D01*
X-2781104Y-5892800D01*
X-2854586Y-5892800D01*
X-2979453Y-6017666D01*
X-2979453Y-6718630D01*
X-2870182Y-6827901D01*
X-1905007Y-7693913D02*
G01*
X-2678005Y-6920915D01*
X-2678005Y-6415201D01*
X-2819407Y-6273800D01*
X-2159007Y-7693913D02*
G01*
X-2733352Y-7119569D01*
X-2733352Y-6793661D01*
X-2934291Y-6592722D01*
X-2934291Y-6134684D01*
X-2819407Y-6019800D01*
X-1889132Y-5309768D02*
G01*
X-2016437Y-5437073D01*
X-2016437Y-7396734D01*
X-1796879Y-7616291D01*
X-1796879Y-9136303D01*
X-2405082Y-9744506D01*
X-1889132Y-4821428D02*
G01*
X-1889132Y-5309768D01*
X-485782Y-5309768D02*
G01*
X-485782Y-4821428D01*
X126992Y-7693913D02*
G01*
X-253956Y-7312964D01*
X-253956Y-6804126D01*
X-718878Y-6339205D01*
X-718878Y-4720285D01*
X-529318Y-4530725D01*
X-529318Y-3926205D01*
X-965563Y-3489960D01*
X-1037318Y-3489960D01*
X-21318Y-5309768D02*
G01*
X-21318Y-3489960D01*
X-498482Y-5798159D02*
G01*
X-21318Y-5320995D01*
X-21318Y-5309768D01*
X-21318Y-5309768D02*
G01*
X384218Y-5309768D01*
X-1889132Y-6286500D02*
G01*
X-1764850Y-6162217D01*
X-1764850Y-4131513D01*
X-1805185Y-4091178D01*
X-1805185Y-3952392D01*
X-1724947Y-3872153D01*
X-1544124Y-3872153D01*
X-1418318Y-3997960D01*
X5825279Y-12611100D02*
G01*
X5825279Y-10262488D01*
X384218Y-4821428D01*
X-1651007Y-7693913D02*
G01*
X-1539857Y-7582763D01*
X-1539857Y-4373498D01*
X-1164318Y-3997960D01*
X-910318Y-3997960D02*
G01*
X-955225Y-3997960D01*
X-1270312Y-4313047D01*
X-1270312Y-7567218D01*
X-1397007Y-7693913D01*
X380992Y-7693913D02*
G01*
X43Y-7312964D01*
X43Y-6899910D01*
X-97696Y-6802170D01*
X-194952Y-6802170D01*
X-678009Y-6319113D01*
X-678009Y-4746320D01*
X-402318Y-4470628D01*
X-402318Y-3997960D01*
X-479712Y-8369300D02*
G01*
X-479712Y-8046618D01*
X-127007Y-7693913D01*
X-3070842Y-8808720D02*
G01*
X-2870182Y-8608060D01*
X-2870182Y-7827898D01*
X-2819407Y-5765800D02*
G01*
X-3020321Y-5966713D01*
X-3020321Y-7677759D01*
X-2870182Y-7827898D01*
X1130317Y-12331700D02*
G01*
X1257317Y-12204700D01*
X1425059Y-12204700D01*
X1499481Y-12130278D01*
X1499481Y-7782179D01*
X649216Y-6931913D01*
X634992Y-6931913D01*
X1130317Y-12077700D02*
G01*
X1236896Y-11971121D01*
X1236896Y-11721541D01*
X699660Y-11184305D01*
X699660Y-7926831D01*
X508043Y-7735214D01*
X508043Y-7625943D01*
X380992Y-7498892D01*
X380992Y-6931913D01*
X1384317Y-12077700D02*
G01*
X1326481Y-12077700D01*
X1215356Y-12188825D01*
X1087061Y-12188825D01*
X253992Y-11355755D01*
X253992Y-7667472D01*
X-127007Y-7286472D01*
X-127007Y-6931913D01*
X-1498582Y-8858250D02*
G01*
X-1456646Y-8858250D01*
X-967696Y-8369300D01*
X634992Y-7693913D02*
G01*
X510532Y-7569454D01*
X510532Y-6894601D01*
X356836Y-6740905D01*
X-198381Y-6740905D01*
X-626498Y-6312788D01*
X-626498Y-5696737D01*
X-271432Y-5341670D01*
X-271432Y-3828414D01*
X-148318Y-3705301D01*
X-148318Y-3436137D01*
X-230106Y-3354349D01*
X-393707Y-3354349D01*
X-529318Y-3489960D01*
X5325280Y-12611100D02*
G01*
X5325280Y-11550167D01*
X762043Y-6986930D01*
X762043Y-6894576D01*
X153967Y-6286500D01*
X-485782Y-6286500D01*
X-1545318Y-3489960D02*
G01*
X-1295458Y-3739819D01*
X-988855Y-3739819D01*
X-787204Y-3941470D01*
X-787204Y-4143959D01*
X-1019131Y-4375886D01*
X-1019131Y-4821428D01*
D11*
G01*
X9149496Y-9537296D03*
G01*
X9149496Y-7607302D03*
G01*
X9149496Y-5677308D03*
G01*
X1899523Y-5677308D03*
G01*
X1899523Y-7607302D03*
G01*
X1899523Y-9537296D03*
D12*
G01*
X-584189Y-9118602D03*
G01*
X-330189Y-9118602D03*
G01*
X-1193789Y-9118602D03*
G01*
X-939789Y-9118602D03*
D13*
G01*
X-3009889Y-11099675D03*
D12*
G01*
X-3009889Y-10845675D03*
G01*
X2161524Y-12611102D03*
G01*
X2415524Y-12611102D03*
D14*
G01*
X-2655102Y-10194495D03*
D15*
G01*
X-3005089Y-9744509D03*
G01*
X-2405090Y-9744509D03*
D16*
G01*
X-1545325Y-3489962D03*
G01*
X-1291325Y-3489962D03*
G01*
X-1037325Y-3489962D03*
G01*
X-783325Y-3489962D03*
G01*
X-529325Y-3489962D03*
G01*
X-275325Y-3489962D03*
G01*
X-21325Y-3489962D03*
G01*
X-1672325Y-3997962D03*
G01*
X-1418325Y-3997962D03*
G01*
X-1164325Y-3997962D03*
G01*
X-910325Y-3997962D03*
G01*
X-656325Y-3997962D03*
G01*
X-402325Y-3997962D03*
G01*
X-148325Y-3997962D03*
G01*
X105674Y-3997962D03*
D17*
G01*
X-1921245Y-2908302D03*
G01*
X364754Y-2908302D03*
D18*
G01*
X-1889140Y-4821430D03*
G01*
X-1019139Y-4821430D03*
G01*
X-485790Y-4821430D03*
G01*
X384210Y-4821430D03*
G01*
X-485790Y-5309770D03*
G01*
X384210Y-5309770D03*
G01*
X-1889140Y-5309770D03*
G01*
X-1019139Y-5309770D03*
G01*
X-1889140Y-5798162D03*
G01*
X-1019139Y-5798162D03*
G01*
X-498490Y-5798162D03*
G01*
X371510Y-5798162D03*
G01*
X-1889140Y-6286502D03*
G01*
X-1019139Y-6286502D03*
G01*
X-485790Y-6286502D03*
G01*
X384210Y-6286502D03*
D19*
G01*
X5325272Y-12611102D03*
G01*
X5825271Y-12611102D03*
G01*
X5749096Y-2654302D03*
G01*
X5249097Y-2654302D03*
D20*
G01*
X-2870189Y-6827903D03*
G01*
X-2870189Y-7827901D03*
D21*
G01*
X-1905015Y-6931916D03*
G01*
X-1651015Y-6931916D03*
G01*
X-1397015Y-6931916D03*
G01*
X-1143015Y-6931916D03*
G01*
X-889015Y-6931916D03*
G01*
X-635015Y-6931916D03*
G01*
X-381015Y-6931916D03*
G01*
X-381015Y-7693916D03*
G01*
X-2159015Y-6931916D03*
G01*
X-2413015Y-6931916D03*
G01*
X-635015Y-7693916D03*
G01*
X-889015Y-7693916D03*
G01*
X-1143015Y-7693916D03*
G01*
X-1397015Y-7693916D03*
G01*
X-1651015Y-7693916D03*
G01*
X-1905015Y-7693916D03*
G01*
X-2159015Y-7693916D03*
D22*
G01*
X-2412989Y-7693916D03*
D21*
G01*
X-127015Y-7693916D03*
G01*
X126984Y-7693916D03*
G01*
X380984Y-7693916D03*
G01*
X634984Y-7693916D03*
G01*
X888984Y-7693916D03*
G01*
X888984Y-6931916D03*
G01*
X634984Y-6931916D03*
G01*
X380984Y-6931916D03*
G01*
X126984Y-6931916D03*
G01*
X-127015Y-6931916D03*
D20*
G01*
X-967704Y-8369302D03*
G01*
X-479719Y-8369302D03*
D23*
G01*
X1384310Y-12585702D03*
D24*
G01*
X1130310Y-12585702D03*
G01*
X1384310Y-12331702D03*
G01*
X1130310Y-12331702D03*
G01*
X1384310Y-12077702D03*
G01*
X1130310Y-12077702D03*
G01*
X1384310Y-11823702D03*
G01*
X1130310Y-11823702D03*
D12*
G01*
X-2031989Y-8858252D03*
G01*
X-1498589Y-8858252D03*
G01*
X38110Y-8864602D03*
G01*
X571510Y-8864602D03*
D25*
G01*
X-2618729Y-8158482D03*
G01*
X-2618729Y-8808722D03*
G01*
X-3070849Y-8158482D03*
G01*
X-3070849Y-8808722D03*
D26*
G01*
X-2819389Y-5257802D03*
D27*
G01*
X-2819415Y-5511802D03*
G01*
X-2819415Y-5765802D03*
G01*
X-2819415Y-6019802D03*
G01*
X-2819415Y-6273802D03*
D28*
G01*
X-637148Y-10858553D03*
G01*
X-1033465Y-4159100D03*
G01*
X-504332Y-3778608D03*
G01*
X-755512Y-4195168D03*
G01*
X1009558Y-7375197D03*
G01*
X-336057Y-10201379D03*
G01*
X1353271Y-11699547D03*
G01*
X-173141Y-10222384D03*
M02*
