G04 Layer: BottomSolderMaskLayer*
G04 EasyEDA v6.5.23, 2023-06-02 23:10:04*
G04 4089ee163aa04224b388df8e3d9972f5,38d8b063065d407b859bfb9f5f9b4720,10*
G04 Gerber Generator version 0.2*
G04 Scale: 100 percent, Rotated: No, Reflected: No *
G04 Dimensions in millimeters *
G04 leading zeros omitted , absolute positions ,4 integer and 5 decimal *
%FSLAX45Y45*%
%MOMM*%

%AMMACRO1*1,1,$1,$2,$3*1,1,$1,$4,$5*1,1,$1,0-$2,0-$3*1,1,$1,0-$4,0-$5*20,1,$1,$2,$3,$4,$5,0*20,1,$1,$4,$5,0-$2,0-$3,0*20,1,$1,0-$2,0-$3,0-$4,0-$5,0*20,1,$1,0-$4,0-$5,$2,$3,0*4,1,4,$2,$3,$4,$5,0-$2,0-$3,0-$4,0-$5,$2,$3,0*%
%ADD10C,3.2032*%
%ADD11C,2.2032*%
%ADD12MACRO1,0.1016X-1X-1X-1X1*%
%ADD13C,2.1016*%
%ADD14O,4.5200062X2.0200112*%
%ADD15O,2.0200112X4.5200062*%
%ADD16C,2.1031*%
%ADD17C,4.0132*%
%ADD18C,1.9016*%
%ADD19C,2.3016*%
%ADD20C,1.7032*%
%ADD21O,1.7015968000000001X1.7015968000000001*%
%ADD22MACRO1,0.1016X-0.8X-0.8X-0.8X0.8*%
%ADD23C,1.6016*%
%ADD24MACRO1,0.1016X-0.762X0.762X0.762X0.762*%
%ADD25C,1.6256*%
%ADD26C,1.9812*%
%ADD27MACRO1,0.1016X0.85X0.85X0.85X-0.85*%
%ADD28C,1.8016*%

%LPD*%
D10*
G01*
X9149496Y-9537296D03*
G01*
X9149496Y-7607302D03*
G01*
X9149496Y-5677308D03*
G01*
X1899523Y-5677308D03*
G01*
X1899523Y-7607302D03*
G01*
X1899523Y-9537296D03*
D11*
G01*
X-584189Y-9118602D03*
G01*
X-330189Y-9118602D03*
G01*
X-1193789Y-9118602D03*
G01*
X-939789Y-9118602D03*
D12*
G01*
X-3009889Y-11099675D03*
D13*
G01*
X-3009889Y-10845675D03*
D11*
G01*
X2161524Y-12611102D03*
G01*
X2415524Y-12611102D03*
D14*
G01*
X-2655102Y-10194495D03*
D15*
G01*
X-3005089Y-9744509D03*
G01*
X-2405090Y-9744509D03*
D16*
G01*
X-1545325Y-3489962D03*
G01*
X-1291325Y-3489962D03*
G01*
X-1037325Y-3489962D03*
G01*
X-783325Y-3489962D03*
G01*
X-529325Y-3489962D03*
G01*
X-275325Y-3489962D03*
G01*
X-21325Y-3489962D03*
G01*
X-1672325Y-3997962D03*
G01*
X-1418325Y-3997962D03*
G01*
X-1164325Y-3997962D03*
G01*
X-910325Y-3997962D03*
G01*
X-656325Y-3997962D03*
G01*
X-402325Y-3997962D03*
G01*
X-148325Y-3997962D03*
G01*
X105674Y-3997962D03*
D17*
G01*
X-1921245Y-2908302D03*
G01*
X364754Y-2908302D03*
D18*
G01*
X-1889140Y-4821430D03*
G01*
X-1019139Y-4821430D03*
G01*
X-485790Y-4821430D03*
G01*
X384210Y-4821430D03*
G01*
X-485790Y-5309770D03*
G01*
X384210Y-5309770D03*
G01*
X-1889140Y-5309770D03*
G01*
X-1019139Y-5309770D03*
G01*
X-1889140Y-5798162D03*
G01*
X-1019139Y-5798162D03*
G01*
X-498490Y-5798162D03*
G01*
X371510Y-5798162D03*
G01*
X-1889140Y-6286502D03*
G01*
X-1019139Y-6286502D03*
G01*
X-485790Y-6286502D03*
G01*
X384210Y-6286502D03*
D19*
G01*
X5325272Y-12611102D03*
G01*
X5825271Y-12611102D03*
G01*
X5749096Y-2654302D03*
G01*
X5249097Y-2654302D03*
D20*
G01*
X-2870189Y-6827903D03*
G01*
X-2870189Y-7827901D03*
D21*
G01*
X-1905015Y-6931916D03*
G01*
X-1651015Y-6931916D03*
G01*
X-1397015Y-6931916D03*
G01*
X-1143015Y-6931916D03*
G01*
X-889015Y-6931916D03*
G01*
X-635015Y-6931916D03*
G01*
X-381015Y-6931916D03*
G01*
X-381015Y-7693916D03*
G01*
X-2159015Y-6931916D03*
G01*
X-2413015Y-6931916D03*
G01*
X-635015Y-7693916D03*
G01*
X-889015Y-7693916D03*
G01*
X-1143015Y-7693916D03*
G01*
X-1397015Y-7693916D03*
G01*
X-1651015Y-7693916D03*
G01*
X-1905015Y-7693916D03*
G01*
X-2159015Y-7693916D03*
D22*
G01*
X-2412999Y-7693911D03*
D21*
G01*
X-127015Y-7693916D03*
G01*
X126984Y-7693916D03*
G01*
X380984Y-7693916D03*
G01*
X634984Y-7693916D03*
G01*
X888984Y-7693916D03*
G01*
X888984Y-6931916D03*
G01*
X634984Y-6931916D03*
G01*
X380984Y-6931916D03*
G01*
X126984Y-6931916D03*
G01*
X-127015Y-6931916D03*
D23*
G01*
X-967704Y-8369302D03*
G01*
X-479719Y-8369302D03*
D24*
G01*
X1384300Y-12585700D03*
D25*
G01*
X1130310Y-12585702D03*
G01*
X1384310Y-12331702D03*
G01*
X1130310Y-12331702D03*
G01*
X1384310Y-12077702D03*
G01*
X1130310Y-12077702D03*
G01*
X1384310Y-11823702D03*
G01*
X1130310Y-11823702D03*
D13*
G01*
X-2031989Y-8858252D03*
G01*
X-1498589Y-8858252D03*
G01*
X38110Y-8864602D03*
G01*
X571510Y-8864602D03*
D26*
G01*
X-2618729Y-8158482D03*
G01*
X-2618729Y-8808722D03*
G01*
X-3070849Y-8158482D03*
G01*
X-3070849Y-8808722D03*
D27*
G01*
X-2819399Y-5257800D03*
D28*
G01*
X-2819415Y-5511802D03*
G01*
X-2819415Y-5765802D03*
G01*
X-2819415Y-6019802D03*
G01*
X-2819415Y-6273802D03*
M02*
