G04 Layer: TopLayer*
G04 EasyEDA v6.5.23, 2023-06-02 23:10:04*
G04 4089ee163aa04224b388df8e3d9972f5,38d8b063065d407b859bfb9f5f9b4720,10*
G04 Gerber Generator version 0.2*
G04 Scale: 100 percent, Rotated: No, Reflected: No *
G04 Dimensions in millimeters *
G04 leading zeros omitted , absolute positions ,4 integer and 5 decimal *
%FSLAX45Y45*%
%MOMM*%

%AMMACRO1*21,1,$1,$2,0,0,$3*%
%ADD10C,0.2540*%
%ADD11MACRO1,1.728X1.485X90.0000*%
%ADD12R,3.8000X2.3000*%
%ADD13R,1.2000X2.0000*%
%ADD14R,1.6002X2.0000*%
%ADD15C,3.0000*%
%ADD16C,2.0000*%
%ADD17R,2.0000X2.0000*%
%ADD18O,4.499991X1.9999959999999999*%
%ADD19O,1.9999959999999999X4.499991*%
%ADD20C,1.8999*%
%ADD21C,3.8100*%
%ADD22C,1.8000*%
%ADD23C,2.2000*%
%ADD24C,1.5000*%
%ADD25O,1.5999968X1.5999968*%
%ADD26R,1.6000X1.6000*%
%ADD27R,1.5240X1.5240*%
%ADD28C,1.5240*%
%ADD29C,1.8796*%
%ADD30R,1.7000X1.7000*%
%ADD31C,1.7000*%
%ADD32C,0.6100*%
%ADD33C,0.0142*%

%LPD*%
G36*
X-1151280Y-15176093D02*
G01*
X-1155293Y-15175280D01*
X-1158646Y-15172893D01*
X-1250188Y-15076169D01*
X-1350670Y-14967051D01*
X-1449628Y-14856561D01*
X-1547114Y-14744750D01*
X-1643024Y-14631619D01*
X-1737410Y-14517217D01*
X-1830273Y-14401546D01*
X-1921510Y-14284604D01*
X-2011172Y-14166443D01*
X-2099208Y-14047063D01*
X-2185619Y-13926515D01*
X-2270404Y-13804798D01*
X-2353513Y-13681913D01*
X-2434945Y-13557961D01*
X-2514650Y-13432891D01*
X-2592730Y-13306755D01*
X-2669032Y-13179551D01*
X-2743606Y-13051332D01*
X-2816453Y-12922148D01*
X-2887522Y-12791948D01*
X-2956814Y-12660833D01*
X-3024327Y-12528753D01*
X-3090062Y-12395758D01*
X-3153968Y-12261900D01*
X-3216046Y-12127179D01*
X-3276295Y-11991644D01*
X-3334664Y-11855297D01*
X-3391204Y-11718188D01*
X-3445865Y-11580317D01*
X-3498697Y-11441684D01*
X-3549599Y-11302390D01*
X-3598621Y-11162385D01*
X-3645712Y-11021720D01*
X-3690924Y-10880445D01*
X-3734206Y-10738612D01*
X-3775557Y-10596168D01*
X-3814927Y-10453166D01*
X-3852418Y-10309606D01*
X-3887927Y-10165638D01*
X-3921455Y-10021112D01*
X-3953052Y-9876231D01*
X-3982669Y-9730892D01*
X-4010304Y-9585147D01*
X-4035958Y-9439046D01*
X-4059631Y-9292640D01*
X-4081322Y-9145879D01*
X-4101033Y-8998864D01*
X-4118711Y-8851595D01*
X-4134408Y-8704122D01*
X-4148074Y-8556447D01*
X-4159758Y-8408568D01*
X-4169410Y-8260537D01*
X-4177080Y-8112404D01*
X-4182719Y-7964220D01*
X-4186377Y-7815935D01*
X-4188002Y-7667599D01*
X-4187596Y-7519263D01*
X-4185208Y-7370978D01*
X-4180789Y-7222693D01*
X-4174337Y-7074509D01*
X-4165904Y-6926427D01*
X-4155440Y-6778498D01*
X-4142994Y-6630670D01*
X-4128515Y-6483045D01*
X-4112056Y-6335623D01*
X-4093565Y-6188456D01*
X-4073093Y-6041542D01*
X-4050639Y-5894933D01*
X-4026204Y-5748629D01*
X-3999788Y-5602681D01*
X-3971340Y-5457139D01*
X-3940962Y-5311952D01*
X-3908602Y-5167172D01*
X-3874312Y-5022900D01*
X-3838041Y-4879035D01*
X-3799789Y-4735728D01*
X-3759657Y-4592929D01*
X-3717544Y-4450740D01*
X-3673551Y-4309059D01*
X-3627577Y-4168038D01*
X-3579723Y-4027678D01*
X-3529990Y-3887927D01*
X-3478326Y-3748887D01*
X-3424783Y-3610559D01*
X-3369411Y-3472942D01*
X-3312109Y-3336137D01*
X-3252978Y-3200095D01*
X-3192018Y-3064865D01*
X-3129229Y-2930499D01*
X-3064611Y-2796997D01*
X-2998216Y-2664358D01*
X-2929991Y-2532634D01*
X-2859989Y-2401874D01*
X-2788259Y-2272080D01*
X-2714752Y-2143252D01*
X-2639466Y-2015439D01*
X-2562453Y-1888642D01*
X-2483764Y-1762912D01*
X-2403348Y-1638300D01*
X-2321306Y-1514754D01*
X-2237536Y-1392326D01*
X-2152091Y-1271066D01*
X-2065070Y-1150975D01*
X-1976374Y-1032052D01*
X-1886102Y-914349D01*
X-1794256Y-797915D01*
X-1700784Y-682752D01*
X-1605788Y-568807D01*
X-1509268Y-456184D01*
X-1411224Y-344932D01*
X-1311656Y-234950D01*
X-1210614Y-126390D01*
X-1117600Y-29057D01*
X-1114247Y-26771D01*
X-1110234Y-25908D01*
X1373632Y-25908D01*
X1377492Y-26720D01*
X1380794Y-28905D01*
X1383030Y-32207D01*
X1383792Y-36068D01*
X1383792Y-1993595D01*
X1384503Y-1999792D01*
X1386586Y-2005330D01*
X1389888Y-2010156D01*
X1393494Y-2013559D01*
X1398727Y-2017115D01*
X1404315Y-2019198D01*
X1410563Y-2019909D01*
X6781139Y-2019909D01*
X6785000Y-2020722D01*
X6788302Y-2022906D01*
X6790486Y-2026208D01*
X6791299Y-2030069D01*
X6791299Y-2094890D01*
X6792061Y-2101392D01*
X6794144Y-2106930D01*
X6797700Y-2112060D01*
X6800748Y-2115108D01*
X6804355Y-2117750D01*
X6809892Y-2120239D01*
X6817359Y-2121408D01*
X8213598Y-2121408D01*
X8220049Y-2120646D01*
X8225586Y-2118563D01*
X8230717Y-2115007D01*
X8233765Y-2111959D01*
X8236407Y-2108352D01*
X8238896Y-2102815D01*
X8240115Y-2095347D01*
X8240115Y-2030018D01*
X8240877Y-2026107D01*
X8243062Y-2022805D01*
X8246364Y-2020620D01*
X8250275Y-2019858D01*
X12198248Y-2020570D01*
X12201804Y-2021179D01*
X12204903Y-2023008D01*
X12207138Y-2025802D01*
X12270333Y-2139289D01*
X12341504Y-2271318D01*
X12410998Y-2404313D01*
X12478664Y-2538171D01*
X12544552Y-2672943D01*
X12608661Y-2808579D01*
X12670993Y-2945028D01*
X12731496Y-3082290D01*
X12790170Y-3220364D01*
X12847015Y-3359200D01*
X12901980Y-3498799D01*
X12955117Y-3639058D01*
X13006374Y-3780078D01*
X13055803Y-3921709D01*
X13103301Y-4064000D01*
X13148919Y-4206900D01*
X13192658Y-4350410D01*
X13234466Y-4494479D01*
X13274395Y-4639106D01*
X13312343Y-4784242D01*
X13348411Y-4929835D01*
X13382548Y-5075936D01*
X13414705Y-5222443D01*
X13444982Y-5369407D01*
X13473277Y-5516727D01*
X13499592Y-5664403D01*
X13523976Y-5812434D01*
X13546378Y-5960770D01*
X13566800Y-6109360D01*
X13585291Y-6258255D01*
X13601801Y-6407353D01*
X13616330Y-6556654D01*
X13628827Y-6706158D01*
X13639393Y-6855815D01*
X13647978Y-7005574D01*
X13654532Y-7155434D01*
X13659154Y-7305395D01*
X13661745Y-7455357D01*
X13662355Y-7605420D01*
X13661034Y-7755432D01*
X13657630Y-7905394D01*
X13652296Y-8055305D01*
X13644981Y-8205165D01*
X13635685Y-8354872D01*
X13624356Y-8504478D01*
X13611098Y-8653881D01*
X13595807Y-8803132D01*
X13578586Y-8952128D01*
X13559383Y-9100921D01*
X13538200Y-9249460D01*
X13515035Y-9397644D01*
X13489940Y-9545574D01*
X13462863Y-9693097D01*
X13433806Y-9840315D01*
X13402868Y-9987076D01*
X13369950Y-10133431D01*
X13335101Y-10279380D01*
X13298271Y-10424769D01*
X13259562Y-10569752D01*
X13218972Y-10714126D01*
X13176402Y-10857992D01*
X13131952Y-11001298D01*
X13085622Y-11143945D01*
X13037413Y-11286032D01*
X12987324Y-11427409D01*
X12935356Y-11568125D01*
X12881508Y-11708180D01*
X12825831Y-11847474D01*
X12768275Y-11986006D01*
X12708940Y-12123775D01*
X12647777Y-12260783D01*
X12584785Y-12396927D01*
X12519964Y-12532207D01*
X12453416Y-12666675D01*
X12385040Y-12800177D01*
X12314936Y-12932816D01*
X12243054Y-13064490D01*
X12179757Y-13176910D01*
X12177522Y-13179653D01*
X12174423Y-13181482D01*
X12170918Y-13182092D01*
X8217560Y-13182092D01*
X8213648Y-13181330D01*
X8210397Y-13179145D01*
X8208162Y-13175843D01*
X8207400Y-13171932D01*
X8207400Y-13108635D01*
X8206587Y-13102132D01*
X8204403Y-13096290D01*
X8201406Y-13091210D01*
X8198916Y-13088213D01*
X8194141Y-13084352D01*
X8188807Y-13081812D01*
X8182559Y-13080593D01*
X6785102Y-13080492D01*
X6778599Y-13081304D01*
X6773062Y-13083387D01*
X6767931Y-13086943D01*
X6764883Y-13089991D01*
X6762242Y-13093598D01*
X6759752Y-13099135D01*
X6758584Y-13106552D01*
X6758584Y-13171932D01*
X6757822Y-13175843D01*
X6755587Y-13179145D01*
X6752336Y-13181330D01*
X6748424Y-13182092D01*
X1403858Y-13182092D01*
X1401064Y-13181736D01*
X1396288Y-13179247D01*
X1392783Y-13177723D01*
X1386586Y-13176402D01*
X1381556Y-13176351D01*
X1377848Y-13176910D01*
X1372108Y-13179044D01*
X1367231Y-13182396D01*
X1363065Y-13187019D01*
X1361186Y-13190118D01*
X1358900Y-13195960D01*
X1358087Y-13202412D01*
X1343812Y-15165984D01*
X1343050Y-15169845D01*
X1340815Y-15173147D01*
X1337564Y-15175331D01*
X1333652Y-15176093D01*
G37*

%LPC*%
G36*
X5817412Y-12746786D02*
G01*
X5833211Y-12746786D01*
X5848908Y-12744958D01*
X5864250Y-12741300D01*
X5879134Y-12735915D01*
X5893257Y-12728803D01*
X5906414Y-12720116D01*
X5918555Y-12709956D01*
X5929376Y-12698476D01*
X5938824Y-12685776D01*
X5946749Y-12672110D01*
X5952998Y-12657582D01*
X5957519Y-12642443D01*
X5960262Y-12626898D01*
X5961176Y-12611100D01*
X5960262Y-12595352D01*
X5957519Y-12579807D01*
X5952998Y-12564668D01*
X5946749Y-12550140D01*
X5938824Y-12536474D01*
X5929376Y-12523774D01*
X5918555Y-12512294D01*
X5906414Y-12502134D01*
X5893257Y-12493447D01*
X5879134Y-12486335D01*
X5864250Y-12480950D01*
X5848908Y-12477292D01*
X5833211Y-12475464D01*
X5817412Y-12475464D01*
X5801715Y-12477292D01*
X5786323Y-12480950D01*
X5771489Y-12486335D01*
X5757367Y-12493447D01*
X5744159Y-12502134D01*
X5732018Y-12512294D01*
X5721197Y-12523774D01*
X5711748Y-12536474D01*
X5703874Y-12550140D01*
X5697575Y-12564668D01*
X5693054Y-12579807D01*
X5690311Y-12595352D01*
X5689396Y-12611100D01*
X5690311Y-12626898D01*
X5693054Y-12642443D01*
X5697575Y-12657582D01*
X5703874Y-12672110D01*
X5711748Y-12685776D01*
X5721197Y-12698476D01*
X5732018Y-12709956D01*
X5744159Y-12720116D01*
X5757367Y-12728803D01*
X5771489Y-12735915D01*
X5786323Y-12741300D01*
X5801715Y-12744958D01*
G37*
G36*
X5317388Y-12746786D02*
G01*
X5333187Y-12746786D01*
X5348884Y-12744958D01*
X5364276Y-12741300D01*
X5379110Y-12735915D01*
X5393232Y-12728803D01*
X5406440Y-12720116D01*
X5418531Y-12709956D01*
X5429402Y-12698476D01*
X5438800Y-12685776D01*
X5446725Y-12672110D01*
X5452973Y-12657582D01*
X5457494Y-12642443D01*
X5460238Y-12626898D01*
X5461203Y-12611100D01*
X5460238Y-12595352D01*
X5457494Y-12579807D01*
X5452973Y-12564668D01*
X5446725Y-12550140D01*
X5438800Y-12536474D01*
X5429402Y-12523774D01*
X5418531Y-12512294D01*
X5406440Y-12502134D01*
X5393232Y-12493447D01*
X5379110Y-12486335D01*
X5364276Y-12480950D01*
X5348884Y-12477292D01*
X5333187Y-12475464D01*
X5317388Y-12475464D01*
X5301691Y-12477292D01*
X5286298Y-12480950D01*
X5271465Y-12486335D01*
X5257342Y-12493447D01*
X5244134Y-12502134D01*
X5232044Y-12512294D01*
X5221173Y-12523774D01*
X5211775Y-12536474D01*
X5203850Y-12550140D01*
X5197602Y-12564668D01*
X5193080Y-12579807D01*
X5190337Y-12595352D01*
X5189423Y-12611100D01*
X5190337Y-12626898D01*
X5193080Y-12642443D01*
X5197602Y-12657582D01*
X5203850Y-12672110D01*
X5211775Y-12685776D01*
X5221173Y-12698476D01*
X5232044Y-12709956D01*
X5244134Y-12720116D01*
X5257342Y-12728803D01*
X5271465Y-12735915D01*
X5286298Y-12741300D01*
X5301691Y-12744958D01*
G37*
G36*
X2161489Y-12737033D02*
G01*
X2176678Y-12736068D01*
X2191613Y-12733375D01*
X2206142Y-12728803D01*
X2220010Y-12722606D01*
X2233015Y-12714732D01*
X2244953Y-12705334D01*
X2255723Y-12694615D01*
X2265121Y-12682626D01*
X2272944Y-12669621D01*
X2279243Y-12655702D01*
X2283714Y-12641224D01*
X2286457Y-12626289D01*
X2287371Y-12611100D01*
X2286457Y-12595961D01*
X2283714Y-12580975D01*
X2279243Y-12566548D01*
X2272944Y-12552629D01*
X2265121Y-12539624D01*
X2255723Y-12527635D01*
X2244953Y-12516866D01*
X2233015Y-12507518D01*
X2220010Y-12499644D01*
X2206142Y-12493396D01*
X2191613Y-12488875D01*
X2176678Y-12486132D01*
X2161489Y-12485217D01*
X2146300Y-12486132D01*
X2131364Y-12488875D01*
X2116836Y-12493396D01*
X2110536Y-12496241D01*
X2106523Y-12497155D01*
X2102561Y-12496444D01*
X2099157Y-12494209D01*
X2051253Y-12446254D01*
X2045004Y-12441123D01*
X2038350Y-12437567D01*
X2031085Y-12435382D01*
X2023059Y-12434570D01*
X1870710Y-12434570D01*
X1866798Y-12433808D01*
X1863496Y-12431623D01*
X1861312Y-12428321D01*
X1860550Y-12424410D01*
X1860550Y-12243663D01*
X1861312Y-12239802D01*
X1863496Y-12236500D01*
X1866798Y-12234316D01*
X1870710Y-12233503D01*
X2532481Y-12233503D01*
X2540508Y-12232741D01*
X2547721Y-12230557D01*
X2554376Y-12227001D01*
X2560624Y-12221870D01*
X2635046Y-12147448D01*
X2638348Y-12145264D01*
X2642209Y-12144451D01*
X2646121Y-12145264D01*
X2649423Y-12147448D01*
X2651607Y-12150750D01*
X2652369Y-12154611D01*
X2652369Y-12163552D01*
X2653080Y-12169851D01*
X2655011Y-12175337D01*
X2658110Y-12180214D01*
X2662174Y-12184329D01*
X2667101Y-12187428D01*
X2672537Y-12189307D01*
X2678887Y-12190018D01*
X2826207Y-12190018D01*
X2832557Y-12189307D01*
X2837992Y-12187428D01*
X2842920Y-12184329D01*
X2846984Y-12180214D01*
X2850083Y-12175337D01*
X2852013Y-12169851D01*
X2852724Y-12163552D01*
X2852724Y-11991898D01*
X2852013Y-11985548D01*
X2850083Y-11980113D01*
X2846984Y-11975185D01*
X2842920Y-11971121D01*
X2837992Y-11968022D01*
X2832557Y-11966143D01*
X2826207Y-11965432D01*
X2678887Y-11965432D01*
X2672537Y-11966143D01*
X2667101Y-11968022D01*
X2662174Y-11971121D01*
X2658110Y-11975185D01*
X2655011Y-11980113D01*
X2653080Y-11985548D01*
X2652369Y-11991898D01*
X2652369Y-12029744D01*
X2651709Y-12033402D01*
X2649728Y-12036552D01*
X2646781Y-12038787D01*
X2635402Y-12042089D01*
X2628747Y-12045645D01*
X2622499Y-12050776D01*
X2548991Y-12124283D01*
X2545689Y-12126518D01*
X2541828Y-12127280D01*
X2477516Y-12127280D01*
X2477516Y-12146127D01*
X2476754Y-12150039D01*
X2474518Y-12153341D01*
X2471267Y-12155525D01*
X2467356Y-12156287D01*
X2400706Y-12156287D01*
X2396845Y-12155525D01*
X2393543Y-12153341D01*
X2391359Y-12150039D01*
X2390546Y-12146127D01*
X2390546Y-12127280D01*
X2333904Y-12127280D01*
X2333904Y-12146127D01*
X2333091Y-12150039D01*
X2330907Y-12153341D01*
X2327605Y-12155525D01*
X2323744Y-12156287D01*
X2250744Y-12156287D01*
X2246884Y-12155525D01*
X2243582Y-12153341D01*
X2241397Y-12150039D01*
X2240584Y-12146127D01*
X2240584Y-12127280D01*
X2183892Y-12127280D01*
X2183892Y-12146127D01*
X2183130Y-12150039D01*
X2180945Y-12153341D01*
X2177643Y-12155525D01*
X2173732Y-12156287D01*
X2107133Y-12156287D01*
X2103221Y-12155525D01*
X2099919Y-12153341D01*
X2097735Y-12150039D01*
X2096973Y-12146127D01*
X2096973Y-12127280D01*
X2040280Y-12127280D01*
X2040280Y-12146127D01*
X2039518Y-12150039D01*
X2037283Y-12153341D01*
X2034032Y-12155525D01*
X2030120Y-12156287D01*
X1932279Y-12156287D01*
X1928368Y-12155525D01*
X1925066Y-12153341D01*
X1922881Y-12150039D01*
X1922119Y-12146127D01*
X1922119Y-11991898D01*
X1921408Y-11985548D01*
X1919478Y-11980113D01*
X1916379Y-11975185D01*
X1912315Y-11971121D01*
X1907387Y-11968022D01*
X1901952Y-11966143D01*
X1895602Y-11965432D01*
X1748282Y-11965432D01*
X1741932Y-11966143D01*
X1736496Y-11968022D01*
X1731568Y-11971121D01*
X1727504Y-11975185D01*
X1724406Y-11980113D01*
X1722475Y-11985548D01*
X1721764Y-11991898D01*
X1721764Y-12163552D01*
X1722475Y-12169851D01*
X1724406Y-12175337D01*
X1727504Y-12180214D01*
X1731568Y-12184329D01*
X1736496Y-12187428D01*
X1741932Y-12189307D01*
X1748282Y-12190018D01*
X1773174Y-12190018D01*
X1777034Y-12190780D01*
X1780336Y-12193016D01*
X1782521Y-12196318D01*
X1783334Y-12200178D01*
X1783334Y-12424410D01*
X1782521Y-12428321D01*
X1780336Y-12431623D01*
X1777034Y-12433808D01*
X1773174Y-12434570D01*
X1447241Y-12434570D01*
X1443024Y-12433655D01*
X1439570Y-12431064D01*
X1437487Y-12427305D01*
X1437182Y-12422987D01*
X1438706Y-12418923D01*
X1441754Y-12415875D01*
X1444853Y-12413894D01*
X1455267Y-12405106D01*
X1464411Y-12394996D01*
X1472133Y-12383770D01*
X1478280Y-12371578D01*
X1482750Y-12358674D01*
X1485442Y-12345314D01*
X1486357Y-12331700D01*
X1485442Y-12318136D01*
X1482750Y-12304776D01*
X1478280Y-12291872D01*
X1472133Y-12279680D01*
X1464411Y-12268454D01*
X1455267Y-12258344D01*
X1444853Y-12249556D01*
X1433372Y-12242190D01*
X1420977Y-12236450D01*
X1407972Y-12232436D01*
X1394510Y-12230150D01*
X1380896Y-12229693D01*
X1367332Y-12231065D01*
X1354023Y-12234214D01*
X1351076Y-12235383D01*
X1347266Y-12236043D01*
X1343456Y-12235230D01*
X1340256Y-12233046D01*
X1317904Y-12210745D01*
X1315720Y-12207443D01*
X1314958Y-12203531D01*
X1314958Y-12173000D01*
X1315821Y-12168936D01*
X1318260Y-12165533D01*
X1321816Y-12163399D01*
X1325981Y-12162891D01*
X1329994Y-12164110D01*
X1341323Y-12170308D01*
X1354023Y-12175236D01*
X1367332Y-12178385D01*
X1380896Y-12179757D01*
X1394510Y-12179300D01*
X1407972Y-12177014D01*
X1420977Y-12173000D01*
X1433372Y-12167260D01*
X1444853Y-12159894D01*
X1455267Y-12151106D01*
X1464411Y-12140996D01*
X1472133Y-12129770D01*
X1478280Y-12117578D01*
X1482750Y-12104674D01*
X1485442Y-12091314D01*
X1486357Y-12077700D01*
X1485442Y-12064136D01*
X1482750Y-12050776D01*
X1478280Y-12037872D01*
X1472133Y-12025680D01*
X1464411Y-12014454D01*
X1455267Y-12004344D01*
X1444853Y-11995556D01*
X1433372Y-11988190D01*
X1420977Y-11982450D01*
X1407972Y-11978436D01*
X1394510Y-11976150D01*
X1380896Y-11975693D01*
X1367332Y-11977065D01*
X1354023Y-11980214D01*
X1341323Y-11985142D01*
X1329994Y-11991340D01*
X1325981Y-11992559D01*
X1321816Y-11992051D01*
X1318260Y-11989917D01*
X1315821Y-11986514D01*
X1314958Y-11982450D01*
X1314958Y-11919000D01*
X1315821Y-11914936D01*
X1318260Y-11911533D01*
X1321816Y-11909399D01*
X1325981Y-11908891D01*
X1329994Y-11910110D01*
X1341323Y-11916308D01*
X1354023Y-11921236D01*
X1367332Y-11924385D01*
X1380896Y-11925757D01*
X1394510Y-11925300D01*
X1407972Y-11923014D01*
X1420977Y-11919000D01*
X1433372Y-11913260D01*
X1444853Y-11905894D01*
X1455267Y-11897106D01*
X1464411Y-11886996D01*
X1472133Y-11875770D01*
X1478280Y-11863578D01*
X1482750Y-11850674D01*
X1485442Y-11837314D01*
X1486357Y-11823700D01*
X1485442Y-11810136D01*
X1482750Y-11796776D01*
X1478280Y-11783872D01*
X1472133Y-11771680D01*
X1464411Y-11760454D01*
X1455267Y-11750344D01*
X1444853Y-11741556D01*
X1433372Y-11734190D01*
X1420977Y-11728450D01*
X1414322Y-11726418D01*
X1410919Y-11724589D01*
X1408430Y-11721592D01*
X1407261Y-11717934D01*
X1407515Y-11714073D01*
X1408785Y-11709349D01*
X1409649Y-11699544D01*
X1408785Y-11689791D01*
X1406245Y-11680291D01*
X1402080Y-11671401D01*
X1396441Y-11663324D01*
X1389481Y-11656364D01*
X1381455Y-11650726D01*
X1372565Y-11646611D01*
X1363065Y-11644071D01*
X1353261Y-11643207D01*
X1343456Y-11644071D01*
X1334008Y-11646611D01*
X1325067Y-11650726D01*
X1317040Y-11656364D01*
X1310081Y-11663324D01*
X1304442Y-11671401D01*
X1300276Y-11680291D01*
X1297736Y-11689791D01*
X1297076Y-11697817D01*
X1296162Y-11701221D01*
X1294130Y-11704116D01*
X1249375Y-11748871D01*
X1244295Y-11755069D01*
X1240688Y-11761724D01*
X1237081Y-11774373D01*
X1234135Y-11777573D01*
X1230122Y-11779250D01*
X1225804Y-11779097D01*
X1221943Y-11777218D01*
X1219200Y-11773865D01*
X1218133Y-11771680D01*
X1210411Y-11760454D01*
X1201267Y-11750344D01*
X1190853Y-11741556D01*
X1179372Y-11734190D01*
X1166977Y-11728450D01*
X1153972Y-11724436D01*
X1140510Y-11722150D01*
X1126896Y-11721693D01*
X1113332Y-11723065D01*
X1100023Y-11726214D01*
X1087323Y-11731142D01*
X1075334Y-11737695D01*
X1064361Y-11745772D01*
X1054557Y-11755221D01*
X1046124Y-11765940D01*
X1039164Y-11777675D01*
X1033830Y-11790222D01*
X1030274Y-11803380D01*
X1028446Y-11816892D01*
X1028446Y-11830558D01*
X1030274Y-11844070D01*
X1033830Y-11857228D01*
X1039164Y-11869775D01*
X1046124Y-11881510D01*
X1054557Y-11892178D01*
X1064361Y-11901678D01*
X1075334Y-11909755D01*
X1087323Y-11916308D01*
X1100023Y-11921236D01*
X1113332Y-11924385D01*
X1126896Y-11925757D01*
X1140510Y-11925300D01*
X1153972Y-11923014D01*
X1166977Y-11919000D01*
X1179372Y-11913260D01*
X1190853Y-11905894D01*
X1201267Y-11897106D01*
X1210411Y-11886996D01*
X1218133Y-11875770D01*
X1221333Y-11871553D01*
X1225448Y-11869674D01*
X1229918Y-11869724D01*
X1233932Y-11871706D01*
X1236726Y-11875211D01*
X1237742Y-11879580D01*
X1237742Y-12021870D01*
X1236726Y-12026239D01*
X1233932Y-12029744D01*
X1229918Y-12031726D01*
X1225448Y-12031776D01*
X1221333Y-12029897D01*
X1218133Y-12025680D01*
X1210411Y-12014454D01*
X1201267Y-12004344D01*
X1190853Y-11995556D01*
X1179372Y-11988190D01*
X1166977Y-11982450D01*
X1153972Y-11978436D01*
X1140510Y-11976150D01*
X1126896Y-11975693D01*
X1113332Y-11977065D01*
X1100023Y-11980214D01*
X1087323Y-11985142D01*
X1075334Y-11991695D01*
X1064361Y-11999772D01*
X1054557Y-12009221D01*
X1046124Y-12019940D01*
X1039164Y-12031675D01*
X1033830Y-12044222D01*
X1030274Y-12057380D01*
X1028446Y-12070892D01*
X1028446Y-12084558D01*
X1030274Y-12098070D01*
X1033830Y-12111228D01*
X1039164Y-12123775D01*
X1046124Y-12135510D01*
X1054557Y-12146178D01*
X1064361Y-12155678D01*
X1075334Y-12163755D01*
X1087323Y-12170308D01*
X1100023Y-12175236D01*
X1113332Y-12178385D01*
X1126896Y-12179757D01*
X1140510Y-12179300D01*
X1153972Y-12177014D01*
X1166977Y-12173000D01*
X1179372Y-12167260D01*
X1190853Y-12159894D01*
X1201267Y-12151106D01*
X1210411Y-12140996D01*
X1218133Y-12129770D01*
X1221333Y-12125553D01*
X1225448Y-12123674D01*
X1229918Y-12123724D01*
X1233932Y-12125706D01*
X1236726Y-12129211D01*
X1237742Y-12133580D01*
X1237742Y-12223242D01*
X1238504Y-12231268D01*
X1240688Y-12238482D01*
X1244295Y-12245187D01*
X1249375Y-12251385D01*
X1285494Y-12287504D01*
X1287526Y-12290450D01*
X1288440Y-12293854D01*
X1288135Y-12297410D01*
X1284224Y-12311380D01*
X1282446Y-12324892D01*
X1282446Y-12338558D01*
X1284274Y-12352070D01*
X1287830Y-12365228D01*
X1293164Y-12377775D01*
X1300124Y-12389510D01*
X1308557Y-12400178D01*
X1318361Y-12409678D01*
X1327302Y-12416231D01*
X1330096Y-12419380D01*
X1331366Y-12423394D01*
X1330909Y-12427610D01*
X1328826Y-12431268D01*
X1325372Y-12433706D01*
X1321257Y-12434570D01*
X1243330Y-12434570D01*
X1235303Y-12435382D01*
X1228090Y-12437567D01*
X1221384Y-12441123D01*
X1215186Y-12446254D01*
X1174343Y-12487046D01*
X1171346Y-12489129D01*
X1167790Y-12490043D01*
X1164183Y-12489586D01*
X1153972Y-12486436D01*
X1140510Y-12484150D01*
X1126896Y-12483693D01*
X1113332Y-12485065D01*
X1100023Y-12488214D01*
X1087323Y-12493142D01*
X1075334Y-12499695D01*
X1064361Y-12507772D01*
X1054557Y-12517221D01*
X1046124Y-12527940D01*
X1039164Y-12539675D01*
X1033830Y-12552222D01*
X1030274Y-12565380D01*
X1028446Y-12578892D01*
X1028446Y-12592558D01*
X1030274Y-12606070D01*
X1033830Y-12619228D01*
X1039164Y-12631775D01*
X1046124Y-12643510D01*
X1054557Y-12654178D01*
X1064361Y-12663678D01*
X1075334Y-12671755D01*
X1087323Y-12678308D01*
X1100023Y-12683236D01*
X1113332Y-12686385D01*
X1126896Y-12687757D01*
X1140510Y-12687300D01*
X1153972Y-12685014D01*
X1166977Y-12681000D01*
X1179372Y-12675260D01*
X1190853Y-12667894D01*
X1201267Y-12659106D01*
X1210411Y-12648996D01*
X1218133Y-12637770D01*
X1224280Y-12625578D01*
X1228750Y-12612674D01*
X1231442Y-12599314D01*
X1232357Y-12585700D01*
X1231442Y-12572136D01*
X1228750Y-12558776D01*
X1226464Y-12552222D01*
X1225956Y-12548514D01*
X1226769Y-12544856D01*
X1228902Y-12541707D01*
X1255826Y-12514783D01*
X1259128Y-12512598D01*
X1263040Y-12511786D01*
X1272032Y-12511786D01*
X1275892Y-12512598D01*
X1279194Y-12514783D01*
X1281430Y-12518085D01*
X1282192Y-12521946D01*
X1282192Y-12541250D01*
X1339850Y-12541250D01*
X1339850Y-12521946D01*
X1340612Y-12518085D01*
X1342796Y-12514783D01*
X1346098Y-12512598D01*
X1350010Y-12511786D01*
X1418590Y-12511786D01*
X1422450Y-12512598D01*
X1425752Y-12514783D01*
X1427988Y-12518085D01*
X1428750Y-12521946D01*
X1428750Y-12541250D01*
X1486408Y-12541250D01*
X1486408Y-12521946D01*
X1487170Y-12518085D01*
X1489354Y-12514783D01*
X1492656Y-12512598D01*
X1496568Y-12511786D01*
X2003399Y-12511786D01*
X2007260Y-12512598D01*
X2010562Y-12514783D01*
X2044547Y-12548768D01*
X2046782Y-12552172D01*
X2047544Y-12556185D01*
X2046630Y-12560147D01*
X2043785Y-12566497D01*
X2039264Y-12580975D01*
X2036521Y-12595961D01*
X2035606Y-12611100D01*
X2036521Y-12626289D01*
X2039264Y-12641224D01*
X2043785Y-12655753D01*
X2050034Y-12669621D01*
X2057907Y-12682626D01*
X2067255Y-12694615D01*
X2078024Y-12705334D01*
X2089962Y-12714732D01*
X2102967Y-12722606D01*
X2116836Y-12728803D01*
X2131364Y-12733375D01*
X2146300Y-12736068D01*
G37*
G36*
X2471826Y-12723571D02*
G01*
X2474010Y-12722606D01*
X2487015Y-12714732D01*
X2498953Y-12705334D01*
X2509723Y-12694615D01*
X2519121Y-12682626D01*
X2526944Y-12669621D01*
X2527909Y-12667488D01*
X2471826Y-12667488D01*
G37*
G36*
X2359152Y-12723571D02*
G01*
X2359152Y-12667488D01*
X2303068Y-12667488D01*
X2304034Y-12669621D01*
X2311908Y-12682626D01*
X2321255Y-12694615D01*
X2332024Y-12705334D01*
X2343962Y-12714732D01*
X2356967Y-12722606D01*
G37*
G36*
X1428750Y-12687808D02*
G01*
X1459941Y-12687808D01*
X1466240Y-12687096D01*
X1471726Y-12685217D01*
X1476603Y-12682118D01*
X1480718Y-12678054D01*
X1483766Y-12673126D01*
X1485696Y-12667691D01*
X1486408Y-12661341D01*
X1486408Y-12630150D01*
X1428750Y-12630150D01*
G37*
G36*
X1308658Y-12687808D02*
G01*
X1339850Y-12687808D01*
X1339850Y-12630150D01*
X1282192Y-12630150D01*
X1282192Y-12661341D01*
X1282903Y-12667691D01*
X1284782Y-12673126D01*
X1287881Y-12678054D01*
X1291996Y-12682118D01*
X1296873Y-12685217D01*
X1302359Y-12687096D01*
G37*
G36*
X2471826Y-12554762D02*
G01*
X2527909Y-12554762D01*
X2526944Y-12552629D01*
X2519121Y-12539624D01*
X2509723Y-12527635D01*
X2498953Y-12516866D01*
X2487015Y-12507518D01*
X2474010Y-12499644D01*
X2471826Y-12498679D01*
G37*
G36*
X2303068Y-12554762D02*
G01*
X2359152Y-12554762D01*
X2359152Y-12498679D01*
X2356967Y-12499644D01*
X2343962Y-12507518D01*
X2332024Y-12516866D01*
X2321255Y-12527635D01*
X2311908Y-12539624D01*
X2304034Y-12552629D01*
G37*
G36*
X1126896Y-12433757D02*
G01*
X1140510Y-12433300D01*
X1153972Y-12431014D01*
X1166977Y-12427000D01*
X1179372Y-12421260D01*
X1190853Y-12413894D01*
X1201267Y-12405106D01*
X1210411Y-12394996D01*
X1218133Y-12383770D01*
X1224280Y-12371578D01*
X1228750Y-12358674D01*
X1231442Y-12345314D01*
X1232357Y-12331700D01*
X1231442Y-12318136D01*
X1228750Y-12304776D01*
X1224280Y-12291872D01*
X1218133Y-12279680D01*
X1210411Y-12268454D01*
X1201267Y-12258344D01*
X1190853Y-12249556D01*
X1179372Y-12242190D01*
X1166977Y-12236450D01*
X1153972Y-12232436D01*
X1140510Y-12230150D01*
X1126896Y-12229693D01*
X1113332Y-12231065D01*
X1100023Y-12234214D01*
X1087323Y-12239142D01*
X1075334Y-12245695D01*
X1064361Y-12253772D01*
X1054557Y-12263221D01*
X1046124Y-12273940D01*
X1039164Y-12285675D01*
X1033830Y-12298222D01*
X1030274Y-12311380D01*
X1028446Y-12324892D01*
X1028446Y-12338558D01*
X1030274Y-12352070D01*
X1033830Y-12365228D01*
X1039164Y-12377775D01*
X1046124Y-12389510D01*
X1054557Y-12400178D01*
X1064361Y-12409678D01*
X1075334Y-12417755D01*
X1087323Y-12424308D01*
X1100023Y-12429236D01*
X1113332Y-12432385D01*
G37*
G36*
X2333904Y-12028170D02*
G01*
X2390546Y-12028170D01*
X2390546Y-11965432D01*
X2360371Y-11965432D01*
X2354021Y-11966143D01*
X2348585Y-11968022D01*
X2343658Y-11971121D01*
X2339594Y-11975185D01*
X2336495Y-11980113D01*
X2334615Y-11985548D01*
X2333904Y-11991898D01*
G37*
G36*
X2183892Y-12028170D02*
G01*
X2240584Y-12028170D01*
X2240584Y-11991898D01*
X2239873Y-11985548D01*
X2237994Y-11980113D01*
X2234895Y-11975185D01*
X2230780Y-11971121D01*
X2225903Y-11968022D01*
X2220417Y-11966143D01*
X2214118Y-11965432D01*
X2183892Y-11965432D01*
G37*
G36*
X2040280Y-12028170D02*
G01*
X2096973Y-12028170D01*
X2096973Y-11965432D01*
X2066747Y-11965432D01*
X2060448Y-11966143D01*
X2054961Y-11968022D01*
X2050084Y-11971121D01*
X2045970Y-11975185D01*
X2042922Y-11980113D01*
X2040991Y-11985548D01*
X2040280Y-11991898D01*
G37*
G36*
X2477516Y-12028170D02*
G01*
X2534208Y-12028170D01*
X2534208Y-11991898D01*
X2533497Y-11985548D01*
X2531567Y-11980113D01*
X2528519Y-11975185D01*
X2524404Y-11971121D01*
X2519527Y-11968022D01*
X2514041Y-11966143D01*
X2507742Y-11965432D01*
X2477516Y-11965432D01*
G37*
G36*
X6848551Y-11227308D02*
G01*
X8244433Y-11227308D01*
X8250732Y-11226596D01*
X8256219Y-11224717D01*
X8261096Y-11221618D01*
X8265210Y-11217554D01*
X8268258Y-11212626D01*
X8270189Y-11207191D01*
X8270900Y-11200841D01*
X8270900Y-10795609D01*
X8270189Y-10789259D01*
X8268258Y-10783824D01*
X8265210Y-10778896D01*
X8261096Y-10774832D01*
X8256219Y-10771733D01*
X8250732Y-10769803D01*
X8244433Y-10769092D01*
X6848551Y-10769092D01*
X6842252Y-10769803D01*
X6836765Y-10771733D01*
X6831888Y-10774832D01*
X6827774Y-10778896D01*
X6824725Y-10783824D01*
X6822795Y-10789259D01*
X6822084Y-10795609D01*
X6822084Y-11200841D01*
X6822795Y-11207191D01*
X6824725Y-11212626D01*
X6827774Y-11217554D01*
X6831888Y-11221618D01*
X6836765Y-11224717D01*
X6842252Y-11226596D01*
G37*
G36*
X-3109315Y-11225631D02*
G01*
X-2910484Y-11225631D01*
X-2904134Y-11224869D01*
X-2898698Y-11222990D01*
X-2893771Y-11219891D01*
X-2889707Y-11215827D01*
X-2886608Y-11210899D01*
X-2884728Y-11205464D01*
X-2883966Y-11199114D01*
X-2883966Y-11148466D01*
X-2883204Y-11144554D01*
X-2881020Y-11141303D01*
X-2877718Y-11139068D01*
X-2873806Y-11138306D01*
X-1919528Y-11138306D01*
X-1911502Y-11137493D01*
X-1904238Y-11135309D01*
X-1897583Y-11131753D01*
X-1891334Y-11126622D01*
X-1692960Y-10928248D01*
X-1689658Y-10926064D01*
X-1685798Y-10925251D01*
X-1681886Y-10926064D01*
X-1678584Y-10928248D01*
X-1676400Y-10931550D01*
X-1675638Y-10935411D01*
X-1675638Y-10957966D01*
X-1674926Y-10964265D01*
X-1672996Y-10969752D01*
X-1669897Y-10974628D01*
X-1665833Y-10978743D01*
X-1660906Y-10981791D01*
X-1655470Y-10983722D01*
X-1649120Y-10984433D01*
X-1490268Y-10984433D01*
X-1483918Y-10983722D01*
X-1478483Y-10981791D01*
X-1473606Y-10978743D01*
X-1469491Y-10974628D01*
X-1466392Y-10969752D01*
X-1464513Y-10964265D01*
X-1463802Y-10957966D01*
X-1463802Y-10759084D01*
X-1464513Y-10752785D01*
X-1466392Y-10747298D01*
X-1469491Y-10742422D01*
X-1473606Y-10738307D01*
X-1478483Y-10735259D01*
X-1483918Y-10733328D01*
X-1490268Y-10732617D01*
X-1520952Y-10732617D01*
X-1524812Y-10731855D01*
X-1528114Y-10729620D01*
X-1530350Y-10726318D01*
X-1531112Y-10722457D01*
X-1531112Y-10271150D01*
X-1530350Y-10267289D01*
X-1528114Y-10263987D01*
X-1524812Y-10261803D01*
X-1520952Y-10260990D01*
X-1418285Y-10260990D01*
X-1414373Y-10261803D01*
X-1411071Y-10263987D01*
X-1408887Y-10267289D01*
X-1408125Y-10271150D01*
X-1408125Y-10294162D01*
X-1358544Y-10294162D01*
X-1358544Y-10271150D01*
X-1357782Y-10267289D01*
X-1355598Y-10263987D01*
X-1352296Y-10261803D01*
X-1348384Y-10260990D01*
X-1296009Y-10260990D01*
X-1292148Y-10261803D01*
X-1288846Y-10263987D01*
X-1286611Y-10267289D01*
X-1285849Y-10271150D01*
X-1285849Y-10294162D01*
X-1236319Y-10294162D01*
X-1236319Y-10271150D01*
X-1235506Y-10267289D01*
X-1233322Y-10263987D01*
X-1230020Y-10261803D01*
X-1226159Y-10260990D01*
X-1188262Y-10260990D01*
X-1184402Y-10261803D01*
X-1181100Y-10263987D01*
X-1178915Y-10267289D01*
X-1178102Y-10271150D01*
X-1178102Y-10449966D01*
X-1177391Y-10456265D01*
X-1175512Y-10461752D01*
X-1172413Y-10466628D01*
X-1168298Y-10470743D01*
X-1163421Y-10473791D01*
X-1157986Y-10475722D01*
X-1151636Y-10476433D01*
X-1140155Y-10476433D01*
X-1136497Y-10477093D01*
X-1133348Y-10479074D01*
X-1131112Y-10482021D01*
X-1127810Y-10493400D01*
X-1124254Y-10500055D01*
X-1119124Y-10506303D01*
X-916178Y-10709249D01*
X-913993Y-10712551D01*
X-913180Y-10716463D01*
X-913180Y-10858042D01*
X-912418Y-10866069D01*
X-910234Y-10873282D01*
X-906627Y-10879937D01*
X-901852Y-10885779D01*
X-896010Y-10890605D01*
X-889355Y-10894161D01*
X-877976Y-10897412D01*
X-875030Y-10899698D01*
X-873048Y-10902848D01*
X-872388Y-10906506D01*
X-872388Y-10957966D01*
X-871677Y-10964265D01*
X-869746Y-10969752D01*
X-866648Y-10974628D01*
X-862584Y-10978743D01*
X-857656Y-10981791D01*
X-852220Y-10983722D01*
X-845921Y-10984433D01*
X-687019Y-10984433D01*
X-680720Y-10983722D01*
X-675233Y-10981791D01*
X-670356Y-10978743D01*
X-666242Y-10974628D01*
X-663143Y-10969752D01*
X-661263Y-10964265D01*
X-660552Y-10957966D01*
X-660552Y-10923676D01*
X-659841Y-10920018D01*
X-657910Y-10916869D01*
X-655015Y-10914634D01*
X-651459Y-10913567D01*
X-637133Y-10914938D01*
X-627380Y-10914075D01*
X-617880Y-10911535D01*
X-608990Y-10907369D01*
X-600913Y-10901730D01*
X-593953Y-10894822D01*
X-588314Y-10886744D01*
X-584200Y-10877854D01*
X-581660Y-10868355D01*
X-580796Y-10858550D01*
X-581660Y-10848797D01*
X-584200Y-10839297D01*
X-588314Y-10830407D01*
X-593953Y-10822330D01*
X-600913Y-10815370D01*
X-608990Y-10809732D01*
X-617880Y-10805617D01*
X-627380Y-10803077D01*
X-637133Y-10802213D01*
X-651459Y-10803585D01*
X-655015Y-10802518D01*
X-657910Y-10800283D01*
X-659841Y-10797082D01*
X-660552Y-10793476D01*
X-660552Y-10759084D01*
X-661263Y-10752785D01*
X-663143Y-10747298D01*
X-666242Y-10742422D01*
X-670356Y-10738307D01*
X-675233Y-10735259D01*
X-680720Y-10733328D01*
X-687019Y-10732617D01*
X-825804Y-10732617D01*
X-829716Y-10731855D01*
X-833018Y-10729620D01*
X-835202Y-10726318D01*
X-835964Y-10722457D01*
X-835964Y-10696752D01*
X-836777Y-10688726D01*
X-838962Y-10681462D01*
X-842518Y-10674807D01*
X-847648Y-10668609D01*
X-1025448Y-10490809D01*
X-1027684Y-10487406D01*
X-1028395Y-10483392D01*
X-1027480Y-10479430D01*
X-1025093Y-10476128D01*
X-1016101Y-10470743D01*
X-1011986Y-10466628D01*
X-1008938Y-10461752D01*
X-1007008Y-10456265D01*
X-1006297Y-10449966D01*
X-1006297Y-10271150D01*
X-1005535Y-10267289D01*
X-1003350Y-10263987D01*
X-1000048Y-10261803D01*
X-996137Y-10260990D01*
X-958291Y-10260990D01*
X-954379Y-10261803D01*
X-951077Y-10263987D01*
X-948893Y-10267289D01*
X-948131Y-10271150D01*
X-948131Y-10449966D01*
X-947419Y-10456265D01*
X-945489Y-10461752D01*
X-942441Y-10466628D01*
X-938326Y-10470743D01*
X-933450Y-10473791D01*
X-927963Y-10475722D01*
X-921664Y-10476433D01*
X-802792Y-10476433D01*
X-796442Y-10475722D01*
X-791006Y-10473791D01*
X-786079Y-10470743D01*
X-782015Y-10466628D01*
X-778916Y-10461752D01*
X-777036Y-10456265D01*
X-776325Y-10449966D01*
X-776325Y-10251084D01*
X-777036Y-10244785D01*
X-778916Y-10239298D01*
X-782015Y-10234422D01*
X-786079Y-10230307D01*
X-795121Y-10224922D01*
X-797509Y-10221620D01*
X-798423Y-10217658D01*
X-797661Y-10213644D01*
X-795426Y-10210241D01*
X-767080Y-10181894D01*
X-763778Y-10179710D01*
X-759917Y-10178897D01*
X-230784Y-10178897D01*
X-226771Y-10179710D01*
X-223469Y-10182047D01*
X-221284Y-10185450D01*
X-220624Y-10189464D01*
X-221538Y-10193375D01*
X-226110Y-10203129D01*
X-228650Y-10212628D01*
X-228955Y-10216134D01*
X-230124Y-10219994D01*
X-232664Y-10223144D01*
X-236220Y-10225024D01*
X-240233Y-10225328D01*
X-246786Y-10224617D01*
X-269849Y-10224617D01*
X-269849Y-10294162D01*
X-220319Y-10294162D01*
X-220319Y-10277449D01*
X-219354Y-10273182D01*
X-216662Y-10269677D01*
X-212750Y-10267645D01*
X-208381Y-10267442D01*
X-204317Y-10269118D01*
X-201320Y-10271201D01*
X-192430Y-10275366D01*
X-182930Y-10277906D01*
X-169011Y-10279278D01*
X-165404Y-10281412D01*
X-162966Y-10284815D01*
X-162102Y-10288879D01*
X-162102Y-10449966D01*
X-161391Y-10456265D01*
X-159512Y-10461752D01*
X-156413Y-10466628D01*
X-152298Y-10470743D01*
X-147421Y-10473791D01*
X-141986Y-10475722D01*
X-135636Y-10476433D01*
X-124155Y-10476433D01*
X-120497Y-10477093D01*
X-117348Y-10479074D01*
X-115112Y-10482021D01*
X-111810Y-10493400D01*
X-110235Y-10496956D01*
X-109931Y-10499445D01*
X-109931Y-10858042D01*
X-109169Y-10866069D01*
X-106984Y-10873282D01*
X-103378Y-10879937D01*
X-98602Y-10885779D01*
X-92760Y-10890605D01*
X-86106Y-10894161D01*
X-74726Y-10897412D01*
X-71780Y-10899698D01*
X-69799Y-10902848D01*
X-69138Y-10906506D01*
X-69138Y-10957966D01*
X-68427Y-10964265D01*
X-66497Y-10969752D01*
X-63398Y-10974628D01*
X-59334Y-10978743D01*
X-54406Y-10981791D01*
X-48971Y-10983722D01*
X-42621Y-10984433D01*
X116230Y-10984433D01*
X122580Y-10983722D01*
X128016Y-10981791D01*
X132892Y-10978743D01*
X137007Y-10974628D01*
X140106Y-10969752D01*
X141986Y-10964265D01*
X142697Y-10957966D01*
X142697Y-10759084D01*
X141986Y-10752785D01*
X140106Y-10747298D01*
X137007Y-10742422D01*
X132892Y-10738307D01*
X128016Y-10735259D01*
X122580Y-10733328D01*
X116230Y-10732617D01*
X-22555Y-10732617D01*
X-26466Y-10731855D01*
X-29768Y-10729620D01*
X-31953Y-10726318D01*
X-32715Y-10722457D01*
X-32715Y-10486593D01*
X-31953Y-10482681D01*
X-29768Y-10479430D01*
X-26466Y-10477195D01*
X-22555Y-10476433D01*
X-16764Y-10476433D01*
X-10464Y-10475722D01*
X-4978Y-10473791D01*
X-101Y-10470743D01*
X4013Y-10466628D01*
X7061Y-10461752D01*
X8991Y-10456265D01*
X9702Y-10449966D01*
X9702Y-10251084D01*
X8991Y-10244785D01*
X7061Y-10239298D01*
X4013Y-10234422D01*
X-101Y-10230307D01*
X-4978Y-10227259D01*
X-10464Y-10225328D01*
X-16764Y-10224617D01*
X-28194Y-10224617D01*
X-31851Y-10223957D01*
X-35052Y-10221976D01*
X-37287Y-10219029D01*
X-40589Y-10207650D01*
X-44145Y-10200995D01*
X-48615Y-10195509D01*
X-50444Y-10192207D01*
X-50901Y-10188397D01*
X-49936Y-10184739D01*
X-47701Y-10181640D01*
X-44500Y-10179608D01*
X-40741Y-10178897D01*
X51511Y-10178897D01*
X55422Y-10179710D01*
X58674Y-10181894D01*
X87020Y-10210241D01*
X89306Y-10213644D01*
X90017Y-10217658D01*
X89103Y-10221620D01*
X86715Y-10224922D01*
X77673Y-10230307D01*
X73558Y-10234422D01*
X70510Y-10239298D01*
X68580Y-10244785D01*
X67868Y-10251084D01*
X67868Y-10449966D01*
X68580Y-10456265D01*
X70510Y-10461752D01*
X73558Y-10466628D01*
X77673Y-10470743D01*
X82550Y-10473791D01*
X88036Y-10475722D01*
X94335Y-10476433D01*
X213207Y-10476433D01*
X219557Y-10475722D01*
X224993Y-10473791D01*
X229920Y-10470743D01*
X233984Y-10466628D01*
X237083Y-10461752D01*
X238963Y-10456265D01*
X239674Y-10449966D01*
X239674Y-10271150D01*
X240487Y-10267289D01*
X242671Y-10263987D01*
X245973Y-10261803D01*
X249834Y-10260990D01*
X8463889Y-10260990D01*
X8471916Y-10260228D01*
X8479180Y-10258044D01*
X8485835Y-10254488D01*
X8492083Y-10249357D01*
X9049918Y-9691471D01*
X9053525Y-9689134D01*
X9057792Y-9688525D01*
X9061907Y-9689693D01*
X9074912Y-9696602D01*
X9091676Y-9703460D01*
X9109100Y-9708489D01*
X9126880Y-9711740D01*
X9144965Y-9713163D01*
X9163050Y-9712706D01*
X9181033Y-9710369D01*
X9198660Y-9706203D01*
X9215729Y-9700260D01*
X9232138Y-9692589D01*
X9247682Y-9683242D01*
X9262160Y-9672370D01*
X9275419Y-9660077D01*
X9287408Y-9646462D01*
X9297873Y-9631730D01*
X9306814Y-9615982D01*
X9314078Y-9599371D01*
X9319564Y-9582099D01*
X9323273Y-9564370D01*
X9325152Y-9546386D01*
X9325152Y-9528251D01*
X9323273Y-9510268D01*
X9319564Y-9492538D01*
X9314078Y-9475266D01*
X9306814Y-9458655D01*
X9297873Y-9442907D01*
X9287408Y-9428175D01*
X9275419Y-9414560D01*
X9262160Y-9402267D01*
X9247682Y-9391396D01*
X9232138Y-9382048D01*
X9215729Y-9374378D01*
X9198660Y-9368434D01*
X9181033Y-9364268D01*
X9163050Y-9361932D01*
X9144965Y-9361474D01*
X9126880Y-9362897D01*
X9109100Y-9366148D01*
X9091676Y-9371177D01*
X9074912Y-9377984D01*
X9058910Y-9386519D01*
X9043924Y-9396628D01*
X9030004Y-9408210D01*
X9017355Y-9421215D01*
X9006128Y-9435388D01*
X8996375Y-9450679D01*
X8988298Y-9466884D01*
X8981897Y-9483801D01*
X8977325Y-9501327D01*
X8974531Y-9519208D01*
X8973566Y-9537293D01*
X8974531Y-9555378D01*
X8977325Y-9573310D01*
X8981897Y-9590786D01*
X8988298Y-9607753D01*
X8996629Y-9624314D01*
X8997950Y-9627463D01*
X8998153Y-9630867D01*
X8997238Y-9634169D01*
X8995257Y-9636963D01*
X8451392Y-10180828D01*
X8448090Y-10183012D01*
X8444230Y-10183774D01*
X173990Y-10183774D01*
X170129Y-10183012D01*
X166827Y-10180828D01*
X99364Y-10113365D01*
X93116Y-10108234D01*
X86461Y-10104678D01*
X79248Y-10102494D01*
X71221Y-10101681D01*
X-779627Y-10101681D01*
X-787603Y-10102494D01*
X-794867Y-10104678D01*
X-801522Y-10108234D01*
X-807770Y-10113365D01*
X-875233Y-10180828D01*
X-878484Y-10183012D01*
X-882396Y-10183774D01*
X-1907032Y-10183774D01*
X-1910892Y-10183012D01*
X-1914194Y-10180828D01*
X-2276246Y-9818776D01*
X-2278430Y-9815474D01*
X-2279192Y-9811613D01*
X-2279192Y-9619843D01*
X-2280158Y-9604349D01*
X-2282901Y-9589414D01*
X-2287422Y-9574885D01*
X-2293620Y-9561017D01*
X-2301494Y-9548012D01*
X-2310892Y-9536023D01*
X-2321610Y-9525304D01*
X-2333599Y-9515906D01*
X-2346604Y-9508032D01*
X-2360472Y-9501835D01*
X-2375001Y-9497314D01*
X-2389936Y-9494570D01*
X-2405126Y-9493656D01*
X-2420264Y-9494570D01*
X-2435250Y-9497314D01*
X-2449728Y-9501835D01*
X-2463596Y-9508032D01*
X-2476601Y-9515906D01*
X-2488590Y-9525304D01*
X-2499360Y-9536023D01*
X-2508707Y-9548012D01*
X-2516581Y-9561017D01*
X-2522829Y-9574885D01*
X-2527350Y-9589414D01*
X-2530094Y-9604349D01*
X-2531008Y-9619843D01*
X-2531008Y-9869220D01*
X-2530094Y-9884714D01*
X-2527350Y-9899650D01*
X-2522829Y-9914178D01*
X-2516581Y-9928047D01*
X-2508707Y-9941052D01*
X-2499360Y-9952990D01*
X-2488590Y-9963759D01*
X-2476601Y-9973106D01*
X-2463596Y-9980980D01*
X-2449728Y-9987229D01*
X-2435250Y-9991750D01*
X-2420264Y-9994493D01*
X-2405126Y-9995408D01*
X-2389936Y-9994493D01*
X-2375001Y-9991750D01*
X-2360472Y-9987229D01*
X-2346604Y-9980980D01*
X-2333599Y-9973106D01*
X-2321610Y-9963759D01*
X-2310892Y-9952990D01*
X-2301494Y-9941052D01*
X-2293772Y-9928250D01*
X-2291334Y-9925507D01*
X-2288082Y-9923830D01*
X-2284476Y-9923373D01*
X-2280920Y-9924237D01*
X-2277922Y-9926320D01*
X-1954885Y-10249357D01*
X-1948637Y-10254488D01*
X-1941982Y-10258044D01*
X-1934718Y-10260228D01*
X-1926742Y-10260990D01*
X-1618488Y-10260990D01*
X-1614576Y-10261803D01*
X-1611274Y-10263987D01*
X-1609090Y-10267289D01*
X-1608328Y-10271150D01*
X-1608328Y-10722457D01*
X-1609090Y-10726318D01*
X-1611274Y-10729620D01*
X-1614576Y-10731855D01*
X-1618488Y-10732617D01*
X-1649120Y-10732617D01*
X-1655470Y-10733328D01*
X-1660906Y-10735259D01*
X-1665833Y-10738307D01*
X-1669897Y-10742422D01*
X-1672996Y-10747298D01*
X-1674926Y-10752785D01*
X-1675638Y-10759084D01*
X-1675638Y-10810544D01*
X-1676298Y-10814202D01*
X-1678279Y-10817352D01*
X-1681225Y-10819587D01*
X-1692605Y-10822889D01*
X-1699260Y-10826445D01*
X-1705508Y-10831576D01*
X-1932025Y-11058093D01*
X-1935327Y-11060328D01*
X-1939188Y-11061090D01*
X-2873806Y-11061090D01*
X-2877718Y-11060328D01*
X-2881020Y-11058093D01*
X-2883204Y-11054791D01*
X-2883966Y-11050930D01*
X-2883966Y-11000282D01*
X-2884728Y-10993932D01*
X-2886608Y-10988497D01*
X-2889707Y-10983569D01*
X-2893771Y-10979505D01*
X-2898698Y-10976406D01*
X-2904134Y-10974527D01*
X-2910484Y-10973816D01*
X-2942437Y-10973816D01*
X-2946704Y-10972850D01*
X-2950210Y-10970209D01*
X-2952242Y-10966348D01*
X-2952496Y-10961979D01*
X-2950870Y-10957966D01*
X-2947720Y-10954918D01*
X-2938373Y-10949279D01*
X-2926435Y-10939932D01*
X-2915666Y-10929162D01*
X-2906318Y-10917224D01*
X-2898444Y-10904220D01*
X-2897479Y-10902035D01*
X-2953562Y-10902035D01*
X-2953562Y-10963656D01*
X-2954324Y-10967516D01*
X-2956509Y-10970818D01*
X-2959811Y-10973003D01*
X-2963722Y-10973816D01*
X-3056077Y-10973816D01*
X-3059988Y-10973003D01*
X-3063290Y-10970818D01*
X-3065475Y-10967516D01*
X-3066237Y-10963656D01*
X-3066237Y-10902035D01*
X-3122320Y-10902035D01*
X-3121355Y-10904220D01*
X-3113481Y-10917224D01*
X-3104134Y-10929162D01*
X-3093364Y-10939932D01*
X-3081426Y-10949279D01*
X-3072079Y-10954918D01*
X-3068929Y-10957966D01*
X-3067304Y-10961979D01*
X-3067558Y-10966348D01*
X-3069590Y-10970209D01*
X-3073095Y-10972850D01*
X-3077362Y-10973816D01*
X-3109315Y-10973816D01*
X-3115665Y-10974527D01*
X-3121101Y-10976406D01*
X-3126028Y-10979505D01*
X-3130092Y-10983569D01*
X-3133191Y-10988497D01*
X-3135071Y-10993932D01*
X-3135782Y-11000282D01*
X-3135782Y-11199114D01*
X-3135071Y-11205464D01*
X-3133191Y-11210899D01*
X-3130092Y-11215827D01*
X-3126028Y-11219891D01*
X-3121101Y-11222990D01*
X-3115665Y-11224869D01*
G37*
G36*
X-1329131Y-10984433D02*
G01*
X-1296060Y-10984433D01*
X-1296060Y-10914888D01*
X-1355648Y-10914888D01*
X-1355648Y-10957966D01*
X-1354937Y-10964265D01*
X-1353007Y-10969752D01*
X-1349908Y-10974628D01*
X-1345844Y-10978743D01*
X-1340916Y-10981791D01*
X-1335481Y-10983722D01*
G37*
G36*
X277368Y-10984433D02*
G01*
X310438Y-10984433D01*
X310438Y-10914888D01*
X250850Y-10914888D01*
X250850Y-10957966D01*
X251561Y-10964265D01*
X253492Y-10969752D01*
X256590Y-10974628D01*
X260654Y-10978743D01*
X265582Y-10981791D01*
X271018Y-10983722D01*
G37*
G36*
X-525932Y-10984433D02*
G01*
X-492810Y-10984433D01*
X-492810Y-10914888D01*
X-552399Y-10914888D01*
X-552399Y-10957966D01*
X-551688Y-10964265D01*
X-549757Y-10969752D01*
X-546658Y-10974628D01*
X-542594Y-10978743D01*
X-537667Y-10981791D01*
X-532231Y-10983722D01*
G37*
G36*
X-400100Y-10984433D02*
G01*
X-367030Y-10984433D01*
X-360730Y-10983722D01*
X-355244Y-10981791D01*
X-350367Y-10978743D01*
X-346252Y-10974628D01*
X-343154Y-10969752D01*
X-341274Y-10964265D01*
X-340563Y-10957966D01*
X-340563Y-10914888D01*
X-400100Y-10914888D01*
G37*
G36*
X-1203350Y-10984433D02*
G01*
X-1170279Y-10984433D01*
X-1163929Y-10983722D01*
X-1158494Y-10981791D01*
X-1153617Y-10978743D01*
X-1149502Y-10974628D01*
X-1146403Y-10969752D01*
X-1144524Y-10964265D01*
X-1143812Y-10957966D01*
X-1143812Y-10914888D01*
X-1203350Y-10914888D01*
G37*
G36*
X403148Y-10984433D02*
G01*
X436219Y-10984433D01*
X442569Y-10983722D01*
X448005Y-10981791D01*
X452882Y-10978743D01*
X456996Y-10974628D01*
X460095Y-10969752D01*
X461975Y-10964265D01*
X462686Y-10957966D01*
X462686Y-10914888D01*
X403148Y-10914888D01*
G37*
G36*
X-1355648Y-10802162D02*
G01*
X-1296060Y-10802162D01*
X-1296060Y-10732617D01*
X-1329131Y-10732617D01*
X-1335481Y-10733328D01*
X-1340916Y-10735259D01*
X-1345844Y-10738307D01*
X-1349908Y-10742422D01*
X-1353007Y-10747298D01*
X-1354937Y-10752785D01*
X-1355648Y-10759084D01*
G37*
G36*
X250850Y-10802162D02*
G01*
X310438Y-10802162D01*
X310438Y-10732617D01*
X277368Y-10732617D01*
X271018Y-10733328D01*
X265582Y-10735259D01*
X260654Y-10738307D01*
X256590Y-10742422D01*
X253492Y-10747298D01*
X251561Y-10752785D01*
X250850Y-10759084D01*
G37*
G36*
X-1203350Y-10802162D02*
G01*
X-1143812Y-10802162D01*
X-1143812Y-10759084D01*
X-1144524Y-10752785D01*
X-1146403Y-10747298D01*
X-1149502Y-10742422D01*
X-1153617Y-10738307D01*
X-1158494Y-10735259D01*
X-1163929Y-10733328D01*
X-1170279Y-10732617D01*
X-1203350Y-10732617D01*
G37*
G36*
X-552399Y-10802162D02*
G01*
X-492810Y-10802162D01*
X-492810Y-10732617D01*
X-525932Y-10732617D01*
X-532231Y-10733328D01*
X-537667Y-10735259D01*
X-542594Y-10738307D01*
X-546658Y-10742422D01*
X-549757Y-10747298D01*
X-551688Y-10752785D01*
X-552399Y-10759084D01*
G37*
G36*
X-400100Y-10802162D02*
G01*
X-340563Y-10802162D01*
X-340563Y-10759084D01*
X-341274Y-10752785D01*
X-343154Y-10747298D01*
X-346252Y-10742422D01*
X-350367Y-10738307D01*
X-355244Y-10735259D01*
X-360730Y-10733328D01*
X-367030Y-10732617D01*
X-400100Y-10732617D01*
G37*
G36*
X403148Y-10802162D02*
G01*
X462686Y-10802162D01*
X462686Y-10759084D01*
X461975Y-10752785D01*
X460095Y-10747298D01*
X456996Y-10742422D01*
X452882Y-10738307D01*
X448005Y-10735259D01*
X442569Y-10733328D01*
X436219Y-10732617D01*
X403148Y-10732617D01*
G37*
G36*
X-2953562Y-10789361D02*
G01*
X-2897479Y-10789361D01*
X-2898444Y-10787176D01*
X-2906318Y-10774172D01*
X-2915666Y-10762234D01*
X-2926435Y-10751464D01*
X-2938373Y-10742117D01*
X-2951378Y-10734243D01*
X-2953562Y-10733278D01*
G37*
G36*
X-3122320Y-10789361D02*
G01*
X-3066237Y-10789361D01*
X-3066237Y-10733278D01*
X-3068421Y-10734243D01*
X-3081426Y-10742117D01*
X-3093364Y-10751464D01*
X-3104134Y-10762234D01*
X-3113481Y-10774172D01*
X-3121355Y-10787176D01*
G37*
G36*
X-1381658Y-10476433D02*
G01*
X-1358544Y-10476433D01*
X-1358544Y-10406888D01*
X-1408125Y-10406888D01*
X-1408125Y-10449966D01*
X-1407414Y-10456265D01*
X-1405483Y-10461752D01*
X-1402435Y-10466628D01*
X-1398320Y-10470743D01*
X-1393444Y-10473791D01*
X-1387957Y-10475722D01*
G37*
G36*
X-269849Y-10476433D02*
G01*
X-246786Y-10476433D01*
X-240436Y-10475722D01*
X-235000Y-10473791D01*
X-230073Y-10470743D01*
X-226009Y-10466628D01*
X-222910Y-10461752D01*
X-221030Y-10456265D01*
X-220319Y-10449966D01*
X-220319Y-10406888D01*
X-269849Y-10406888D01*
G37*
G36*
X-1285849Y-10476433D02*
G01*
X-1262786Y-10476433D01*
X-1256436Y-10475722D01*
X-1251000Y-10473791D01*
X-1246073Y-10470743D01*
X-1242009Y-10466628D01*
X-1238910Y-10461752D01*
X-1237030Y-10456265D01*
X-1236319Y-10449966D01*
X-1236319Y-10406888D01*
X-1285849Y-10406888D01*
G37*
G36*
X-365658Y-10476433D02*
G01*
X-342544Y-10476433D01*
X-342544Y-10406888D01*
X-392125Y-10406888D01*
X-392125Y-10449966D01*
X-391414Y-10456265D01*
X-389483Y-10461752D01*
X-386435Y-10466628D01*
X-382320Y-10470743D01*
X-377444Y-10473791D01*
X-371957Y-10475722D01*
G37*
G36*
X-2779826Y-10320426D02*
G01*
X-2530398Y-10320426D01*
X-2514955Y-10319512D01*
X-2499969Y-10316768D01*
X-2485491Y-10312247D01*
X-2471623Y-10305999D01*
X-2458618Y-10298125D01*
X-2446629Y-10288778D01*
X-2435860Y-10278008D01*
X-2426512Y-10266019D01*
X-2418638Y-10253014D01*
X-2412390Y-10239146D01*
X-2407869Y-10224668D01*
X-2405126Y-10209682D01*
X-2404211Y-10194544D01*
X-2405126Y-10179354D01*
X-2407869Y-10164419D01*
X-2412390Y-10149890D01*
X-2418638Y-10136022D01*
X-2426512Y-10123017D01*
X-2435860Y-10111028D01*
X-2446629Y-10100310D01*
X-2458618Y-10090912D01*
X-2471623Y-10083038D01*
X-2485491Y-10076840D01*
X-2499969Y-10072268D01*
X-2514955Y-10069576D01*
X-2530398Y-10068610D01*
X-2779826Y-10068610D01*
X-2795270Y-10069576D01*
X-2810256Y-10072268D01*
X-2824734Y-10076840D01*
X-2838602Y-10083038D01*
X-2851607Y-10090912D01*
X-2863596Y-10100310D01*
X-2874314Y-10111028D01*
X-2883712Y-10123017D01*
X-2891586Y-10136022D01*
X-2897835Y-10149890D01*
X-2902356Y-10164419D01*
X-2905099Y-10179354D01*
X-2906014Y-10194544D01*
X-2905099Y-10209682D01*
X-2902356Y-10224668D01*
X-2897835Y-10239146D01*
X-2891586Y-10253014D01*
X-2883712Y-10266019D01*
X-2874314Y-10278008D01*
X-2863596Y-10288778D01*
X-2851607Y-10298125D01*
X-2838602Y-10305999D01*
X-2824734Y-10312247D01*
X-2810256Y-10316768D01*
X-2795270Y-10319512D01*
G37*
G36*
X-392125Y-10294162D02*
G01*
X-342544Y-10294162D01*
X-342544Y-10224617D01*
X-365658Y-10224617D01*
X-371957Y-10225328D01*
X-377444Y-10227259D01*
X-382320Y-10230307D01*
X-386435Y-10234422D01*
X-389483Y-10239298D01*
X-391414Y-10244785D01*
X-392125Y-10251084D01*
G37*
G36*
X-2948736Y-9981946D02*
G01*
X-2946603Y-9980980D01*
X-2933598Y-9973106D01*
X-2921609Y-9963759D01*
X-2910890Y-9952990D01*
X-2901492Y-9941052D01*
X-2893618Y-9928047D01*
X-2887421Y-9914178D01*
X-2882900Y-9899650D01*
X-2880156Y-9884714D01*
X-2879191Y-9869220D01*
X-2879191Y-9863378D01*
X-2948736Y-9863378D01*
G37*
G36*
X-3061462Y-9981946D02*
G01*
X-3061462Y-9863378D01*
X-3131007Y-9863378D01*
X-3131007Y-9869220D01*
X-3130092Y-9884714D01*
X-3127349Y-9899650D01*
X-3122828Y-9914178D01*
X-3116580Y-9928047D01*
X-3108706Y-9941052D01*
X-3099358Y-9952990D01*
X-3088589Y-9963759D01*
X-3076600Y-9973106D01*
X-3063595Y-9980980D01*
G37*
G36*
X-265633Y-9856419D02*
G01*
X113233Y-9856419D01*
X119532Y-9855708D01*
X125018Y-9853828D01*
X129895Y-9850729D01*
X134010Y-9846614D01*
X137058Y-9841738D01*
X138988Y-9836251D01*
X139700Y-9829952D01*
X139700Y-9601098D01*
X138988Y-9594748D01*
X137058Y-9589312D01*
X134010Y-9584385D01*
X129895Y-9580321D01*
X125018Y-9577222D01*
X119532Y-9575342D01*
X113233Y-9574631D01*
X-265633Y-9574631D01*
X-271983Y-9575342D01*
X-277418Y-9577222D01*
X-282346Y-9580321D01*
X-286410Y-9584385D01*
X-289509Y-9589312D01*
X-291388Y-9594748D01*
X-292100Y-9601098D01*
X-292100Y-9829952D01*
X-291388Y-9836251D01*
X-289509Y-9841738D01*
X-286410Y-9846614D01*
X-282346Y-9850729D01*
X-277418Y-9853828D01*
X-271983Y-9855708D01*
G37*
G36*
X-1281633Y-9856419D02*
G01*
X-902766Y-9856419D01*
X-896467Y-9855708D01*
X-890981Y-9853828D01*
X-886104Y-9850729D01*
X-881989Y-9846614D01*
X-878941Y-9841738D01*
X-877011Y-9836251D01*
X-876300Y-9829952D01*
X-876300Y-9601098D01*
X-877011Y-9594748D01*
X-878941Y-9589312D01*
X-881989Y-9584385D01*
X-886104Y-9580321D01*
X-890981Y-9577222D01*
X-896467Y-9575342D01*
X-902766Y-9574631D01*
X-1281633Y-9574631D01*
X-1287983Y-9575342D01*
X-1293418Y-9577222D01*
X-1298346Y-9580321D01*
X-1302410Y-9584385D01*
X-1305509Y-9589312D01*
X-1307388Y-9594748D01*
X-1308100Y-9601098D01*
X-1308100Y-9829952D01*
X-1307388Y-9836251D01*
X-1305509Y-9841738D01*
X-1302410Y-9846614D01*
X-1298346Y-9850729D01*
X-1293418Y-9853828D01*
X-1287983Y-9855708D01*
G37*
G36*
X1894992Y-9713163D02*
G01*
X1913077Y-9712706D01*
X1931060Y-9710369D01*
X1948688Y-9706203D01*
X1965756Y-9700260D01*
X1982165Y-9692589D01*
X1997710Y-9683242D01*
X2012188Y-9672370D01*
X2025446Y-9660077D01*
X2037435Y-9646462D01*
X2047900Y-9631730D01*
X2056841Y-9615982D01*
X2064105Y-9599371D01*
X2069592Y-9582099D01*
X2073300Y-9564370D01*
X2075180Y-9546386D01*
X2075180Y-9528251D01*
X2073300Y-9510268D01*
X2069592Y-9492538D01*
X2064105Y-9475266D01*
X2056841Y-9458655D01*
X2051964Y-9450019D01*
X2050643Y-9445853D01*
X2051253Y-9441535D01*
X2053589Y-9437827D01*
X3842512Y-7648905D01*
X3845814Y-7646720D01*
X3849725Y-7645908D01*
X8970162Y-7645908D01*
X8974480Y-7646873D01*
X8977985Y-7649565D01*
X8979966Y-7653528D01*
X8981897Y-7660792D01*
X8988298Y-7677759D01*
X8996375Y-7693964D01*
X9006128Y-7709255D01*
X9017355Y-7723428D01*
X9030004Y-7736433D01*
X9043924Y-7748016D01*
X9058910Y-7758125D01*
X9074912Y-7766608D01*
X9091676Y-7773466D01*
X9109100Y-7778496D01*
X9126880Y-7781747D01*
X9144965Y-7783169D01*
X9163050Y-7782712D01*
X9181033Y-7780375D01*
X9198660Y-7776209D01*
X9215729Y-7770266D01*
X9232138Y-7762595D01*
X9247682Y-7753248D01*
X9262160Y-7742377D01*
X9275419Y-7730083D01*
X9287408Y-7716469D01*
X9297873Y-7701737D01*
X9306814Y-7685989D01*
X9314078Y-7669377D01*
X9319564Y-7652105D01*
X9323273Y-7634376D01*
X9325152Y-7616393D01*
X9325152Y-7598257D01*
X9323273Y-7580274D01*
X9319564Y-7562545D01*
X9314078Y-7545273D01*
X9306814Y-7528661D01*
X9297873Y-7512913D01*
X9287408Y-7498181D01*
X9275419Y-7484567D01*
X9262160Y-7472273D01*
X9247682Y-7461402D01*
X9232138Y-7452055D01*
X9215729Y-7444384D01*
X9198660Y-7438440D01*
X9181033Y-7434275D01*
X9163050Y-7431938D01*
X9144965Y-7431481D01*
X9126880Y-7432903D01*
X9109100Y-7436154D01*
X9091676Y-7441184D01*
X9074912Y-7447991D01*
X9058910Y-7456525D01*
X9043924Y-7466634D01*
X9030004Y-7478217D01*
X9017355Y-7491222D01*
X9006128Y-7505395D01*
X8996375Y-7520686D01*
X8988298Y-7536891D01*
X8981897Y-7553807D01*
X8979966Y-7561122D01*
X8977985Y-7565085D01*
X8974480Y-7567777D01*
X8970162Y-7568692D01*
X3830015Y-7568692D01*
X3821988Y-7569504D01*
X3814775Y-7571689D01*
X3808069Y-7575245D01*
X3801872Y-7580375D01*
X1999030Y-9383217D01*
X1995271Y-9385604D01*
X1990852Y-9386112D01*
X1986635Y-9384741D01*
X1982165Y-9382048D01*
X1965756Y-9374378D01*
X1948688Y-9368434D01*
X1931060Y-9364268D01*
X1913077Y-9361932D01*
X1894992Y-9361474D01*
X1876907Y-9362897D01*
X1859127Y-9366148D01*
X1841703Y-9371177D01*
X1824939Y-9377984D01*
X1808937Y-9386519D01*
X1793951Y-9396628D01*
X1780032Y-9408210D01*
X1767382Y-9421215D01*
X1756156Y-9435388D01*
X1746402Y-9450679D01*
X1738325Y-9466884D01*
X1731924Y-9483801D01*
X1727352Y-9501327D01*
X1724558Y-9519208D01*
X1723593Y-9537293D01*
X1724558Y-9555378D01*
X1727352Y-9573310D01*
X1731924Y-9590786D01*
X1738325Y-9607753D01*
X1746402Y-9623958D01*
X1756156Y-9639249D01*
X1767382Y-9653422D01*
X1780032Y-9666427D01*
X1793951Y-9678009D01*
X1808937Y-9688118D01*
X1824939Y-9696602D01*
X1841703Y-9703460D01*
X1859127Y-9708489D01*
X1876907Y-9711740D01*
G37*
G36*
X-2948736Y-9625685D02*
G01*
X-2879191Y-9625685D01*
X-2879191Y-9619843D01*
X-2880156Y-9604349D01*
X-2882900Y-9589414D01*
X-2887421Y-9574885D01*
X-2893618Y-9561017D01*
X-2901492Y-9548012D01*
X-2910890Y-9536023D01*
X-2921609Y-9525304D01*
X-2933598Y-9515906D01*
X-2946603Y-9508032D01*
X-2948736Y-9507067D01*
G37*
G36*
X-3131007Y-9625685D02*
G01*
X-3061462Y-9625685D01*
X-3061462Y-9507067D01*
X-3063595Y-9508032D01*
X-3076600Y-9515906D01*
X-3088589Y-9525304D01*
X-3099358Y-9536023D01*
X-3108706Y-9548012D01*
X-3116580Y-9561017D01*
X-3122828Y-9574885D01*
X-3127349Y-9589414D01*
X-3130092Y-9604349D01*
X-3131007Y-9619843D01*
G37*
G36*
X-1193800Y-9244533D02*
G01*
X-1178610Y-9243618D01*
X-1163675Y-9240875D01*
X-1149146Y-9236354D01*
X-1135329Y-9230106D01*
X-1122273Y-9222232D01*
X-1110335Y-9212834D01*
X-1099566Y-9202115D01*
X-1090218Y-9190126D01*
X-1082344Y-9177121D01*
X-1076096Y-9163202D01*
X-1071575Y-9148775D01*
X-1068832Y-9133789D01*
X-1067917Y-9118600D01*
X-1068832Y-9103461D01*
X-1071575Y-9088475D01*
X-1076096Y-9074048D01*
X-1082344Y-9060129D01*
X-1090218Y-9047124D01*
X-1099566Y-9035135D01*
X-1110335Y-9024416D01*
X-1122273Y-9015018D01*
X-1135329Y-9007144D01*
X-1149146Y-9000896D01*
X-1163675Y-8996375D01*
X-1178610Y-8993632D01*
X-1193800Y-8992717D01*
X-1208989Y-8993632D01*
X-1223924Y-8996375D01*
X-1238453Y-9000896D01*
X-1252321Y-9007144D01*
X-1265326Y-9015018D01*
X-1277264Y-9024416D01*
X-1288034Y-9035135D01*
X-1297432Y-9047124D01*
X-1305255Y-9060129D01*
X-1311503Y-9073997D01*
X-1316024Y-9088475D01*
X-1318768Y-9103461D01*
X-1319682Y-9118600D01*
X-1318768Y-9133789D01*
X-1316024Y-9148775D01*
X-1311503Y-9163253D01*
X-1305255Y-9177121D01*
X-1297432Y-9190126D01*
X-1288034Y-9202115D01*
X-1277264Y-9212834D01*
X-1265326Y-9222232D01*
X-1252321Y-9230106D01*
X-1238453Y-9236354D01*
X-1223924Y-9240875D01*
X-1208989Y-9243618D01*
G37*
G36*
X-584200Y-9244533D02*
G01*
X-569010Y-9243618D01*
X-554075Y-9240875D01*
X-539546Y-9236354D01*
X-525729Y-9230106D01*
X-512673Y-9222232D01*
X-500735Y-9212834D01*
X-489966Y-9202115D01*
X-480618Y-9190126D01*
X-472744Y-9177121D01*
X-466496Y-9163202D01*
X-461975Y-9148775D01*
X-459232Y-9133789D01*
X-458317Y-9118600D01*
X-459232Y-9103461D01*
X-461975Y-9088475D01*
X-466496Y-9074048D01*
X-472744Y-9060129D01*
X-480618Y-9047124D01*
X-489966Y-9035135D01*
X-500735Y-9024416D01*
X-512673Y-9015018D01*
X-525729Y-9007144D01*
X-539546Y-9000896D01*
X-554075Y-8996375D01*
X-569010Y-8993632D01*
X-584200Y-8992717D01*
X-599389Y-8993632D01*
X-614324Y-8996375D01*
X-628853Y-9000896D01*
X-642721Y-9007144D01*
X-655726Y-9015018D01*
X-667664Y-9024416D01*
X-678434Y-9035135D01*
X-687832Y-9047124D01*
X-695655Y-9060129D01*
X-701903Y-9073997D01*
X-706424Y-9088475D01*
X-709168Y-9103461D01*
X-710082Y-9118600D01*
X-709168Y-9133789D01*
X-706424Y-9148775D01*
X-701903Y-9163253D01*
X-695655Y-9177121D01*
X-687832Y-9190126D01*
X-678434Y-9202115D01*
X-667664Y-9212834D01*
X-655726Y-9222232D01*
X-642721Y-9230106D01*
X-628853Y-9236354D01*
X-614324Y-9240875D01*
X-599389Y-9243618D01*
G37*
G36*
X-996137Y-9231071D02*
G01*
X-996137Y-9174988D01*
X-1052271Y-9174988D01*
X-1051255Y-9177121D01*
X-1043432Y-9190126D01*
X-1034034Y-9202115D01*
X-1023264Y-9212834D01*
X-1011326Y-9222232D01*
X-998321Y-9230106D01*
G37*
G36*
X-273862Y-9231071D02*
G01*
X-271729Y-9230106D01*
X-258673Y-9222232D01*
X-246735Y-9212834D01*
X-235966Y-9202115D01*
X-226618Y-9190126D01*
X-218744Y-9177121D01*
X-217779Y-9174988D01*
X-273862Y-9174988D01*
G37*
G36*
X-883462Y-9231071D02*
G01*
X-881329Y-9230106D01*
X-868273Y-9222232D01*
X-856335Y-9212834D01*
X-845566Y-9202115D01*
X-836218Y-9190126D01*
X-828344Y-9177121D01*
X-827379Y-9174988D01*
X-883462Y-9174988D01*
G37*
G36*
X-386537Y-9231071D02*
G01*
X-386537Y-9174988D01*
X-442671Y-9174988D01*
X-441655Y-9177121D01*
X-433832Y-9190126D01*
X-424434Y-9202115D01*
X-413664Y-9212834D01*
X-401726Y-9222232D01*
X-388721Y-9230106D01*
G37*
G36*
X12301270Y-9197543D02*
G01*
X12321489Y-9197086D01*
X12341606Y-9194698D01*
X12361367Y-9190482D01*
X12380671Y-9184386D01*
X12399314Y-9176562D01*
X12417196Y-9166961D01*
X12434011Y-9155785D01*
X12449759Y-9143034D01*
X12464237Y-9128912D01*
X12477343Y-9113469D01*
X12488926Y-9096908D01*
X12498933Y-9079280D01*
X12507214Y-9060840D01*
X12513716Y-9041638D01*
X12518440Y-9021978D01*
X12521285Y-9001912D01*
X12522200Y-8981694D01*
X12521285Y-8961475D01*
X12518440Y-8941460D01*
X12513716Y-8921800D01*
X12507214Y-8902598D01*
X12498933Y-8884158D01*
X12488926Y-8866530D01*
X12477343Y-8849969D01*
X12464237Y-8834526D01*
X12449759Y-8820353D01*
X12434011Y-8807653D01*
X12417196Y-8796477D01*
X12399314Y-8786876D01*
X12380671Y-8779052D01*
X12361367Y-8772956D01*
X12341606Y-8768740D01*
X12321489Y-8766352D01*
X12301270Y-8765895D01*
X12281052Y-8767318D01*
X12261088Y-8770620D01*
X12241530Y-8775750D01*
X12222530Y-8782761D01*
X12204242Y-8791448D01*
X12186920Y-8801862D01*
X12170562Y-8813850D01*
X12155474Y-8827262D01*
X12141657Y-8842095D01*
X12129312Y-8858097D01*
X12118492Y-8875217D01*
X12109348Y-8893302D01*
X12101931Y-8912098D01*
X12096343Y-8931554D01*
X12092533Y-8951468D01*
X12090654Y-8971584D01*
X12090654Y-8991854D01*
X12092533Y-9011970D01*
X12096343Y-9031884D01*
X12101931Y-9051290D01*
X12109348Y-9070136D01*
X12118492Y-9088221D01*
X12129312Y-9105341D01*
X12141657Y-9121343D01*
X12155474Y-9136176D01*
X12170562Y-9149588D01*
X12186920Y-9161576D01*
X12204242Y-9171990D01*
X12222530Y-9180677D01*
X12241530Y-9187688D01*
X12261088Y-9192818D01*
X12281052Y-9196120D01*
G37*
G36*
X10002570Y-9197543D02*
G01*
X10022789Y-9197086D01*
X10042906Y-9194698D01*
X10062667Y-9190482D01*
X10081971Y-9184386D01*
X10100614Y-9176562D01*
X10118496Y-9166961D01*
X10135311Y-9155785D01*
X10151059Y-9143034D01*
X10165537Y-9128912D01*
X10178643Y-9113469D01*
X10190226Y-9096908D01*
X10200233Y-9079280D01*
X10208514Y-9060840D01*
X10215016Y-9041638D01*
X10219740Y-9021978D01*
X10222585Y-9001912D01*
X10223500Y-8981694D01*
X10222585Y-8961475D01*
X10219740Y-8941460D01*
X10215016Y-8921800D01*
X10208514Y-8902598D01*
X10200233Y-8884158D01*
X10190226Y-8866530D01*
X10178643Y-8849969D01*
X10165537Y-8834526D01*
X10151059Y-8820353D01*
X10135311Y-8807653D01*
X10118496Y-8796477D01*
X10100614Y-8786876D01*
X10081971Y-8779052D01*
X10062667Y-8772956D01*
X10042906Y-8768740D01*
X10022789Y-8766352D01*
X10002570Y-8765895D01*
X9982352Y-8767318D01*
X9962388Y-8770620D01*
X9942830Y-8775750D01*
X9923830Y-8782761D01*
X9905542Y-8791448D01*
X9888220Y-8801862D01*
X9871862Y-8813850D01*
X9856774Y-8827262D01*
X9842957Y-8842095D01*
X9830612Y-8858097D01*
X9819792Y-8875217D01*
X9810648Y-8893302D01*
X9803231Y-8912098D01*
X9797643Y-8931554D01*
X9793833Y-8951468D01*
X9791954Y-8971584D01*
X9791954Y-8991854D01*
X9793833Y-9011970D01*
X9797643Y-9031884D01*
X9803231Y-9051290D01*
X9810648Y-9070136D01*
X9819792Y-9088221D01*
X9830612Y-9105341D01*
X9842957Y-9121343D01*
X9856774Y-9136176D01*
X9871862Y-9149588D01*
X9888220Y-9161576D01*
X9905542Y-9171990D01*
X9923830Y-9180677D01*
X9942830Y-9187688D01*
X9962388Y-9192818D01*
X9982352Y-9196120D01*
G37*
G36*
X-1052271Y-9062262D02*
G01*
X-996137Y-9062262D01*
X-996137Y-9006179D01*
X-998321Y-9007144D01*
X-1011326Y-9015018D01*
X-1023264Y-9024416D01*
X-1034034Y-9035135D01*
X-1043432Y-9047124D01*
X-1051255Y-9060129D01*
G37*
G36*
X-442671Y-9062262D02*
G01*
X-386537Y-9062262D01*
X-386537Y-9006179D01*
X-388721Y-9007144D01*
X-401726Y-9015018D01*
X-413664Y-9024416D01*
X-424434Y-9035135D01*
X-433832Y-9047124D01*
X-441655Y-9060129D01*
G37*
G36*
X-273862Y-9062262D02*
G01*
X-217779Y-9062262D01*
X-218744Y-9060129D01*
X-226618Y-9047124D01*
X-235966Y-9035135D01*
X-246735Y-9024416D01*
X-258673Y-9015018D01*
X-271729Y-9007144D01*
X-273862Y-9006179D01*
G37*
G36*
X-883462Y-9062262D02*
G01*
X-827379Y-9062262D01*
X-828344Y-9060129D01*
X-836218Y-9047124D01*
X-845566Y-9035135D01*
X-856335Y-9024416D01*
X-868273Y-9015018D01*
X-881329Y-9007144D01*
X-883462Y-9006179D01*
G37*
G36*
X571500Y-8990533D02*
G01*
X586638Y-8989618D01*
X601624Y-8986875D01*
X616102Y-8982354D01*
X629970Y-8976106D01*
X642975Y-8968232D01*
X654964Y-8958834D01*
X665734Y-8948115D01*
X675081Y-8936126D01*
X682955Y-8923121D01*
X689203Y-8909253D01*
X693724Y-8894775D01*
X696468Y-8879789D01*
X697382Y-8864600D01*
X696468Y-8849461D01*
X693724Y-8834475D01*
X689203Y-8819997D01*
X682955Y-8806129D01*
X675081Y-8793124D01*
X665734Y-8781135D01*
X654964Y-8770416D01*
X642975Y-8761018D01*
X629970Y-8753144D01*
X616102Y-8746896D01*
X601624Y-8742375D01*
X586638Y-8739632D01*
X571500Y-8738717D01*
X556310Y-8739632D01*
X541375Y-8742375D01*
X526846Y-8746896D01*
X520496Y-8749741D01*
X516534Y-8750655D01*
X512572Y-8749944D01*
X509168Y-8747658D01*
X505612Y-8744153D01*
X503428Y-8740851D01*
X502666Y-8736939D01*
X502666Y-8493810D01*
X503428Y-8489899D01*
X505612Y-8486648D01*
X508914Y-8484412D01*
X512826Y-8483650D01*
X537718Y-8483650D01*
X544017Y-8482939D01*
X549503Y-8481009D01*
X554380Y-8477961D01*
X558495Y-8473846D01*
X561594Y-8468969D01*
X563473Y-8463483D01*
X564184Y-8457184D01*
X564184Y-8285530D01*
X563473Y-8279180D01*
X561594Y-8273745D01*
X558495Y-8268817D01*
X554380Y-8264753D01*
X549503Y-8261654D01*
X544017Y-8259724D01*
X537718Y-8259013D01*
X390347Y-8259013D01*
X384048Y-8259724D01*
X378561Y-8261654D01*
X373684Y-8264753D01*
X369570Y-8268817D01*
X366522Y-8273745D01*
X364591Y-8279180D01*
X363880Y-8285530D01*
X363880Y-8294420D01*
X363118Y-8298332D01*
X360883Y-8301634D01*
X357632Y-8303818D01*
X353720Y-8304580D01*
X349808Y-8303818D01*
X346557Y-8301634D01*
X263499Y-8218576D01*
X257251Y-8213445D01*
X250596Y-8209889D01*
X243382Y-8207705D01*
X235356Y-8206892D01*
X-355447Y-8206892D01*
X-363423Y-8207705D01*
X-370687Y-8209889D01*
X-377342Y-8213445D01*
X-383590Y-8218576D01*
X-436626Y-8271611D01*
X-439623Y-8273694D01*
X-443179Y-8274558D01*
X-446836Y-8274151D01*
X-456336Y-8271205D01*
X-469646Y-8268919D01*
X-483108Y-8268512D01*
X-496519Y-8269833D01*
X-509625Y-8272983D01*
X-522173Y-8277809D01*
X-534009Y-8284311D01*
X-544880Y-8292287D01*
X-554532Y-8301634D01*
X-562914Y-8312251D01*
X-569772Y-8323834D01*
X-575005Y-8336229D01*
X-578612Y-8349234D01*
X-580390Y-8362594D01*
X-580390Y-8376056D01*
X-578612Y-8389416D01*
X-575005Y-8402421D01*
X-569772Y-8414816D01*
X-562914Y-8426399D01*
X-554532Y-8437016D01*
X-544880Y-8446363D01*
X-534009Y-8454339D01*
X-522173Y-8460841D01*
X-509625Y-8465667D01*
X-496519Y-8468817D01*
X-483108Y-8470138D01*
X-469646Y-8469680D01*
X-456336Y-8467445D01*
X-443484Y-8463483D01*
X-431241Y-8457793D01*
X-419862Y-8450529D01*
X-409600Y-8441842D01*
X-400558Y-8431834D01*
X-392938Y-8420760D01*
X-386842Y-8408720D01*
X-382422Y-8395970D01*
X-379730Y-8382762D01*
X-378815Y-8369300D01*
X-379730Y-8355888D01*
X-382422Y-8342680D01*
X-384454Y-8336788D01*
X-385013Y-8333028D01*
X-384200Y-8329371D01*
X-382066Y-8326272D01*
X-342900Y-8287105D01*
X-339598Y-8284921D01*
X-335737Y-8284108D01*
X35204Y-8284108D01*
X39116Y-8284921D01*
X42418Y-8287105D01*
X44602Y-8290407D01*
X45364Y-8294268D01*
X45364Y-8321802D01*
X102057Y-8321802D01*
X102057Y-8294268D01*
X102819Y-8290407D01*
X105054Y-8287105D01*
X108356Y-8284921D01*
X112217Y-8284108D01*
X178866Y-8284108D01*
X182727Y-8284921D01*
X186029Y-8287105D01*
X188264Y-8290407D01*
X189026Y-8294268D01*
X189026Y-8321802D01*
X253288Y-8321802D01*
X257200Y-8322564D01*
X260502Y-8324748D01*
X334010Y-8398306D01*
X340258Y-8403437D01*
X346913Y-8406993D01*
X358292Y-8410244D01*
X361238Y-8412530D01*
X363220Y-8415680D01*
X363880Y-8419338D01*
X363880Y-8457184D01*
X364591Y-8463483D01*
X366522Y-8468969D01*
X369570Y-8473846D01*
X373684Y-8477961D01*
X378561Y-8481009D01*
X384048Y-8482939D01*
X390347Y-8483650D01*
X415290Y-8483650D01*
X419150Y-8484412D01*
X422452Y-8486648D01*
X424637Y-8489899D01*
X425450Y-8493810D01*
X425450Y-8756650D01*
X426212Y-8764676D01*
X428396Y-8771890D01*
X432003Y-8778595D01*
X437083Y-8784793D01*
X454558Y-8802268D01*
X456793Y-8805672D01*
X457555Y-8809685D01*
X456641Y-8813647D01*
X453796Y-8819997D01*
X449275Y-8834475D01*
X446532Y-8849461D01*
X445617Y-8864600D01*
X446532Y-8879789D01*
X449275Y-8894775D01*
X453796Y-8909253D01*
X459993Y-8923121D01*
X467868Y-8936126D01*
X477266Y-8948115D01*
X487984Y-8958834D01*
X499973Y-8968232D01*
X512978Y-8976106D01*
X526846Y-8982354D01*
X541375Y-8986875D01*
X556310Y-8989618D01*
G37*
G36*
X-1498600Y-8984183D02*
G01*
X-1483410Y-8983268D01*
X-1468475Y-8980525D01*
X-1453946Y-8976004D01*
X-1440129Y-8969756D01*
X-1427073Y-8961882D01*
X-1415135Y-8952484D01*
X-1404366Y-8941765D01*
X-1395018Y-8929776D01*
X-1387144Y-8916771D01*
X-1380896Y-8902903D01*
X-1376375Y-8888425D01*
X-1373632Y-8873439D01*
X-1372717Y-8858250D01*
X-1373632Y-8843111D01*
X-1376375Y-8828125D01*
X-1380896Y-8813647D01*
X-1387144Y-8799779D01*
X-1395018Y-8786774D01*
X-1404366Y-8774785D01*
X-1415135Y-8764066D01*
X-1427073Y-8754668D01*
X-1440129Y-8746794D01*
X-1453946Y-8740546D01*
X-1468475Y-8736025D01*
X-1483410Y-8733282D01*
X-1498600Y-8732367D01*
X-1513789Y-8733282D01*
X-1528724Y-8736025D01*
X-1543253Y-8740546D01*
X-1557121Y-8746794D01*
X-1570126Y-8754668D01*
X-1582115Y-8764066D01*
X-1592834Y-8774785D01*
X-1602232Y-8786774D01*
X-1610055Y-8799779D01*
X-1616303Y-8813647D01*
X-1620824Y-8828125D01*
X-1623568Y-8843111D01*
X-1624482Y-8858250D01*
X-1623568Y-8873439D01*
X-1620824Y-8888425D01*
X-1616303Y-8902903D01*
X-1610055Y-8916771D01*
X-1602232Y-8929776D01*
X-1592834Y-8941765D01*
X-1582115Y-8952484D01*
X-1570126Y-8961882D01*
X-1557121Y-8969756D01*
X-1543253Y-8976004D01*
X-1528724Y-8980525D01*
X-1513789Y-8983268D01*
G37*
G36*
X94437Y-8977071D02*
G01*
X96570Y-8976106D01*
X109575Y-8968232D01*
X121564Y-8958834D01*
X132334Y-8948115D01*
X141681Y-8936126D01*
X149555Y-8923121D01*
X150520Y-8920988D01*
X94437Y-8920988D01*
G37*
G36*
X-18288Y-8977071D02*
G01*
X-18288Y-8920988D01*
X-74371Y-8920988D01*
X-73406Y-8923121D01*
X-65532Y-8936126D01*
X-56134Y-8948115D01*
X-45415Y-8958834D01*
X-33426Y-8968232D01*
X-20421Y-8976106D01*
G37*
G36*
X-1975662Y-8970721D02*
G01*
X-1973529Y-8969756D01*
X-1960473Y-8961882D01*
X-1948535Y-8952484D01*
X-1937766Y-8941765D01*
X-1928418Y-8929776D01*
X-1920544Y-8916771D01*
X-1919579Y-8914638D01*
X-1975662Y-8914638D01*
G37*
G36*
X-2088337Y-8970721D02*
G01*
X-2088337Y-8914638D01*
X-2144471Y-8914638D01*
X-2143455Y-8916771D01*
X-2135632Y-8929776D01*
X-2126234Y-8941765D01*
X-2115515Y-8952484D01*
X-2103526Y-8961882D01*
X-2090521Y-8969756D01*
G37*
G36*
X-3070860Y-8928608D02*
G01*
X-3056128Y-8927693D01*
X-3041650Y-8925001D01*
X-3027578Y-8920530D01*
X-3014167Y-8914333D01*
X-3001619Y-8906560D01*
X-2990138Y-8897315D01*
X-2979826Y-8886748D01*
X-2970936Y-8874963D01*
X-2963570Y-8862161D01*
X-2957830Y-8848598D01*
X-2953766Y-8834374D01*
X-2951530Y-8819794D01*
X-2951073Y-8805062D01*
X-2952445Y-8790381D01*
X-2955594Y-8775954D01*
X-2960471Y-8762034D01*
X-2967075Y-8748826D01*
X-2975203Y-8736482D01*
X-2984804Y-8725306D01*
X-2995726Y-8715349D01*
X-3007766Y-8706815D01*
X-3020771Y-8699855D01*
X-3034538Y-8694521D01*
X-3048863Y-8690914D01*
X-3063494Y-8689086D01*
X-3078226Y-8689086D01*
X-3092907Y-8690914D01*
X-3107232Y-8694521D01*
X-3120948Y-8699855D01*
X-3133953Y-8706815D01*
X-3145993Y-8715349D01*
X-3156915Y-8725306D01*
X-3166516Y-8736482D01*
X-3174695Y-8748826D01*
X-3181248Y-8762034D01*
X-3186176Y-8775954D01*
X-3189325Y-8790381D01*
X-3190697Y-8805062D01*
X-3190240Y-8819794D01*
X-3187954Y-8834374D01*
X-3183940Y-8848598D01*
X-3178149Y-8862161D01*
X-3170783Y-8874963D01*
X-3161893Y-8886748D01*
X-3151632Y-8897315D01*
X-3140151Y-8906560D01*
X-3127603Y-8914333D01*
X-3114192Y-8920530D01*
X-3100120Y-8925001D01*
X-3085592Y-8927693D01*
G37*
G36*
X-2565400Y-8915908D02*
G01*
X-2562047Y-8914333D01*
X-2549499Y-8906560D01*
X-2538018Y-8897315D01*
X-2527706Y-8886748D01*
X-2518816Y-8874963D01*
X-2511399Y-8862060D01*
X-2565400Y-8862060D01*
G37*
G36*
X-2672080Y-8915908D02*
G01*
X-2672080Y-8862060D01*
X-2726080Y-8862060D01*
X-2718663Y-8874963D01*
X-2709773Y-8886748D01*
X-2699512Y-8897315D01*
X-2688031Y-8906560D01*
X-2675483Y-8914333D01*
G37*
G36*
X94437Y-8808262D02*
G01*
X150520Y-8808262D01*
X149555Y-8806129D01*
X141681Y-8793124D01*
X132334Y-8781135D01*
X121564Y-8770416D01*
X109575Y-8761018D01*
X96570Y-8753144D01*
X94437Y-8752179D01*
G37*
G36*
X-74371Y-8808262D02*
G01*
X-18288Y-8808262D01*
X-18288Y-8752179D01*
X-20421Y-8753144D01*
X-33426Y-8761018D01*
X-45415Y-8770416D01*
X-56134Y-8781135D01*
X-65532Y-8793124D01*
X-73406Y-8806129D01*
G37*
G36*
X-2144471Y-8801912D02*
G01*
X-2088337Y-8801912D01*
X-2088337Y-8745829D01*
X-2090521Y-8746794D01*
X-2103526Y-8754668D01*
X-2115515Y-8764066D01*
X-2126234Y-8774785D01*
X-2135632Y-8786774D01*
X-2143455Y-8799779D01*
G37*
G36*
X-1975662Y-8801912D02*
G01*
X-1919579Y-8801912D01*
X-1920544Y-8799779D01*
X-1928418Y-8786774D01*
X-1937766Y-8774785D01*
X-1948535Y-8764066D01*
X-1960473Y-8754668D01*
X-1973529Y-8746794D01*
X-1975662Y-8745829D01*
G37*
G36*
X-2725826Y-8755380D02*
G01*
X-2672080Y-8755380D01*
X-2672080Y-8701582D01*
X-2681833Y-8706815D01*
X-2693873Y-8715349D01*
X-2704795Y-8725306D01*
X-2714396Y-8736482D01*
X-2722575Y-8748826D01*
G37*
G36*
X-2565400Y-8755380D02*
G01*
X-2511653Y-8755380D01*
X-2514955Y-8748826D01*
X-2523083Y-8736482D01*
X-2532684Y-8725306D01*
X-2543606Y-8715349D01*
X-2555646Y-8706815D01*
X-2565400Y-8701582D01*
G37*
G36*
X-1881073Y-8483650D02*
G01*
X-1850898Y-8483650D01*
X-1844548Y-8482939D01*
X-1839112Y-8481009D01*
X-1834184Y-8477961D01*
X-1830120Y-8473846D01*
X-1827022Y-8468969D01*
X-1825091Y-8463483D01*
X-1824380Y-8457184D01*
X-1824380Y-8420912D01*
X-1881073Y-8420912D01*
G37*
G36*
X71882Y-8483650D02*
G01*
X102057Y-8483650D01*
X102057Y-8420912D01*
X45364Y-8420912D01*
X45364Y-8457184D01*
X46075Y-8463483D01*
X48006Y-8468969D01*
X51104Y-8473846D01*
X55168Y-8477961D01*
X60096Y-8481009D01*
X65532Y-8482939D01*
G37*
G36*
X189026Y-8483650D02*
G01*
X219202Y-8483650D01*
X225552Y-8482939D01*
X230987Y-8481009D01*
X235915Y-8477961D01*
X239979Y-8473846D01*
X243078Y-8468969D01*
X245008Y-8463483D01*
X245719Y-8457184D01*
X245719Y-8420912D01*
X189026Y-8420912D01*
G37*
G36*
X-1998218Y-8483650D02*
G01*
X-1968042Y-8483650D01*
X-1968042Y-8420912D01*
X-2024735Y-8420912D01*
X-2024735Y-8457184D01*
X-2024024Y-8463483D01*
X-2022093Y-8468969D01*
X-2018995Y-8473846D01*
X-2014931Y-8477961D01*
X-2010003Y-8481009D01*
X-2004568Y-8482939D01*
G37*
G36*
X-1679752Y-8483650D02*
G01*
X-1532382Y-8483650D01*
X-1526082Y-8482939D01*
X-1520596Y-8481009D01*
X-1515719Y-8477961D01*
X-1511604Y-8473846D01*
X-1508506Y-8468969D01*
X-1506626Y-8463483D01*
X-1505915Y-8457184D01*
X-1505915Y-8419338D01*
X-1504899Y-8414969D01*
X-1502156Y-8411464D01*
X-1498142Y-8409482D01*
X-1492910Y-8408212D01*
X-1490573Y-8407908D01*
X-1067409Y-8407908D01*
X-1063548Y-8408670D01*
X-1060297Y-8410854D01*
X-1050899Y-8426399D01*
X-1042568Y-8437016D01*
X-1032865Y-8446363D01*
X-1021994Y-8454339D01*
X-1010208Y-8460841D01*
X-997610Y-8465667D01*
X-984503Y-8468817D01*
X-971092Y-8470138D01*
X-957630Y-8469680D01*
X-944321Y-8467445D01*
X-931468Y-8463483D01*
X-919226Y-8457793D01*
X-907897Y-8450529D01*
X-897585Y-8441842D01*
X-888542Y-8431834D01*
X-880922Y-8420760D01*
X-874826Y-8408720D01*
X-870407Y-8395970D01*
X-867714Y-8382762D01*
X-866851Y-8369300D01*
X-867714Y-8355888D01*
X-870407Y-8342680D01*
X-874826Y-8329930D01*
X-880922Y-8317890D01*
X-888542Y-8306816D01*
X-897585Y-8296808D01*
X-906322Y-8289391D01*
X-908913Y-8286140D01*
X-909929Y-8282076D01*
X-909218Y-8277961D01*
X-906932Y-8274456D01*
X-428040Y-7795564D01*
X-424942Y-7793431D01*
X-421284Y-7792567D01*
X-417576Y-7793126D01*
X-408432Y-7796225D01*
X-394817Y-7798917D01*
X-381000Y-7799831D01*
X-367182Y-7798917D01*
X-353618Y-7796225D01*
X-340512Y-7791754D01*
X-328066Y-7785658D01*
X-316534Y-7777937D01*
X-306120Y-7768793D01*
X-297027Y-7758379D01*
X-289306Y-7746898D01*
X-283159Y-7734452D01*
X-278739Y-7721346D01*
X-276047Y-7707731D01*
X-275132Y-7693914D01*
X-276047Y-7680096D01*
X-278739Y-7666532D01*
X-283159Y-7653426D01*
X-289306Y-7640980D01*
X-297027Y-7629499D01*
X-306120Y-7619085D01*
X-316534Y-7609941D01*
X-328066Y-7602220D01*
X-340512Y-7596124D01*
X-353618Y-7591653D01*
X-367182Y-7588961D01*
X-381000Y-7588046D01*
X-394817Y-7588961D01*
X-408432Y-7591653D01*
X-421538Y-7596124D01*
X-433933Y-7602220D01*
X-445465Y-7609941D01*
X-455879Y-7619085D01*
X-465023Y-7629499D01*
X-472693Y-7640980D01*
X-478840Y-7653426D01*
X-483311Y-7666532D01*
X-486003Y-7680096D01*
X-486918Y-7693914D01*
X-486003Y-7707731D01*
X-483311Y-7721346D01*
X-480161Y-7730490D01*
X-479653Y-7734198D01*
X-480517Y-7737856D01*
X-482600Y-7740954D01*
X-994664Y-8252968D01*
X-999744Y-8259216D01*
X-1003350Y-8265871D01*
X-1005128Y-8271713D01*
X-1006957Y-8275167D01*
X-1009954Y-8277656D01*
X-1021994Y-8284311D01*
X-1032865Y-8292287D01*
X-1042568Y-8301634D01*
X-1050899Y-8312251D01*
X-1060297Y-8327796D01*
X-1063548Y-8329930D01*
X-1067409Y-8330692D01*
X-1495755Y-8330692D01*
X-1499616Y-8329930D01*
X-1502918Y-8327745D01*
X-1505102Y-8324443D01*
X-1505915Y-8320531D01*
X-1505915Y-8285530D01*
X-1506626Y-8279180D01*
X-1508506Y-8273745D01*
X-1511604Y-8268817D01*
X-1515719Y-8264753D01*
X-1520596Y-8261654D01*
X-1526082Y-8259724D01*
X-1532382Y-8259013D01*
X-1679752Y-8259013D01*
X-1686052Y-8259724D01*
X-1691538Y-8261654D01*
X-1696415Y-8264753D01*
X-1700530Y-8268817D01*
X-1703578Y-8273745D01*
X-1705508Y-8279180D01*
X-1706219Y-8285530D01*
X-1706219Y-8457184D01*
X-1705508Y-8463483D01*
X-1703578Y-8468969D01*
X-1700530Y-8473846D01*
X-1696415Y-8477961D01*
X-1691538Y-8481009D01*
X-1686052Y-8482939D01*
G37*
G36*
X-1881073Y-8321802D02*
G01*
X-1824380Y-8321802D01*
X-1824380Y-8285530D01*
X-1825091Y-8279180D01*
X-1827022Y-8273745D01*
X-1830120Y-8268817D01*
X-1834184Y-8264753D01*
X-1839112Y-8261654D01*
X-1844548Y-8259724D01*
X-1850898Y-8259013D01*
X-1881073Y-8259013D01*
G37*
G36*
X-2024735Y-8321802D02*
G01*
X-1968042Y-8321802D01*
X-1968042Y-8259013D01*
X-1998218Y-8259013D01*
X-2004568Y-8259724D01*
X-2010003Y-8261654D01*
X-2014931Y-8264753D01*
X-2018995Y-8268817D01*
X-2022093Y-8273745D01*
X-2024024Y-8279180D01*
X-2024735Y-8285530D01*
G37*
G36*
X-3070860Y-8278368D02*
G01*
X-3056128Y-8277453D01*
X-3041650Y-8274761D01*
X-3027578Y-8270290D01*
X-3014167Y-8264093D01*
X-3001619Y-8256320D01*
X-2990138Y-8247075D01*
X-2979826Y-8236508D01*
X-2970936Y-8224723D01*
X-2963570Y-8211921D01*
X-2957830Y-8198358D01*
X-2953766Y-8184134D01*
X-2951530Y-8169554D01*
X-2951073Y-8154822D01*
X-2952445Y-8140141D01*
X-2955594Y-8125714D01*
X-2960471Y-8111794D01*
X-2967075Y-8098586D01*
X-2975203Y-8086242D01*
X-2984804Y-8075066D01*
X-2995726Y-8065109D01*
X-3007766Y-8056575D01*
X-3020771Y-8049615D01*
X-3034538Y-8044281D01*
X-3048863Y-8040674D01*
X-3063494Y-8038846D01*
X-3078226Y-8038846D01*
X-3092907Y-8040674D01*
X-3107232Y-8044281D01*
X-3120948Y-8049615D01*
X-3133953Y-8056575D01*
X-3145993Y-8065109D01*
X-3156915Y-8075066D01*
X-3166516Y-8086242D01*
X-3174695Y-8098586D01*
X-3181248Y-8111794D01*
X-3186176Y-8125714D01*
X-3189325Y-8140141D01*
X-3190697Y-8154822D01*
X-3190240Y-8169554D01*
X-3187954Y-8184134D01*
X-3183940Y-8198358D01*
X-3178149Y-8211921D01*
X-3170783Y-8224723D01*
X-3161893Y-8236508D01*
X-3151632Y-8247075D01*
X-3140151Y-8256320D01*
X-3127603Y-8264093D01*
X-3114192Y-8270290D01*
X-3100120Y-8274761D01*
X-3085592Y-8277453D01*
G37*
G36*
X-2618740Y-8278368D02*
G01*
X-2604008Y-8277453D01*
X-2589530Y-8274761D01*
X-2575458Y-8270290D01*
X-2562047Y-8264093D01*
X-2549499Y-8256320D01*
X-2538018Y-8247075D01*
X-2527706Y-8236508D01*
X-2518816Y-8224723D01*
X-2511450Y-8211921D01*
X-2505710Y-8198358D01*
X-2501646Y-8184134D01*
X-2499410Y-8169554D01*
X-2498953Y-8154822D01*
X-2500325Y-8140141D01*
X-2503474Y-8125714D01*
X-2508351Y-8111794D01*
X-2514955Y-8098586D01*
X-2523083Y-8086242D01*
X-2532684Y-8075066D01*
X-2543606Y-8065109D01*
X-2555646Y-8056575D01*
X-2568651Y-8049615D01*
X-2582418Y-8044281D01*
X-2596743Y-8040674D01*
X-2611374Y-8038846D01*
X-2626106Y-8038846D01*
X-2640787Y-8040674D01*
X-2655112Y-8044281D01*
X-2668828Y-8049615D01*
X-2681833Y-8056575D01*
X-2693873Y-8065109D01*
X-2704795Y-8075066D01*
X-2714396Y-8086242D01*
X-2722575Y-8098586D01*
X-2729128Y-8111794D01*
X-2734056Y-8125714D01*
X-2737205Y-8140141D01*
X-2738577Y-8154822D01*
X-2738120Y-8169554D01*
X-2735834Y-8184134D01*
X-2731820Y-8198358D01*
X-2726029Y-8211921D01*
X-2718663Y-8224723D01*
X-2709773Y-8236508D01*
X-2699512Y-8247075D01*
X-2688031Y-8256320D01*
X-2675483Y-8264093D01*
X-2662072Y-8270290D01*
X-2648000Y-8274761D01*
X-2633472Y-8277453D01*
G37*
G36*
X-2870200Y-7928813D02*
G01*
X-2856738Y-7927898D01*
X-2843580Y-7925206D01*
X-2830830Y-7920786D01*
X-2818790Y-7914741D01*
X-2807665Y-7907121D01*
X-2797708Y-7898079D01*
X-2788970Y-7887766D01*
X-2781757Y-7876387D01*
X-2776067Y-7864195D01*
X-2772054Y-7851292D01*
X-2769819Y-7838033D01*
X-2769362Y-7824571D01*
X-2770733Y-7811160D01*
X-2773832Y-7798053D01*
X-2774797Y-7795666D01*
X-2775458Y-7791805D01*
X-2774645Y-7788046D01*
X-2772460Y-7784795D01*
X-2723184Y-7735519D01*
X-2719882Y-7733334D01*
X-2716022Y-7732522D01*
X-2529078Y-7732522D01*
X-2525166Y-7733334D01*
X-2521915Y-7735519D01*
X-2519680Y-7738821D01*
X-2518918Y-7742681D01*
X-2518918Y-7773365D01*
X-2518206Y-7779664D01*
X-2516276Y-7785150D01*
X-2513228Y-7790027D01*
X-2509113Y-7794142D01*
X-2504236Y-7797241D01*
X-2498750Y-7799120D01*
X-2492451Y-7799831D01*
X-2333599Y-7799831D01*
X-2327249Y-7799120D01*
X-2321814Y-7797241D01*
X-2316886Y-7794142D01*
X-2312822Y-7790027D01*
X-2309723Y-7785150D01*
X-2307793Y-7779664D01*
X-2307082Y-7773365D01*
X-2307082Y-7614513D01*
X-2307793Y-7608163D01*
X-2309723Y-7602728D01*
X-2312822Y-7597800D01*
X-2316886Y-7593736D01*
X-2321814Y-7590637D01*
X-2327249Y-7588758D01*
X-2333599Y-7588046D01*
X-2492451Y-7588046D01*
X-2498750Y-7588758D01*
X-2504236Y-7590637D01*
X-2509113Y-7593736D01*
X-2513228Y-7597800D01*
X-2516276Y-7602728D01*
X-2518206Y-7608163D01*
X-2518918Y-7614513D01*
X-2518918Y-7645146D01*
X-2519680Y-7649057D01*
X-2521915Y-7652359D01*
X-2525166Y-7654544D01*
X-2529078Y-7655306D01*
X-2735732Y-7655306D01*
X-2743708Y-7656118D01*
X-2750972Y-7658303D01*
X-2757627Y-7661859D01*
X-2763875Y-7666990D01*
X-2826969Y-7730083D01*
X-2829864Y-7732115D01*
X-2833268Y-7733030D01*
X-2836824Y-7732674D01*
X-2850134Y-7729067D01*
X-2863494Y-7727238D01*
X-2876956Y-7727238D01*
X-2890316Y-7729067D01*
X-2903321Y-7732623D01*
X-2915716Y-7737856D01*
X-2927299Y-7744764D01*
X-2937865Y-7753096D01*
X-2947263Y-7762798D01*
X-2955239Y-7773619D01*
X-2961741Y-7785455D01*
X-2966567Y-7798053D01*
X-2969666Y-7811160D01*
X-2971038Y-7824571D01*
X-2970580Y-7838033D01*
X-2968345Y-7851292D01*
X-2964332Y-7864195D01*
X-2958693Y-7876387D01*
X-2951429Y-7887766D01*
X-2942742Y-7898079D01*
X-2932734Y-7907121D01*
X-2921609Y-7914741D01*
X-2909570Y-7920786D01*
X-2896870Y-7925206D01*
X-2883662Y-7927898D01*
G37*
G36*
X635000Y-7799831D02*
G01*
X648817Y-7798917D01*
X662381Y-7796225D01*
X675487Y-7791754D01*
X687933Y-7785658D01*
X699465Y-7777937D01*
X709879Y-7768793D01*
X718972Y-7758379D01*
X726694Y-7746898D01*
X732840Y-7734452D01*
X737260Y-7721346D01*
X739952Y-7707731D01*
X740867Y-7693914D01*
X739952Y-7680096D01*
X737260Y-7666532D01*
X732840Y-7653426D01*
X726694Y-7640980D01*
X718972Y-7629499D01*
X709879Y-7619085D01*
X699465Y-7609941D01*
X687933Y-7602220D01*
X675487Y-7596124D01*
X662381Y-7591653D01*
X648817Y-7588961D01*
X635000Y-7588046D01*
X621182Y-7588961D01*
X607568Y-7591653D01*
X594461Y-7596124D01*
X582066Y-7602220D01*
X570534Y-7609941D01*
X560120Y-7619085D01*
X550976Y-7629499D01*
X543306Y-7640980D01*
X537159Y-7653426D01*
X532688Y-7666532D01*
X529996Y-7680096D01*
X529082Y-7693914D01*
X529996Y-7707731D01*
X532688Y-7721346D01*
X537159Y-7734452D01*
X543306Y-7746898D01*
X550976Y-7758379D01*
X560120Y-7768793D01*
X570534Y-7777937D01*
X582066Y-7785658D01*
X594461Y-7791754D01*
X607568Y-7796225D01*
X621182Y-7798917D01*
G37*
G36*
X127000Y-7799831D02*
G01*
X140817Y-7798917D01*
X154381Y-7796225D01*
X167487Y-7791754D01*
X179933Y-7785658D01*
X191465Y-7777937D01*
X201879Y-7768793D01*
X210972Y-7758379D01*
X218694Y-7746898D01*
X224840Y-7734452D01*
X229260Y-7721346D01*
X231952Y-7707731D01*
X232867Y-7693914D01*
X231952Y-7680096D01*
X229260Y-7666532D01*
X224840Y-7653426D01*
X218694Y-7640980D01*
X210972Y-7629499D01*
X201879Y-7619085D01*
X191465Y-7609941D01*
X179933Y-7602220D01*
X167487Y-7596124D01*
X154381Y-7591653D01*
X140817Y-7588961D01*
X127000Y-7588046D01*
X113182Y-7588961D01*
X99568Y-7591653D01*
X86461Y-7596124D01*
X74066Y-7602220D01*
X62534Y-7609941D01*
X52120Y-7619085D01*
X42976Y-7629499D01*
X35306Y-7640980D01*
X29159Y-7653426D01*
X24688Y-7666532D01*
X21996Y-7680096D01*
X21082Y-7693914D01*
X21996Y-7707731D01*
X24688Y-7721346D01*
X29159Y-7734452D01*
X35306Y-7746898D01*
X42976Y-7758379D01*
X52120Y-7768793D01*
X62534Y-7777937D01*
X74066Y-7785658D01*
X86461Y-7791754D01*
X99568Y-7796225D01*
X113182Y-7798917D01*
G37*
G36*
X-1905000Y-7799831D02*
G01*
X-1891182Y-7798917D01*
X-1877618Y-7796225D01*
X-1864512Y-7791754D01*
X-1852066Y-7785658D01*
X-1840534Y-7777937D01*
X-1830120Y-7768793D01*
X-1821027Y-7758379D01*
X-1813306Y-7746898D01*
X-1807159Y-7734452D01*
X-1802739Y-7721346D01*
X-1800047Y-7707731D01*
X-1799132Y-7693914D01*
X-1800047Y-7680096D01*
X-1802739Y-7666532D01*
X-1807159Y-7653426D01*
X-1813306Y-7640980D01*
X-1821027Y-7629499D01*
X-1830120Y-7619085D01*
X-1840534Y-7609941D01*
X-1852066Y-7602220D01*
X-1864512Y-7596124D01*
X-1877618Y-7591653D01*
X-1891182Y-7588961D01*
X-1905000Y-7588046D01*
X-1918817Y-7588961D01*
X-1932432Y-7591653D01*
X-1945538Y-7596124D01*
X-1957933Y-7602220D01*
X-1969465Y-7609941D01*
X-1979879Y-7619085D01*
X-1989023Y-7629499D01*
X-1996693Y-7640980D01*
X-2002840Y-7653426D01*
X-2007311Y-7666532D01*
X-2010003Y-7680096D01*
X-2010918Y-7693914D01*
X-2010003Y-7707731D01*
X-2007311Y-7721346D01*
X-2002840Y-7734452D01*
X-1996693Y-7746898D01*
X-1989023Y-7758379D01*
X-1979879Y-7768793D01*
X-1969465Y-7777937D01*
X-1957933Y-7785658D01*
X-1945538Y-7791754D01*
X-1932432Y-7796225D01*
X-1918817Y-7798917D01*
G37*
G36*
X-1397000Y-7799831D02*
G01*
X-1383182Y-7798917D01*
X-1369618Y-7796225D01*
X-1356512Y-7791754D01*
X-1344066Y-7785658D01*
X-1332534Y-7777937D01*
X-1322120Y-7768793D01*
X-1313027Y-7758379D01*
X-1305306Y-7746898D01*
X-1299159Y-7734452D01*
X-1294739Y-7721346D01*
X-1292047Y-7707731D01*
X-1291132Y-7693914D01*
X-1292047Y-7680096D01*
X-1294739Y-7666532D01*
X-1299159Y-7653426D01*
X-1305306Y-7640980D01*
X-1313027Y-7629499D01*
X-1322120Y-7619085D01*
X-1332534Y-7609941D01*
X-1344066Y-7602220D01*
X-1356512Y-7596124D01*
X-1369618Y-7591653D01*
X-1383182Y-7588961D01*
X-1397000Y-7588046D01*
X-1410817Y-7588961D01*
X-1424432Y-7591653D01*
X-1437538Y-7596124D01*
X-1449933Y-7602220D01*
X-1461465Y-7609941D01*
X-1471879Y-7619085D01*
X-1481023Y-7629499D01*
X-1488694Y-7640980D01*
X-1494840Y-7653426D01*
X-1499311Y-7666532D01*
X-1502003Y-7680096D01*
X-1502918Y-7693914D01*
X-1502003Y-7707731D01*
X-1499311Y-7721346D01*
X-1494840Y-7734452D01*
X-1488694Y-7746898D01*
X-1481023Y-7758379D01*
X-1471879Y-7768793D01*
X-1461465Y-7777937D01*
X-1449933Y-7785658D01*
X-1437538Y-7791754D01*
X-1424432Y-7796225D01*
X-1410817Y-7798917D01*
G37*
G36*
X381000Y-7799831D02*
G01*
X394817Y-7798917D01*
X408381Y-7796225D01*
X421487Y-7791754D01*
X433933Y-7785658D01*
X445465Y-7777937D01*
X455879Y-7768793D01*
X464972Y-7758379D01*
X472693Y-7746898D01*
X478840Y-7734452D01*
X483260Y-7721346D01*
X485952Y-7707731D01*
X486867Y-7693914D01*
X485952Y-7680096D01*
X483260Y-7666532D01*
X478840Y-7653426D01*
X472693Y-7640980D01*
X464972Y-7629499D01*
X455879Y-7619085D01*
X445465Y-7609941D01*
X433933Y-7602220D01*
X421487Y-7596124D01*
X408381Y-7591653D01*
X394817Y-7588961D01*
X381000Y-7588046D01*
X367182Y-7588961D01*
X353568Y-7591653D01*
X340461Y-7596124D01*
X328066Y-7602220D01*
X316534Y-7609941D01*
X306120Y-7619085D01*
X296976Y-7629499D01*
X289306Y-7640980D01*
X283159Y-7653426D01*
X278688Y-7666532D01*
X275996Y-7680096D01*
X275082Y-7693914D01*
X275996Y-7707731D01*
X278688Y-7721346D01*
X283159Y-7734452D01*
X289306Y-7746898D01*
X296976Y-7758379D01*
X306120Y-7768793D01*
X316534Y-7777937D01*
X328066Y-7785658D01*
X340461Y-7791754D01*
X353568Y-7796225D01*
X367182Y-7798917D01*
G37*
G36*
X-1651000Y-7799831D02*
G01*
X-1637182Y-7798917D01*
X-1623618Y-7796225D01*
X-1610512Y-7791754D01*
X-1598066Y-7785658D01*
X-1586534Y-7777937D01*
X-1576120Y-7768793D01*
X-1567027Y-7758379D01*
X-1559306Y-7746898D01*
X-1553159Y-7734452D01*
X-1548739Y-7721346D01*
X-1546047Y-7707731D01*
X-1545132Y-7693914D01*
X-1546047Y-7680096D01*
X-1548739Y-7666532D01*
X-1553159Y-7653426D01*
X-1559306Y-7640980D01*
X-1567027Y-7629499D01*
X-1576120Y-7619085D01*
X-1586534Y-7609941D01*
X-1598066Y-7602220D01*
X-1610512Y-7596124D01*
X-1623618Y-7591653D01*
X-1637182Y-7588961D01*
X-1651000Y-7588046D01*
X-1664817Y-7588961D01*
X-1678432Y-7591653D01*
X-1691538Y-7596124D01*
X-1703933Y-7602220D01*
X-1715465Y-7609941D01*
X-1725879Y-7619085D01*
X-1735023Y-7629499D01*
X-1742693Y-7640980D01*
X-1748840Y-7653426D01*
X-1753311Y-7666532D01*
X-1756003Y-7680096D01*
X-1756918Y-7693914D01*
X-1756003Y-7707731D01*
X-1753311Y-7721346D01*
X-1748840Y-7734452D01*
X-1742693Y-7746898D01*
X-1735023Y-7758379D01*
X-1725879Y-7768793D01*
X-1715465Y-7777937D01*
X-1703933Y-7785658D01*
X-1691538Y-7791754D01*
X-1678432Y-7796225D01*
X-1664817Y-7798917D01*
G37*
G36*
X-2159000Y-7799831D02*
G01*
X-2145182Y-7798917D01*
X-2131618Y-7796225D01*
X-2118512Y-7791754D01*
X-2106066Y-7785658D01*
X-2094534Y-7777937D01*
X-2084120Y-7768793D01*
X-2075027Y-7758379D01*
X-2067306Y-7746898D01*
X-2061159Y-7734452D01*
X-2056739Y-7721346D01*
X-2054047Y-7707731D01*
X-2053132Y-7693914D01*
X-2054047Y-7680096D01*
X-2056739Y-7666532D01*
X-2061159Y-7653426D01*
X-2067306Y-7640980D01*
X-2075027Y-7629499D01*
X-2084120Y-7619085D01*
X-2094534Y-7609941D01*
X-2106066Y-7602220D01*
X-2118512Y-7596124D01*
X-2131618Y-7591653D01*
X-2145182Y-7588961D01*
X-2159000Y-7588046D01*
X-2172817Y-7588961D01*
X-2186432Y-7591653D01*
X-2199538Y-7596124D01*
X-2211933Y-7602220D01*
X-2223465Y-7609941D01*
X-2233879Y-7619085D01*
X-2243023Y-7629499D01*
X-2250694Y-7640980D01*
X-2256840Y-7653426D01*
X-2261311Y-7666532D01*
X-2264003Y-7680096D01*
X-2264918Y-7693914D01*
X-2264003Y-7707731D01*
X-2261311Y-7721346D01*
X-2256840Y-7734452D01*
X-2250694Y-7746898D01*
X-2243023Y-7758379D01*
X-2233879Y-7768793D01*
X-2223465Y-7777937D01*
X-2211933Y-7785658D01*
X-2199538Y-7791754D01*
X-2186432Y-7796225D01*
X-2172817Y-7798917D01*
G37*
G36*
X-127000Y-7799831D02*
G01*
X-113182Y-7798917D01*
X-99618Y-7796225D01*
X-86512Y-7791754D01*
X-74066Y-7785658D01*
X-62534Y-7777937D01*
X-52120Y-7768793D01*
X-43027Y-7758379D01*
X-35306Y-7746898D01*
X-29159Y-7734452D01*
X-24739Y-7721346D01*
X-22047Y-7707731D01*
X-21132Y-7693914D01*
X-22047Y-7680096D01*
X-24739Y-7666532D01*
X-29159Y-7653426D01*
X-35306Y-7640980D01*
X-43027Y-7629499D01*
X-52120Y-7619085D01*
X-62534Y-7609941D01*
X-74066Y-7602220D01*
X-86512Y-7596124D01*
X-99618Y-7591653D01*
X-113182Y-7588961D01*
X-127000Y-7588046D01*
X-140817Y-7588961D01*
X-154432Y-7591653D01*
X-167538Y-7596124D01*
X-179933Y-7602220D01*
X-191465Y-7609941D01*
X-201879Y-7619085D01*
X-211023Y-7629499D01*
X-218694Y-7640980D01*
X-224840Y-7653426D01*
X-229311Y-7666532D01*
X-232003Y-7680096D01*
X-232917Y-7693914D01*
X-232003Y-7707731D01*
X-229311Y-7721346D01*
X-224840Y-7734452D01*
X-218694Y-7746898D01*
X-211023Y-7758379D01*
X-201879Y-7768793D01*
X-191465Y-7777937D01*
X-179933Y-7785658D01*
X-167538Y-7791754D01*
X-154432Y-7796225D01*
X-140817Y-7798917D01*
G37*
G36*
X-1143000Y-7799831D02*
G01*
X-1129182Y-7798917D01*
X-1115618Y-7796225D01*
X-1102512Y-7791754D01*
X-1090066Y-7785658D01*
X-1078534Y-7777937D01*
X-1068120Y-7768793D01*
X-1059027Y-7758379D01*
X-1051306Y-7746898D01*
X-1045159Y-7734452D01*
X-1040739Y-7721346D01*
X-1038047Y-7707731D01*
X-1037132Y-7693914D01*
X-1038047Y-7680096D01*
X-1040739Y-7666532D01*
X-1045159Y-7653426D01*
X-1051306Y-7640980D01*
X-1059027Y-7629499D01*
X-1068120Y-7619085D01*
X-1078534Y-7609941D01*
X-1090066Y-7602220D01*
X-1102512Y-7596124D01*
X-1115618Y-7591653D01*
X-1129182Y-7588961D01*
X-1143000Y-7588046D01*
X-1156817Y-7588961D01*
X-1170432Y-7591653D01*
X-1183538Y-7596124D01*
X-1195933Y-7602220D01*
X-1207465Y-7609941D01*
X-1217879Y-7619085D01*
X-1227023Y-7629499D01*
X-1234694Y-7640980D01*
X-1240840Y-7653426D01*
X-1245311Y-7666532D01*
X-1248003Y-7680096D01*
X-1248918Y-7693914D01*
X-1248003Y-7707731D01*
X-1245311Y-7721346D01*
X-1240840Y-7734452D01*
X-1234694Y-7746898D01*
X-1227023Y-7758379D01*
X-1217879Y-7768793D01*
X-1207465Y-7777937D01*
X-1195933Y-7785658D01*
X-1183538Y-7791754D01*
X-1170432Y-7796225D01*
X-1156817Y-7798917D01*
G37*
G36*
X889000Y-7799831D02*
G01*
X902817Y-7798917D01*
X916381Y-7796225D01*
X929487Y-7791754D01*
X941933Y-7785658D01*
X953465Y-7777937D01*
X963879Y-7768793D01*
X972972Y-7758379D01*
X980694Y-7746898D01*
X986840Y-7734452D01*
X991260Y-7721346D01*
X993952Y-7707731D01*
X994867Y-7693914D01*
X993952Y-7680096D01*
X991260Y-7666532D01*
X986840Y-7653426D01*
X980694Y-7640980D01*
X972972Y-7629499D01*
X963879Y-7619085D01*
X953465Y-7609941D01*
X941933Y-7602220D01*
X929487Y-7596124D01*
X916381Y-7591653D01*
X902817Y-7588961D01*
X889000Y-7588046D01*
X875182Y-7588961D01*
X861568Y-7591653D01*
X848461Y-7596124D01*
X836066Y-7602220D01*
X824534Y-7609941D01*
X814120Y-7619085D01*
X804976Y-7629499D01*
X797306Y-7640980D01*
X791159Y-7653426D01*
X786688Y-7666532D01*
X783996Y-7680096D01*
X783082Y-7693914D01*
X783996Y-7707731D01*
X786688Y-7721346D01*
X791159Y-7734452D01*
X797306Y-7746898D01*
X804976Y-7758379D01*
X814120Y-7768793D01*
X824534Y-7777937D01*
X836066Y-7785658D01*
X848461Y-7791754D01*
X861568Y-7796225D01*
X875182Y-7798917D01*
G37*
G36*
X-889000Y-7799831D02*
G01*
X-875182Y-7798917D01*
X-861618Y-7796225D01*
X-848512Y-7791754D01*
X-836066Y-7785658D01*
X-824534Y-7777937D01*
X-814120Y-7768793D01*
X-805027Y-7758379D01*
X-797306Y-7746898D01*
X-791159Y-7734452D01*
X-786739Y-7721346D01*
X-784047Y-7707731D01*
X-783132Y-7693914D01*
X-784047Y-7680096D01*
X-786739Y-7666532D01*
X-791159Y-7653426D01*
X-797306Y-7640980D01*
X-805027Y-7629499D01*
X-814120Y-7619085D01*
X-824534Y-7609941D01*
X-836066Y-7602220D01*
X-848512Y-7596124D01*
X-861618Y-7591653D01*
X-875182Y-7588961D01*
X-889000Y-7588046D01*
X-902817Y-7588961D01*
X-916432Y-7591653D01*
X-925576Y-7594752D01*
X-929284Y-7595311D01*
X-932942Y-7594447D01*
X-936040Y-7592314D01*
X-1096518Y-7431836D01*
X-1102766Y-7426706D01*
X-1109421Y-7423150D01*
X-1116634Y-7420965D01*
X-1124661Y-7420152D01*
X-2219147Y-7420152D01*
X-2223008Y-7419390D01*
X-2226310Y-7417206D01*
X-2772511Y-6871004D01*
X-2774594Y-6868007D01*
X-2775458Y-6864451D01*
X-2775000Y-6860794D01*
X-2772054Y-6851294D01*
X-2769819Y-6838035D01*
X-2769362Y-6824573D01*
X-2770733Y-6811162D01*
X-2773832Y-6798056D01*
X-2778709Y-6785457D01*
X-2785160Y-6773621D01*
X-2793187Y-6762800D01*
X-2802534Y-6753098D01*
X-2813100Y-6744766D01*
X-2824734Y-6737858D01*
X-2837129Y-6732625D01*
X-2850134Y-6729069D01*
X-2863494Y-6727240D01*
X-2876956Y-6727240D01*
X-2890316Y-6729069D01*
X-2903321Y-6732625D01*
X-2915716Y-6737858D01*
X-2927299Y-6744766D01*
X-2937865Y-6753098D01*
X-2947263Y-6762800D01*
X-2955239Y-6773621D01*
X-2961741Y-6785457D01*
X-2966567Y-6798056D01*
X-2969666Y-6811162D01*
X-2971038Y-6824573D01*
X-2970580Y-6838035D01*
X-2968345Y-6851294D01*
X-2964332Y-6864197D01*
X-2958693Y-6876389D01*
X-2951429Y-6887768D01*
X-2942742Y-6898081D01*
X-2932734Y-6907123D01*
X-2921609Y-6914743D01*
X-2909570Y-6920788D01*
X-2896870Y-6925208D01*
X-2883662Y-6927900D01*
X-2870200Y-6928815D01*
X-2856738Y-6927900D01*
X-2843580Y-6925208D01*
X-2837637Y-6923176D01*
X-2833928Y-6922617D01*
X-2830220Y-6923481D01*
X-2827121Y-6925564D01*
X-2267000Y-7485735D01*
X-2260752Y-7490866D01*
X-2254097Y-7494422D01*
X-2246833Y-7496606D01*
X-2238857Y-7497368D01*
X-1144371Y-7497368D01*
X-1140460Y-7498181D01*
X-1137208Y-7500366D01*
X-990600Y-7646924D01*
X-988517Y-7650022D01*
X-987653Y-7653680D01*
X-988161Y-7657388D01*
X-991311Y-7666532D01*
X-994003Y-7680096D01*
X-994918Y-7693914D01*
X-994003Y-7707731D01*
X-991311Y-7721346D01*
X-986840Y-7734452D01*
X-980694Y-7746898D01*
X-973023Y-7758379D01*
X-963879Y-7768793D01*
X-953465Y-7777937D01*
X-941933Y-7785658D01*
X-929538Y-7791754D01*
X-916432Y-7796225D01*
X-902817Y-7798917D01*
G37*
G36*
X-681380Y-7788909D02*
G01*
X-681380Y-7740294D01*
X-729945Y-7740294D01*
X-726694Y-7746898D01*
X-719023Y-7758379D01*
X-709879Y-7768793D01*
X-699465Y-7777937D01*
X-687933Y-7785658D01*
G37*
G36*
X-588670Y-7788909D02*
G01*
X-582066Y-7785658D01*
X-570534Y-7777937D01*
X-560120Y-7768793D01*
X-551027Y-7758379D01*
X-543306Y-7746898D01*
X-540054Y-7740294D01*
X-588670Y-7740294D01*
G37*
G36*
X1894992Y-7783169D02*
G01*
X1913077Y-7782712D01*
X1931060Y-7780375D01*
X1948688Y-7776209D01*
X1965756Y-7770266D01*
X1982165Y-7762595D01*
X1997710Y-7753248D01*
X2012188Y-7742377D01*
X2025446Y-7730083D01*
X2037435Y-7716469D01*
X2047900Y-7701737D01*
X2056841Y-7685989D01*
X2064105Y-7669377D01*
X2069592Y-7652105D01*
X2073300Y-7634376D01*
X2075180Y-7616393D01*
X2075180Y-7598257D01*
X2073300Y-7580274D01*
X2069592Y-7562545D01*
X2064105Y-7545273D01*
X2056841Y-7528661D01*
X2051964Y-7520025D01*
X2050643Y-7515859D01*
X2051253Y-7511542D01*
X2053589Y-7507833D01*
X3842512Y-5718911D01*
X3845814Y-5716727D01*
X3849725Y-5715914D01*
X8970162Y-5715914D01*
X8974480Y-5716879D01*
X8977985Y-5719572D01*
X8979966Y-5723534D01*
X8981897Y-5730798D01*
X8988298Y-5747766D01*
X8996375Y-5763971D01*
X9006128Y-5779262D01*
X9017355Y-5793435D01*
X9030004Y-5806440D01*
X9043924Y-5818022D01*
X9058910Y-5828131D01*
X9074912Y-5836615D01*
X9091676Y-5843473D01*
X9109100Y-5848502D01*
X9126880Y-5851753D01*
X9144965Y-5853176D01*
X9163050Y-5852718D01*
X9181033Y-5850382D01*
X9198660Y-5846216D01*
X9215729Y-5840272D01*
X9232138Y-5832602D01*
X9247682Y-5823254D01*
X9262160Y-5812383D01*
X9275419Y-5800090D01*
X9287408Y-5786475D01*
X9297873Y-5771743D01*
X9306814Y-5755995D01*
X9314078Y-5739384D01*
X9319564Y-5722112D01*
X9323273Y-5704382D01*
X9325152Y-5686399D01*
X9325152Y-5668264D01*
X9323273Y-5650280D01*
X9319564Y-5632551D01*
X9314078Y-5615279D01*
X9306814Y-5598668D01*
X9297873Y-5582920D01*
X9287408Y-5568188D01*
X9275419Y-5554573D01*
X9262160Y-5542280D01*
X9247682Y-5531408D01*
X9232138Y-5522061D01*
X9215729Y-5514390D01*
X9198660Y-5508447D01*
X9181033Y-5504281D01*
X9163050Y-5501944D01*
X9144965Y-5501487D01*
X9126880Y-5502910D01*
X9109100Y-5506161D01*
X9091676Y-5511190D01*
X9074912Y-5517997D01*
X9058910Y-5526532D01*
X9043924Y-5536641D01*
X9030004Y-5548223D01*
X9017355Y-5561228D01*
X9006128Y-5575401D01*
X8996375Y-5590692D01*
X8988298Y-5606897D01*
X8981897Y-5623814D01*
X8979966Y-5631129D01*
X8977985Y-5635091D01*
X8974480Y-5637784D01*
X8970162Y-5638698D01*
X3830015Y-5638698D01*
X3821988Y-5639511D01*
X3814775Y-5641695D01*
X3808069Y-5645251D01*
X3801872Y-5650382D01*
X1999030Y-7453223D01*
X1995271Y-7455611D01*
X1990852Y-7456119D01*
X1986635Y-7454747D01*
X1982165Y-7452055D01*
X1965756Y-7444384D01*
X1948688Y-7438440D01*
X1931060Y-7434275D01*
X1913077Y-7431938D01*
X1894992Y-7431481D01*
X1876907Y-7432903D01*
X1859127Y-7436154D01*
X1841703Y-7441184D01*
X1824939Y-7447991D01*
X1808937Y-7456525D01*
X1793951Y-7466634D01*
X1780032Y-7478217D01*
X1767382Y-7491222D01*
X1756156Y-7505395D01*
X1746402Y-7520686D01*
X1738325Y-7536891D01*
X1731924Y-7553807D01*
X1727352Y-7571333D01*
X1724558Y-7589215D01*
X1723593Y-7607300D01*
X1724558Y-7625384D01*
X1727352Y-7643317D01*
X1731924Y-7660792D01*
X1738325Y-7677759D01*
X1746402Y-7693964D01*
X1756156Y-7709255D01*
X1767382Y-7723428D01*
X1780032Y-7736433D01*
X1793951Y-7748016D01*
X1808937Y-7758125D01*
X1824939Y-7766608D01*
X1841703Y-7773466D01*
X1859127Y-7778496D01*
X1876907Y-7781747D01*
G37*
G36*
X-588670Y-7647584D02*
G01*
X-540054Y-7647584D01*
X-543306Y-7640980D01*
X-551027Y-7629499D01*
X-560120Y-7619085D01*
X-570534Y-7609941D01*
X-582066Y-7602220D01*
X-588670Y-7598968D01*
G37*
G36*
X-729945Y-7647584D02*
G01*
X-681380Y-7647584D01*
X-681380Y-7598968D01*
X-687933Y-7602220D01*
X-699465Y-7609941D01*
X-709879Y-7619085D01*
X-719023Y-7629499D01*
X-726694Y-7640980D01*
G37*
G36*
X1009548Y-7431582D02*
G01*
X1019352Y-7430719D01*
X1028852Y-7428179D01*
X1037742Y-7424013D01*
X1045768Y-7418374D01*
X1052728Y-7411466D01*
X1058367Y-7403388D01*
X1062532Y-7394498D01*
X1065072Y-7384999D01*
X1065936Y-7375194D01*
X1065072Y-7365441D01*
X1062532Y-7355941D01*
X1058367Y-7347051D01*
X1052728Y-7338974D01*
X1045768Y-7332014D01*
X1037742Y-7326375D01*
X1028852Y-7322261D01*
X1019352Y-7319721D01*
X1009548Y-7318857D01*
X999744Y-7319721D01*
X990295Y-7322261D01*
X981354Y-7326375D01*
X973328Y-7332014D01*
X971702Y-7333640D01*
X968451Y-7335824D01*
X964539Y-7336586D01*
X590448Y-7336586D01*
X586587Y-7335824D01*
X583285Y-7333640D01*
X228600Y-6978954D01*
X226466Y-6975856D01*
X225653Y-6972198D01*
X226161Y-6968490D01*
X229260Y-6959346D01*
X231952Y-6945731D01*
X232867Y-6931914D01*
X231952Y-6918096D01*
X229260Y-6904532D01*
X224840Y-6891426D01*
X218694Y-6878980D01*
X210972Y-6867499D01*
X201879Y-6857085D01*
X191465Y-6847941D01*
X179933Y-6840220D01*
X167487Y-6834124D01*
X154381Y-6829653D01*
X140817Y-6826961D01*
X127000Y-6826046D01*
X113182Y-6826961D01*
X99568Y-6829653D01*
X86461Y-6834124D01*
X74066Y-6840220D01*
X62534Y-6847941D01*
X52120Y-6857085D01*
X42976Y-6867499D01*
X35306Y-6878980D01*
X29159Y-6891426D01*
X24688Y-6904532D01*
X21996Y-6918096D01*
X21082Y-6931914D01*
X21996Y-6945731D01*
X24688Y-6959346D01*
X29159Y-6972452D01*
X35306Y-6984898D01*
X42976Y-6996379D01*
X52120Y-7006793D01*
X62534Y-7015937D01*
X74066Y-7023658D01*
X86461Y-7029754D01*
X99568Y-7034225D01*
X113182Y-7036917D01*
X127000Y-7037831D01*
X140817Y-7036917D01*
X154381Y-7034225D01*
X163525Y-7031126D01*
X167233Y-7030567D01*
X170891Y-7031431D01*
X173990Y-7033564D01*
X542594Y-7402169D01*
X548843Y-7407300D01*
X555498Y-7410856D01*
X562762Y-7413040D01*
X570738Y-7413802D01*
X964539Y-7413802D01*
X968451Y-7414615D01*
X971702Y-7416800D01*
X973328Y-7418374D01*
X981354Y-7424013D01*
X990295Y-7428179D01*
X999744Y-7430719D01*
G37*
G36*
X381000Y-7037831D02*
G01*
X394817Y-7036917D01*
X408381Y-7034225D01*
X421487Y-7029754D01*
X433933Y-7023658D01*
X445465Y-7015937D01*
X455879Y-7006793D01*
X464972Y-6996379D01*
X472693Y-6984898D01*
X478840Y-6972452D01*
X483260Y-6959346D01*
X485952Y-6945731D01*
X486867Y-6931914D01*
X485952Y-6918096D01*
X483260Y-6904532D01*
X478840Y-6891426D01*
X472693Y-6878980D01*
X464972Y-6867499D01*
X455879Y-6857085D01*
X445465Y-6847941D01*
X433933Y-6840220D01*
X421487Y-6834124D01*
X408381Y-6829653D01*
X394817Y-6826961D01*
X381000Y-6826046D01*
X367182Y-6826961D01*
X353568Y-6829653D01*
X340461Y-6834124D01*
X328066Y-6840220D01*
X316534Y-6847941D01*
X306120Y-6857085D01*
X296976Y-6867499D01*
X289306Y-6878980D01*
X283159Y-6891426D01*
X278688Y-6904532D01*
X275996Y-6918096D01*
X275082Y-6931914D01*
X275996Y-6945731D01*
X278688Y-6959346D01*
X283159Y-6972452D01*
X289306Y-6984898D01*
X296976Y-6996379D01*
X306120Y-7006793D01*
X316534Y-7015937D01*
X328066Y-7023658D01*
X340461Y-7029754D01*
X353568Y-7034225D01*
X367182Y-7036917D01*
G37*
G36*
X-127000Y-7037831D02*
G01*
X-113182Y-7036917D01*
X-99618Y-7034225D01*
X-86512Y-7029754D01*
X-74066Y-7023658D01*
X-62534Y-7015937D01*
X-52120Y-7006793D01*
X-43027Y-6996379D01*
X-35306Y-6984898D01*
X-29159Y-6972452D01*
X-24739Y-6959346D01*
X-22047Y-6945731D01*
X-21132Y-6931914D01*
X-22047Y-6918096D01*
X-24739Y-6904532D01*
X-29159Y-6891426D01*
X-35306Y-6878980D01*
X-43027Y-6867499D01*
X-52120Y-6857085D01*
X-62534Y-6847941D01*
X-74066Y-6840220D01*
X-86512Y-6834124D01*
X-99618Y-6829653D01*
X-113182Y-6826961D01*
X-127000Y-6826046D01*
X-140817Y-6826961D01*
X-154432Y-6829653D01*
X-167538Y-6834124D01*
X-179933Y-6840220D01*
X-191465Y-6847941D01*
X-201879Y-6857085D01*
X-211023Y-6867499D01*
X-218694Y-6878980D01*
X-224840Y-6891426D01*
X-229311Y-6904532D01*
X-232003Y-6918096D01*
X-232917Y-6931914D01*
X-232003Y-6945731D01*
X-229311Y-6959346D01*
X-224840Y-6972452D01*
X-218694Y-6984898D01*
X-211023Y-6996379D01*
X-201879Y-7006793D01*
X-191465Y-7015937D01*
X-179933Y-7023658D01*
X-167538Y-7029754D01*
X-154432Y-7034225D01*
X-140817Y-7036917D01*
G37*
G36*
X-2159000Y-7037831D02*
G01*
X-2145182Y-7036917D01*
X-2131618Y-7034225D01*
X-2118512Y-7029754D01*
X-2106066Y-7023658D01*
X-2094534Y-7015937D01*
X-2084120Y-7006793D01*
X-2075027Y-6996379D01*
X-2067306Y-6984898D01*
X-2061159Y-6972452D01*
X-2056739Y-6959346D01*
X-2054047Y-6945731D01*
X-2053132Y-6931914D01*
X-2054047Y-6918096D01*
X-2056739Y-6904532D01*
X-2061159Y-6891426D01*
X-2067306Y-6878980D01*
X-2075027Y-6867499D01*
X-2084120Y-6857085D01*
X-2094534Y-6847941D01*
X-2106066Y-6840220D01*
X-2118512Y-6834124D01*
X-2131618Y-6829653D01*
X-2145182Y-6826961D01*
X-2159000Y-6826046D01*
X-2172817Y-6826961D01*
X-2186432Y-6829653D01*
X-2199538Y-6834124D01*
X-2211933Y-6840220D01*
X-2223465Y-6847941D01*
X-2233879Y-6857085D01*
X-2243023Y-6867499D01*
X-2250694Y-6878980D01*
X-2256840Y-6891426D01*
X-2261311Y-6904532D01*
X-2264003Y-6918096D01*
X-2264918Y-6931914D01*
X-2264003Y-6945731D01*
X-2261311Y-6959346D01*
X-2256840Y-6972452D01*
X-2250694Y-6984898D01*
X-2243023Y-6996379D01*
X-2233879Y-7006793D01*
X-2223465Y-7015937D01*
X-2211933Y-7023658D01*
X-2199538Y-7029754D01*
X-2186432Y-7034225D01*
X-2172817Y-7036917D01*
G37*
G36*
X-1397000Y-7037831D02*
G01*
X-1383182Y-7036917D01*
X-1369618Y-7034225D01*
X-1356512Y-7029754D01*
X-1344066Y-7023658D01*
X-1332534Y-7015937D01*
X-1322120Y-7006793D01*
X-1313027Y-6996379D01*
X-1305306Y-6984898D01*
X-1299159Y-6972452D01*
X-1294739Y-6959346D01*
X-1292047Y-6945731D01*
X-1291132Y-6931914D01*
X-1292047Y-6918096D01*
X-1294739Y-6904532D01*
X-1299159Y-6891426D01*
X-1305306Y-6878980D01*
X-1313027Y-6867499D01*
X-1322120Y-6857085D01*
X-1332534Y-6847941D01*
X-1344066Y-6840220D01*
X-1356512Y-6834124D01*
X-1369618Y-6829653D01*
X-1383182Y-6826961D01*
X-1397000Y-6826046D01*
X-1410817Y-6826961D01*
X-1424432Y-6829653D01*
X-1437538Y-6834124D01*
X-1449933Y-6840220D01*
X-1461465Y-6847941D01*
X-1471879Y-6857085D01*
X-1481023Y-6867499D01*
X-1488694Y-6878980D01*
X-1494840Y-6891426D01*
X-1499311Y-6904532D01*
X-1502003Y-6918096D01*
X-1502918Y-6931914D01*
X-1502003Y-6945731D01*
X-1499311Y-6959346D01*
X-1494840Y-6972452D01*
X-1488694Y-6984898D01*
X-1481023Y-6996379D01*
X-1471879Y-7006793D01*
X-1461465Y-7015937D01*
X-1449933Y-7023658D01*
X-1437538Y-7029754D01*
X-1424432Y-7034225D01*
X-1410817Y-7036917D01*
G37*
G36*
X635000Y-7037831D02*
G01*
X648817Y-7036917D01*
X662381Y-7034225D01*
X675487Y-7029754D01*
X687933Y-7023658D01*
X699465Y-7015937D01*
X709879Y-7006793D01*
X718972Y-6996379D01*
X726694Y-6984898D01*
X732840Y-6972452D01*
X737260Y-6959346D01*
X739952Y-6945731D01*
X740867Y-6931914D01*
X739952Y-6918096D01*
X737260Y-6904532D01*
X732840Y-6891426D01*
X726694Y-6878980D01*
X718972Y-6867499D01*
X709879Y-6857085D01*
X699465Y-6847941D01*
X687933Y-6840220D01*
X675487Y-6834124D01*
X662381Y-6829653D01*
X648817Y-6826961D01*
X635000Y-6826046D01*
X621182Y-6826961D01*
X607568Y-6829653D01*
X594461Y-6834124D01*
X582066Y-6840220D01*
X570534Y-6847941D01*
X560120Y-6857085D01*
X550976Y-6867499D01*
X543306Y-6878980D01*
X537159Y-6891426D01*
X532688Y-6904532D01*
X529996Y-6918096D01*
X529082Y-6931914D01*
X529996Y-6945731D01*
X532688Y-6959346D01*
X537159Y-6972452D01*
X543306Y-6984898D01*
X550976Y-6996379D01*
X560120Y-7006793D01*
X570534Y-7015937D01*
X582066Y-7023658D01*
X594461Y-7029754D01*
X607568Y-7034225D01*
X621182Y-7036917D01*
G37*
G36*
X-381000Y-7037831D02*
G01*
X-367182Y-7036917D01*
X-353618Y-7034225D01*
X-340512Y-7029754D01*
X-328066Y-7023658D01*
X-316534Y-7015937D01*
X-306120Y-7006793D01*
X-297027Y-6996379D01*
X-289306Y-6984898D01*
X-283159Y-6972452D01*
X-278739Y-6959346D01*
X-276047Y-6945731D01*
X-275132Y-6931914D01*
X-276047Y-6918096D01*
X-278739Y-6904532D01*
X-283159Y-6891426D01*
X-289306Y-6878980D01*
X-297027Y-6867499D01*
X-306120Y-6857085D01*
X-316534Y-6847941D01*
X-328066Y-6840220D01*
X-340512Y-6834124D01*
X-353618Y-6829653D01*
X-367182Y-6826961D01*
X-381000Y-6826046D01*
X-394817Y-6826961D01*
X-408432Y-6829653D01*
X-421538Y-6834124D01*
X-433933Y-6840220D01*
X-445465Y-6847941D01*
X-455879Y-6857085D01*
X-465023Y-6867499D01*
X-472693Y-6878980D01*
X-478840Y-6891426D01*
X-483311Y-6904532D01*
X-486003Y-6918096D01*
X-486918Y-6931914D01*
X-486003Y-6945731D01*
X-483311Y-6959346D01*
X-478840Y-6972452D01*
X-472693Y-6984898D01*
X-465023Y-6996379D01*
X-455879Y-7006793D01*
X-445465Y-7015937D01*
X-433933Y-7023658D01*
X-421538Y-7029754D01*
X-408432Y-7034225D01*
X-394817Y-7036917D01*
G37*
G36*
X-2413000Y-7037831D02*
G01*
X-2399182Y-7036917D01*
X-2385618Y-7034225D01*
X-2372512Y-7029754D01*
X-2360066Y-7023658D01*
X-2348534Y-7015937D01*
X-2338120Y-7006793D01*
X-2329027Y-6996379D01*
X-2321306Y-6984898D01*
X-2315159Y-6972452D01*
X-2310739Y-6959346D01*
X-2308047Y-6945731D01*
X-2307132Y-6931914D01*
X-2308047Y-6918096D01*
X-2310739Y-6904532D01*
X-2315159Y-6891426D01*
X-2321306Y-6878980D01*
X-2329027Y-6867499D01*
X-2338120Y-6857085D01*
X-2348534Y-6847941D01*
X-2360066Y-6840220D01*
X-2372512Y-6834124D01*
X-2385618Y-6829653D01*
X-2399182Y-6826961D01*
X-2413000Y-6826046D01*
X-2426817Y-6826961D01*
X-2440432Y-6829653D01*
X-2453538Y-6834124D01*
X-2465933Y-6840220D01*
X-2477465Y-6847941D01*
X-2487879Y-6857085D01*
X-2497023Y-6867499D01*
X-2504694Y-6878980D01*
X-2510840Y-6891426D01*
X-2515311Y-6904532D01*
X-2518003Y-6918096D01*
X-2518918Y-6931914D01*
X-2518003Y-6945731D01*
X-2515311Y-6959346D01*
X-2510840Y-6972452D01*
X-2504694Y-6984898D01*
X-2497023Y-6996379D01*
X-2487879Y-7006793D01*
X-2477465Y-7015937D01*
X-2465933Y-7023658D01*
X-2453538Y-7029754D01*
X-2440432Y-7034225D01*
X-2426817Y-7036917D01*
G37*
G36*
X-1905000Y-7037831D02*
G01*
X-1891182Y-7036917D01*
X-1877618Y-7034225D01*
X-1864512Y-7029754D01*
X-1852066Y-7023658D01*
X-1840534Y-7015937D01*
X-1830120Y-7006793D01*
X-1821027Y-6996379D01*
X-1813306Y-6984898D01*
X-1807159Y-6972452D01*
X-1802739Y-6959346D01*
X-1800047Y-6945731D01*
X-1799132Y-6931914D01*
X-1800047Y-6918096D01*
X-1802739Y-6904532D01*
X-1807159Y-6891426D01*
X-1813306Y-6878980D01*
X-1821027Y-6867499D01*
X-1830120Y-6857085D01*
X-1840534Y-6847941D01*
X-1852066Y-6840220D01*
X-1864512Y-6834124D01*
X-1877618Y-6829653D01*
X-1891182Y-6826961D01*
X-1905000Y-6826046D01*
X-1918817Y-6826961D01*
X-1932432Y-6829653D01*
X-1945538Y-6834124D01*
X-1957933Y-6840220D01*
X-1969465Y-6847941D01*
X-1979879Y-6857085D01*
X-1989023Y-6867499D01*
X-1996693Y-6878980D01*
X-2002840Y-6891426D01*
X-2007311Y-6904532D01*
X-2010003Y-6918096D01*
X-2010918Y-6931914D01*
X-2010003Y-6945731D01*
X-2007311Y-6959346D01*
X-2002840Y-6972452D01*
X-1996693Y-6984898D01*
X-1989023Y-6996379D01*
X-1979879Y-7006793D01*
X-1969465Y-7015937D01*
X-1957933Y-7023658D01*
X-1945538Y-7029754D01*
X-1932432Y-7034225D01*
X-1918817Y-7036917D01*
G37*
G36*
X889000Y-7037831D02*
G01*
X902817Y-7036917D01*
X916381Y-7034225D01*
X929487Y-7029754D01*
X941933Y-7023658D01*
X953465Y-7015937D01*
X963879Y-7006793D01*
X972972Y-6996379D01*
X980694Y-6984898D01*
X986840Y-6972452D01*
X991260Y-6959346D01*
X993952Y-6945731D01*
X994867Y-6931914D01*
X993952Y-6918096D01*
X991260Y-6904532D01*
X986840Y-6891426D01*
X980694Y-6878980D01*
X972972Y-6867499D01*
X963879Y-6857085D01*
X953465Y-6847941D01*
X941933Y-6840220D01*
X929487Y-6834124D01*
X916381Y-6829653D01*
X902817Y-6826961D01*
X889000Y-6826046D01*
X875182Y-6826961D01*
X861568Y-6829653D01*
X848461Y-6834124D01*
X836066Y-6840220D01*
X824534Y-6847941D01*
X814120Y-6857085D01*
X804976Y-6867499D01*
X797306Y-6878980D01*
X791159Y-6891426D01*
X786688Y-6904532D01*
X783996Y-6918096D01*
X783082Y-6931914D01*
X783996Y-6945731D01*
X786688Y-6959346D01*
X791159Y-6972452D01*
X797306Y-6984898D01*
X804976Y-6996379D01*
X814120Y-7006793D01*
X824534Y-7015937D01*
X836066Y-7023658D01*
X848461Y-7029754D01*
X861568Y-7034225D01*
X875182Y-7036917D01*
G37*
G36*
X-635000Y-7037831D02*
G01*
X-621182Y-7036917D01*
X-607618Y-7034225D01*
X-594512Y-7029754D01*
X-582066Y-7023658D01*
X-570534Y-7015937D01*
X-560120Y-7006793D01*
X-551027Y-6996379D01*
X-543306Y-6984898D01*
X-537159Y-6972452D01*
X-532739Y-6959346D01*
X-530047Y-6945731D01*
X-529132Y-6931914D01*
X-530047Y-6918096D01*
X-532739Y-6904532D01*
X-537159Y-6891426D01*
X-543306Y-6878980D01*
X-551027Y-6867499D01*
X-560120Y-6857085D01*
X-570534Y-6847941D01*
X-582066Y-6840220D01*
X-594512Y-6834124D01*
X-607618Y-6829653D01*
X-621182Y-6826961D01*
X-635000Y-6826046D01*
X-648817Y-6826961D01*
X-662432Y-6829653D01*
X-675538Y-6834124D01*
X-687933Y-6840220D01*
X-699465Y-6847941D01*
X-709879Y-6857085D01*
X-719023Y-6867499D01*
X-726694Y-6878980D01*
X-732840Y-6891426D01*
X-737311Y-6904532D01*
X-740003Y-6918096D01*
X-740918Y-6931914D01*
X-740003Y-6945731D01*
X-737311Y-6959346D01*
X-732840Y-6972452D01*
X-726694Y-6984898D01*
X-719023Y-6996379D01*
X-709879Y-7006793D01*
X-699465Y-7015937D01*
X-687933Y-7023658D01*
X-675538Y-7029754D01*
X-662432Y-7034225D01*
X-648817Y-7036917D01*
G37*
G36*
X-1651000Y-7037831D02*
G01*
X-1637182Y-7036917D01*
X-1623618Y-7034225D01*
X-1610512Y-7029754D01*
X-1598066Y-7023658D01*
X-1586534Y-7015937D01*
X-1576120Y-7006793D01*
X-1567027Y-6996379D01*
X-1559306Y-6984898D01*
X-1553159Y-6972452D01*
X-1548739Y-6959346D01*
X-1546047Y-6945731D01*
X-1545132Y-6931914D01*
X-1546047Y-6918096D01*
X-1548739Y-6904532D01*
X-1553159Y-6891426D01*
X-1559306Y-6878980D01*
X-1567027Y-6867499D01*
X-1576120Y-6857085D01*
X-1586534Y-6847941D01*
X-1598066Y-6840220D01*
X-1610512Y-6834124D01*
X-1623618Y-6829653D01*
X-1637182Y-6826961D01*
X-1651000Y-6826046D01*
X-1664817Y-6826961D01*
X-1678432Y-6829653D01*
X-1691538Y-6834124D01*
X-1703933Y-6840220D01*
X-1715465Y-6847941D01*
X-1725879Y-6857085D01*
X-1735023Y-6867499D01*
X-1742693Y-6878980D01*
X-1748840Y-6891426D01*
X-1753311Y-6904532D01*
X-1756003Y-6918096D01*
X-1756918Y-6931914D01*
X-1756003Y-6945731D01*
X-1753311Y-6959346D01*
X-1748840Y-6972452D01*
X-1742693Y-6984898D01*
X-1735023Y-6996379D01*
X-1725879Y-7006793D01*
X-1715465Y-7015937D01*
X-1703933Y-7023658D01*
X-1691538Y-7029754D01*
X-1678432Y-7034225D01*
X-1664817Y-7036917D01*
G37*
G36*
X-1143000Y-7037831D02*
G01*
X-1129182Y-7036917D01*
X-1115618Y-7034225D01*
X-1102512Y-7029754D01*
X-1090066Y-7023658D01*
X-1078534Y-7015937D01*
X-1068120Y-7006793D01*
X-1059027Y-6996379D01*
X-1051306Y-6984898D01*
X-1045159Y-6972452D01*
X-1040739Y-6959346D01*
X-1038047Y-6945731D01*
X-1037132Y-6931914D01*
X-1038047Y-6918096D01*
X-1040739Y-6904532D01*
X-1045159Y-6891426D01*
X-1051306Y-6878980D01*
X-1059027Y-6867499D01*
X-1068120Y-6857085D01*
X-1078534Y-6847941D01*
X-1090066Y-6840220D01*
X-1102512Y-6834124D01*
X-1115618Y-6829653D01*
X-1129182Y-6826961D01*
X-1143000Y-6826046D01*
X-1156817Y-6826961D01*
X-1170432Y-6829653D01*
X-1183538Y-6834124D01*
X-1195933Y-6840220D01*
X-1207465Y-6847941D01*
X-1217879Y-6857085D01*
X-1227023Y-6867499D01*
X-1234694Y-6878980D01*
X-1240840Y-6891426D01*
X-1245311Y-6904532D01*
X-1248003Y-6918096D01*
X-1248918Y-6931914D01*
X-1248003Y-6945731D01*
X-1245311Y-6959346D01*
X-1240840Y-6972452D01*
X-1234694Y-6984898D01*
X-1227023Y-6996379D01*
X-1217879Y-7006793D01*
X-1207465Y-7015937D01*
X-1195933Y-7023658D01*
X-1183538Y-7029754D01*
X-1170432Y-7034225D01*
X-1156817Y-7036917D01*
G37*
G36*
X-935380Y-7026909D02*
G01*
X-935380Y-6978294D01*
X-983945Y-6978294D01*
X-980694Y-6984898D01*
X-973023Y-6996379D01*
X-963879Y-7006793D01*
X-953465Y-7015937D01*
X-941933Y-7023658D01*
G37*
G36*
X-842670Y-7026909D02*
G01*
X-836066Y-7023658D01*
X-824534Y-7015937D01*
X-814120Y-7006793D01*
X-805027Y-6996379D01*
X-797306Y-6984898D01*
X-794054Y-6978294D01*
X-842670Y-6978294D01*
G37*
G36*
X-983945Y-6885584D02*
G01*
X-935380Y-6885584D01*
X-935380Y-6836968D01*
X-941933Y-6840220D01*
X-953465Y-6847941D01*
X-963879Y-6857085D01*
X-973023Y-6867499D01*
X-980694Y-6878980D01*
G37*
G36*
X-842670Y-6885584D02*
G01*
X-794054Y-6885584D01*
X-797306Y-6878980D01*
X-805027Y-6867499D01*
X-814120Y-6857085D01*
X-824534Y-6847941D01*
X-836066Y-6840220D01*
X-842670Y-6836968D01*
G37*
G36*
X12301220Y-6476949D02*
G01*
X12321438Y-6476492D01*
X12341555Y-6474104D01*
X12361367Y-6469888D01*
X12380671Y-6463792D01*
X12399314Y-6455968D01*
X12417145Y-6446367D01*
X12434011Y-6435191D01*
X12449759Y-6422440D01*
X12464237Y-6408318D01*
X12477292Y-6392875D01*
X12488926Y-6376314D01*
X12498882Y-6358686D01*
X12507163Y-6340246D01*
X12513716Y-6321044D01*
X12518390Y-6301384D01*
X12521234Y-6281318D01*
X12522200Y-6261100D01*
X12521234Y-6240881D01*
X12518390Y-6220866D01*
X12513716Y-6201206D01*
X12507163Y-6182004D01*
X12498882Y-6163564D01*
X12488926Y-6145936D01*
X12477292Y-6129375D01*
X12464237Y-6113932D01*
X12449759Y-6099759D01*
X12434011Y-6087059D01*
X12417145Y-6075883D01*
X12399314Y-6066282D01*
X12380671Y-6058458D01*
X12361367Y-6052362D01*
X12341555Y-6048146D01*
X12321438Y-6045758D01*
X12301220Y-6045301D01*
X12281052Y-6046724D01*
X12261088Y-6050026D01*
X12241479Y-6055156D01*
X12222480Y-6062167D01*
X12204242Y-6070854D01*
X12186869Y-6081268D01*
X12170562Y-6093256D01*
X12155424Y-6106668D01*
X12141606Y-6121501D01*
X12129262Y-6137503D01*
X12118492Y-6154623D01*
X12109348Y-6172708D01*
X12101931Y-6191504D01*
X12096292Y-6210960D01*
X12092533Y-6230874D01*
X12090654Y-6250990D01*
X12090654Y-6271260D01*
X12092533Y-6291376D01*
X12096292Y-6311290D01*
X12101931Y-6330696D01*
X12109348Y-6349542D01*
X12118492Y-6367627D01*
X12129262Y-6384747D01*
X12141606Y-6400749D01*
X12155424Y-6415582D01*
X12170562Y-6428994D01*
X12186869Y-6440982D01*
X12204242Y-6451396D01*
X12222480Y-6460083D01*
X12241479Y-6467094D01*
X12261088Y-6472224D01*
X12281052Y-6475526D01*
G37*
G36*
X10002570Y-6467043D02*
G01*
X10022789Y-6466586D01*
X10042906Y-6464198D01*
X10062667Y-6459982D01*
X10081971Y-6453886D01*
X10100614Y-6446062D01*
X10118496Y-6436461D01*
X10135311Y-6425285D01*
X10151059Y-6412534D01*
X10165537Y-6398412D01*
X10178643Y-6382969D01*
X10190226Y-6366408D01*
X10200233Y-6348780D01*
X10208514Y-6330340D01*
X10215016Y-6311138D01*
X10219740Y-6291478D01*
X10222585Y-6271412D01*
X10223500Y-6251194D01*
X10222585Y-6230975D01*
X10219740Y-6210960D01*
X10215016Y-6191300D01*
X10208514Y-6172098D01*
X10200233Y-6153658D01*
X10190226Y-6136030D01*
X10178643Y-6119469D01*
X10165537Y-6104026D01*
X10151059Y-6089853D01*
X10135311Y-6077153D01*
X10118496Y-6065977D01*
X10100614Y-6056376D01*
X10081971Y-6048552D01*
X10062667Y-6042456D01*
X10042906Y-6038240D01*
X10022789Y-6035852D01*
X10002570Y-6035395D01*
X9982352Y-6036818D01*
X9962388Y-6040120D01*
X9942830Y-6045250D01*
X9923830Y-6052261D01*
X9905542Y-6060948D01*
X9888220Y-6071362D01*
X9871862Y-6083350D01*
X9856774Y-6096762D01*
X9842957Y-6111595D01*
X9830612Y-6127597D01*
X9819792Y-6144717D01*
X9810648Y-6162802D01*
X9803231Y-6181598D01*
X9797643Y-6201054D01*
X9793833Y-6220968D01*
X9791954Y-6241084D01*
X9791954Y-6261354D01*
X9793833Y-6281470D01*
X9797643Y-6301384D01*
X9803231Y-6320790D01*
X9810648Y-6339636D01*
X9819792Y-6357721D01*
X9830612Y-6374841D01*
X9842957Y-6390843D01*
X9856774Y-6405676D01*
X9871862Y-6419088D01*
X9888220Y-6431076D01*
X9905542Y-6441490D01*
X9923830Y-6450177D01*
X9942830Y-6457188D01*
X9962388Y-6462318D01*
X9982352Y-6465620D01*
G37*
G36*
X-1896465Y-6402171D02*
G01*
X-1881886Y-6402171D01*
X-1867458Y-6400342D01*
X-1853336Y-6396736D01*
X-1839823Y-6391402D01*
X-1827072Y-6384391D01*
X-1815287Y-6375806D01*
X-1804670Y-6365849D01*
X-1795424Y-6354622D01*
X-1787601Y-6342329D01*
X-1781403Y-6329172D01*
X-1776933Y-6315354D01*
X-1774189Y-6301028D01*
X-1773275Y-6286500D01*
X-1774189Y-6272022D01*
X-1776933Y-6257696D01*
X-1781403Y-6243878D01*
X-1787601Y-6230670D01*
X-1795424Y-6218428D01*
X-1804670Y-6207201D01*
X-1815287Y-6197244D01*
X-1827072Y-6188659D01*
X-1839823Y-6181648D01*
X-1853336Y-6176314D01*
X-1867458Y-6172708D01*
X-1881886Y-6170879D01*
X-1896465Y-6170879D01*
X-1910892Y-6172708D01*
X-1924964Y-6176314D01*
X-1938528Y-6181648D01*
X-1951278Y-6188659D01*
X-1963013Y-6197244D01*
X-1973630Y-6207201D01*
X-1982927Y-6218428D01*
X-1990699Y-6230670D01*
X-1996897Y-6243878D01*
X-2001418Y-6257696D01*
X-2004161Y-6272022D01*
X-2005075Y-6286500D01*
X-2004161Y-6301028D01*
X-2001418Y-6315354D01*
X-1996897Y-6329172D01*
X-1990699Y-6342329D01*
X-1982927Y-6354622D01*
X-1973630Y-6365849D01*
X-1963013Y-6375806D01*
X-1951278Y-6384391D01*
X-1938528Y-6391402D01*
X-1924964Y-6396736D01*
X-1910892Y-6400342D01*
G37*
G36*
X-493115Y-6402171D02*
G01*
X-478535Y-6402171D01*
X-464108Y-6400342D01*
X-449986Y-6396736D01*
X-436473Y-6391402D01*
X-423722Y-6384391D01*
X-411937Y-6375806D01*
X-401320Y-6365849D01*
X-392074Y-6354622D01*
X-384251Y-6342329D01*
X-378053Y-6329172D01*
X-373583Y-6315354D01*
X-370840Y-6301028D01*
X-369925Y-6286500D01*
X-370840Y-6272022D01*
X-373583Y-6257696D01*
X-378053Y-6243878D01*
X-384251Y-6230670D01*
X-392074Y-6218428D01*
X-401320Y-6207201D01*
X-411937Y-6197244D01*
X-423722Y-6188659D01*
X-436473Y-6181648D01*
X-449986Y-6176314D01*
X-464108Y-6172708D01*
X-478535Y-6170879D01*
X-493115Y-6170879D01*
X-507542Y-6172708D01*
X-521614Y-6176314D01*
X-535178Y-6181648D01*
X-547928Y-6188659D01*
X-559663Y-6197244D01*
X-570280Y-6207201D01*
X-579577Y-6218428D01*
X-587349Y-6230670D01*
X-592734Y-6242100D01*
X-594969Y-6245148D01*
X-598170Y-6247180D01*
X-601929Y-6247892D01*
X-677672Y-6247892D01*
X-681532Y-6247130D01*
X-684834Y-6244945D01*
X-1067511Y-5862269D01*
X-1069746Y-5858967D01*
X-1070508Y-5855055D01*
X-1070508Y-5849518D01*
X-1076045Y-5849518D01*
X-1079957Y-5848756D01*
X-1083259Y-5846521D01*
X-1102817Y-5826963D01*
X-1105052Y-5823661D01*
X-1105814Y-5819749D01*
X-1105814Y-5756960D01*
X-1105052Y-5753100D01*
X-1102817Y-5749798D01*
X-1099515Y-5747562D01*
X-1095654Y-5746800D01*
X-1070508Y-5746800D01*
X-1070508Y-5693816D01*
X-1074674Y-5693511D01*
X-1078433Y-5691581D01*
X-1081024Y-5688279D01*
X-1082090Y-5684215D01*
X-1081430Y-5680100D01*
X-1079144Y-5676544D01*
X-874064Y-5471464D01*
X-868934Y-5465267D01*
X-865378Y-5458561D01*
X-863193Y-5451348D01*
X-862380Y-5443321D01*
X-862380Y-4940096D01*
X-863193Y-4932070D01*
X-865378Y-4924806D01*
X-868934Y-4918151D01*
X-874064Y-4911953D01*
X-909726Y-4876292D01*
X-911961Y-4872837D01*
X-912672Y-4868773D01*
X-911402Y-4864100D01*
X-906932Y-4850231D01*
X-904189Y-4835956D01*
X-903274Y-4821428D01*
X-904189Y-4806899D01*
X-906932Y-4792624D01*
X-911402Y-4778756D01*
X-917600Y-4765598D01*
X-925779Y-4752848D01*
X-927608Y-4749495D01*
X-928116Y-4745736D01*
X-927150Y-4742027D01*
X-924915Y-4738979D01*
X-921715Y-4736896D01*
X-917956Y-4736185D01*
X-629818Y-4736185D01*
X-625957Y-4736998D01*
X-622655Y-4739182D01*
X-595274Y-4766614D01*
X-592988Y-4770018D01*
X-592277Y-4774082D01*
X-593547Y-4778756D01*
X-598068Y-4792624D01*
X-600811Y-4806899D01*
X-601726Y-4821428D01*
X-600811Y-4835956D01*
X-598068Y-4850282D01*
X-593547Y-4864100D01*
X-587349Y-4877257D01*
X-579577Y-4889550D01*
X-570280Y-4900777D01*
X-559663Y-4910734D01*
X-547928Y-4919268D01*
X-535178Y-4926279D01*
X-521614Y-4931664D01*
X-507542Y-4935270D01*
X-493115Y-4937099D01*
X-478535Y-4937099D01*
X-464108Y-4935270D01*
X-449986Y-4931664D01*
X-436473Y-4926279D01*
X-423722Y-4919268D01*
X-411937Y-4910734D01*
X-401320Y-4900777D01*
X-392074Y-4889550D01*
X-384251Y-4877257D01*
X-378053Y-4864100D01*
X-373583Y-4850282D01*
X-370840Y-4835956D01*
X-369925Y-4821428D01*
X-370840Y-4806899D01*
X-373583Y-4792624D01*
X-378053Y-4778756D01*
X-384251Y-4765598D01*
X-392074Y-4753305D01*
X-401320Y-4742129D01*
X-411937Y-4732172D01*
X-423722Y-4723587D01*
X-436473Y-4716576D01*
X-449986Y-4711242D01*
X-464108Y-4707585D01*
X-478535Y-4705756D01*
X-493115Y-4705756D01*
X-507542Y-4707585D01*
X-521614Y-4711242D01*
X-529590Y-4714392D01*
X-533450Y-4715103D01*
X-537260Y-4714290D01*
X-540512Y-4712106D01*
X-581964Y-4670653D01*
X-588213Y-4665522D01*
X-594868Y-4661966D01*
X-602132Y-4659782D01*
X-610158Y-4658969D01*
X-1745081Y-4658969D01*
X-1748993Y-4658207D01*
X-1752295Y-4656023D01*
X-1755800Y-4652518D01*
X-1757984Y-4649216D01*
X-1758746Y-4645304D01*
X-1758746Y-4104386D01*
X-1757832Y-4100118D01*
X-1755190Y-4096664D01*
X-1751380Y-4094581D01*
X-1747062Y-4094327D01*
X-1742998Y-4095902D01*
X-1732788Y-4102658D01*
X-1726184Y-4105960D01*
X-1726184Y-4051808D01*
X-1748586Y-4051808D01*
X-1752498Y-4051046D01*
X-1755800Y-4048861D01*
X-1757984Y-4045559D01*
X-1758746Y-4041648D01*
X-1758746Y-3954272D01*
X-1757984Y-3950411D01*
X-1755800Y-3947109D01*
X-1752498Y-3944924D01*
X-1748586Y-3944112D01*
X-1726184Y-3944112D01*
X-1726184Y-3912971D01*
X-1725422Y-3909110D01*
X-1723186Y-3905808D01*
X-1391920Y-3574491D01*
X-1388516Y-3572256D01*
X-1384503Y-3571544D01*
X-1380540Y-3572459D01*
X-1377238Y-3574846D01*
X-1375511Y-3576777D01*
X-1364183Y-3586429D01*
X-1351788Y-3594658D01*
X-1338478Y-3601313D01*
X-1324406Y-3606241D01*
X-1309878Y-3609441D01*
X-1295044Y-3610813D01*
X-1280160Y-3610356D01*
X-1265478Y-3608070D01*
X-1251153Y-3604006D01*
X-1237437Y-3598214D01*
X-1224584Y-3590747D01*
X-1212697Y-3581806D01*
X-1201978Y-3571443D01*
X-1192682Y-3559810D01*
X-1184859Y-3547160D01*
X-1178610Y-3533648D01*
X-1173886Y-3518763D01*
X-1171702Y-3515004D01*
X-1168196Y-3512515D01*
X-1163878Y-3511702D01*
X-1159662Y-3512769D01*
X-1156309Y-3515461D01*
X-1154379Y-3519373D01*
X-1152550Y-3526637D01*
X-1147165Y-3540506D01*
X-1140104Y-3553612D01*
X-1131519Y-3565753D01*
X-1121511Y-3576777D01*
X-1110183Y-3586429D01*
X-1097788Y-3594658D01*
X-1084478Y-3601313D01*
X-1070406Y-3606241D01*
X-1055878Y-3609441D01*
X-1041044Y-3610813D01*
X-1026160Y-3610356D01*
X-1011478Y-3608070D01*
X-997153Y-3604006D01*
X-983437Y-3598214D01*
X-970584Y-3590747D01*
X-958697Y-3581806D01*
X-947978Y-3571443D01*
X-938682Y-3559810D01*
X-930859Y-3547160D01*
X-924610Y-3533648D01*
X-920089Y-3519373D01*
X-917346Y-3504844D01*
X-916432Y-3489960D01*
X-917346Y-3475126D01*
X-920089Y-3460496D01*
X-924610Y-3446322D01*
X-930859Y-3432810D01*
X-938682Y-3420160D01*
X-947978Y-3408527D01*
X-958697Y-3398164D01*
X-970584Y-3389223D01*
X-983437Y-3381756D01*
X-997153Y-3375964D01*
X-1011478Y-3371900D01*
X-1026160Y-3369614D01*
X-1041044Y-3369157D01*
X-1055878Y-3370529D01*
X-1070406Y-3373729D01*
X-1084478Y-3378657D01*
X-1097788Y-3385312D01*
X-1110183Y-3393490D01*
X-1121511Y-3403193D01*
X-1131519Y-3414217D01*
X-1140104Y-3426358D01*
X-1147165Y-3439464D01*
X-1152550Y-3453384D01*
X-1154379Y-3460546D01*
X-1156360Y-3464407D01*
X-1159713Y-3467150D01*
X-1163929Y-3468166D01*
X-1168196Y-3467354D01*
X-1171752Y-3464864D01*
X-1173937Y-3461105D01*
X-1178610Y-3446322D01*
X-1184859Y-3432810D01*
X-1192682Y-3420160D01*
X-1201978Y-3408527D01*
X-1212697Y-3398164D01*
X-1224584Y-3389223D01*
X-1237437Y-3381756D01*
X-1251153Y-3375964D01*
X-1265478Y-3371900D01*
X-1280160Y-3369614D01*
X-1295044Y-3369157D01*
X-1309878Y-3370529D01*
X-1324406Y-3373729D01*
X-1338478Y-3378657D01*
X-1351788Y-3385312D01*
X-1364183Y-3393490D01*
X-1375511Y-3403193D01*
X-1385519Y-3414217D01*
X-1394104Y-3426358D01*
X-1401165Y-3439464D01*
X-1406550Y-3453384D01*
X-1408379Y-3460546D01*
X-1410360Y-3464407D01*
X-1413713Y-3467150D01*
X-1417929Y-3468166D01*
X-1422196Y-3467354D01*
X-1425752Y-3464864D01*
X-1427937Y-3461105D01*
X-1432610Y-3446322D01*
X-1438859Y-3432810D01*
X-1446682Y-3420160D01*
X-1455978Y-3408527D01*
X-1466697Y-3398164D01*
X-1478584Y-3389223D01*
X-1491437Y-3381756D01*
X-1505153Y-3375964D01*
X-1519478Y-3371900D01*
X-1534160Y-3369614D01*
X-1549044Y-3369157D01*
X-1563878Y-3370529D01*
X-1578406Y-3373729D01*
X-1592478Y-3378657D01*
X-1605788Y-3385312D01*
X-1618183Y-3393490D01*
X-1629511Y-3403193D01*
X-1639519Y-3414217D01*
X-1648104Y-3426358D01*
X-1655165Y-3439464D01*
X-1660550Y-3453333D01*
X-1664157Y-3467760D01*
X-1665986Y-3482543D01*
X-1665986Y-3497427D01*
X-1664157Y-3512210D01*
X-1660550Y-3526637D01*
X-1655165Y-3540506D01*
X-1648104Y-3553612D01*
X-1639519Y-3565753D01*
X-1629511Y-3576777D01*
X-1618183Y-3586429D01*
X-1605788Y-3594658D01*
X-1592478Y-3601313D01*
X-1578406Y-3606241D01*
X-1563878Y-3609441D01*
X-1559966Y-3609797D01*
X-1556308Y-3610864D01*
X-1553260Y-3613200D01*
X-1551330Y-3616451D01*
X-1550720Y-3620211D01*
X-1551584Y-3623970D01*
X-1553718Y-3627120D01*
X-1824329Y-3897731D01*
X-1829409Y-3903929D01*
X-1833016Y-3910584D01*
X-1835200Y-3917848D01*
X-1835962Y-3925874D01*
X-1835962Y-4665014D01*
X-1835200Y-4673041D01*
X-1833016Y-4680254D01*
X-1829409Y-4686960D01*
X-1826158Y-4690922D01*
X-1824380Y-4694174D01*
X-1823872Y-4697882D01*
X-1824736Y-4701489D01*
X-1826818Y-4704537D01*
X-1834438Y-4712106D01*
X-1837689Y-4714290D01*
X-1841500Y-4715103D01*
X-1845360Y-4714392D01*
X-1853336Y-4711242D01*
X-1867458Y-4707585D01*
X-1881886Y-4705756D01*
X-1896465Y-4705756D01*
X-1910892Y-4707585D01*
X-1924964Y-4711242D01*
X-1938528Y-4716576D01*
X-1951278Y-4723587D01*
X-1963013Y-4732121D01*
X-1973630Y-4742129D01*
X-1982927Y-4753305D01*
X-1990699Y-4765598D01*
X-1996897Y-4778756D01*
X-2001418Y-4792624D01*
X-2004161Y-4806899D01*
X-2005075Y-4821428D01*
X-2004161Y-4835956D01*
X-2001418Y-4850231D01*
X-1996897Y-4864100D01*
X-1990699Y-4877257D01*
X-1982927Y-4889550D01*
X-1973630Y-4900777D01*
X-1963013Y-4910734D01*
X-1951278Y-4919268D01*
X-1938528Y-4926279D01*
X-1924964Y-4931664D01*
X-1910892Y-4935270D01*
X-1896465Y-4937099D01*
X-1881886Y-4937099D01*
X-1867458Y-4935270D01*
X-1853336Y-4931664D01*
X-1839823Y-4926279D01*
X-1827072Y-4919268D01*
X-1815287Y-4910734D01*
X-1804670Y-4900777D01*
X-1795424Y-4889550D01*
X-1787601Y-4877257D01*
X-1781403Y-4864100D01*
X-1776933Y-4850231D01*
X-1774189Y-4835956D01*
X-1773275Y-4821428D01*
X-1774189Y-4806899D01*
X-1776933Y-4792624D01*
X-1781403Y-4778756D01*
X-1782673Y-4774133D01*
X-1781962Y-4770069D01*
X-1779727Y-4766614D01*
X-1752295Y-4739182D01*
X-1748993Y-4736998D01*
X-1745081Y-4736185D01*
X-1120343Y-4736185D01*
X-1116584Y-4736896D01*
X-1113383Y-4738979D01*
X-1111148Y-4742027D01*
X-1110183Y-4745736D01*
X-1110691Y-4749495D01*
X-1120698Y-4765598D01*
X-1126896Y-4778756D01*
X-1131417Y-4792624D01*
X-1134110Y-4806899D01*
X-1135024Y-4821428D01*
X-1134110Y-4835956D01*
X-1131417Y-4850231D01*
X-1126896Y-4864100D01*
X-1120698Y-4877257D01*
X-1112926Y-4889550D01*
X-1103630Y-4900777D01*
X-1093012Y-4910734D01*
X-1081227Y-4919268D01*
X-1068476Y-4926279D01*
X-1054963Y-4931664D01*
X-1040892Y-4935270D01*
X-1026414Y-4937099D01*
X-1011885Y-4937099D01*
X-997458Y-4935270D01*
X-983335Y-4931664D01*
X-975360Y-4928514D01*
X-971499Y-4927803D01*
X-967689Y-4928565D01*
X-964437Y-4930749D01*
X-942594Y-4952593D01*
X-940409Y-4955895D01*
X-939596Y-4959807D01*
X-939596Y-5204714D01*
X-940562Y-5209032D01*
X-943305Y-5212537D01*
X-947267Y-5214518D01*
X-951687Y-5214670D01*
X-955751Y-5212892D01*
X-957071Y-5211978D01*
X-969822Y-5204968D01*
X-983335Y-5199583D01*
X-997458Y-5195976D01*
X-1011885Y-5194147D01*
X-1026414Y-5194147D01*
X-1040892Y-5195976D01*
X-1054963Y-5199583D01*
X-1068476Y-5204968D01*
X-1081227Y-5211978D01*
X-1093012Y-5220512D01*
X-1103630Y-5230469D01*
X-1112926Y-5241696D01*
X-1120698Y-5253990D01*
X-1126896Y-5267147D01*
X-1131417Y-5280964D01*
X-1134110Y-5295290D01*
X-1135024Y-5309819D01*
X-1134110Y-5324348D01*
X-1131417Y-5338622D01*
X-1126896Y-5352440D01*
X-1125626Y-5357164D01*
X-1126337Y-5361178D01*
X-1128572Y-5364632D01*
X-1520545Y-5756605D01*
X-1523847Y-5758789D01*
X-1527708Y-5759551D01*
X-1773072Y-5759551D01*
X-1776780Y-5758840D01*
X-1779981Y-5756808D01*
X-1782267Y-5753760D01*
X-1787601Y-5742330D01*
X-1795424Y-5730036D01*
X-1804670Y-5718810D01*
X-1815287Y-5708853D01*
X-1827072Y-5700318D01*
X-1839823Y-5693308D01*
X-1853336Y-5687923D01*
X-1867458Y-5684316D01*
X-1881886Y-5682488D01*
X-1896465Y-5682488D01*
X-1910892Y-5684316D01*
X-1924964Y-5687923D01*
X-1938528Y-5693308D01*
X-1951278Y-5700318D01*
X-1963013Y-5708853D01*
X-1973630Y-5718810D01*
X-1982927Y-5730036D01*
X-1990699Y-5742330D01*
X-1996897Y-5755487D01*
X-2001418Y-5769356D01*
X-2004161Y-5783630D01*
X-2005075Y-5798159D01*
X-2004161Y-5812688D01*
X-2001418Y-5826963D01*
X-1996897Y-5840831D01*
X-1990699Y-5853988D01*
X-1982927Y-5866282D01*
X-1973630Y-5877509D01*
X-1963013Y-5887466D01*
X-1951278Y-5896000D01*
X-1938528Y-5903010D01*
X-1924964Y-5908395D01*
X-1910892Y-5912002D01*
X-1896465Y-5913831D01*
X-1881886Y-5913831D01*
X-1867458Y-5912002D01*
X-1853336Y-5908395D01*
X-1839823Y-5903010D01*
X-1827072Y-5896000D01*
X-1815287Y-5887466D01*
X-1804670Y-5877509D01*
X-1795424Y-5866282D01*
X-1787601Y-5853988D01*
X-1782267Y-5842609D01*
X-1780032Y-5839561D01*
X-1776831Y-5837478D01*
X-1773072Y-5836767D01*
X-1508048Y-5836767D01*
X-1500022Y-5836005D01*
X-1492758Y-5833821D01*
X-1486103Y-5830265D01*
X-1479854Y-5825134D01*
X-1073861Y-5419140D01*
X-1070610Y-5416956D01*
X-1066800Y-5416143D01*
X-1062939Y-5416854D01*
X-1054963Y-5420004D01*
X-1040892Y-5423662D01*
X-1026414Y-5425440D01*
X-1011885Y-5425440D01*
X-997458Y-5423662D01*
X-983335Y-5420004D01*
X-969822Y-5414670D01*
X-957071Y-5407660D01*
X-955751Y-5406694D01*
X-951687Y-5404916D01*
X-947267Y-5405069D01*
X-943305Y-5407101D01*
X-940562Y-5410606D01*
X-939596Y-5414924D01*
X-939596Y-5423611D01*
X-940409Y-5427522D01*
X-942594Y-5430824D01*
X-1171346Y-5659577D01*
X-1176477Y-5665825D01*
X-1180033Y-5672480D01*
X-1182217Y-5679694D01*
X-1183030Y-5687720D01*
X-1183030Y-5839460D01*
X-1182217Y-5847486D01*
X-1180033Y-5854700D01*
X-1176477Y-5861405D01*
X-1171346Y-5867603D01*
X-725525Y-6313474D01*
X-719277Y-6318605D01*
X-712622Y-6322161D01*
X-705358Y-6324346D01*
X-697382Y-6325108D01*
X-601929Y-6325108D01*
X-598170Y-6325819D01*
X-594969Y-6327902D01*
X-592734Y-6330950D01*
X-587349Y-6342329D01*
X-579577Y-6354622D01*
X-570280Y-6365849D01*
X-559663Y-6375806D01*
X-547928Y-6384391D01*
X-535178Y-6391402D01*
X-521614Y-6396736D01*
X-507542Y-6400342D01*
G37*
G36*
X-967790Y-6390284D02*
G01*
X-957071Y-6384391D01*
X-945286Y-6375806D01*
X-934669Y-6365849D01*
X-925423Y-6354622D01*
X-917600Y-6342329D01*
X-915517Y-6337858D01*
X-967790Y-6337858D01*
G37*
G36*
X-1070508Y-6390284D02*
G01*
X-1070508Y-6337858D01*
X-1122832Y-6337858D01*
X-1120698Y-6342329D01*
X-1112926Y-6354622D01*
X-1103630Y-6365849D01*
X-1093012Y-6375806D01*
X-1081227Y-6384391D01*
G37*
G36*
X332841Y-6390284D02*
G01*
X332841Y-6337858D01*
X280517Y-6337858D01*
X282651Y-6342329D01*
X290423Y-6354622D01*
X299720Y-6365849D01*
X310337Y-6375806D01*
X322122Y-6384391D01*
G37*
G36*
X435559Y-6390284D02*
G01*
X446278Y-6384391D01*
X458063Y-6375806D01*
X468680Y-6365849D01*
X477926Y-6354622D01*
X485749Y-6342329D01*
X487832Y-6337858D01*
X435559Y-6337858D01*
G37*
G36*
X-2819400Y-6384696D02*
G01*
X-2805226Y-6383782D01*
X-2791307Y-6381089D01*
X-2777794Y-6376619D01*
X-2764993Y-6370421D01*
X-2753106Y-6362700D01*
X-2742285Y-6353454D01*
X-2732735Y-6342938D01*
X-2724607Y-6331305D01*
X-2718003Y-6318707D01*
X-2713126Y-6305397D01*
X-2709926Y-6291529D01*
X-2708605Y-6277356D01*
X-2709011Y-6263182D01*
X-2711297Y-6249162D01*
X-2715361Y-6235547D01*
X-2721102Y-6222542D01*
X-2728468Y-6210401D01*
X-2737307Y-6199276D01*
X-2747518Y-6189370D01*
X-2758897Y-6180886D01*
X-2771292Y-6173927D01*
X-2784449Y-6168593D01*
X-2798216Y-6164986D01*
X-2812288Y-6163157D01*
X-2826512Y-6163157D01*
X-2840583Y-6164986D01*
X-2854350Y-6168593D01*
X-2867507Y-6173927D01*
X-2879902Y-6180886D01*
X-2891282Y-6189370D01*
X-2901492Y-6199276D01*
X-2910332Y-6210401D01*
X-2917698Y-6222542D01*
X-2923489Y-6235547D01*
X-2927502Y-6249162D01*
X-2929788Y-6263182D01*
X-2930245Y-6277356D01*
X-2928874Y-6291529D01*
X-2925724Y-6305397D01*
X-2920796Y-6318707D01*
X-2914243Y-6331305D01*
X-2906115Y-6342938D01*
X-2896565Y-6353454D01*
X-2885744Y-6362700D01*
X-2873806Y-6370421D01*
X-2861005Y-6376619D01*
X-2847543Y-6381089D01*
X-2833573Y-6383782D01*
G37*
G36*
X280517Y-6235192D02*
G01*
X332841Y-6235192D01*
X332841Y-6182766D01*
X322122Y-6188659D01*
X310337Y-6197244D01*
X299720Y-6207201D01*
X290423Y-6218428D01*
X282651Y-6230670D01*
G37*
G36*
X-1122832Y-6235192D02*
G01*
X-1070508Y-6235192D01*
X-1070508Y-6182766D01*
X-1081227Y-6188659D01*
X-1093012Y-6197244D01*
X-1103630Y-6207201D01*
X-1112926Y-6218428D01*
X-1120698Y-6230670D01*
G37*
G36*
X-967790Y-6235192D02*
G01*
X-915517Y-6235192D01*
X-917600Y-6230670D01*
X-925423Y-6218428D01*
X-934669Y-6207201D01*
X-945286Y-6197244D01*
X-957071Y-6188659D01*
X-967790Y-6182766D01*
G37*
G36*
X435559Y-6235192D02*
G01*
X487832Y-6235192D01*
X485749Y-6230670D01*
X477926Y-6218428D01*
X468680Y-6207201D01*
X458063Y-6197244D01*
X446278Y-6188659D01*
X435559Y-6182766D01*
G37*
G36*
X-2819400Y-6130696D02*
G01*
X-2805226Y-6129782D01*
X-2791307Y-6127089D01*
X-2777794Y-6122619D01*
X-2764993Y-6116421D01*
X-2753106Y-6108700D01*
X-2742285Y-6099454D01*
X-2732735Y-6088938D01*
X-2724607Y-6077305D01*
X-2718003Y-6064707D01*
X-2713126Y-6051397D01*
X-2709926Y-6037529D01*
X-2708605Y-6023356D01*
X-2709011Y-6009182D01*
X-2711297Y-5995162D01*
X-2715361Y-5981547D01*
X-2721102Y-5968542D01*
X-2728468Y-5956401D01*
X-2737307Y-5945276D01*
X-2747518Y-5935370D01*
X-2758897Y-5926886D01*
X-2771292Y-5919927D01*
X-2784449Y-5914593D01*
X-2798216Y-5910986D01*
X-2812288Y-5909157D01*
X-2826512Y-5909157D01*
X-2840583Y-5910986D01*
X-2854350Y-5914593D01*
X-2867507Y-5919927D01*
X-2879902Y-5926886D01*
X-2891282Y-5935370D01*
X-2901492Y-5945276D01*
X-2910332Y-5956401D01*
X-2917698Y-5968542D01*
X-2923489Y-5981547D01*
X-2927502Y-5995162D01*
X-2929788Y-6009182D01*
X-2930245Y-6023356D01*
X-2928874Y-6037529D01*
X-2925724Y-6051397D01*
X-2920796Y-6064707D01*
X-2914243Y-6077305D01*
X-2906115Y-6088938D01*
X-2896565Y-6099454D01*
X-2885744Y-6108700D01*
X-2873806Y-6116421D01*
X-2861005Y-6122619D01*
X-2847543Y-6127089D01*
X-2833573Y-6129782D01*
G37*
G36*
X-505815Y-5913831D02*
G01*
X-491235Y-5913831D01*
X-476808Y-5912002D01*
X-462686Y-5908395D01*
X-449173Y-5903010D01*
X-436422Y-5896000D01*
X-424637Y-5887466D01*
X-414020Y-5877509D01*
X-404774Y-5866282D01*
X-396951Y-5853988D01*
X-390753Y-5840831D01*
X-386283Y-5826963D01*
X-383540Y-5812688D01*
X-382625Y-5798159D01*
X-383540Y-5783630D01*
X-386283Y-5769356D01*
X-390753Y-5755487D01*
X-396951Y-5742330D01*
X-404774Y-5730036D01*
X-414020Y-5718860D01*
X-424637Y-5708853D01*
X-436422Y-5700318D01*
X-449173Y-5693308D01*
X-462686Y-5687974D01*
X-476808Y-5684316D01*
X-491235Y-5682488D01*
X-505815Y-5682488D01*
X-520242Y-5684316D01*
X-534314Y-5687974D01*
X-547878Y-5693308D01*
X-560628Y-5700318D01*
X-572363Y-5708853D01*
X-582980Y-5718860D01*
X-592277Y-5730036D01*
X-600049Y-5742330D01*
X-606247Y-5755487D01*
X-610768Y-5769356D01*
X-613511Y-5783630D01*
X-614426Y-5798159D01*
X-613511Y-5812688D01*
X-610768Y-5826963D01*
X-606247Y-5840831D01*
X-600049Y-5853988D01*
X-592277Y-5866282D01*
X-582980Y-5877509D01*
X-572363Y-5887466D01*
X-560628Y-5896000D01*
X-547878Y-5903010D01*
X-534314Y-5908395D01*
X-520242Y-5912002D01*
G37*
G36*
X422859Y-5901944D02*
G01*
X433578Y-5896000D01*
X445363Y-5887466D01*
X455980Y-5877509D01*
X465226Y-5866282D01*
X473049Y-5853988D01*
X475132Y-5849518D01*
X422859Y-5849518D01*
G37*
G36*
X320141Y-5901944D02*
G01*
X320141Y-5849518D01*
X267817Y-5849518D01*
X269951Y-5853988D01*
X277723Y-5866282D01*
X287020Y-5877509D01*
X297637Y-5887466D01*
X309422Y-5896000D01*
G37*
G36*
X-967790Y-5901893D02*
G01*
X-957071Y-5896000D01*
X-945286Y-5887466D01*
X-934669Y-5877509D01*
X-925423Y-5866282D01*
X-917600Y-5853988D01*
X-915517Y-5849518D01*
X-967790Y-5849518D01*
G37*
G36*
X-2819400Y-5876696D02*
G01*
X-2805226Y-5875782D01*
X-2791307Y-5873089D01*
X-2777794Y-5868619D01*
X-2764993Y-5862421D01*
X-2753106Y-5854700D01*
X-2742285Y-5845454D01*
X-2732735Y-5834938D01*
X-2724607Y-5823305D01*
X-2718003Y-5810707D01*
X-2713126Y-5797397D01*
X-2709926Y-5783529D01*
X-2708605Y-5769356D01*
X-2709011Y-5755182D01*
X-2711297Y-5741162D01*
X-2715361Y-5727547D01*
X-2721102Y-5714542D01*
X-2728468Y-5702401D01*
X-2737307Y-5691276D01*
X-2747518Y-5681370D01*
X-2758897Y-5672886D01*
X-2771292Y-5665927D01*
X-2784449Y-5660593D01*
X-2798216Y-5656986D01*
X-2812288Y-5655157D01*
X-2826512Y-5655157D01*
X-2840583Y-5656986D01*
X-2854350Y-5660593D01*
X-2867507Y-5665927D01*
X-2879902Y-5672886D01*
X-2891282Y-5681370D01*
X-2901492Y-5691276D01*
X-2910332Y-5702401D01*
X-2917698Y-5714542D01*
X-2923489Y-5727547D01*
X-2927502Y-5741162D01*
X-2929788Y-5755182D01*
X-2930245Y-5769356D01*
X-2928874Y-5783529D01*
X-2925724Y-5797397D01*
X-2920796Y-5810707D01*
X-2914243Y-5823305D01*
X-2906115Y-5834938D01*
X-2896565Y-5845454D01*
X-2885744Y-5854700D01*
X-2873806Y-5862421D01*
X-2861005Y-5868619D01*
X-2847543Y-5873089D01*
X-2833573Y-5875782D01*
G37*
G36*
X1980844Y-5833211D02*
G01*
X1982165Y-5832602D01*
X1997710Y-5823254D01*
X2012188Y-5812383D01*
X2025446Y-5800090D01*
X2037435Y-5786475D01*
X2047900Y-5771743D01*
X2055317Y-5758688D01*
X1980844Y-5758688D01*
G37*
G36*
X1818132Y-5833008D02*
G01*
X1818132Y-5758688D01*
X1743760Y-5758688D01*
X1746402Y-5763971D01*
X1756156Y-5779262D01*
X1767382Y-5793435D01*
X1780032Y-5806440D01*
X1793951Y-5818022D01*
X1808937Y-5828131D01*
G37*
G36*
X267817Y-5746800D02*
G01*
X320141Y-5746800D01*
X320141Y-5694426D01*
X309422Y-5700318D01*
X297637Y-5708853D01*
X287020Y-5718860D01*
X277723Y-5730036D01*
X269951Y-5742330D01*
G37*
G36*
X422859Y-5746800D02*
G01*
X475132Y-5746800D01*
X473049Y-5742330D01*
X465226Y-5730036D01*
X455980Y-5718860D01*
X445363Y-5708853D01*
X433578Y-5700318D01*
X422859Y-5694426D01*
G37*
G36*
X-967790Y-5746800D02*
G01*
X-915517Y-5746800D01*
X-917600Y-5742330D01*
X-925423Y-5730036D01*
X-934669Y-5718810D01*
X-945286Y-5708853D01*
X-957071Y-5700318D01*
X-967790Y-5694426D01*
G37*
G36*
X-2819400Y-5622696D02*
G01*
X-2805226Y-5621782D01*
X-2791307Y-5619089D01*
X-2777794Y-5614619D01*
X-2764993Y-5608421D01*
X-2753106Y-5600700D01*
X-2742285Y-5591454D01*
X-2732735Y-5580938D01*
X-2724607Y-5569305D01*
X-2718003Y-5556707D01*
X-2713126Y-5543397D01*
X-2709926Y-5529529D01*
X-2708605Y-5515356D01*
X-2709011Y-5501182D01*
X-2711297Y-5487162D01*
X-2715361Y-5473547D01*
X-2721102Y-5460542D01*
X-2728468Y-5448401D01*
X-2737307Y-5437276D01*
X-2747518Y-5427370D01*
X-2758897Y-5418886D01*
X-2771292Y-5411927D01*
X-2784449Y-5406593D01*
X-2798216Y-5402986D01*
X-2812288Y-5401157D01*
X-2826512Y-5401157D01*
X-2840583Y-5402986D01*
X-2854350Y-5406593D01*
X-2867507Y-5411927D01*
X-2879902Y-5418886D01*
X-2891282Y-5427370D01*
X-2901492Y-5437276D01*
X-2910332Y-5448401D01*
X-2917698Y-5460542D01*
X-2923489Y-5473547D01*
X-2927502Y-5487162D01*
X-2929788Y-5501182D01*
X-2930245Y-5515356D01*
X-2928874Y-5529529D01*
X-2925724Y-5543397D01*
X-2920796Y-5556707D01*
X-2914243Y-5569305D01*
X-2906115Y-5580938D01*
X-2896565Y-5591454D01*
X-2885744Y-5600700D01*
X-2873806Y-5608421D01*
X-2861005Y-5614619D01*
X-2847543Y-5619089D01*
X-2833573Y-5621782D01*
G37*
G36*
X1743760Y-5595975D02*
G01*
X1818132Y-5595975D01*
X1818132Y-5521655D01*
X1808937Y-5526532D01*
X1793951Y-5536641D01*
X1780032Y-5548223D01*
X1767382Y-5561228D01*
X1756156Y-5575401D01*
X1746402Y-5590692D01*
G37*
G36*
X1980844Y-5595975D02*
G01*
X2055317Y-5595975D01*
X2047900Y-5582920D01*
X2037435Y-5568188D01*
X2025446Y-5554573D01*
X2012188Y-5542280D01*
X1997710Y-5531408D01*
X1982165Y-5522061D01*
X1980844Y-5521452D01*
G37*
G36*
X-493115Y-5425440D02*
G01*
X-478535Y-5425440D01*
X-464108Y-5423611D01*
X-449986Y-5420004D01*
X-436473Y-5414670D01*
X-423722Y-5407660D01*
X-411937Y-5399074D01*
X-401320Y-5389118D01*
X-392074Y-5377942D01*
X-384251Y-5365648D01*
X-378053Y-5352440D01*
X-373583Y-5338622D01*
X-370840Y-5324348D01*
X-369925Y-5309819D01*
X-370840Y-5295290D01*
X-373583Y-5280964D01*
X-378053Y-5267147D01*
X-384251Y-5253990D01*
X-392074Y-5241696D01*
X-401320Y-5230469D01*
X-411937Y-5220512D01*
X-423722Y-5211978D01*
X-436473Y-5204968D01*
X-449986Y-5199583D01*
X-464108Y-5195976D01*
X-478535Y-5194147D01*
X-493115Y-5194147D01*
X-507542Y-5195976D01*
X-521614Y-5199583D01*
X-535178Y-5204968D01*
X-547928Y-5211978D01*
X-559663Y-5220512D01*
X-570280Y-5230469D01*
X-579577Y-5241696D01*
X-587349Y-5253990D01*
X-593547Y-5267147D01*
X-598068Y-5280964D01*
X-600811Y-5295290D01*
X-601726Y-5309819D01*
X-600811Y-5324348D01*
X-598068Y-5338622D01*
X-593547Y-5352440D01*
X-587349Y-5365648D01*
X-579577Y-5377942D01*
X-570280Y-5389118D01*
X-559663Y-5399074D01*
X-547928Y-5407660D01*
X-535178Y-5414670D01*
X-521614Y-5420004D01*
X-507542Y-5423611D01*
G37*
G36*
X376936Y-5425440D02*
G01*
X391464Y-5425440D01*
X405892Y-5423611D01*
X420014Y-5420004D01*
X433527Y-5414670D01*
X446278Y-5407660D01*
X458063Y-5399074D01*
X468680Y-5389118D01*
X477926Y-5377942D01*
X485749Y-5365648D01*
X491947Y-5352440D01*
X496417Y-5338622D01*
X499160Y-5324348D01*
X500075Y-5309819D01*
X499160Y-5295290D01*
X496417Y-5280964D01*
X491947Y-5267147D01*
X485749Y-5253990D01*
X477926Y-5241696D01*
X468680Y-5230469D01*
X458063Y-5220512D01*
X446278Y-5211978D01*
X433527Y-5204968D01*
X420014Y-5199583D01*
X405892Y-5195976D01*
X391464Y-5194147D01*
X376936Y-5194147D01*
X362458Y-5195976D01*
X348386Y-5199583D01*
X334873Y-5204968D01*
X322122Y-5211978D01*
X310337Y-5220512D01*
X299720Y-5230469D01*
X290423Y-5241696D01*
X282651Y-5253990D01*
X276453Y-5267147D01*
X271932Y-5280964D01*
X269240Y-5295290D01*
X268325Y-5309819D01*
X269240Y-5324348D01*
X271932Y-5338622D01*
X276453Y-5352440D01*
X282651Y-5365648D01*
X290423Y-5377942D01*
X299720Y-5389118D01*
X310337Y-5399074D01*
X322122Y-5407660D01*
X334873Y-5414670D01*
X348386Y-5420004D01*
X362458Y-5423611D01*
G37*
G36*
X-1896465Y-5425440D02*
G01*
X-1881886Y-5425440D01*
X-1867458Y-5423662D01*
X-1853336Y-5420004D01*
X-1839823Y-5414670D01*
X-1827072Y-5407660D01*
X-1815287Y-5399074D01*
X-1804670Y-5389118D01*
X-1795424Y-5377942D01*
X-1787601Y-5365648D01*
X-1781403Y-5352440D01*
X-1776933Y-5338622D01*
X-1774189Y-5324348D01*
X-1773275Y-5309819D01*
X-1774189Y-5295290D01*
X-1776933Y-5280964D01*
X-1781403Y-5267147D01*
X-1787601Y-5253990D01*
X-1795424Y-5241696D01*
X-1804670Y-5230469D01*
X-1815287Y-5220512D01*
X-1827072Y-5211978D01*
X-1839823Y-5204968D01*
X-1853336Y-5199583D01*
X-1867458Y-5195976D01*
X-1881886Y-5194147D01*
X-1896465Y-5194147D01*
X-1910892Y-5195976D01*
X-1924964Y-5199583D01*
X-1938528Y-5204968D01*
X-1951278Y-5211978D01*
X-1963013Y-5220512D01*
X-1973630Y-5230469D01*
X-1982927Y-5241696D01*
X-1990699Y-5253990D01*
X-1996897Y-5267147D01*
X-2001418Y-5280964D01*
X-2004161Y-5295290D01*
X-2005075Y-5309819D01*
X-2004161Y-5324348D01*
X-2001418Y-5338622D01*
X-1996897Y-5352440D01*
X-1990699Y-5365648D01*
X-1982927Y-5377942D01*
X-1973630Y-5389118D01*
X-1963013Y-5399074D01*
X-1951278Y-5407660D01*
X-1938528Y-5414670D01*
X-1924964Y-5420004D01*
X-1910892Y-5423662D01*
G37*
G36*
X-2770581Y-5368747D02*
G01*
X-2734970Y-5368747D01*
X-2728671Y-5368036D01*
X-2723184Y-5366105D01*
X-2718308Y-5363006D01*
X-2714193Y-5358942D01*
X-2711145Y-5354015D01*
X-2709214Y-5348579D01*
X-2708503Y-5342229D01*
X-2708503Y-5306669D01*
X-2770581Y-5306669D01*
G37*
G36*
X-2903829Y-5368747D02*
G01*
X-2868269Y-5368747D01*
X-2868269Y-5306669D01*
X-2930296Y-5306669D01*
X-2930296Y-5342229D01*
X-2929585Y-5348579D01*
X-2927705Y-5354015D01*
X-2924606Y-5358942D01*
X-2920542Y-5363006D01*
X-2915615Y-5366105D01*
X-2910179Y-5368036D01*
G37*
G36*
X-2770581Y-5208981D02*
G01*
X-2708503Y-5208981D01*
X-2708503Y-5173370D01*
X-2709214Y-5167071D01*
X-2711145Y-5161584D01*
X-2714193Y-5156708D01*
X-2718308Y-5152593D01*
X-2723184Y-5149545D01*
X-2728671Y-5147614D01*
X-2734970Y-5146903D01*
X-2770581Y-5146903D01*
G37*
G36*
X-2930296Y-5208981D02*
G01*
X-2868269Y-5208981D01*
X-2868269Y-5146903D01*
X-2903829Y-5146903D01*
X-2910179Y-5147614D01*
X-2915615Y-5149545D01*
X-2920542Y-5152593D01*
X-2924606Y-5156708D01*
X-2927705Y-5161584D01*
X-2929585Y-5167071D01*
X-2930296Y-5173370D01*
G37*
G36*
X376936Y-4937099D02*
G01*
X391464Y-4937099D01*
X405892Y-4935270D01*
X420014Y-4931664D01*
X433527Y-4926279D01*
X446278Y-4919268D01*
X458063Y-4910734D01*
X468680Y-4900777D01*
X477926Y-4889550D01*
X485749Y-4877257D01*
X491947Y-4864100D01*
X496417Y-4850282D01*
X499160Y-4835956D01*
X500075Y-4821428D01*
X499160Y-4806899D01*
X496417Y-4792624D01*
X491947Y-4778756D01*
X485749Y-4765598D01*
X477926Y-4753305D01*
X468680Y-4742129D01*
X458063Y-4732172D01*
X446278Y-4723587D01*
X433527Y-4716576D01*
X420014Y-4711242D01*
X405892Y-4707585D01*
X391464Y-4705756D01*
X376936Y-4705756D01*
X362458Y-4707585D01*
X348386Y-4711242D01*
X340410Y-4714392D01*
X336550Y-4715103D01*
X332740Y-4714290D01*
X329488Y-4712106D01*
X-131521Y-4251147D01*
X-133705Y-4247845D01*
X-134467Y-4243933D01*
X-133705Y-4240072D01*
X-131521Y-4236770D01*
X-128219Y-4234586D01*
X-124307Y-4233773D01*
X87782Y-4233773D01*
X95808Y-4233011D01*
X103073Y-4230827D01*
X109728Y-4227271D01*
X115976Y-4222140D01*
X256641Y-4081475D01*
X261721Y-4075226D01*
X265277Y-4068572D01*
X267512Y-4061358D01*
X268274Y-4053332D01*
X268274Y-3920794D01*
X269036Y-3916883D01*
X271272Y-3913632D01*
X274574Y-3911396D01*
X278434Y-3910634D01*
X4530902Y-3910634D01*
X4538929Y-3909822D01*
X4546142Y-3907637D01*
X4552797Y-3904081D01*
X4559046Y-3898950D01*
X5679186Y-2778810D01*
X5682742Y-2776524D01*
X5686856Y-2775864D01*
X5690920Y-2776931D01*
X5695289Y-2779115D01*
X5710123Y-2784500D01*
X5725515Y-2788158D01*
X5741212Y-2789986D01*
X5757011Y-2789986D01*
X5772708Y-2788158D01*
X5788050Y-2784500D01*
X5802934Y-2779115D01*
X5817057Y-2772003D01*
X5830214Y-2763316D01*
X5842355Y-2753156D01*
X5853176Y-2741676D01*
X5862624Y-2728976D01*
X5870549Y-2715310D01*
X5876798Y-2700782D01*
X5881319Y-2685643D01*
X5884062Y-2670098D01*
X5884976Y-2654300D01*
X5884062Y-2638552D01*
X5881319Y-2623007D01*
X5876798Y-2607868D01*
X5870549Y-2593340D01*
X5862624Y-2579674D01*
X5853176Y-2566974D01*
X5842355Y-2555494D01*
X5830214Y-2545334D01*
X5817057Y-2536647D01*
X5802934Y-2529535D01*
X5788050Y-2524150D01*
X5772708Y-2520492D01*
X5757011Y-2518664D01*
X5741212Y-2518664D01*
X5725515Y-2520492D01*
X5710123Y-2524150D01*
X5695289Y-2529535D01*
X5681167Y-2536647D01*
X5667959Y-2545334D01*
X5655818Y-2555494D01*
X5644997Y-2566974D01*
X5635548Y-2579674D01*
X5627674Y-2593340D01*
X5621375Y-2607868D01*
X5616854Y-2623007D01*
X5614111Y-2638552D01*
X5613196Y-2654300D01*
X5614111Y-2670098D01*
X5616854Y-2685643D01*
X5621375Y-2700782D01*
X5626709Y-2713075D01*
X5627522Y-2716987D01*
X5626760Y-2720949D01*
X5624525Y-2724251D01*
X4518355Y-3830421D01*
X4515104Y-3832656D01*
X4511192Y-3833418D01*
X-21894Y-3833418D01*
X-29870Y-3834231D01*
X-37134Y-3836415D01*
X-43789Y-3839972D01*
X-50038Y-3845051D01*
X-89814Y-3884828D01*
X-93116Y-3887063D01*
X-97028Y-3887825D01*
X-100939Y-3887012D01*
X-108153Y-3883964D01*
X-122478Y-3879900D01*
X-137160Y-3877614D01*
X-152044Y-3877157D01*
X-166878Y-3878529D01*
X-181406Y-3881729D01*
X-195478Y-3886657D01*
X-208788Y-3893312D01*
X-221183Y-3901490D01*
X-232511Y-3911193D01*
X-242519Y-3922217D01*
X-251104Y-3934358D01*
X-258165Y-3947464D01*
X-263550Y-3961384D01*
X-265379Y-3968546D01*
X-267360Y-3972407D01*
X-270713Y-3975150D01*
X-274929Y-3976166D01*
X-279196Y-3975354D01*
X-282752Y-3972864D01*
X-284937Y-3969105D01*
X-289610Y-3954322D01*
X-295859Y-3940810D01*
X-303682Y-3928160D01*
X-312978Y-3916527D01*
X-323697Y-3906164D01*
X-335584Y-3897223D01*
X-348437Y-3889756D01*
X-362153Y-3883964D01*
X-376478Y-3879900D01*
X-391160Y-3877614D01*
X-406044Y-3877157D01*
X-420878Y-3878529D01*
X-435406Y-3881729D01*
X-449478Y-3886657D01*
X-462788Y-3893312D01*
X-475183Y-3901490D01*
X-486511Y-3911193D01*
X-496519Y-3922217D01*
X-505104Y-3934358D01*
X-512165Y-3947464D01*
X-517550Y-3961384D01*
X-519379Y-3968546D01*
X-521360Y-3972407D01*
X-524713Y-3975150D01*
X-528929Y-3976166D01*
X-533196Y-3975354D01*
X-536752Y-3972864D01*
X-538937Y-3969105D01*
X-543610Y-3954322D01*
X-549859Y-3940810D01*
X-557682Y-3928160D01*
X-566978Y-3916527D01*
X-577697Y-3906164D01*
X-589584Y-3897223D01*
X-602437Y-3889756D01*
X-616153Y-3883964D01*
X-630478Y-3879900D01*
X-645160Y-3877614D01*
X-660044Y-3877157D01*
X-674878Y-3878529D01*
X-689406Y-3881729D01*
X-703478Y-3886657D01*
X-716788Y-3893312D01*
X-729183Y-3901490D01*
X-740511Y-3911193D01*
X-750519Y-3922217D01*
X-759104Y-3934358D01*
X-766165Y-3947464D01*
X-771550Y-3961384D01*
X-773379Y-3968546D01*
X-775360Y-3972407D01*
X-778713Y-3975150D01*
X-782929Y-3976166D01*
X-787196Y-3975354D01*
X-790752Y-3972864D01*
X-792937Y-3969105D01*
X-797610Y-3954322D01*
X-803859Y-3940810D01*
X-811682Y-3928160D01*
X-820978Y-3916527D01*
X-831697Y-3906164D01*
X-843584Y-3897223D01*
X-856437Y-3889756D01*
X-870153Y-3883964D01*
X-884478Y-3879900D01*
X-894435Y-3878326D01*
X-898601Y-3876751D01*
X-901649Y-3873500D01*
X-903020Y-3869283D01*
X-902462Y-3864864D01*
X-900074Y-3861104D01*
X-859180Y-3820210D01*
X-855878Y-3818026D01*
X-851966Y-3817213D01*
X-549351Y-3817213D01*
X-545439Y-3818026D01*
X-542188Y-3820210D01*
X-540562Y-3821785D01*
X-532536Y-3827424D01*
X-523595Y-3831590D01*
X-514146Y-3834129D01*
X-504342Y-3834993D01*
X-494538Y-3834129D01*
X-485038Y-3831590D01*
X-476148Y-3827424D01*
X-468122Y-3821785D01*
X-461162Y-3814876D01*
X-455523Y-3806799D01*
X-451358Y-3797909D01*
X-448818Y-3788410D01*
X-447954Y-3778605D01*
X-448818Y-3768851D01*
X-451358Y-3759352D01*
X-455523Y-3750462D01*
X-461162Y-3742385D01*
X-468122Y-3735425D01*
X-476148Y-3729786D01*
X-485038Y-3725672D01*
X-494538Y-3723132D01*
X-504342Y-3722268D01*
X-514146Y-3723132D01*
X-523595Y-3725672D01*
X-532536Y-3729786D01*
X-540562Y-3735425D01*
X-542188Y-3737051D01*
X-545439Y-3739235D01*
X-549351Y-3739997D01*
X-871677Y-3739997D01*
X-879703Y-3740810D01*
X-886917Y-3742994D01*
X-893622Y-3746550D01*
X-899820Y-3751681D01*
X-1060399Y-3912260D01*
X-1061821Y-3913987D01*
X-1065072Y-3916578D01*
X-1069086Y-3917696D01*
X-1073251Y-3917086D01*
X-1076756Y-3914851D01*
X-1085697Y-3906164D01*
X-1097584Y-3897223D01*
X-1110437Y-3889756D01*
X-1124153Y-3883964D01*
X-1138478Y-3879900D01*
X-1153160Y-3877614D01*
X-1168044Y-3877157D01*
X-1182878Y-3878529D01*
X-1197406Y-3881729D01*
X-1211478Y-3886657D01*
X-1224788Y-3893312D01*
X-1237183Y-3901490D01*
X-1248511Y-3911193D01*
X-1258519Y-3922217D01*
X-1267104Y-3934358D01*
X-1274165Y-3947464D01*
X-1279550Y-3961384D01*
X-1281379Y-3968546D01*
X-1283360Y-3972407D01*
X-1286713Y-3975150D01*
X-1290929Y-3976166D01*
X-1295196Y-3975354D01*
X-1298752Y-3972864D01*
X-1300937Y-3969105D01*
X-1305610Y-3954322D01*
X-1311859Y-3940810D01*
X-1319682Y-3928160D01*
X-1328978Y-3916527D01*
X-1339697Y-3906164D01*
X-1351584Y-3897223D01*
X-1364437Y-3889756D01*
X-1378153Y-3883964D01*
X-1392478Y-3879900D01*
X-1407160Y-3877614D01*
X-1422044Y-3877157D01*
X-1436878Y-3878529D01*
X-1451406Y-3881729D01*
X-1465478Y-3886657D01*
X-1478788Y-3893312D01*
X-1491183Y-3901490D01*
X-1502511Y-3911193D01*
X-1512519Y-3922217D01*
X-1521104Y-3934358D01*
X-1528165Y-3947464D01*
X-1533550Y-3961333D01*
X-1537157Y-3975760D01*
X-1538986Y-3990543D01*
X-1538986Y-4005427D01*
X-1537157Y-4020210D01*
X-1533550Y-4034637D01*
X-1528165Y-4048506D01*
X-1521104Y-4061612D01*
X-1512519Y-4073753D01*
X-1502511Y-4084777D01*
X-1491183Y-4094429D01*
X-1478788Y-4102658D01*
X-1465478Y-4109313D01*
X-1451406Y-4114241D01*
X-1436878Y-4117441D01*
X-1422044Y-4118813D01*
X-1407160Y-4118356D01*
X-1392478Y-4116070D01*
X-1378153Y-4112006D01*
X-1370939Y-4108958D01*
X-1367028Y-4108145D01*
X-1363116Y-4108907D01*
X-1359814Y-4111091D01*
X-1174191Y-4296714D01*
X-1167993Y-4301845D01*
X-1161288Y-4305401D01*
X-1154074Y-4307586D01*
X-1146048Y-4308348D01*
X-187655Y-4308348D01*
X-183794Y-4309160D01*
X-180492Y-4311345D01*
X274777Y-4766614D01*
X277012Y-4770018D01*
X277723Y-4774082D01*
X276453Y-4778756D01*
X271932Y-4792624D01*
X269240Y-4806899D01*
X268325Y-4821428D01*
X269240Y-4835956D01*
X271932Y-4850282D01*
X276453Y-4864100D01*
X282651Y-4877257D01*
X290423Y-4889550D01*
X299720Y-4900777D01*
X310337Y-4910734D01*
X322122Y-4919268D01*
X334873Y-4926279D01*
X348386Y-4931664D01*
X362458Y-4935270D01*
G37*
G36*
X6817766Y-4432808D02*
G01*
X8213598Y-4432808D01*
X8219948Y-4432096D01*
X8225383Y-4430217D01*
X8230311Y-4427118D01*
X8234375Y-4423054D01*
X8237474Y-4418126D01*
X8239404Y-4412691D01*
X8240115Y-4406341D01*
X8240115Y-4001109D01*
X8239404Y-3994759D01*
X8237474Y-3989324D01*
X8234375Y-3984396D01*
X8230311Y-3980332D01*
X8225383Y-3977233D01*
X8219948Y-3975303D01*
X8213598Y-3974592D01*
X6817766Y-3974592D01*
X6811416Y-3975303D01*
X6805980Y-3977233D01*
X6801053Y-3980332D01*
X6796989Y-3984396D01*
X6793890Y-3989324D01*
X6792010Y-3994759D01*
X6791299Y-4001109D01*
X6791299Y-4406341D01*
X6792010Y-4412691D01*
X6793890Y-4418126D01*
X6796989Y-4423054D01*
X6801053Y-4427118D01*
X6805980Y-4430217D01*
X6811416Y-4432096D01*
G37*
G36*
X-1618589Y-4106265D02*
G01*
X-1605584Y-4098747D01*
X-1593697Y-4089806D01*
X-1582978Y-4079443D01*
X-1573682Y-4067810D01*
X-1565859Y-4055160D01*
X-1564284Y-4051808D01*
X-1618488Y-4051808D01*
G37*
G36*
X-1618488Y-3944112D02*
G01*
X-1564284Y-3944112D01*
X-1565859Y-3940810D01*
X-1573682Y-3928160D01*
X-1582978Y-3916527D01*
X-1593697Y-3906164D01*
X-1605584Y-3897223D01*
X-1618488Y-3889756D01*
G37*
G36*
X-533044Y-3610813D02*
G01*
X-518159Y-3610356D01*
X-503478Y-3608070D01*
X-489153Y-3604006D01*
X-475437Y-3598214D01*
X-462584Y-3590747D01*
X-450697Y-3581806D01*
X-439978Y-3571443D01*
X-430682Y-3559810D01*
X-422859Y-3547160D01*
X-416610Y-3533648D01*
X-411886Y-3518763D01*
X-409701Y-3515004D01*
X-406196Y-3512515D01*
X-401878Y-3511702D01*
X-397662Y-3512769D01*
X-394309Y-3515461D01*
X-392379Y-3519373D01*
X-390550Y-3526637D01*
X-385165Y-3540506D01*
X-378104Y-3553612D01*
X-369519Y-3565753D01*
X-359511Y-3576777D01*
X-348183Y-3586429D01*
X-335788Y-3594658D01*
X-322478Y-3601313D01*
X-308406Y-3606241D01*
X-293878Y-3609441D01*
X-279044Y-3610813D01*
X-264160Y-3610356D01*
X-249478Y-3608070D01*
X-235153Y-3604006D01*
X-221437Y-3598214D01*
X-208584Y-3590747D01*
X-196697Y-3581806D01*
X-185978Y-3571443D01*
X-176682Y-3559810D01*
X-168859Y-3547160D01*
X-162610Y-3533648D01*
X-157886Y-3518763D01*
X-155702Y-3515004D01*
X-152196Y-3512515D01*
X-147878Y-3511702D01*
X-143662Y-3512769D01*
X-140309Y-3515461D01*
X-138379Y-3519373D01*
X-136550Y-3526637D01*
X-131165Y-3540506D01*
X-124104Y-3553612D01*
X-115519Y-3565753D01*
X-105511Y-3576777D01*
X-94183Y-3586429D01*
X-81788Y-3594658D01*
X-68478Y-3601313D01*
X-54406Y-3606241D01*
X-39878Y-3609441D01*
X-25044Y-3610813D01*
X-10160Y-3610356D01*
X4521Y-3608070D01*
X18846Y-3604006D01*
X32562Y-3598214D01*
X45415Y-3590747D01*
X57302Y-3581806D01*
X68021Y-3571443D01*
X77317Y-3559810D01*
X85140Y-3547160D01*
X90982Y-3534511D01*
X93218Y-3531362D01*
X96469Y-3529329D01*
X100228Y-3528568D01*
X4412945Y-3528568D01*
X4420971Y-3527806D01*
X4428185Y-3525621D01*
X4434840Y-3522065D01*
X4441088Y-3516934D01*
X5179212Y-2778810D01*
X5182717Y-2776524D01*
X5186883Y-2775864D01*
X5190947Y-2776931D01*
X5195265Y-2779115D01*
X5210098Y-2784500D01*
X5225491Y-2788158D01*
X5241188Y-2789986D01*
X5256987Y-2789986D01*
X5272684Y-2788158D01*
X5288076Y-2784500D01*
X5302910Y-2779115D01*
X5317032Y-2772003D01*
X5330240Y-2763316D01*
X5342331Y-2753156D01*
X5353202Y-2741676D01*
X5362600Y-2728976D01*
X5370525Y-2715310D01*
X5376773Y-2700782D01*
X5381294Y-2685643D01*
X5384038Y-2670098D01*
X5385003Y-2654300D01*
X5384038Y-2638552D01*
X5381294Y-2623007D01*
X5376773Y-2607868D01*
X5370525Y-2593340D01*
X5362600Y-2579674D01*
X5353202Y-2566974D01*
X5342331Y-2555494D01*
X5330240Y-2545334D01*
X5317032Y-2536647D01*
X5302910Y-2529535D01*
X5288076Y-2524150D01*
X5272684Y-2520492D01*
X5256987Y-2518664D01*
X5241188Y-2518664D01*
X5225491Y-2520492D01*
X5210098Y-2524150D01*
X5195265Y-2529535D01*
X5181142Y-2536647D01*
X5167934Y-2545334D01*
X5155844Y-2555494D01*
X5144973Y-2566974D01*
X5135575Y-2579674D01*
X5127650Y-2593340D01*
X5121402Y-2607868D01*
X5116880Y-2623007D01*
X5114137Y-2638552D01*
X5113223Y-2654300D01*
X5114137Y-2670098D01*
X5116880Y-2685643D01*
X5121402Y-2700782D01*
X5126685Y-2713075D01*
X5127498Y-2716987D01*
X5126786Y-2720949D01*
X5124551Y-2724251D01*
X4400397Y-3448405D01*
X4397146Y-3450590D01*
X4393234Y-3451351D01*
X100228Y-3451351D01*
X96469Y-3450640D01*
X93218Y-3448558D01*
X90982Y-3445459D01*
X85140Y-3432810D01*
X77317Y-3420160D01*
X68021Y-3408527D01*
X57302Y-3398164D01*
X45415Y-3389223D01*
X32562Y-3381756D01*
X18846Y-3375964D01*
X4521Y-3371900D01*
X-10160Y-3369614D01*
X-25044Y-3369157D01*
X-39878Y-3370529D01*
X-54406Y-3373729D01*
X-68478Y-3378657D01*
X-81788Y-3385312D01*
X-94183Y-3393490D01*
X-105511Y-3403193D01*
X-115519Y-3414217D01*
X-124104Y-3426358D01*
X-131165Y-3439464D01*
X-136550Y-3453384D01*
X-138379Y-3460546D01*
X-140360Y-3464407D01*
X-143713Y-3467150D01*
X-147929Y-3468166D01*
X-152196Y-3467354D01*
X-155752Y-3464864D01*
X-157937Y-3461105D01*
X-162610Y-3446322D01*
X-168859Y-3432810D01*
X-176682Y-3420160D01*
X-185978Y-3408527D01*
X-196697Y-3398164D01*
X-208584Y-3389223D01*
X-221437Y-3381756D01*
X-235153Y-3375964D01*
X-249478Y-3371900D01*
X-264160Y-3369614D01*
X-279044Y-3369157D01*
X-293878Y-3370529D01*
X-308406Y-3373729D01*
X-322478Y-3378657D01*
X-335788Y-3385312D01*
X-348183Y-3393490D01*
X-359511Y-3403193D01*
X-369519Y-3414217D01*
X-378104Y-3426358D01*
X-385165Y-3439464D01*
X-390550Y-3453384D01*
X-392379Y-3460546D01*
X-394360Y-3464407D01*
X-397713Y-3467150D01*
X-401929Y-3468166D01*
X-406196Y-3467354D01*
X-409752Y-3464864D01*
X-411937Y-3461105D01*
X-416610Y-3446322D01*
X-422859Y-3432810D01*
X-430682Y-3420160D01*
X-439978Y-3408527D01*
X-450697Y-3398164D01*
X-462584Y-3389223D01*
X-475437Y-3381756D01*
X-489153Y-3375964D01*
X-503478Y-3371900D01*
X-518159Y-3369614D01*
X-533044Y-3369157D01*
X-547878Y-3370529D01*
X-562406Y-3373729D01*
X-576478Y-3378657D01*
X-589788Y-3385312D01*
X-602183Y-3393490D01*
X-613511Y-3403193D01*
X-623519Y-3414217D01*
X-632104Y-3426358D01*
X-639165Y-3439464D01*
X-644550Y-3453333D01*
X-648157Y-3467760D01*
X-649986Y-3482543D01*
X-649986Y-3497427D01*
X-648157Y-3512210D01*
X-644550Y-3526637D01*
X-639165Y-3540506D01*
X-632104Y-3553612D01*
X-623519Y-3565753D01*
X-613511Y-3576777D01*
X-602183Y-3586429D01*
X-589788Y-3594658D01*
X-576478Y-3601313D01*
X-562406Y-3606241D01*
X-547878Y-3609441D01*
G37*
G36*
X-729589Y-3598265D02*
G01*
X-716584Y-3590747D01*
X-704697Y-3581806D01*
X-693978Y-3571443D01*
X-684682Y-3559810D01*
X-676859Y-3547160D01*
X-675284Y-3543808D01*
X-729488Y-3543808D01*
G37*
G36*
X-837184Y-3597960D02*
G01*
X-837184Y-3543808D01*
X-891387Y-3543808D01*
X-886104Y-3553612D01*
X-877519Y-3565753D01*
X-867511Y-3576777D01*
X-856183Y-3586429D01*
X-843787Y-3594658D01*
G37*
G36*
X-891387Y-3436112D02*
G01*
X-837184Y-3436112D01*
X-837184Y-3382010D01*
X-843787Y-3385312D01*
X-856183Y-3393490D01*
X-867511Y-3403193D01*
X-877519Y-3414217D01*
X-886104Y-3426358D01*
G37*
G36*
X-729488Y-3436112D02*
G01*
X-675284Y-3436112D01*
X-676859Y-3432810D01*
X-684682Y-3420160D01*
X-693978Y-3408527D01*
X-704697Y-3398164D01*
X-716584Y-3389223D01*
X-729488Y-3381756D01*
G37*
G36*
X359664Y-3124657D02*
G01*
X379933Y-3124200D01*
X400100Y-3121812D01*
X419912Y-3117545D01*
X439267Y-3111500D01*
X457962Y-3103626D01*
X475843Y-3094024D01*
X492759Y-3082798D01*
X508558Y-3070047D01*
X523036Y-3055874D01*
X536143Y-3040380D01*
X547776Y-3023768D01*
X557784Y-3006090D01*
X566115Y-2987598D01*
X572617Y-2968396D01*
X577342Y-2948686D01*
X580186Y-2928569D01*
X581152Y-2908300D01*
X580186Y-2888081D01*
X577342Y-2867964D01*
X572617Y-2848254D01*
X566115Y-2829052D01*
X557784Y-2810510D01*
X547776Y-2792882D01*
X536143Y-2776270D01*
X523036Y-2760776D01*
X508558Y-2746603D01*
X492759Y-2733852D01*
X475843Y-2722626D01*
X457962Y-2713024D01*
X439267Y-2705150D01*
X419912Y-2699105D01*
X400100Y-2694838D01*
X379933Y-2692450D01*
X359664Y-2691993D01*
X339445Y-2693416D01*
X319430Y-2696718D01*
X299821Y-2701899D01*
X280771Y-2708910D01*
X262432Y-2717647D01*
X245059Y-2728061D01*
X228701Y-2740050D01*
X213512Y-2753512D01*
X199694Y-2768346D01*
X187299Y-2784449D01*
X176479Y-2801569D01*
X167335Y-2819704D01*
X159918Y-2838551D01*
X154279Y-2858058D01*
X150469Y-2877972D01*
X148590Y-2898190D01*
X148590Y-2918460D01*
X150469Y-2938678D01*
X154279Y-2958592D01*
X159918Y-2978099D01*
X167335Y-2996946D01*
X176479Y-3015030D01*
X187299Y-3032201D01*
X199694Y-3048304D01*
X213512Y-3063138D01*
X228701Y-3076600D01*
X245059Y-3088589D01*
X262432Y-3099003D01*
X280771Y-3107740D01*
X299821Y-3114751D01*
X319430Y-3119932D01*
X339445Y-3123234D01*
G37*
G36*
X-1926336Y-3124657D02*
G01*
X-1906066Y-3124200D01*
X-1885899Y-3121812D01*
X-1866087Y-3117545D01*
X-1846732Y-3111500D01*
X-1828038Y-3103626D01*
X-1810156Y-3094024D01*
X-1793239Y-3082798D01*
X-1777441Y-3070047D01*
X-1762963Y-3055874D01*
X-1749856Y-3040380D01*
X-1738223Y-3023768D01*
X-1728216Y-3006090D01*
X-1719884Y-2987598D01*
X-1713382Y-2968396D01*
X-1708657Y-2948686D01*
X-1705813Y-2928569D01*
X-1704848Y-2908300D01*
X-1705813Y-2888081D01*
X-1708657Y-2867964D01*
X-1713382Y-2848254D01*
X-1719884Y-2829052D01*
X-1728216Y-2810510D01*
X-1738223Y-2792882D01*
X-1749856Y-2776270D01*
X-1762963Y-2760776D01*
X-1777441Y-2746603D01*
X-1793239Y-2733852D01*
X-1810156Y-2722626D01*
X-1828038Y-2713024D01*
X-1846732Y-2705150D01*
X-1866087Y-2699105D01*
X-1885899Y-2694838D01*
X-1906066Y-2692450D01*
X-1926336Y-2691993D01*
X-1946554Y-2693416D01*
X-1966569Y-2696718D01*
X-1986178Y-2701899D01*
X-2005228Y-2708910D01*
X-2023567Y-2717647D01*
X-2040940Y-2728061D01*
X-2057298Y-2740050D01*
X-2072487Y-2753512D01*
X-2086305Y-2768346D01*
X-2098700Y-2784449D01*
X-2109520Y-2801569D01*
X-2118664Y-2819704D01*
X-2126081Y-2838551D01*
X-2131720Y-2858058D01*
X-2135530Y-2877972D01*
X-2137410Y-2898190D01*
X-2137410Y-2918460D01*
X-2135530Y-2938678D01*
X-2131720Y-2958592D01*
X-2126081Y-2978099D01*
X-2118664Y-2996946D01*
X-2109520Y-3015030D01*
X-2098700Y-3032201D01*
X-2086305Y-3048304D01*
X-2072487Y-3063138D01*
X-2057298Y-3076600D01*
X-2040940Y-3088589D01*
X-2023567Y-3099003D01*
X-2005228Y-3107740D01*
X-1986178Y-3114751D01*
X-1966569Y-3119932D01*
X-1946554Y-3123234D01*
G37*

%LPD*%
G36*
X-1009243Y-4231132D02*
G01*
X-1013053Y-4230420D01*
X-1016355Y-4228287D01*
X-1018540Y-4225036D01*
X-1019403Y-4221226D01*
X-1018743Y-4217416D01*
X-1016711Y-4214063D01*
X-1013561Y-4211777D01*
X-1005281Y-4207916D01*
X-997254Y-4202277D01*
X-990295Y-4195368D01*
X-984656Y-4187291D01*
X-980490Y-4178401D01*
X-977950Y-4168901D01*
X-977087Y-4159097D01*
X-977950Y-4149344D01*
X-980490Y-4139844D01*
X-984656Y-4130954D01*
X-990295Y-4122877D01*
X-991869Y-4121302D01*
X-994105Y-4118000D01*
X-994867Y-4114088D01*
X-994867Y-4105656D01*
X-993952Y-4101388D01*
X-991311Y-4097934D01*
X-987501Y-4095851D01*
X-983132Y-4095597D01*
X-979068Y-4097172D01*
X-970787Y-4102658D01*
X-957478Y-4109313D01*
X-943406Y-4114241D01*
X-928878Y-4117441D01*
X-914044Y-4118813D01*
X-899160Y-4118356D01*
X-884478Y-4116070D01*
X-870153Y-4112006D01*
X-856437Y-4106214D01*
X-843584Y-4098747D01*
X-831697Y-4089806D01*
X-820978Y-4079443D01*
X-811682Y-4067810D01*
X-803859Y-4055160D01*
X-797610Y-4041648D01*
X-792886Y-4026763D01*
X-790702Y-4023004D01*
X-787196Y-4020515D01*
X-782878Y-4019702D01*
X-778662Y-4020769D01*
X-775309Y-4023461D01*
X-773379Y-4027373D01*
X-771550Y-4034637D01*
X-766165Y-4048506D01*
X-759104Y-4061612D01*
X-750519Y-4073753D01*
X-740511Y-4084777D01*
X-729183Y-4094429D01*
X-716788Y-4102658D01*
X-703478Y-4109313D01*
X-689406Y-4114241D01*
X-674878Y-4117441D01*
X-660044Y-4118813D01*
X-645160Y-4118356D01*
X-630478Y-4116070D01*
X-616153Y-4112006D01*
X-602437Y-4106214D01*
X-589584Y-4098747D01*
X-577697Y-4089806D01*
X-566978Y-4079443D01*
X-557682Y-4067810D01*
X-549859Y-4055160D01*
X-543610Y-4041648D01*
X-538886Y-4026763D01*
X-536702Y-4023004D01*
X-533196Y-4020515D01*
X-528878Y-4019702D01*
X-524662Y-4020769D01*
X-521309Y-4023461D01*
X-519379Y-4027373D01*
X-517550Y-4034637D01*
X-512165Y-4048506D01*
X-505104Y-4061612D01*
X-496519Y-4073753D01*
X-486511Y-4084777D01*
X-475183Y-4094429D01*
X-462788Y-4102658D01*
X-449478Y-4109313D01*
X-435406Y-4114241D01*
X-420878Y-4117441D01*
X-406044Y-4118813D01*
X-391160Y-4118356D01*
X-376478Y-4116070D01*
X-362153Y-4112006D01*
X-348437Y-4106214D01*
X-335584Y-4098747D01*
X-323697Y-4089806D01*
X-312978Y-4079443D01*
X-303682Y-4067810D01*
X-295859Y-4055160D01*
X-289610Y-4041648D01*
X-284886Y-4026763D01*
X-282702Y-4023004D01*
X-279196Y-4020515D01*
X-274878Y-4019702D01*
X-270662Y-4020769D01*
X-267309Y-4023461D01*
X-265379Y-4027373D01*
X-263550Y-4034637D01*
X-258165Y-4048506D01*
X-251104Y-4061612D01*
X-242519Y-4073753D01*
X-232511Y-4084777D01*
X-221183Y-4094429D01*
X-208788Y-4102658D01*
X-195478Y-4109313D01*
X-181406Y-4114241D01*
X-166878Y-4117441D01*
X-152044Y-4118813D01*
X-137160Y-4118356D01*
X-122478Y-4116070D01*
X-108153Y-4112006D01*
X-94437Y-4106214D01*
X-81584Y-4098747D01*
X-69697Y-4089806D01*
X-58978Y-4079443D01*
X-49682Y-4067810D01*
X-41859Y-4055160D01*
X-35610Y-4041648D01*
X-31089Y-4027373D01*
X-28346Y-4012844D01*
X-27432Y-3997960D01*
X-28346Y-3983126D01*
X-31089Y-3968496D01*
X-35610Y-3954322D01*
X-37185Y-3950868D01*
X-38150Y-3946855D01*
X-37439Y-3942842D01*
X-35153Y-3939438D01*
X-9347Y-3913632D01*
X-6045Y-3911396D01*
X-2184Y-3910634D01*
X50Y-3910634D01*
X4318Y-3911600D01*
X7823Y-3914292D01*
X9855Y-3918204D01*
X10007Y-3922572D01*
X8331Y-3926687D01*
X2895Y-3934358D01*
X-2387Y-3944112D01*
X51816Y-3944112D01*
X51816Y-3920794D01*
X52578Y-3916883D01*
X54813Y-3913632D01*
X58064Y-3911396D01*
X61976Y-3910634D01*
X149352Y-3910634D01*
X153263Y-3911396D01*
X156514Y-3913632D01*
X158750Y-3916883D01*
X159512Y-3920794D01*
X159512Y-3944112D01*
X180898Y-3944112D01*
X184810Y-3944924D01*
X188112Y-3947109D01*
X190296Y-3950411D01*
X191058Y-3954272D01*
X191058Y-4033621D01*
X190296Y-4037482D01*
X188112Y-4040784D01*
X180035Y-4048861D01*
X176733Y-4051046D01*
X172872Y-4051808D01*
X159512Y-4051808D01*
X159512Y-4065168D01*
X158750Y-4069029D01*
X156514Y-4072331D01*
X75285Y-4153611D01*
X71983Y-4155795D01*
X68122Y-4156557D01*
X-710488Y-4156557D01*
X-714400Y-4155795D01*
X-717702Y-4153611D01*
X-719277Y-4151985D01*
X-727354Y-4146346D01*
X-736244Y-4142232D01*
X-745744Y-4139692D01*
X-755497Y-4138828D01*
X-765302Y-4139692D01*
X-774801Y-4142232D01*
X-783691Y-4146346D01*
X-791768Y-4151985D01*
X-798677Y-4158945D01*
X-804316Y-4167022D01*
X-808482Y-4175912D01*
X-811022Y-4185412D01*
X-811885Y-4195165D01*
X-811022Y-4204970D01*
X-808482Y-4214469D01*
X-807466Y-4216704D01*
X-806500Y-4220616D01*
X-807161Y-4224629D01*
X-809345Y-4228033D01*
X-812698Y-4230370D01*
X-816660Y-4231132D01*
G37*

%LPC*%
G36*
X51816Y-4105960D02*
G01*
X51816Y-4051808D01*
X-2387Y-4051808D01*
X2895Y-4061612D01*
X11480Y-4073753D01*
X21488Y-4084777D01*
X32816Y-4094429D01*
X45212Y-4102658D01*
G37*

%LPD*%
D10*
X-766452Y-10858500D02*
G01*
X-658324Y-10858500D01*
X-637141Y-10858550D02*
G01*
X-658274Y-10858550D01*
X-658324Y-10858500D01*
X1821934Y-12194895D02*
G01*
X1821934Y-12077700D01*
X1821934Y-12473178D02*
G01*
X1821934Y-12194895D01*
X2650177Y-12077700D02*
G01*
X2532981Y-12194895D01*
X1821934Y-12194895D01*
X2752539Y-12077700D02*
G01*
X2650177Y-12077700D01*
X1821934Y-12473178D02*
G01*
X2023584Y-12473178D01*
X2161506Y-12611100D01*
X1130317Y-12585700D02*
G01*
X1242839Y-12473178D01*
X1821934Y-12473178D01*
X-820503Y-10858500D02*
G01*
X-766452Y-10858500D01*
X-820503Y-10858500D02*
G01*
X-874580Y-10858500D01*
X-1092182Y-10350500D02*
G01*
X-1092182Y-10478617D01*
X-874580Y-10858500D02*
G01*
X-874580Y-10696219D01*
X-1092182Y-10478617D01*
X-504324Y-3778605D02*
G01*
X-872167Y-3778605D01*
X-1033457Y-3939895D01*
X-1033457Y-4159097D01*
X229684Y-3872001D02*
G01*
X-22359Y-3872001D01*
X-148318Y-3997960D01*
X5749104Y-2654300D02*
G01*
X4531403Y-3872001D01*
X229684Y-3872001D01*
X229684Y-3872001D02*
G01*
X229684Y-4053789D01*
X88308Y-4195165D01*
X-755505Y-4195165D01*
X-1889132Y-5798159D02*
G01*
X-1507523Y-5798159D01*
X-1019131Y-5309768D01*
X1009566Y-7375194D02*
G01*
X570273Y-7375194D01*
X126992Y-6931913D01*
X-3005081Y-9744506D02*
G01*
X-3009882Y-9749307D01*
X-3009882Y-10845672D01*
X105681Y-3997960D02*
G01*
X-25306Y-4128947D01*
X-207144Y-4128947D01*
X-275318Y-4060774D01*
X-275318Y-3924680D01*
X-650095Y-3549904D01*
X-783318Y-3549904D01*
X356786Y-10858500D02*
G01*
X464913Y-10858500D01*
X487037Y-10988751D02*
G01*
X464913Y-10966627D01*
X464913Y-10858500D01*
X487037Y-10988751D02*
G01*
X-338335Y-10988751D01*
X2038088Y-12077700D02*
G01*
X949139Y-10988751D01*
X487037Y-10988751D01*
X2434048Y-12077700D02*
G01*
X2536410Y-12077700D01*
X2415506Y-12611100D02*
G01*
X2438697Y-12611100D01*
X2858559Y-12191238D01*
X2858559Y-11970588D01*
X2851116Y-11963146D01*
X2650964Y-11963146D01*
X2536410Y-12077700D01*
X1488635Y-12585700D02*
G01*
X1650458Y-12747523D01*
X2279083Y-12747523D01*
X2415506Y-12611100D01*
X-306179Y-10350500D02*
G01*
X-306179Y-10222382D01*
X-306179Y-10222382D02*
G01*
X-315043Y-10222382D01*
X-336049Y-10201376D01*
X-2819407Y-5257800D02*
G01*
X-2706276Y-5257800D01*
X-2706276Y-5257800D02*
G01*
X-1677576Y-6286500D01*
X-1019131Y-6286500D01*
X1899531Y-5677306D02*
G01*
X492371Y-5677306D01*
X371518Y-5798159D01*
X-635007Y-7693913D02*
G01*
X-635007Y-7185913D01*
X-889007Y-6931913D01*
X-939782Y-8990431D02*
G01*
X-458350Y-8990431D01*
X-330182Y-9118600D01*
X-2031982Y-8858250D02*
G01*
X-1899800Y-8990431D01*
X-939782Y-8990431D01*
X-939782Y-8990431D02*
G01*
X-939782Y-9118600D01*
X-2299291Y-8808720D02*
G01*
X-2081512Y-8808720D01*
X-2031982Y-8858250D01*
X2140450Y-12077700D02*
G01*
X2038088Y-12077700D01*
X-338335Y-10988751D02*
G01*
X-338335Y-10858500D01*
X-1141585Y-10858500D02*
G01*
X-1011334Y-10988751D01*
X-338335Y-10988751D01*
X2140450Y-12077700D02*
G01*
X2434048Y-12077700D01*
X-783318Y-3549904D02*
G01*
X-783318Y-3489960D01*
X-1672318Y-3997960D02*
G01*
X-1302138Y-3627780D01*
X-861194Y-3627780D01*
X-783318Y-3549904D01*
X-1249713Y-10858500D02*
G01*
X-1249713Y-10730382D01*
X-1322179Y-10350500D02*
G01*
X-1322179Y-10657916D01*
X-1249713Y-10730382D01*
X-1249713Y-10858500D02*
G01*
X-1141585Y-10858500D01*
X145559Y-8371331D02*
G01*
X145559Y-8757158D01*
X38117Y-8864600D01*
X-446463Y-10858500D02*
G01*
X-338335Y-10858500D01*
X-306179Y-10350500D02*
G01*
X-306179Y-10478617D01*
X-446463Y-10858500D02*
G01*
X-446463Y-10618901D01*
X-306179Y-10478617D01*
X371518Y-5798159D02*
G01*
X253382Y-5680024D01*
X-900996Y-5680024D01*
X-1019131Y-5798159D01*
X1384317Y-12585700D02*
G01*
X1488635Y-12585700D01*
X-1924540Y-8371331D02*
G01*
X-1924540Y-8485835D01*
X-2299291Y-8808720D02*
G01*
X-1976407Y-8485835D01*
X-1924540Y-8485835D01*
X-2618722Y-8808720D02*
G01*
X-2299291Y-8808720D01*
X38117Y-8864600D02*
G01*
X-76182Y-8864600D01*
X-330182Y-9118600D01*
X1384317Y-12331700D02*
G01*
X1276342Y-12223724D01*
X1276342Y-11776481D01*
X1353278Y-11699544D01*
X-76182Y-10222382D02*
G01*
X-173134Y-10222382D01*
X-76182Y-10350500D02*
G01*
X-76182Y-10222382D01*
X-76182Y-10404322D02*
G01*
X-76182Y-10350500D01*
X-76182Y-10404322D02*
G01*
X-76182Y-10478617D01*
X36796Y-10858500D02*
G01*
X-71330Y-10858500D01*
X-71330Y-10858500D02*
G01*
X-71330Y-10483469D01*
X-76182Y-10478617D01*
X-2870182Y-6827901D02*
G01*
X-2239322Y-7458760D01*
X-1124160Y-7458760D01*
X-889007Y-7693913D01*
X-862185Y-10222382D02*
G01*
X-780092Y-10140289D01*
X71721Y-10140289D01*
X153814Y-10222382D01*
X-1569702Y-10222382D02*
G01*
X-862185Y-10222382D01*
X153814Y-10350500D02*
G01*
X153814Y-10222382D01*
X9149504Y-9537293D02*
G01*
X8464415Y-10222382D01*
X153814Y-10222382D01*
X-1569702Y-10858500D02*
G01*
X-1677830Y-10858500D01*
X-3009882Y-11099672D02*
G01*
X-1919003Y-11099672D01*
X-1677830Y-10858500D01*
X-1569702Y-10222382D02*
G01*
X-1927207Y-10222382D01*
X-2405082Y-9744506D01*
X-1569702Y-10222382D02*
G01*
X-1569702Y-10858500D01*
X-1765282Y-4697577D02*
G01*
X-1889132Y-4821428D01*
X-485782Y-4821428D02*
G01*
X-609633Y-4697577D01*
X-1765282Y-4697577D01*
X-1291318Y-3489960D02*
G01*
X-1361981Y-3489960D01*
X-1797362Y-3925341D01*
X-1797362Y-4665497D01*
X-1765282Y-4697577D01*
X-862185Y-10350500D02*
G01*
X-862185Y-10222382D01*
X5249105Y-2654300D02*
G01*
X4413445Y-3489960D01*
X-21318Y-3489960D01*
X-1418318Y-3997960D02*
G01*
X-1146538Y-4269739D01*
X-167469Y-4269739D01*
X384218Y-4821428D01*
X464050Y-8371331D02*
G01*
X361688Y-8371331D01*
X361688Y-8371331D02*
G01*
X235856Y-8245500D01*
X-355912Y-8245500D01*
X-479712Y-8369300D01*
X571517Y-8864600D02*
G01*
X464050Y-8757132D01*
X464050Y-8371331D01*
X-2412982Y-7693913D02*
G01*
X-2736197Y-7693913D01*
X-2870182Y-7827898D01*
X-967696Y-8369300D02*
G01*
X-967696Y-8280603D01*
X-381007Y-7693913D01*
X-967696Y-8369300D02*
G01*
X-1501630Y-8369300D01*
X-1503662Y-8371331D01*
X-1606049Y-8371331D02*
G01*
X-1503662Y-8371331D01*
X-1019131Y-4821428D02*
G01*
X-900996Y-4939563D01*
X-900996Y-5443804D01*
X-1144404Y-5687212D01*
X-1144404Y-5839942D01*
X-697847Y-6286500D01*
X-485782Y-6286500D01*
X1899531Y-9537293D02*
G01*
X3829524Y-7607300D01*
X9149504Y-7607300D01*
X1899531Y-7607300D02*
G01*
X3829524Y-5677306D01*
X9149504Y-5677306D01*
D11*
G01*
X2752552Y-12077697D03*
G01*
X2434051Y-12077697D03*
D12*
G01*
X-1092189Y-9715502D03*
D13*
G01*
X-1092189Y-10350502D03*
G01*
X-862192Y-10350502D03*
G01*
X-1322186Y-10350502D03*
D12*
G01*
X-76189Y-9715502D03*
D13*
G01*
X-76189Y-10350502D03*
G01*
X153807Y-10350502D03*
G01*
X-306186Y-10350502D03*
D11*
G01*
X2140450Y-12077700D03*
G01*
X1821949Y-12077700D03*
G01*
X464050Y-8371321D03*
G01*
X145549Y-8371321D03*
G01*
X-1606049Y-8371321D03*
G01*
X-1924550Y-8371321D03*
D14*
G01*
X356803Y-10858502D03*
G01*
X36789Y-10858502D03*
G01*
X-446445Y-10858502D03*
G01*
X-766460Y-10858502D03*
G01*
X-1249695Y-10858502D03*
G01*
X-1569709Y-10858502D03*
D15*
G01*
X9149496Y-9537296D03*
G01*
X9149496Y-7607302D03*
G01*
X9149496Y-5677308D03*
G01*
X1899523Y-5677308D03*
G01*
X1899523Y-7607302D03*
G01*
X1899523Y-9537296D03*
D16*
G01*
X-584189Y-9118602D03*
G01*
X-330189Y-9118602D03*
G01*
X-1193789Y-9118602D03*
G01*
X-939789Y-9118602D03*
D17*
G01*
X-3009889Y-11099675D03*
D16*
G01*
X-3009889Y-10845675D03*
G01*
X2161524Y-12611102D03*
G01*
X2415524Y-12611102D03*
D18*
G01*
X-2655102Y-10194495D03*
D19*
G01*
X-3005089Y-9744509D03*
G01*
X-2405090Y-9744509D03*
D20*
G01*
X-1545325Y-3489962D03*
G01*
X-1291325Y-3489962D03*
G01*
X-1037325Y-3489962D03*
G01*
X-783325Y-3489962D03*
G01*
X-529325Y-3489962D03*
G01*
X-275325Y-3489962D03*
G01*
X-21325Y-3489962D03*
G01*
X-1672325Y-3997962D03*
G01*
X-1418325Y-3997962D03*
G01*
X-1164325Y-3997962D03*
G01*
X-910325Y-3997962D03*
G01*
X-656325Y-3997962D03*
G01*
X-402325Y-3997962D03*
G01*
X-148325Y-3997962D03*
G01*
X105674Y-3997962D03*
D21*
G01*
X-1921245Y-2908302D03*
G01*
X364754Y-2908302D03*
D22*
G01*
X-1889140Y-4821430D03*
G01*
X-1019139Y-4821430D03*
G01*
X-485790Y-4821430D03*
G01*
X384210Y-4821430D03*
G01*
X-485790Y-5309770D03*
G01*
X384210Y-5309770D03*
G01*
X-1889140Y-5309770D03*
G01*
X-1019139Y-5309770D03*
G01*
X-1889140Y-5798162D03*
G01*
X-1019139Y-5798162D03*
G01*
X-498490Y-5798162D03*
G01*
X371510Y-5798162D03*
G01*
X-1889140Y-6286502D03*
G01*
X-1019139Y-6286502D03*
G01*
X-485790Y-6286502D03*
G01*
X384210Y-6286502D03*
D23*
G01*
X5325272Y-12611102D03*
G01*
X5825271Y-12611102D03*
G01*
X5749096Y-2654302D03*
G01*
X5249097Y-2654302D03*
D24*
G01*
X-2870189Y-6827903D03*
G01*
X-2870189Y-7827901D03*
D25*
G01*
X-1905015Y-6931916D03*
G01*
X-1651015Y-6931916D03*
G01*
X-1397015Y-6931916D03*
G01*
X-1143015Y-6931916D03*
G01*
X-889015Y-6931916D03*
G01*
X-635015Y-6931916D03*
G01*
X-381015Y-6931916D03*
G01*
X-381015Y-7693916D03*
G01*
X-2159015Y-6931916D03*
G01*
X-2413015Y-6931916D03*
G01*
X-635015Y-7693916D03*
G01*
X-889015Y-7693916D03*
G01*
X-1143015Y-7693916D03*
G01*
X-1397015Y-7693916D03*
G01*
X-1651015Y-7693916D03*
G01*
X-1905015Y-7693916D03*
G01*
X-2159015Y-7693916D03*
D26*
G01*
X-2412989Y-7693916D03*
D25*
G01*
X-127015Y-7693916D03*
G01*
X126984Y-7693916D03*
G01*
X380984Y-7693916D03*
G01*
X634984Y-7693916D03*
G01*
X888984Y-7693916D03*
G01*
X888984Y-6931916D03*
G01*
X634984Y-6931916D03*
G01*
X380984Y-6931916D03*
G01*
X126984Y-6931916D03*
G01*
X-127015Y-6931916D03*
D24*
G01*
X-967704Y-8369302D03*
G01*
X-479719Y-8369302D03*
D27*
G01*
X1384310Y-12585702D03*
D28*
G01*
X1130310Y-12585702D03*
G01*
X1384310Y-12331702D03*
G01*
X1130310Y-12331702D03*
G01*
X1384310Y-12077702D03*
G01*
X1130310Y-12077702D03*
G01*
X1384310Y-11823702D03*
G01*
X1130310Y-11823702D03*
D16*
G01*
X-2031989Y-8858252D03*
G01*
X-1498589Y-8858252D03*
G01*
X38110Y-8864602D03*
G01*
X571510Y-8864602D03*
D29*
G01*
X-2618729Y-8158482D03*
G01*
X-2618729Y-8808722D03*
G01*
X-3070849Y-8158482D03*
G01*
X-3070849Y-8808722D03*
D30*
G01*
X-2819389Y-5257802D03*
D31*
G01*
X-2819415Y-5511802D03*
G01*
X-2819415Y-5765802D03*
G01*
X-2819415Y-6019802D03*
G01*
X-2819415Y-6273802D03*
D32*
G01*
X-637148Y-10858553D03*
G01*
X-1033465Y-4159100D03*
G01*
X-504332Y-3778608D03*
G01*
X-755512Y-4195168D03*
G01*
X1009558Y-7375197D03*
G01*
X-336057Y-10201379D03*
G01*
X1353271Y-11699547D03*
G01*
X-173141Y-10222384D03*
M02*
